<svg width="168" height="138" viewBox="0 0 168 138" fill="none" xmlns="http://www.w3.org/2000/svg">
<path opacity="0.8" d="M106.73 60.4244L84.9533 73.364C83.9979 73.9307 82.8354 74.1271 81.7216 73.9101C80.6078 73.693 79.6339 73.0802 79.0142 72.2065C78.3945 71.3328 78.1797 70.2698 78.417 69.2513C78.6544 68.2328 79.3245 67.3422 80.2799 66.7755L102.041 53.8507C102.513 53.5701 103.04 53.3772 103.594 53.2832C104.147 53.1891 104.716 53.1956 105.267 53.3024C105.817 53.4092 106.34 53.6142 106.804 53.9056C107.268 54.1969 107.665 54.5691 107.972 55.0007C108.278 55.4323 108.489 55.915 108.592 56.4212C108.695 56.9274 108.688 57.4471 108.571 57.9507C108.454 58.4544 108.23 58.932 107.912 59.3564C107.593 59.7809 107.186 60.1438 106.714 60.4244H106.73Z" fill="#FF9D23"/>
<path d="M91.4442 55.8688L69.6673 68.8233C69.1951 69.1378 68.6576 69.3611 68.0878 69.4794C67.5181 69.5977 66.9279 69.6086 66.3534 69.5114C65.7789 69.4142 65.232 69.2109 64.7463 68.914C64.2605 68.6171 63.846 68.2328 63.528 67.7846C63.21 67.3363 62.9953 66.8335 62.8969 66.3069C62.7985 65.7802 62.8185 65.2407 62.9557 64.7214C63.0929 64.202 63.3444 63.7137 63.6948 63.2861C64.0452 62.8586 64.4873 62.5009 64.9939 62.2348L86.7708 49.2952C87.7241 48.7284 88.8845 48.5312 89.9968 48.7469C91.1091 48.9626 92.0821 49.5735 92.7018 50.4452C93.3216 51.3169 93.5372 52.3781 93.3014 53.3952C93.0655 54.4123 92.3975 55.3021 91.4442 55.8688Z" fill="#389BF3"/>
<path opacity="0.5" d="M105.075 75.0556L83.2982 87.9952C82.3449 88.5619 81.1845 88.7591 80.0722 88.5434C78.9599 88.3278 77.9869 87.7169 77.3671 86.8452C76.7474 85.9734 76.5317 84.9123 76.7676 83.8952C77.0034 82.878 77.6715 81.9882 78.6248 81.4215L100.418 68.4819C100.89 68.2013 101.418 68.0085 101.971 67.9144C102.525 67.8203 103.093 67.8269 103.644 67.9337C104.195 68.0404 104.717 68.2454 105.181 68.5368C105.645 68.8282 106.042 69.2003 106.349 69.6319C106.656 70.0636 106.867 70.5462 106.97 71.0524C107.072 71.5586 107.065 72.0783 106.948 72.5819C106.832 73.0856 106.608 73.5632 106.289 73.9877C105.97 74.4121 105.563 74.775 105.091 75.0556H105.075Z" fill="#AA7DFF"/>
<path d="M118.154 1.24646H42.7951V98.2787H118.154V1.24646Z" fill="white"/>
<path d="M108.84 90.874V71.1975" stroke="#ABABAB" stroke-miterlimit="10"/>
<path opacity="0.5" d="M108.84 68.3781V61.9677" stroke="#ABABAB" stroke-miterlimit="10"/>
<path opacity="0.2" d="M108.84 59.2076V54.281" stroke="#ABABAB" stroke-miterlimit="10"/>
<path d="M112.491 1.48389H46.8682C44.1795 1.48389 42 3.47698 42 5.93559V94.0644C42 96.523 44.1795 98.5161 46.8682 98.5161H112.491C115.179 98.5161 117.359 96.523 117.359 94.0644V5.93559C117.359 3.47698 115.179 1.48389 112.491 1.48389Z" stroke="#ABABAB" stroke-width="2" stroke-miterlimit="10"/>
<path d="M62.8519 16.4416H99.071" stroke="#ABABAB" stroke-width="2" stroke-miterlimit="10" stroke-linecap="round"/>
<path d="M62.8519 24.7217H74.7302" stroke="#ABABAB" stroke-width="2" stroke-miterlimit="10" stroke-linecap="round"/>
<path d="M62.8519 41.2969H74.7302" stroke="#ABABAB" stroke-width="2" stroke-miterlimit="10" stroke-linecap="round"/>
<path d="M62.8519 33.002H95.8256" stroke="#ABABAB" stroke-width="2" stroke-miterlimit="10" stroke-linecap="round"/>
<path d="M62.4138 87.283H96.5396" stroke="#ABABAB" stroke-width="2" stroke-miterlimit="10" stroke-linecap="round"/>
<path d="M123.817 12.7615C124.407 13.0796 124.923 13.5013 125.333 14.0022C125.744 14.5031 126.043 15.0734 126.212 15.6803C126.381 16.2871 126.417 16.9185 126.318 17.5381C126.219 18.1578 125.987 18.7534 125.635 19.2906L87.6471 77.5337L77.8296 84.2706L78.6897 72.711L116.645 14.4086C116.996 13.868 117.46 13.3961 118.011 13.0204C118.562 12.6446 119.189 12.3723 119.856 12.2192C120.523 12.0661 121.216 12.0352 121.896 12.1282C122.576 12.2213 123.229 12.4365 123.817 12.7615Z" fill="url(#paint0_linear)"/>
<path d="M88.1988 75.9163L78.4787 82.579L79.3387 70.9601L88.1988 75.9163Z" fill="white"/>
<path d="M123.623 12.6428C124.809 13.2934 125.665 14.3476 126.003 15.5743C126.34 16.801 126.132 18.1001 125.424 19.1868L88.2799 76.1388L77.4564 84.0629L79.3225 71.2271L116.467 14.2899C117.178 13.205 118.331 12.4224 119.672 12.1137C121.014 11.8049 122.434 11.9952 123.623 12.6428V12.6428Z" stroke="#ABABAB" stroke-width="2" stroke-miterlimit="10"/>
<path d="M0.990234 121V112.469H3.7793C4.70508 112.469 5.40039 112.66 5.86523 113.043C6.33398 113.426 6.56836 113.992 6.56836 114.742C6.56836 115.141 6.45508 115.494 6.22852 115.803C6.00195 116.107 5.69336 116.344 5.30273 116.512C5.76367 116.641 6.12695 116.887 6.39258 117.25C6.66211 117.609 6.79688 118.039 6.79688 118.539C6.79688 119.305 6.54883 119.906 6.05273 120.344C5.55664 120.781 4.85547 121 3.94922 121H0.990234ZM2.11523 117.01V120.08H3.97266C4.49609 120.08 4.9082 119.945 5.20898 119.676C5.51367 119.402 5.66602 119.027 5.66602 118.551C5.66602 117.523 5.10742 117.01 3.99023 117.01H2.11523ZM2.11523 116.107H3.81445C4.30664 116.107 4.69922 115.984 4.99219 115.738C5.28906 115.492 5.4375 115.158 5.4375 114.736C5.4375 114.268 5.30078 113.928 5.02734 113.717C4.75391 113.502 4.33789 113.395 3.7793 113.395H2.11523V116.107ZM10.9277 121.117C10.0684 121.117 9.36914 120.836 8.83008 120.273C8.29102 119.707 8.02148 118.951 8.02148 118.006V117.807C8.02148 117.178 8.14062 116.617 8.37891 116.125C8.62109 115.629 8.95703 115.242 9.38672 114.965C9.82031 114.684 10.2891 114.543 10.793 114.543C11.6172 114.543 12.2578 114.814 12.7148 115.357C13.1719 115.9 13.4004 116.678 13.4004 117.689V118.141H9.10547C9.12109 118.766 9.30273 119.271 9.65039 119.658C10.002 120.041 10.4473 120.232 10.9863 120.232C11.3691 120.232 11.6934 120.154 11.959 119.998C12.2246 119.842 12.457 119.635 12.6562 119.377L13.3184 119.893C12.7871 120.709 11.9902 121.117 10.9277 121.117ZM10.793 115.434C10.3555 115.434 9.98828 115.594 9.69141 115.914C9.39453 116.23 9.21094 116.676 9.14062 117.25H12.3164V117.168C12.2852 116.617 12.1367 116.191 11.8711 115.891C11.6055 115.586 11.2461 115.434 10.793 115.434ZM15.8379 121H14.7539V112H15.8379V121ZM21.4922 120.373C21.0703 120.869 20.4512 121.117 19.6348 121.117C18.959 121.117 18.4434 120.922 18.0879 120.531C17.7363 120.137 17.5586 119.555 17.5547 118.785V114.66H18.6387V118.756C18.6387 119.717 19.0293 120.197 19.8105 120.197C20.6387 120.197 21.1895 119.889 21.4629 119.271V114.66H22.5469V121H21.5156L21.4922 120.373ZM25.2188 114.66L25.248 115.363C25.7129 114.816 26.3398 114.543 27.1289 114.543C28.0156 114.543 28.6191 114.883 28.9395 115.562C29.1504 115.258 29.4238 115.012 29.7598 114.824C30.0996 114.637 30.5 114.543 30.9609 114.543C32.3516 114.543 33.0586 115.279 33.082 116.752V121H31.998V116.816C31.998 116.363 31.8945 116.025 31.6875 115.803C31.4805 115.576 31.1328 115.463 30.6445 115.463C30.2422 115.463 29.9082 115.584 29.6426 115.826C29.377 116.064 29.2227 116.387 29.1797 116.793V121H28.0898V116.846C28.0898 115.924 27.6387 115.463 26.7363 115.463C26.0254 115.463 25.5391 115.766 25.2773 116.371V121H24.1934V114.66H25.2188ZM41.6133 121C41.5508 120.875 41.5 120.652 41.4609 120.332C40.957 120.855 40.3555 121.117 39.6562 121.117C39.0312 121.117 38.5176 120.941 38.1152 120.59C37.7168 120.234 37.5176 119.785 37.5176 119.242C37.5176 118.582 37.7676 118.07 38.2676 117.707C38.7715 117.34 39.4785 117.156 40.3887 117.156H41.4434V116.658C41.4434 116.279 41.3301 115.979 41.1035 115.756C40.877 115.529 40.543 115.416 40.1016 115.416C39.7148 115.416 39.3906 115.514 39.1289 115.709C38.8672 115.904 38.7363 116.141 38.7363 116.418H37.6465C37.6465 116.102 37.7578 115.797 37.9805 115.504C38.207 115.207 38.5117 114.973 38.8945 114.801C39.2812 114.629 39.7051 114.543 40.166 114.543C40.8965 114.543 41.4688 114.727 41.8828 115.094C42.2969 115.457 42.5117 115.959 42.5273 116.6V119.518C42.5273 120.1 42.6016 120.562 42.75 120.906V121H41.6133ZM39.8145 120.174C40.1543 120.174 40.4766 120.086 40.7812 119.91C41.0859 119.734 41.3066 119.506 41.4434 119.225V117.924H40.5938C39.2656 117.924 38.6016 118.312 38.6016 119.09C38.6016 119.43 38.7148 119.695 38.9414 119.887C39.168 120.078 39.459 120.174 39.8145 120.174ZM43.9629 117.777C43.9629 116.805 44.1934 116.023 44.6543 115.434C45.1152 114.84 45.7188 114.543 46.4648 114.543C47.207 114.543 47.7949 114.797 48.2285 115.305V112H49.3125V121H48.3164L48.2637 120.32C47.8301 120.852 47.2266 121.117 46.4531 121.117C45.7188 121.117 45.1191 120.816 44.6543 120.215C44.1934 119.613 43.9629 118.828 43.9629 117.859V117.777ZM45.0469 117.9C45.0469 118.619 45.1953 119.182 45.4922 119.588C45.7891 119.994 46.1992 120.197 46.7227 120.197C47.4102 120.197 47.9121 119.889 48.2285 119.271V116.359C47.9043 115.762 47.4062 115.463 46.7344 115.463C46.2031 115.463 45.7891 115.668 45.4922 116.078C45.1953 116.488 45.0469 117.096 45.0469 117.9ZM54.9141 121C54.8516 120.875 54.8008 120.652 54.7617 120.332C54.2578 120.855 53.6562 121.117 52.957 121.117C52.332 121.117 51.8184 120.941 51.416 120.59C51.0176 120.234 50.8184 119.785 50.8184 119.242C50.8184 118.582 51.0684 118.07 51.5684 117.707C52.0723 117.34 52.7793 117.156 53.6895 117.156H54.7441V116.658C54.7441 116.279 54.6309 115.979 54.4043 115.756C54.1777 115.529 53.8438 115.416 53.4023 115.416C53.0156 115.416 52.6914 115.514 52.4297 115.709C52.168 115.904 52.0371 116.141 52.0371 116.418H50.9473C50.9473 116.102 51.0586 115.797 51.2812 115.504C51.5078 115.207 51.8125 114.973 52.1953 114.801C52.582 114.629 53.0059 114.543 53.4668 114.543C54.1973 114.543 54.7695 114.727 55.1836 115.094C55.5977 115.457 55.8125 115.959 55.8281 116.6V119.518C55.8281 120.1 55.9023 120.562 56.0508 120.906V121H54.9141ZM53.1152 120.174C53.4551 120.174 53.7773 120.086 54.082 119.91C54.3867 119.734 54.6074 119.506 54.7441 119.225V117.924H53.8945C52.5664 117.924 51.9023 118.312 51.9023 119.09C51.9023 119.43 52.0156 119.695 52.2422 119.887C52.4688 120.078 52.7598 120.174 53.1152 120.174ZM63.5684 115.633C63.4043 115.605 63.2266 115.592 63.0352 115.592C62.3242 115.592 61.8418 115.895 61.5879 116.5V121H60.5039V114.66H61.5586L61.5762 115.393C61.9316 114.826 62.4355 114.543 63.0879 114.543C63.2988 114.543 63.459 114.57 63.5684 114.625V115.633ZM65.748 121H64.6641V114.66H65.748V121ZM64.5762 112.979C64.5762 112.803 64.6289 112.654 64.7344 112.533C64.8438 112.412 65.0039 112.352 65.2148 112.352C65.4258 112.352 65.5859 112.412 65.6953 112.533C65.8047 112.654 65.8594 112.803 65.8594 112.979C65.8594 113.154 65.8047 113.301 65.6953 113.418C65.5859 113.535 65.4258 113.594 65.2148 113.594C65.0039 113.594 64.8438 113.535 64.7344 113.418C64.6289 113.301 64.5762 113.154 64.5762 112.979ZM73.1016 119.506L74.3203 114.66H75.4043L73.5586 121H72.6797L71.1387 116.195L69.6387 121H68.7598L66.9199 114.66H67.998L69.2461 119.406L70.7227 114.66H71.5957L73.1016 119.506ZM80.4258 121C80.3633 120.875 80.3125 120.652 80.2734 120.332C79.7695 120.855 79.168 121.117 78.4688 121.117C77.8438 121.117 77.3301 120.941 76.9277 120.59C76.5293 120.234 76.3301 119.785 76.3301 119.242C76.3301 118.582 76.5801 118.07 77.0801 117.707C77.584 117.34 78.291 117.156 79.2012 117.156H80.2559V116.658C80.2559 116.279 80.1426 115.979 79.916 115.756C79.6895 115.529 79.3555 115.416 78.9141 115.416C78.5273 115.416 78.2031 115.514 77.9414 115.709C77.6797 115.904 77.5488 116.141 77.5488 116.418H76.459C76.459 116.102 76.5703 115.797 76.793 115.504C77.0195 115.207 77.3242 114.973 77.707 114.801C78.0938 114.629 78.5176 114.543 78.9785 114.543C79.709 114.543 80.2812 114.727 80.6953 115.094C81.1094 115.457 81.3242 115.959 81.3398 116.6V119.518C81.3398 120.1 81.4141 120.562 81.5625 120.906V121H80.4258ZM78.627 120.174C78.9668 120.174 79.2891 120.086 79.5938 119.91C79.8984 119.734 80.1191 119.506 80.2559 119.225V117.924H79.4062C78.0781 117.924 77.4141 118.312 77.4141 119.09C77.4141 119.43 77.5273 119.695 77.7539 119.887C77.9805 120.078 78.2715 120.174 78.627 120.174ZM85.0195 119.412L86.4961 114.66H87.6562L85.1074 121.979C84.7129 123.033 84.0859 123.561 83.2266 123.561L83.0215 123.543L82.6172 123.467V122.588L82.9102 122.611C83.2773 122.611 83.5625 122.537 83.7656 122.389C83.9727 122.24 84.1426 121.969 84.2754 121.574L84.5156 120.93L82.2539 114.66H83.4375L85.0195 119.412ZM92.4492 121C92.3867 120.875 92.3359 120.652 92.2969 120.332C91.793 120.855 91.1914 121.117 90.4922 121.117C89.8672 121.117 89.3535 120.941 88.9512 120.59C88.5527 120.234 88.3535 119.785 88.3535 119.242C88.3535 118.582 88.6035 118.07 89.1035 117.707C89.6074 117.34 90.3145 117.156 91.2246 117.156H92.2793V116.658C92.2793 116.279 92.166 115.979 91.9395 115.756C91.7129 115.529 91.3789 115.416 90.9375 115.416C90.5508 115.416 90.2266 115.514 89.9648 115.709C89.7031 115.904 89.5723 116.141 89.5723 116.418H88.4824C88.4824 116.102 88.5938 115.797 88.8164 115.504C89.043 115.207 89.3477 114.973 89.7305 114.801C90.1172 114.629 90.541 114.543 91.002 114.543C91.7324 114.543 92.3047 114.727 92.7188 115.094C93.1328 115.457 93.3477 115.959 93.3633 116.6V119.518C93.3633 120.1 93.4375 120.562 93.5859 120.906V121H92.4492ZM90.6504 120.174C90.9902 120.174 91.3125 120.086 91.6172 119.91C91.9219 119.734 92.1426 119.506 92.2793 119.225V117.924H91.4297C90.1016 117.924 89.4375 118.312 89.4375 119.09C89.4375 119.43 89.5508 119.695 89.7773 119.887C90.0039 120.078 90.2949 120.174 90.6504 120.174ZM96.5332 113.125V114.66H97.7168V115.498H96.5332V119.43C96.5332 119.684 96.5859 119.875 96.6914 120.004C96.7969 120.129 96.9766 120.191 97.2305 120.191C97.3555 120.191 97.5273 120.168 97.7461 120.121V121C97.4609 121.078 97.1836 121.117 96.9141 121.117C96.4297 121.117 96.0645 120.971 95.8184 120.678C95.5723 120.385 95.4492 119.969 95.4492 119.43V115.498H94.2949V114.66H95.4492V113.125H96.5332ZM105.656 119.318C105.656 119.025 105.545 118.799 105.322 118.639C105.104 118.475 104.719 118.334 104.168 118.217C103.621 118.1 103.186 117.959 102.861 117.795C102.541 117.631 102.303 117.436 102.146 117.209C101.994 116.982 101.918 116.713 101.918 116.4C101.918 115.881 102.137 115.441 102.574 115.082C103.016 114.723 103.578 114.543 104.262 114.543C104.98 114.543 105.562 114.729 106.008 115.1C106.457 115.471 106.682 115.945 106.682 116.523H105.592C105.592 116.227 105.465 115.971 105.211 115.756C104.961 115.541 104.645 115.434 104.262 115.434C103.867 115.434 103.559 115.52 103.336 115.691C103.113 115.863 103.002 116.088 103.002 116.365C103.002 116.627 103.105 116.824 103.312 116.957C103.52 117.09 103.893 117.217 104.432 117.338C104.975 117.459 105.414 117.604 105.75 117.771C106.086 117.939 106.334 118.143 106.494 118.381C106.658 118.615 106.74 118.902 106.74 119.242C106.74 119.809 106.514 120.264 106.061 120.607C105.607 120.947 105.02 121.117 104.297 121.117C103.789 121.117 103.34 121.027 102.949 120.848C102.559 120.668 102.252 120.418 102.029 120.098C101.811 119.773 101.701 119.424 101.701 119.049H102.785C102.805 119.412 102.949 119.701 103.219 119.916C103.492 120.127 103.852 120.232 104.297 120.232C104.707 120.232 105.035 120.15 105.281 119.986C105.531 119.818 105.656 119.596 105.656 119.318ZM109.33 121H108.246V114.66H109.33V121ZM108.158 112.979C108.158 112.803 108.211 112.654 108.316 112.533C108.426 112.412 108.586 112.352 108.797 112.352C109.008 112.352 109.168 112.412 109.277 112.533C109.387 112.654 109.441 112.803 109.441 112.979C109.441 113.154 109.387 113.301 109.277 113.418C109.168 113.535 109.008 113.594 108.797 113.594C108.586 113.594 108.426 113.535 108.316 113.418C108.211 113.301 108.158 113.154 108.158 112.979ZM112.09 114.66L112.119 115.363C112.584 114.816 113.211 114.543 114 114.543C114.887 114.543 115.49 114.883 115.811 115.562C116.021 115.258 116.295 115.012 116.631 114.824C116.971 114.637 117.371 114.543 117.832 114.543C119.223 114.543 119.93 115.279 119.953 116.752V121H118.869V116.816C118.869 116.363 118.766 116.025 118.559 115.803C118.352 115.576 118.004 115.463 117.516 115.463C117.113 115.463 116.779 115.584 116.514 115.826C116.248 116.064 116.094 116.387 116.051 116.793V121H114.961V116.846C114.961 115.924 114.51 115.463 113.607 115.463C112.896 115.463 112.41 115.766 112.148 116.371V121H111.064V114.66H112.09ZM125.508 120.373C125.086 120.869 124.467 121.117 123.65 121.117C122.975 121.117 122.459 120.922 122.104 120.531C121.752 120.137 121.574 119.555 121.57 118.785V114.66H122.654V118.756C122.654 119.717 123.045 120.197 123.826 120.197C124.654 120.197 125.205 119.889 125.479 119.271V114.66H126.562V121H125.531L125.508 120.373ZM129.393 121H128.309V112H129.393V121ZM135.047 121C134.984 120.875 134.934 120.652 134.895 120.332C134.391 120.855 133.789 121.117 133.09 121.117C132.465 121.117 131.951 120.941 131.549 120.59C131.15 120.234 130.951 119.785 130.951 119.242C130.951 118.582 131.201 118.07 131.701 117.707C132.205 117.34 132.912 117.156 133.822 117.156H134.877V116.658C134.877 116.279 134.764 115.979 134.537 115.756C134.311 115.529 133.977 115.416 133.535 115.416C133.148 115.416 132.824 115.514 132.562 115.709C132.301 115.904 132.17 116.141 132.17 116.418H131.08C131.08 116.102 131.191 115.797 131.414 115.504C131.641 115.207 131.945 114.973 132.328 114.801C132.715 114.629 133.139 114.543 133.6 114.543C134.33 114.543 134.902 114.727 135.316 115.094C135.73 115.457 135.945 115.959 135.961 116.6V119.518C135.961 120.1 136.035 120.562 136.184 120.906V121H135.047ZM133.248 120.174C133.588 120.174 133.91 120.086 134.215 119.91C134.52 119.734 134.74 119.506 134.877 119.225V117.924H134.027C132.699 117.924 132.035 118.312 132.035 119.09C132.035 119.43 132.148 119.695 132.375 119.887C132.602 120.078 132.893 120.174 133.248 120.174ZM141.352 119.318C141.352 119.025 141.24 118.799 141.018 118.639C140.799 118.475 140.414 118.334 139.863 118.217C139.316 118.1 138.881 117.959 138.557 117.795C138.236 117.631 137.998 117.436 137.842 117.209C137.689 116.982 137.613 116.713 137.613 116.4C137.613 115.881 137.832 115.441 138.27 115.082C138.711 114.723 139.273 114.543 139.957 114.543C140.676 114.543 141.258 114.729 141.703 115.1C142.152 115.471 142.377 115.945 142.377 116.523H141.287C141.287 116.227 141.16 115.971 140.906 115.756C140.656 115.541 140.34 115.434 139.957 115.434C139.562 115.434 139.254 115.52 139.031 115.691C138.809 115.863 138.697 116.088 138.697 116.365C138.697 116.627 138.801 116.824 139.008 116.957C139.215 117.09 139.588 117.217 140.127 117.338C140.67 117.459 141.109 117.604 141.445 117.771C141.781 117.939 142.029 118.143 142.189 118.381C142.354 118.615 142.436 118.902 142.436 119.242C142.436 119.809 142.209 120.264 141.756 120.607C141.303 120.947 140.715 121.117 139.992 121.117C139.484 121.117 139.035 121.027 138.645 120.848C138.254 120.668 137.947 120.418 137.725 120.098C137.506 119.773 137.396 119.424 137.396 119.049H138.48C138.5 119.412 138.645 119.701 138.914 119.916C139.188 120.127 139.547 120.232 139.992 120.232C140.402 120.232 140.73 120.15 140.977 119.986C141.227 119.818 141.352 119.596 141.352 119.318ZM145.025 121H143.941V114.66H145.025V121ZM143.854 112.979C143.854 112.803 143.906 112.654 144.012 112.533C144.121 112.412 144.281 112.352 144.492 112.352C144.703 112.352 144.863 112.412 144.973 112.533C145.082 112.654 145.137 112.803 145.137 112.979C145.137 113.154 145.082 113.301 144.973 113.418C144.863 113.535 144.703 113.594 144.492 113.594C144.281 113.594 144.121 113.535 144.012 113.418C143.906 113.301 143.854 113.154 143.854 112.979ZM146.73 122.699L146.115 122.277C146.482 121.766 146.674 121.238 146.689 120.695V119.717H147.75V120.566C147.75 120.961 147.652 121.355 147.457 121.75C147.266 122.145 147.023 122.461 146.73 122.699ZM4.51172 133.318C4.51172 133.025 4.40039 132.799 4.17773 132.639C3.95898 132.475 3.57422 132.334 3.02344 132.217C2.47656 132.1 2.04102 131.959 1.7168 131.795C1.39648 131.631 1.1582 131.436 1.00195 131.209C0.849609 130.982 0.773438 130.713 0.773438 130.4C0.773438 129.881 0.992188 129.441 1.42969 129.082C1.87109 128.723 2.43359 128.543 3.11719 128.543C3.83594 128.543 4.41797 128.729 4.86328 129.1C5.3125 129.471 5.53711 129.945 5.53711 130.523H4.44727C4.44727 130.227 4.32031 129.971 4.06641 129.756C3.81641 129.541 3.5 129.434 3.11719 129.434C2.72266 129.434 2.41406 129.52 2.19141 129.691C1.96875 129.863 1.85742 130.088 1.85742 130.365C1.85742 130.627 1.96094 130.824 2.16797 130.957C2.375 131.09 2.74805 131.217 3.28711 131.338C3.83008 131.459 4.26953 131.604 4.60547 131.771C4.94141 131.939 5.18945 132.143 5.34961 132.381C5.51367 132.615 5.5957 132.902 5.5957 133.242C5.5957 133.809 5.36914 134.264 4.91602 134.607C4.46289 134.947 3.875 135.117 3.15234 135.117C2.64453 135.117 2.19531 135.027 1.80469 134.848C1.41406 134.668 1.10742 134.418 0.884766 134.098C0.666016 133.773 0.556641 133.424 0.556641 133.049H1.64062C1.66016 133.412 1.80469 133.701 2.07422 133.916C2.34766 134.127 2.70703 134.232 3.15234 134.232C3.5625 134.232 3.89062 134.15 4.13672 133.986C4.38672 133.818 4.51172 133.596 4.51172 133.318ZM8.18555 135H7.10156V128.66H8.18555V135ZM7.01367 126.979C7.01367 126.803 7.06641 126.654 7.17188 126.533C7.28125 126.412 7.44141 126.352 7.65234 126.352C7.86328 126.352 8.02344 126.412 8.13281 126.533C8.24219 126.654 8.29688 126.803 8.29688 126.979C8.29688 127.154 8.24219 127.301 8.13281 127.418C8.02344 127.535 7.86328 127.594 7.65234 127.594C7.44141 127.594 7.28125 127.535 7.17188 127.418C7.06641 127.301 7.01367 127.154 7.01367 126.979ZM11.1035 135H10.0195V126H11.1035V135ZM16.7578 135C16.6953 134.875 16.6445 134.652 16.6055 134.332C16.1016 134.855 15.5 135.117 14.8008 135.117C14.1758 135.117 13.6621 134.941 13.2598 134.59C12.8613 134.234 12.6621 133.785 12.6621 133.242C12.6621 132.582 12.9121 132.07 13.4121 131.707C13.916 131.34 14.623 131.156 15.5332 131.156H16.5879V130.658C16.5879 130.279 16.4746 129.979 16.248 129.756C16.0215 129.529 15.6875 129.416 15.2461 129.416C14.8594 129.416 14.5352 129.514 14.2734 129.709C14.0117 129.904 13.8809 130.141 13.8809 130.418H12.791C12.791 130.102 12.9023 129.797 13.125 129.504C13.3516 129.207 13.6562 128.973 14.0391 128.801C14.4258 128.629 14.8496 128.543 15.3105 128.543C16.041 128.543 16.6133 128.727 17.0273 129.094C17.4414 129.457 17.6562 129.959 17.6719 130.6V133.518C17.6719 134.1 17.7461 134.562 17.8945 134.906V135H16.7578ZM14.959 134.174C15.2988 134.174 15.6211 134.086 15.9258 133.91C16.2305 133.734 16.4512 133.506 16.5879 133.225V131.924H15.7383C14.4102 131.924 13.7461 132.312 13.7461 133.09C13.7461 133.43 13.8594 133.695 14.0859 133.887C14.3125 134.078 14.6035 134.174 14.959 134.174ZM21.1406 132.064L20.4609 132.773V135H19.377V126H20.4609V131.443L21.041 130.746L23.0156 128.66H24.334L21.8672 131.309L24.6211 135H23.3496L21.1406 132.064ZM29.3672 135C29.3047 134.875 29.2539 134.652 29.2148 134.332C28.7109 134.855 28.1094 135.117 27.4102 135.117C26.7852 135.117 26.2715 134.941 25.8691 134.59C25.4707 134.234 25.2715 133.785 25.2715 133.242C25.2715 132.582 25.5215 132.07 26.0215 131.707C26.5254 131.34 27.2324 131.156 28.1426 131.156H29.1973V130.658C29.1973 130.279 29.084 129.979 28.8574 129.756C28.6309 129.529 28.2969 129.416 27.8555 129.416C27.4688 129.416 27.1445 129.514 26.8828 129.709C26.6211 129.904 26.4902 130.141 26.4902 130.418H25.4004C25.4004 130.102 25.5117 129.797 25.7344 129.504C25.9609 129.207 26.2656 128.973 26.6484 128.801C27.0352 128.629 27.459 128.543 27.9199 128.543C28.6504 128.543 29.2227 128.727 29.6367 129.094C30.0508 129.457 30.2656 129.959 30.2812 130.6V133.518C30.2812 134.1 30.3555 134.562 30.5039 134.906V135H29.3672ZM27.5684 134.174C27.9082 134.174 28.2305 134.086 28.5352 133.91C28.8398 133.734 29.0605 133.506 29.1973 133.225V131.924H28.3477C27.0195 131.924 26.3555 132.312 26.3555 133.09C26.3555 133.43 26.4688 133.695 26.6953 133.887C26.9219 134.078 27.2129 134.174 27.5684 134.174ZM33.0059 128.66L33.041 129.457C33.5254 128.848 34.1582 128.543 34.9395 128.543C36.2793 128.543 36.9551 129.299 36.9668 130.811V135H35.8828V130.805C35.8789 130.348 35.7734 130.01 35.5664 129.791C35.3633 129.572 35.0449 129.463 34.6113 129.463C34.2598 129.463 33.9512 129.557 33.6855 129.744C33.4199 129.932 33.2129 130.178 33.0645 130.482V135H31.9805V128.66H33.0059ZM42.5977 128.66L42.627 129.363C43.0918 128.816 43.7188 128.543 44.5078 128.543C45.3945 128.543 45.998 128.883 46.3184 129.562C46.5293 129.258 46.8027 129.012 47.1387 128.824C47.4785 128.637 47.8789 128.543 48.3398 128.543C49.7305 128.543 50.4375 129.279 50.4609 130.752V135H49.377V130.816C49.377 130.363 49.2734 130.025 49.0664 129.803C48.8594 129.576 48.5117 129.463 48.0234 129.463C47.6211 129.463 47.2871 129.584 47.0215 129.826C46.7559 130.064 46.6016 130.387 46.5586 130.793V135H45.4688V130.846C45.4688 129.924 45.0176 129.463 44.1152 129.463C43.4043 129.463 42.918 129.766 42.6562 130.371V135H41.5723V128.66H42.5977ZM54.7324 135.117C53.873 135.117 53.1738 134.836 52.6348 134.273C52.0957 133.707 51.8262 132.951 51.8262 132.006V131.807C51.8262 131.178 51.9453 130.617 52.1836 130.125C52.4258 129.629 52.7617 129.242 53.1914 128.965C53.625 128.684 54.0938 128.543 54.5977 128.543C55.4219 128.543 56.0625 128.814 56.5195 129.357C56.9766 129.9 57.2051 130.678 57.2051 131.689V132.141H52.9102C52.9258 132.766 53.1074 133.271 53.4551 133.658C53.8066 134.041 54.252 134.232 54.791 134.232C55.1738 134.232 55.498 134.154 55.7637 133.998C56.0293 133.842 56.2617 133.635 56.4609 133.377L57.123 133.893C56.5918 134.709 55.7949 135.117 54.7324 135.117ZM54.5977 129.434C54.1602 129.434 53.793 129.594 53.4961 129.914C53.1992 130.23 53.0156 130.676 52.9453 131.25H56.1211V131.168C56.0898 130.617 55.9414 130.191 55.6758 129.891C55.4102 129.586 55.0508 129.434 54.5977 129.434ZM59.4844 128.66L59.5137 129.363C59.9785 128.816 60.6055 128.543 61.3945 128.543C62.2812 128.543 62.8848 128.883 63.2051 129.562C63.416 129.258 63.6895 129.012 64.0254 128.824C64.3652 128.637 64.7656 128.543 65.2266 128.543C66.6172 128.543 67.3242 129.279 67.3477 130.752V135H66.2637V130.816C66.2637 130.363 66.1602 130.025 65.9531 129.803C65.7461 129.576 65.3984 129.463 64.9102 129.463C64.5078 129.463 64.1738 129.584 63.9082 129.826C63.6426 130.064 63.4883 130.387 63.4453 130.793V135H62.3555V130.846C62.3555 129.924 61.9043 129.463 61.002 129.463C60.291 129.463 59.8047 129.766 59.543 130.371V135H58.459V128.66H59.4844ZM74.3555 131.9C74.3555 132.869 74.1328 133.648 73.6875 134.238C73.2422 134.824 72.6445 135.117 71.8945 135.117C71.0938 135.117 70.4746 134.834 70.0371 134.268L69.9844 135H68.9883V126H70.0723V129.357C70.5098 128.814 71.1133 128.543 71.8828 128.543C72.6523 128.543 73.2559 128.834 73.6934 129.416C74.1348 129.998 74.3555 130.795 74.3555 131.807V131.9ZM73.2715 131.777C73.2715 131.039 73.1289 130.469 72.8438 130.066C72.5586 129.664 72.1484 129.463 71.6133 129.463C70.8984 129.463 70.3848 129.795 70.0723 130.459V133.201C70.4043 133.865 70.9219 134.197 71.625 134.197C72.1445 134.197 72.5488 133.996 72.8379 133.594C73.127 133.191 73.2715 132.586 73.2715 131.777ZM79.6406 134.373C79.2188 134.869 78.5996 135.117 77.7832 135.117C77.1074 135.117 76.5918 134.922 76.2363 134.531C75.8848 134.137 75.707 133.555 75.7031 132.785V128.66H76.7871V132.756C76.7871 133.717 77.1777 134.197 77.959 134.197C78.7871 134.197 79.3379 133.889 79.6113 133.271V128.66H80.6953V135H79.6641L79.6406 134.373ZM86.2617 135C86.1992 134.875 86.1484 134.652 86.1094 134.332C85.6055 134.855 85.0039 135.117 84.3047 135.117C83.6797 135.117 83.166 134.941 82.7637 134.59C82.3652 134.234 82.166 133.785 82.166 133.242C82.166 132.582 82.416 132.07 82.916 131.707C83.4199 131.34 84.127 131.156 85.0371 131.156H86.0918V130.658C86.0918 130.279 85.9785 129.979 85.752 129.756C85.5254 129.529 85.1914 129.416 84.75 129.416C84.3633 129.416 84.0391 129.514 83.7773 129.709C83.5156 129.904 83.3848 130.141 83.3848 130.418H82.2949C82.2949 130.102 82.4062 129.797 82.6289 129.504C82.8555 129.207 83.1602 128.973 83.543 128.801C83.9297 128.629 84.3535 128.543 84.8145 128.543C85.5449 128.543 86.1172 128.727 86.5312 129.094C86.9453 129.457 87.1602 129.959 87.1758 130.6V133.518C87.1758 134.1 87.25 134.562 87.3984 134.906V135H86.2617ZM84.4629 134.174C84.8027 134.174 85.125 134.086 85.4297 133.91C85.7344 133.734 85.9551 133.506 86.0918 133.225V131.924H85.2422C83.9141 131.924 83.25 132.312 83.25 133.09C83.25 133.43 83.3633 133.695 83.5898 133.887C83.8164 134.078 84.1074 134.174 84.4629 134.174ZM90.3457 127.125V128.66H91.5293V129.498H90.3457V133.43C90.3457 133.684 90.3984 133.875 90.5039 134.004C90.6094 134.129 90.7891 134.191 91.043 134.191C91.168 134.191 91.3398 134.168 91.5586 134.121V135C91.2734 135.078 90.9961 135.117 90.7266 135.117C90.2422 135.117 89.877 134.971 89.6309 134.678C89.3848 134.385 89.2617 133.969 89.2617 133.43V129.498H88.1074V128.66H89.2617V127.125H90.3457ZM99.4688 133.318C99.4688 133.025 99.3574 132.799 99.1348 132.639C98.916 132.475 98.5312 132.334 97.9805 132.217C97.4336 132.1 96.998 131.959 96.6738 131.795C96.3535 131.631 96.1152 131.436 95.959 131.209C95.8066 130.982 95.7305 130.713 95.7305 130.4C95.7305 129.881 95.9492 129.441 96.3867 129.082C96.8281 128.723 97.3906 128.543 98.0742 128.543C98.793 128.543 99.375 128.729 99.8203 129.1C100.27 129.471 100.494 129.945 100.494 130.523H99.4043C99.4043 130.227 99.2773 129.971 99.0234 129.756C98.7734 129.541 98.457 129.434 98.0742 129.434C97.6797 129.434 97.3711 129.52 97.1484 129.691C96.9258 129.863 96.8145 130.088 96.8145 130.365C96.8145 130.627 96.918 130.824 97.125 130.957C97.332 131.09 97.7051 131.217 98.2441 131.338C98.7871 131.459 99.2266 131.604 99.5625 131.771C99.8984 131.939 100.146 132.143 100.307 132.381C100.471 132.615 100.553 132.902 100.553 133.242C100.553 133.809 100.326 134.264 99.873 134.607C99.4199 134.947 98.832 135.117 98.1094 135.117C97.6016 135.117 97.1523 135.027 96.7617 134.848C96.3711 134.668 96.0645 134.418 95.8418 134.098C95.623 133.773 95.5137 133.424 95.5137 133.049H96.5977C96.6172 133.412 96.7617 133.701 97.0312 133.916C97.3047 134.127 97.6641 134.232 98.1094 134.232C98.5195 134.232 98.8477 134.15 99.0938 133.986C99.3438 133.818 99.4688 133.596 99.4688 133.318ZM103.143 135H102.059V128.66H103.143V135ZM101.971 126.979C101.971 126.803 102.023 126.654 102.129 126.533C102.238 126.412 102.398 126.352 102.609 126.352C102.82 126.352 102.98 126.412 103.09 126.533C103.199 126.654 103.254 126.803 103.254 126.979C103.254 127.154 103.199 127.301 103.09 127.418C102.98 127.535 102.82 127.594 102.609 127.594C102.398 127.594 102.238 127.535 102.129 127.418C102.023 127.301 101.971 127.154 101.971 126.979ZM105.902 128.66L105.932 129.363C106.396 128.816 107.023 128.543 107.812 128.543C108.699 128.543 109.303 128.883 109.623 129.562C109.834 129.258 110.107 129.012 110.443 128.824C110.783 128.637 111.184 128.543 111.645 128.543C113.035 128.543 113.742 129.279 113.766 130.752V135H112.682V130.816C112.682 130.363 112.578 130.025 112.371 129.803C112.164 129.576 111.816 129.463 111.328 129.463C110.926 129.463 110.592 129.584 110.326 129.826C110.061 130.064 109.906 130.387 109.863 130.793V135H108.773V130.846C108.773 129.924 108.322 129.463 107.42 129.463C106.709 129.463 106.223 129.766 105.961 130.371V135H104.877V128.66H105.902ZM119.32 134.373C118.898 134.869 118.279 135.117 117.463 135.117C116.787 135.117 116.271 134.922 115.916 134.531C115.564 134.137 115.387 133.555 115.383 132.785V128.66H116.467V132.756C116.467 133.717 116.857 134.197 117.639 134.197C118.467 134.197 119.018 133.889 119.291 133.271V128.66H120.375V135H119.344L119.32 134.373ZM123.205 135H122.121V126H123.205V135ZM128.859 135C128.797 134.875 128.746 134.652 128.707 134.332C128.203 134.855 127.602 135.117 126.902 135.117C126.277 135.117 125.764 134.941 125.361 134.59C124.963 134.234 124.764 133.785 124.764 133.242C124.764 132.582 125.014 132.07 125.514 131.707C126.018 131.34 126.725 131.156 127.635 131.156H128.689V130.658C128.689 130.279 128.576 129.979 128.35 129.756C128.123 129.529 127.789 129.416 127.348 129.416C126.961 129.416 126.637 129.514 126.375 129.709C126.113 129.904 125.982 130.141 125.982 130.418H124.893C124.893 130.102 125.004 129.797 125.227 129.504C125.453 129.207 125.758 128.973 126.141 128.801C126.527 128.629 126.951 128.543 127.412 128.543C128.143 128.543 128.715 128.727 129.129 129.094C129.543 129.457 129.758 129.959 129.773 130.6V133.518C129.773 134.1 129.848 134.562 129.996 134.906V135H128.859ZM127.061 134.174C127.4 134.174 127.723 134.086 128.027 133.91C128.332 133.734 128.553 133.506 128.689 133.225V131.924H127.84C126.512 131.924 125.848 132.312 125.848 133.09C125.848 133.43 125.961 133.695 126.188 133.887C126.414 134.078 126.705 134.174 127.061 134.174ZM135.164 133.318C135.164 133.025 135.053 132.799 134.83 132.639C134.611 132.475 134.227 132.334 133.676 132.217C133.129 132.1 132.693 131.959 132.369 131.795C132.049 131.631 131.811 131.436 131.654 131.209C131.502 130.982 131.426 130.713 131.426 130.4C131.426 129.881 131.645 129.441 132.082 129.082C132.523 128.723 133.086 128.543 133.77 128.543C134.488 128.543 135.07 128.729 135.516 129.1C135.965 129.471 136.189 129.945 136.189 130.523H135.1C135.1 130.227 134.973 129.971 134.719 129.756C134.469 129.541 134.152 129.434 133.77 129.434C133.375 129.434 133.066 129.52 132.844 129.691C132.621 129.863 132.51 130.088 132.51 130.365C132.51 130.627 132.613 130.824 132.82 130.957C133.027 131.09 133.4 131.217 133.939 131.338C134.482 131.459 134.922 131.604 135.258 131.771C135.594 131.939 135.842 132.143 136.002 132.381C136.166 132.615 136.248 132.902 136.248 133.242C136.248 133.809 136.021 134.264 135.568 134.607C135.115 134.947 134.527 135.117 133.805 135.117C133.297 135.117 132.848 135.027 132.457 134.848C132.066 134.668 131.76 134.418 131.537 134.098C131.318 133.773 131.209 133.424 131.209 133.049H132.293C132.312 133.412 132.457 133.701 132.727 133.916C133 134.127 133.359 134.232 133.805 134.232C134.215 134.232 134.543 134.15 134.789 133.986C135.039 133.818 135.164 133.596 135.164 133.318ZM138.838 135H137.754V128.66H138.838V135ZM137.666 126.979C137.666 126.803 137.719 126.654 137.824 126.533C137.934 126.412 138.094 126.352 138.305 126.352C138.516 126.352 138.676 126.412 138.785 126.533C138.895 126.654 138.949 126.803 138.949 126.979C138.949 127.154 138.895 127.301 138.785 127.418C138.676 127.535 138.516 127.594 138.305 127.594C138.094 127.594 137.934 127.535 137.824 127.418C137.719 127.301 137.666 127.154 137.666 126.979ZM148.922 131.9C148.922 132.869 148.699 133.648 148.254 134.238C147.809 134.824 147.211 135.117 146.461 135.117C145.66 135.117 145.041 134.834 144.604 134.268L144.551 135H143.555V126H144.639V129.357C145.076 128.814 145.68 128.543 146.449 128.543C147.219 128.543 147.822 128.834 148.26 129.416C148.701 129.998 148.922 130.795 148.922 131.807V131.9ZM147.838 131.777C147.838 131.039 147.695 130.469 147.41 130.066C147.125 129.664 146.715 129.463 146.18 129.463C145.465 129.463 144.951 129.795 144.639 130.459V133.201C144.971 133.865 145.488 134.197 146.191 134.197C146.711 134.197 147.115 133.996 147.404 133.594C147.693 133.191 147.838 132.586 147.838 131.777ZM154.207 135C154.145 134.875 154.094 134.652 154.055 134.332C153.551 134.855 152.949 135.117 152.25 135.117C151.625 135.117 151.111 134.941 150.709 134.59C150.311 134.234 150.111 133.785 150.111 133.242C150.111 132.582 150.361 132.07 150.861 131.707C151.365 131.34 152.072 131.156 152.982 131.156H154.037V130.658C154.037 130.279 153.924 129.979 153.697 129.756C153.471 129.529 153.137 129.416 152.695 129.416C152.309 129.416 151.984 129.514 151.723 129.709C151.461 129.904 151.33 130.141 151.33 130.418H150.24C150.24 130.102 150.352 129.797 150.574 129.504C150.801 129.207 151.105 128.973 151.488 128.801C151.875 128.629 152.299 128.543 152.76 128.543C153.49 128.543 154.062 128.727 154.477 129.094C154.891 129.457 155.105 129.959 155.121 130.6V133.518C155.121 134.1 155.195 134.562 155.344 134.906V135H154.207ZM152.408 134.174C152.748 134.174 153.07 134.086 153.375 133.91C153.68 133.734 153.9 133.506 154.037 133.225V131.924H153.188C151.859 131.924 151.195 132.312 151.195 133.09C151.195 133.43 151.309 133.695 151.535 133.887C151.762 134.078 152.053 134.174 152.408 134.174ZM159.885 129.633C159.721 129.605 159.543 129.592 159.352 129.592C158.641 129.592 158.158 129.895 157.904 130.5V135H156.82V128.66H157.875L157.893 129.393C158.248 128.826 158.752 128.543 159.404 128.543C159.615 128.543 159.775 128.57 159.885 128.625V129.633ZM164.801 134.373C164.379 134.869 163.76 135.117 162.943 135.117C162.268 135.117 161.752 134.922 161.396 134.531C161.045 134.137 160.867 133.555 160.863 132.785V128.66H161.947V132.756C161.947 133.717 162.338 134.197 163.119 134.197C163.947 134.197 164.498 133.889 164.771 133.271V128.66H165.855V135H164.824L164.801 134.373Z" fill="#ABABAB"/>
<defs>
<linearGradient id="paint0_linear" x1="105.075" y1="50.8219" x2="96.5514" y2="45.2633" gradientUnits="userSpaceOnUse">
<stop offset="0.04" stop-color="#C82247"/>
<stop offset="1" stop-color="#EC697D"/>
</linearGradient>
</defs>
</svg>
