<svg width="320" height="385" viewBox="0 0 320 385" fill="none" xmlns="http://www.w3.org/2000/svg">
<circle cx="160" cy="163" r="160" fill="#C82247"/>
<ellipse cx="203" cy="118.5" rx="115" ry="118.5" fill="white" fill-opacity="0.08"/>
<path d="M268.618 302C283.285 302 295.175 299.549 295.175 296.526C295.175 293.502 283.285 291.051 268.618 291.051C253.952 291.051 242.062 293.502 242.062 296.526C242.062 299.549 253.952 302 268.618 302Z" fill="#DF4A6C"/>
<path d="M268.271 156.563V163.724L272.446 173.063L279.057 162.478V154.384L268.271 156.563Z" fill="#FFB8B8"/>
<path d="M249.655 212.135L248.611 218.985C248.611 218.985 246.176 226.457 249.655 226.457C253.135 226.457 253.135 218.362 253.135 218.362L253.831 213.692L249.655 212.135Z" fill="#FFB8B8"/>
<path d="M291.756 211.201L290.712 218.051C290.712 218.051 288.277 225.523 291.756 225.523C295.235 225.523 295.235 217.428 295.235 217.428L295.931 212.758L291.756 211.201Z" fill="#FFB8B8"/>
<path d="M259.571 204.196L257.934 204.601C257.934 204.601 253.656 229.414 253.308 242.49C252.961 255.566 252.265 288.567 252.265 288.567H263.399L270.705 232.528L274.185 288.567H286.015C286.015 288.567 290.886 215.093 287.754 209.178C284.623 203.262 259.571 204.196 259.571 204.196Z" fill="#2F2E41"/>
<path d="M252.961 287.944L249.829 292.303C249.829 292.303 241.131 298.841 248.785 298.53C256.44 298.218 259.571 295.105 259.571 295.105V296.039L263.747 294.794L263.051 287.944H252.961Z" fill="#2F2E41"/>
<path d="M284.971 287.944L288.103 292.303C288.103 292.303 296.801 298.841 289.146 298.53C281.492 298.218 278.36 295.105 278.36 295.105V296.039L274.185 294.794L274.881 287.944H284.971Z" fill="#2F2E41"/>
<path d="M272.62 158.275C276.847 158.275 280.274 155.208 280.274 151.426C280.274 147.643 276.847 144.576 272.62 144.576C268.392 144.576 264.965 147.643 264.965 151.426C264.965 155.208 268.392 158.275 272.62 158.275Z" fill="#FFB8B8"/>
<path d="M272.098 168.393L268.271 161.381L266.531 164.969L265.835 195.791L281.84 163.723L279.057 160.969L272.098 168.393Z" fill="#575A89"/>
<path d="M293.321 169.95L280.634 162.531C280.634 162.531 279.752 169.639 271.749 169.016C263.747 168.393 267.487 162.994 267.487 162.994L254.7 169.327L259.571 193.611L257.484 207.621C257.484 207.621 276.272 205.753 280.448 208.555C282.886 210.218 285.762 211.29 288.798 211.668L288.102 187.696L293.321 169.95Z" fill="#FFFCFD"/>
<path d="M289.494 171.195L291.901 169.119L293.669 170.261C293.669 170.261 295.409 172.129 296.801 177.733C298.193 183.337 297.497 208.244 297.497 208.244L289.842 207.31L290.19 197.036L287.059 183.337L289.494 171.195Z" fill="#FFFCFD"/>
<path d="M257.136 169.016L255.821 168.772L254.7 169.327C254.7 169.327 251.569 173.063 251.569 176.488C251.569 179.913 248.438 209.178 248.438 209.178L255.396 211.98L260.267 189.875L257.136 169.016Z" fill="#FFFCFD"/>
<path d="M298.541 208.866C298.541 208.866 291.582 205.13 289.146 207.621C286.711 210.112 290.538 212.602 290.538 212.602C290.538 212.602 301.324 216.338 298.541 208.866Z" fill="#575A89"/>
<path d="M256.092 210.734C256.092 210.734 249.133 206.999 246.698 209.489C244.262 211.98 248.09 214.47 248.09 214.47C248.09 214.47 258.876 218.206 256.092 210.734Z" fill="#575A89"/>
<path d="M279.323 146.404C279.323 146.404 281.325 142.979 276.92 142.668C276.92 142.668 272.916 140.489 269.713 142.979C269.713 142.979 266.91 142.357 266.109 144.225C266.109 144.225 265.708 143.291 266.909 142.668C266.909 142.668 264.106 142.045 264.106 145.159C264.106 145.159 262.905 148.272 264.106 151.074C265.308 153.876 265.707 154.187 265.707 154.187C265.707 154.187 263.733 148.313 268.538 148.001C273.343 147.69 278.721 145.003 279.121 148.428C279.522 151.852 280.323 152.786 280.323 152.786C280.323 152.786 283.928 147.805 279.323 146.404Z" fill="#2F2E41"/>
<mask id="path-19-inside-1" fill="white">
<path d="M112.349 275.232H112.301C110.522 275.232 108.721 275.185 106.949 275.091L106.975 274.69C108.739 274.784 110.531 274.831 112.301 274.831H112.349L112.349 275.232ZM117.75 275.086L117.723 274.685C119.506 274.59 121.307 274.444 123.077 274.253L123.131 274.651C121.352 274.844 119.542 274.99 117.752 275.086L117.75 275.086ZM101.567 274.661C99.7859 274.471 97.9881 274.229 96.2244 273.943L96.3044 273.548C98.0591 273.833 99.8478 274.073 101.621 274.264L101.567 274.661ZM128.473 273.927L128.392 273.532C130.148 273.246 131.916 272.907 133.648 272.525L133.756 272.915C132.016 273.298 130.237 273.639 128.472 273.927L128.473 273.927ZM90.9399 272.935C89.1978 272.553 87.4459 272.118 85.7333 271.642L85.8666 271.259C87.5715 271.733 89.3136 272.165 91.0471 272.545L90.9399 272.935ZM138.961 271.617L138.827 271.233C140.529 270.759 142.237 270.231 143.907 269.663L144.066 270.038C142.389 270.609 140.67 271.141 138.961 271.618V271.617ZM80.6145 270.066C78.9367 269.497 77.2544 268.874 75.6142 268.214L75.7983 267.848C77.4301 268.505 79.1037 269.124 80.7738 269.69L80.6145 270.066ZM149.05 268.188L148.865 267.822C150.49 267.168 152.113 266.458 153.691 265.715L153.899 266.07C152.314 266.818 150.682 267.53 149.05 268.189V268.188ZM70.7504 266.093C69.1596 265.346 67.5751 264.545 66.0404 263.714L66.2724 263.371C67.7995 264.198 69.3761 264.995 70.9588 265.739L70.7504 266.093ZM158.6 263.694L158.368 263.352C159.893 262.525 161.41 261.645 162.877 260.738L163.132 261.068C161.657 261.979 160.131 262.863 158.6 263.694ZM61.5025 261.085C60.0252 260.172 58.5604 259.206 57.1488 258.217L57.4271 257.901C58.8314 258.886 60.2889 259.846 61.759 260.755L61.5025 261.085ZM167.479 258.201L167.201 257.885C168.609 256.896 169.997 255.861 171.328 254.802L171.626 255.102C170.288 256.164 168.892 257.206 167.478 258.199L167.479 258.201ZM52.9968 255.118C51.6534 254.054 50.3292 252.939 49.0609 251.805L49.3779 251.521C50.6399 252.649 51.9575 253.759 53.294 254.818L52.9968 255.118ZM175.561 251.787L175.244 251.503C176.508 250.373 177.749 249.194 178.932 248.001L179.268 248.267C178.079 249.467 176.832 250.651 175.562 251.787H175.561ZM45.3554 248.285C44.1641 247.084 42.9991 245.835 41.893 244.575L42.2455 244.326C43.3464 245.58 44.5071 246.822 45.6901 248.018L45.3554 248.285ZM182.729 244.557L182.376 244.308C183.481 243.048 184.554 241.744 185.568 240.434L185.937 240.662C184.919 241.98 183.839 243.291 182.729 244.557ZM38.6851 240.689C37.6639 239.369 36.675 238.005 35.7471 236.636L36.1298 236.428C37.0536 237.791 38.0372 239.147 39.0525 240.461L38.6851 240.689ZM188.878 236.603L188.495 236.395C189.421 235.027 190.312 233.617 191.144 232.203L191.54 232.39C190.704 233.81 189.81 235.227 188.878 236.603ZM33.0878 232.433C32.2527 231.014 31.4556 229.554 30.7186 228.094L31.1271 227.929C31.8606 229.382 32.6535 230.834 33.4844 232.245L33.0878 232.433ZM193.912 228.038L193.503 227.873C194.239 226.41 194.933 224.914 195.564 223.421L195.984 223.564C195.348 225.063 194.651 226.568 193.911 228.037L193.912 228.038ZM28.6481 223.637C28.0099 222.137 27.4153 220.6 26.8809 219.068L27.3088 218.949C27.8408 220.472 28.4323 222.001 29.067 223.494L28.6481 223.637ZM197.75 218.986L197.322 218.867C197.852 217.341 198.336 215.782 198.762 214.232L199.197 214.328C198.769 215.886 198.283 217.453 197.75 218.986V218.986ZM25.4279 214.412C24.9985 212.855 24.6172 211.265 24.294 209.685L24.7351 209.612C25.057 211.185 25.4366 212.767 25.8635 214.315L25.4279 214.412ZM200.326 209.6L199.884 209.527C200.203 207.957 200.473 206.357 200.684 204.772L201.129 204.819C200.917 206.413 200.646 208.022 200.326 209.599V209.6ZM23.4822 204.905C23.2668 203.314 23.1026 201.694 22.9951 200.091L23.4425 200.067C23.5504 201.662 23.7139 203.273 23.9297 204.857L23.4822 204.905ZM201.614 200.004L201.166 199.981C201.271 198.389 201.326 196.771 201.326 195.173V195.003H201.774V195.173C201.774 196.779 201.72 198.405 201.614 200.004ZM23.2759 195.258H22.8274V195.173C22.8274 193.594 22.8792 191.997 22.9819 190.426L23.4293 190.45C23.3274 192.013 23.2755 193.602 23.2755 195.173L23.2759 195.258ZM201.154 190.195C201.044 188.598 200.879 186.986 200.663 185.405L201.108 185.356C201.325 186.946 201.491 188.565 201.602 190.17L201.154 190.195ZM23.9043 185.659L23.4589 185.611C23.6711 184.017 23.9401 182.409 24.2592 180.83L24.7007 180.902C24.383 182.472 24.1151 184.073 23.9043 185.659V185.659ZM199.849 180.65C199.525 179.076 199.143 177.494 198.715 175.949L199.15 175.853C199.581 177.406 199.964 178.997 200.291 180.578L199.849 180.65ZM25.8179 176.195L25.3823 176.1C25.8078 174.544 26.2929 172.974 26.8242 171.441L27.2525 171.559C26.724 173.085 26.2414 174.645 25.8183 176.195H25.8179ZM197.264 171.317C196.731 169.793 196.137 168.264 195.501 166.771L195.918 166.628C196.558 168.127 197.155 169.664 197.693 171.195L197.264 171.317ZM29.0033 167.002L28.5837 166.86C29.2187 165.358 29.9142 163.852 30.6511 162.385L31.0603 162.549C30.3269 164.01 29.6348 165.508 29.0033 167.002ZM193.436 162.339C192.701 160.887 191.905 159.436 191.073 158.025L191.47 157.838C192.307 159.256 193.105 160.715 193.844 162.174L193.436 162.339ZM33.4148 158.218L33.0175 158.031C33.8497 156.612 34.7436 155.193 35.6743 153.816L36.0571 154.023C35.1326 155.394 34.2433 156.805 33.4148 158.218ZM188.422 153.846C187.496 152.485 186.511 151.128 185.493 149.815L185.862 149.587C186.885 150.906 187.875 152.269 188.805 153.637L188.422 153.846ZM38.9784 149.98L38.6092 149.752C39.6273 148.433 40.7052 147.122 41.8127 145.855L42.1658 146.103C41.066 147.363 39.9923 148.667 38.9784 149.98ZM182.298 145.949C181.193 144.693 180.032 143.452 178.848 142.26L179.183 141.994C180.373 143.191 181.54 144.438 182.65 145.701L182.298 145.949ZM45.6087 142.405L45.2729 142.139C46.4615 140.937 47.7085 139.752 48.974 138.616L49.2916 138.899C48.0303 140.03 46.7913 141.209 45.6087 142.405ZM175.158 138.763C173.891 137.633 172.572 136.525 171.238 135.469L171.535 135.169C172.876 136.23 174.202 137.343 175.474 138.479L175.158 138.763ZM53.2018 135.598L52.9039 135.298C54.2424 134.233 55.637 133.19 57.0486 132.197L57.3269 132.513C55.923 133.501 54.534 134.539 53.2018 135.598ZM167.103 132.391C165.698 131.407 164.24 130.448 162.768 129.541L163.023 129.21C164.501 130.122 165.967 131.086 167.379 132.075L167.103 132.391ZM61.6483 129.655L61.3929 129.325C62.8668 128.411 64.3901 127.526 65.9217 126.694L66.1545 127.036C64.6309 127.864 63.1149 128.745 61.6483 129.655V129.655ZM158.248 126.929C156.717 126.102 155.139 125.308 153.559 124.566L153.768 124.211C155.356 124.956 156.942 125.755 158.48 126.586L158.248 126.929ZM70.8269 124.668L70.6182 124.313C72.2031 123.566 73.8338 122.85 75.4653 122.19L75.6501 122.556C74.0266 123.213 72.4042 123.923 70.8276 124.668H70.8269ZM148.718 122.462C147.086 121.808 145.413 121.189 143.741 120.625L143.9 120.25C145.579 120.817 147.261 121.439 148.902 122.097L148.718 122.462ZM80.6058 120.711L80.4461 120.338C82.1238 119.766 83.8416 119.233 85.5517 118.754L85.6857 119.137C83.9829 119.612 82.2738 120.142 80.6047 120.711H80.6058ZM138.646 119.061C136.941 118.589 135.197 118.158 133.464 117.78L133.57 117.39C135.31 117.77 137.064 118.204 138.778 118.678L138.646 119.061ZM90.8623 117.841L90.7545 117.451C92.4962 117.066 94.2735 116.724 96.0365 116.434L96.1176 116.829C94.3636 117.117 92.5954 117.458 90.8637 117.841L90.8623 117.841ZM128.205 116.782C126.452 116.499 124.664 116.26 122.888 116.072L122.941 115.674C124.725 115.863 126.523 116.103 128.285 116.387L128.205 116.782ZM101.432 116.103L101.377 115.704C103.155 115.511 104.965 115.362 106.758 115.265L106.785 115.665C105.001 115.762 103.201 115.909 101.432 116.101V116.103ZM117.533 115.651C115.8 115.561 114.041 115.516 112.301 115.516H112.158V115.114H112.301C114.049 115.114 115.818 115.16 117.558 115.25L117.533 115.651Z"/>
</mask>
<path d="M112.349 275.232H112.301C110.522 275.232 108.721 275.185 106.949 275.091L106.975 274.69C108.739 274.784 110.531 274.831 112.301 274.831H112.349L112.349 275.232ZM117.75 275.086L117.723 274.685C119.506 274.59 121.307 274.444 123.077 274.253L123.131 274.651C121.352 274.844 119.542 274.99 117.752 275.086L117.75 275.086ZM101.567 274.661C99.7859 274.471 97.9881 274.229 96.2244 273.943L96.3044 273.548C98.0591 273.833 99.8478 274.073 101.621 274.264L101.567 274.661ZM128.473 273.927L128.392 273.532C130.148 273.246 131.916 272.907 133.648 272.525L133.756 272.915C132.016 273.298 130.237 273.639 128.472 273.927L128.473 273.927ZM90.9399 272.935C89.1978 272.553 87.4459 272.118 85.7333 271.642L85.8666 271.259C87.5715 271.733 89.3136 272.165 91.0471 272.545L90.9399 272.935ZM138.961 271.617L138.827 271.233C140.529 270.759 142.237 270.231 143.907 269.663L144.066 270.038C142.389 270.609 140.67 271.141 138.961 271.618V271.617ZM80.6145 270.066C78.9367 269.497 77.2544 268.874 75.6142 268.214L75.7983 267.848C77.4301 268.505 79.1037 269.124 80.7738 269.69L80.6145 270.066ZM149.05 268.188L148.865 267.822C150.49 267.168 152.113 266.458 153.691 265.715L153.899 266.07C152.314 266.818 150.682 267.53 149.05 268.189V268.188ZM70.7504 266.093C69.1596 265.346 67.5751 264.545 66.0404 263.714L66.2724 263.371C67.7995 264.198 69.3761 264.995 70.9588 265.739L70.7504 266.093ZM158.6 263.694L158.368 263.352C159.893 262.525 161.41 261.645 162.877 260.738L163.132 261.068C161.657 261.979 160.131 262.863 158.6 263.694ZM61.5025 261.085C60.0252 260.172 58.5604 259.206 57.1488 258.217L57.4271 257.901C58.8314 258.886 60.2889 259.846 61.759 260.755L61.5025 261.085ZM167.479 258.201L167.201 257.885C168.609 256.896 169.997 255.861 171.328 254.802L171.626 255.102C170.288 256.164 168.892 257.206 167.478 258.199L167.479 258.201ZM52.9968 255.118C51.6534 254.054 50.3292 252.939 49.0609 251.805L49.3779 251.521C50.6399 252.649 51.9575 253.759 53.294 254.818L52.9968 255.118ZM175.561 251.787L175.244 251.503C176.508 250.373 177.749 249.194 178.932 248.001L179.268 248.267C178.079 249.467 176.832 250.651 175.562 251.787H175.561ZM45.3554 248.285C44.1641 247.084 42.9991 245.835 41.893 244.575L42.2455 244.326C43.3464 245.58 44.5071 246.822 45.6901 248.018L45.3554 248.285ZM182.729 244.557L182.376 244.308C183.481 243.048 184.554 241.744 185.568 240.434L185.937 240.662C184.919 241.98 183.839 243.291 182.729 244.557ZM38.6851 240.689C37.6639 239.369 36.675 238.005 35.7471 236.636L36.1298 236.428C37.0536 237.791 38.0372 239.147 39.0525 240.461L38.6851 240.689ZM188.878 236.603L188.495 236.395C189.421 235.027 190.312 233.617 191.144 232.203L191.54 232.39C190.704 233.81 189.81 235.227 188.878 236.603ZM33.0878 232.433C32.2527 231.014 31.4556 229.554 30.7186 228.094L31.1271 227.929C31.8606 229.382 32.6535 230.834 33.4844 232.245L33.0878 232.433ZM193.912 228.038L193.503 227.873C194.239 226.41 194.933 224.914 195.564 223.421L195.984 223.564C195.348 225.063 194.651 226.568 193.911 228.037L193.912 228.038ZM28.6481 223.637C28.0099 222.137 27.4153 220.6 26.8809 219.068L27.3088 218.949C27.8408 220.472 28.4323 222.001 29.067 223.494L28.6481 223.637ZM197.75 218.986L197.322 218.867C197.852 217.341 198.336 215.782 198.762 214.232L199.197 214.328C198.769 215.886 198.283 217.453 197.75 218.986V218.986ZM25.4279 214.412C24.9985 212.855 24.6172 211.265 24.294 209.685L24.7351 209.612C25.057 211.185 25.4366 212.767 25.8635 214.315L25.4279 214.412ZM200.326 209.6L199.884 209.527C200.203 207.957 200.473 206.357 200.684 204.772L201.129 204.819C200.917 206.413 200.646 208.022 200.326 209.599V209.6ZM23.4822 204.905C23.2668 203.314 23.1026 201.694 22.9951 200.091L23.4425 200.067C23.5504 201.662 23.7139 203.273 23.9297 204.857L23.4822 204.905ZM201.614 200.004L201.166 199.981C201.271 198.389 201.326 196.771 201.326 195.173V195.003H201.774V195.173C201.774 196.779 201.72 198.405 201.614 200.004ZM23.2759 195.258H22.8274V195.173C22.8274 193.594 22.8792 191.997 22.9819 190.426L23.4293 190.45C23.3274 192.013 23.2755 193.602 23.2755 195.173L23.2759 195.258ZM201.154 190.195C201.044 188.598 200.879 186.986 200.663 185.405L201.108 185.356C201.325 186.946 201.491 188.565 201.602 190.17L201.154 190.195ZM23.9043 185.659L23.4589 185.611C23.6711 184.017 23.9401 182.409 24.2592 180.83L24.7007 180.902C24.383 182.472 24.1151 184.073 23.9043 185.659V185.659ZM199.849 180.65C199.525 179.076 199.143 177.494 198.715 175.949L199.15 175.853C199.581 177.406 199.964 178.997 200.291 180.578L199.849 180.65ZM25.8179 176.195L25.3823 176.1C25.8078 174.544 26.2929 172.974 26.8242 171.441L27.2525 171.559C26.724 173.085 26.2414 174.645 25.8183 176.195H25.8179ZM197.264 171.317C196.731 169.793 196.137 168.264 195.501 166.771L195.918 166.628C196.558 168.127 197.155 169.664 197.693 171.195L197.264 171.317ZM29.0033 167.002L28.5837 166.86C29.2187 165.358 29.9142 163.852 30.6511 162.385L31.0603 162.549C30.3269 164.01 29.6348 165.508 29.0033 167.002ZM193.436 162.339C192.701 160.887 191.905 159.436 191.073 158.025L191.47 157.838C192.307 159.256 193.105 160.715 193.844 162.174L193.436 162.339ZM33.4148 158.218L33.0175 158.031C33.8497 156.612 34.7436 155.193 35.6743 153.816L36.0571 154.023C35.1326 155.394 34.2433 156.805 33.4148 158.218ZM188.422 153.846C187.496 152.485 186.511 151.128 185.493 149.815L185.862 149.587C186.885 150.906 187.875 152.269 188.805 153.637L188.422 153.846ZM38.9784 149.98L38.6092 149.752C39.6273 148.433 40.7052 147.122 41.8127 145.855L42.1658 146.103C41.066 147.363 39.9923 148.667 38.9784 149.98ZM182.298 145.949C181.193 144.693 180.032 143.452 178.848 142.26L179.183 141.994C180.373 143.191 181.54 144.438 182.65 145.701L182.298 145.949ZM45.6087 142.405L45.2729 142.139C46.4615 140.937 47.7085 139.752 48.974 138.616L49.2916 138.899C48.0303 140.03 46.7913 141.209 45.6087 142.405ZM175.158 138.763C173.891 137.633 172.572 136.525 171.238 135.469L171.535 135.169C172.876 136.23 174.202 137.343 175.474 138.479L175.158 138.763ZM53.2018 135.598L52.9039 135.298C54.2424 134.233 55.637 133.19 57.0486 132.197L57.3269 132.513C55.923 133.501 54.534 134.539 53.2018 135.598ZM167.103 132.391C165.698 131.407 164.24 130.448 162.768 129.541L163.023 129.21C164.501 130.122 165.967 131.086 167.379 132.075L167.103 132.391ZM61.6483 129.655L61.3929 129.325C62.8668 128.411 64.3901 127.526 65.9217 126.694L66.1545 127.036C64.6309 127.864 63.1149 128.745 61.6483 129.655V129.655ZM158.248 126.929C156.717 126.102 155.139 125.308 153.559 124.566L153.768 124.211C155.356 124.956 156.942 125.755 158.48 126.586L158.248 126.929ZM70.8269 124.668L70.6182 124.313C72.2031 123.566 73.8338 122.85 75.4653 122.19L75.6501 122.556C74.0266 123.213 72.4042 123.923 70.8276 124.668H70.8269ZM148.718 122.462C147.086 121.808 145.413 121.189 143.741 120.625L143.9 120.25C145.579 120.817 147.261 121.439 148.902 122.097L148.718 122.462ZM80.6058 120.711L80.4461 120.338C82.1238 119.766 83.8416 119.233 85.5517 118.754L85.6857 119.137C83.9829 119.612 82.2738 120.142 80.6047 120.711H80.6058ZM138.646 119.061C136.941 118.589 135.197 118.158 133.464 117.78L133.57 117.39C135.31 117.77 137.064 118.204 138.778 118.678L138.646 119.061ZM90.8623 117.841L90.7545 117.451C92.4962 117.066 94.2735 116.724 96.0365 116.434L96.1176 116.829C94.3636 117.117 92.5954 117.458 90.8637 117.841L90.8623 117.841ZM128.205 116.782C126.452 116.499 124.664 116.26 122.888 116.072L122.941 115.674C124.725 115.863 126.523 116.103 128.285 116.387L128.205 116.782ZM101.432 116.103L101.377 115.704C103.155 115.511 104.965 115.362 106.758 115.265L106.785 115.665C105.001 115.762 103.201 115.909 101.432 116.101V116.103ZM117.533 115.651C115.8 115.561 114.041 115.516 112.301 115.516H112.158V115.114H112.301C114.049 115.114 115.818 115.16 117.558 115.25L117.533 115.651Z" fill="#3F3B56" stroke="#3F3B56" stroke-width="4" mask="url(#path-19-inside-1)"/>
<path d="M202.576 245.951H149.406V281.633H202.576V245.951Z" fill="#FE84A0"/>
<path d="M195.929 255.467H156.052V257.846H195.929V255.467Z" fill="white"/>
<path d="M195.929 262.603H156.052V264.982H195.929V262.603Z" fill="white"/>
<path d="M195.929 269.739H156.052V272.118H195.929V269.739Z" fill="white"/>
<path d="M58.9221 112H21.7834V136.923H58.9221V112Z" fill="#DF4A6C"/>
<path d="M54.2797 118.646H26.4258V120.308H54.2797V118.646Z" fill="white"/>
<path d="M54.2797 123.631H26.4258V125.292H54.2797V123.631Z" fill="white"/>
<path d="M54.2797 128.615H26.4258V130.277H54.2797V128.615Z" fill="white"/>
<path d="M74.706 124.877H37.5674V149.8H74.706V124.877Z" fill="#FCB7C6"/>
<path d="M70.0634 131.523H42.2095V133.185H70.0634V131.523Z" fill="white"/>
<path d="M70.0634 136.508H42.2095V138.17H70.0634V136.508Z" fill="white"/>
<path d="M70.0634 141.492H42.2095V143.154H70.0634V141.492Z" fill="white"/>
<path d="M163.047 229.06H61.7964V161.19H163.047V229.06ZM62.8402 162.124V228.126H162.003V162.124H62.8402Z" fill="#FBABBD"/>
<path d="M112.39 212.503C123.038 212.503 131.669 204.78 131.669 195.253C131.669 185.725 123.038 178.002 112.39 178.002C101.743 178.002 93.1111 185.725 93.1111 195.253C93.1111 204.78 101.743 212.503 112.39 212.503Z" fill="#AA1738"/>
<path d="M120.396 193.804H113.841V187.939C113.841 187.573 113.678 187.222 113.389 186.963C113.1 186.704 112.708 186.559 112.299 186.559V186.559C111.89 186.559 111.497 186.704 111.208 186.963C110.919 187.222 110.756 187.573 110.756 187.939V193.804H104.201C103.792 193.804 103.4 193.949 103.111 194.208C102.821 194.467 102.659 194.818 102.659 195.184V195.184C102.659 195.55 102.821 195.901 103.111 196.16C103.4 196.419 103.792 196.564 104.201 196.564H110.756V202.429C110.756 202.795 110.919 203.146 111.208 203.405C111.497 203.664 111.89 203.81 112.299 203.81V203.81C112.708 203.81 113.1 203.664 113.389 203.405C113.678 203.146 113.841 202.795 113.841 202.429V196.564H120.396C120.805 196.564 121.197 196.419 121.486 196.16C121.776 195.901 121.938 195.55 121.938 195.184V195.184C121.938 194.818 121.776 194.467 121.486 194.208C121.197 193.949 120.805 193.804 120.396 193.804V193.804Z" fill="white"/>
<path d="M56.1386 239.957H19V264.88H56.1386V239.957Z" fill="#DF4A6C"/>
<path d="M51.496 246.603H23.6421V248.265H51.496V246.603Z" fill="white"/>
<path d="M51.496 251.587H23.6421V253.249H51.496V251.587Z" fill="white"/>
<path d="M51.496 256.572H23.6421V258.234H51.496V256.572Z" fill="white"/>
<path d="M15.1973 382H14.0723V373.469H15.1973V382ZM18.1152 375.66L18.1504 376.457C18.6348 375.848 19.2676 375.543 20.0488 375.543C21.3887 375.543 22.0645 376.299 22.0762 377.811V382H20.9922V377.805C20.9883 377.348 20.8828 377.01 20.6758 376.791C20.4727 376.572 20.1543 376.463 19.7207 376.463C19.3691 376.463 19.0605 376.557 18.7949 376.744C18.5293 376.932 18.3223 377.178 18.1738 377.482V382H17.0898V375.66H18.1152ZM29.0664 378.9C29.0664 379.865 28.8457 380.643 28.4043 381.232C27.9629 381.822 27.3652 382.117 26.6113 382.117C25.8418 382.117 25.2363 381.873 24.7949 381.385V384.438H23.7109V375.66H24.7012L24.7539 376.363C25.1953 375.816 25.8086 375.543 26.5938 375.543C27.3555 375.543 27.957 375.83 28.3984 376.404C28.8438 376.979 29.0664 377.777 29.0664 378.801V378.9ZM27.9824 378.777C27.9824 378.062 27.8301 377.498 27.5254 377.084C27.2207 376.67 26.8027 376.463 26.2715 376.463C25.6152 376.463 25.123 376.754 24.7949 377.336V380.365C25.1191 380.943 25.6152 381.232 26.2832 381.232C26.8027 381.232 27.2148 381.027 27.5195 380.617C27.8281 380.203 27.9824 379.59 27.9824 378.777ZM34.3633 381.373C33.9414 381.869 33.3223 382.117 32.5059 382.117C31.8301 382.117 31.3145 381.922 30.959 381.531C30.6074 381.137 30.4297 380.555 30.4258 379.785V375.66H31.5098V379.756C31.5098 380.717 31.9004 381.197 32.6816 381.197C33.5098 381.197 34.0605 380.889 34.334 380.271V375.66H35.418V382H34.3867L34.3633 381.373ZM38.541 374.125V375.66H39.7246V376.498H38.541V380.43C38.541 380.684 38.5938 380.875 38.6992 381.004C38.8047 381.129 38.9844 381.191 39.2383 381.191C39.3633 381.191 39.5352 381.168 39.7539 381.121V382C39.4688 382.078 39.1914 382.117 38.9219 382.117C38.4375 382.117 38.0723 381.971 37.8262 381.678C37.5801 381.385 37.457 380.969 37.457 380.43V376.498H36.3027V375.66H37.457V374.125H38.541ZM47.8867 382C47.8242 381.875 47.7734 381.652 47.7344 381.332C47.2305 381.855 46.6289 382.117 45.9297 382.117C45.3047 382.117 44.791 381.941 44.3887 381.59C43.9902 381.234 43.791 380.785 43.791 380.242C43.791 379.582 44.041 379.07 44.541 378.707C45.0449 378.34 45.752 378.156 46.6621 378.156H47.7168V377.658C47.7168 377.279 47.6035 376.979 47.377 376.756C47.1504 376.529 46.8164 376.416 46.375 376.416C45.9883 376.416 45.6641 376.514 45.4023 376.709C45.1406 376.904 45.0098 377.141 45.0098 377.418H43.9199C43.9199 377.102 44.0312 376.797 44.2539 376.504C44.4805 376.207 44.7852 375.973 45.168 375.801C45.5547 375.629 45.9785 375.543 46.4395 375.543C47.1699 375.543 47.7422 375.727 48.1562 376.094C48.5703 376.457 48.7852 376.959 48.8008 377.6V380.518C48.8008 381.1 48.875 381.562 49.0234 381.906V382H47.8867ZM46.0879 381.174C46.4277 381.174 46.75 381.086 47.0547 380.91C47.3594 380.734 47.5801 380.506 47.7168 380.225V378.924H46.8672C45.5391 378.924 44.875 379.312 44.875 380.09C44.875 380.43 44.9883 380.695 45.2148 380.887C45.4414 381.078 45.7324 381.174 46.0879 381.174ZM52.2695 379.064L51.5898 379.773V382H50.5059V373H51.5898V378.443L52.1699 377.746L54.1445 375.66H55.4629L52.9961 378.309L55.75 382H54.4785L52.2695 379.064ZM59.6465 376.633C59.4824 376.605 59.3047 376.592 59.1133 376.592C58.4023 376.592 57.9199 376.895 57.666 377.5V382H56.582V375.66H57.6367L57.6543 376.393C58.0098 375.826 58.5137 375.543 59.166 375.543C59.377 375.543 59.5371 375.57 59.6465 375.625V376.633ZM63.1621 382.117C62.3027 382.117 61.6035 381.836 61.0645 381.273C60.5254 380.707 60.2559 379.951 60.2559 379.006V378.807C60.2559 378.178 60.375 377.617 60.6133 377.125C60.8555 376.629 61.1914 376.242 61.6211 375.965C62.0547 375.684 62.5234 375.543 63.0273 375.543C63.8516 375.543 64.4922 375.814 64.9492 376.357C65.4062 376.9 65.6348 377.678 65.6348 378.689V379.141H61.3398C61.3555 379.766 61.5371 380.271 61.8848 380.658C62.2363 381.041 62.6816 381.232 63.2207 381.232C63.6035 381.232 63.9277 381.154 64.1934 380.998C64.459 380.842 64.6914 380.635 64.8906 380.377L65.5527 380.893C65.0215 381.709 64.2246 382.117 63.1621 382.117ZM63.0273 376.434C62.5898 376.434 62.2227 376.594 61.9258 376.914C61.6289 377.23 61.4453 377.676 61.375 378.25H64.5508V378.168C64.5195 377.617 64.3711 377.191 64.1055 376.891C63.8398 376.586 63.4805 376.434 63.0273 376.434ZM66.6309 378.777C66.6309 377.805 66.8613 377.023 67.3223 376.434C67.7832 375.84 68.3867 375.543 69.1328 375.543C69.875 375.543 70.4629 375.797 70.8965 376.305V373H71.9805V382H70.9844L70.9316 381.32C70.498 381.852 69.8945 382.117 69.1211 382.117C68.3867 382.117 67.7871 381.816 67.3223 381.215C66.8613 380.613 66.6309 379.828 66.6309 378.859V378.777ZM67.7148 378.9C67.7148 379.619 67.8633 380.182 68.1602 380.588C68.457 380.994 68.8672 381.197 69.3906 381.197C70.0781 381.197 70.5801 380.889 70.8965 380.271V377.359C70.5723 376.762 70.0742 376.463 69.4023 376.463C68.8711 376.463 68.457 376.668 68.1602 377.078C67.8633 377.488 67.7148 378.096 67.7148 378.9ZM74.8457 382H73.7617V375.66H74.8457V382ZM73.6738 373.979C73.6738 373.803 73.7266 373.654 73.832 373.533C73.9414 373.412 74.1016 373.352 74.3125 373.352C74.5234 373.352 74.6836 373.412 74.793 373.533C74.9023 373.654 74.957 373.803 74.957 373.979C74.957 374.154 74.9023 374.301 74.793 374.418C74.6836 374.535 74.5234 374.594 74.3125 374.594C74.1016 374.594 73.9414 374.535 73.832 374.418C73.7266 374.301 73.6738 374.154 73.6738 373.979ZM78.0566 374.125V375.66H79.2402V376.498H78.0566V380.43C78.0566 380.684 78.1094 380.875 78.2148 381.004C78.3203 381.129 78.5 381.191 78.7539 381.191C78.8789 381.191 79.0508 381.168 79.2695 381.121V382C78.9844 382.078 78.707 382.117 78.4375 382.117C77.9531 382.117 77.5879 381.971 77.3418 381.678C77.0957 381.385 76.9727 380.969 76.9727 380.43V376.498H75.8184V375.66H76.9727V374.125H78.0566ZM84.4258 382C84.3633 381.875 84.3125 381.652 84.2734 381.332C83.7695 381.855 83.168 382.117 82.4688 382.117C81.8438 382.117 81.3301 381.941 80.9277 381.59C80.5293 381.234 80.3301 380.785 80.3301 380.242C80.3301 379.582 80.5801 379.07 81.0801 378.707C81.584 378.34 82.291 378.156 83.2012 378.156H84.2559V377.658C84.2559 377.279 84.1426 376.979 83.916 376.756C83.6895 376.529 83.3555 376.416 82.9141 376.416C82.5273 376.416 82.2031 376.514 81.9414 376.709C81.6797 376.904 81.5488 377.141 81.5488 377.418H80.459C80.459 377.102 80.5703 376.797 80.793 376.504C81.0195 376.207 81.3242 375.973 81.707 375.801C82.0938 375.629 82.5176 375.543 82.9785 375.543C83.709 375.543 84.2812 375.727 84.6953 376.094C85.1094 376.457 85.3242 376.959 85.3398 377.6V380.518C85.3398 381.1 85.4141 381.562 85.5625 381.906V382H84.4258ZM82.627 381.174C82.9668 381.174 83.2891 381.086 83.5938 380.91C83.8984 380.734 84.1191 380.506 84.2559 380.225V378.924H83.4062C82.0781 378.924 81.4141 379.312 81.4141 380.09C81.4141 380.43 81.5273 380.695 81.7539 380.887C81.9805 381.078 82.2715 381.174 82.627 381.174ZM90.7305 380.318C90.7305 380.025 90.6191 379.799 90.3965 379.639C90.1777 379.475 89.793 379.334 89.2422 379.217C88.6953 379.1 88.2598 378.959 87.9355 378.795C87.6152 378.631 87.377 378.436 87.2207 378.209C87.0684 377.982 86.9922 377.713 86.9922 377.4C86.9922 376.881 87.2109 376.441 87.6484 376.082C88.0898 375.723 88.6523 375.543 89.3359 375.543C90.0547 375.543 90.6367 375.729 91.082 376.1C91.5312 376.471 91.7559 376.945 91.7559 377.523H90.666C90.666 377.227 90.5391 376.971 90.2852 376.756C90.0352 376.541 89.7188 376.434 89.3359 376.434C88.9414 376.434 88.6328 376.52 88.4102 376.691C88.1875 376.863 88.0762 377.088 88.0762 377.365C88.0762 377.627 88.1797 377.824 88.3867 377.957C88.5938 378.09 88.9668 378.217 89.5059 378.338C90.0488 378.459 90.4883 378.604 90.8242 378.771C91.1602 378.939 91.4082 379.143 91.5684 379.381C91.7324 379.615 91.8145 379.902 91.8145 380.242C91.8145 380.809 91.5879 381.264 91.1348 381.607C90.6816 381.947 90.0938 382.117 89.3711 382.117C88.8633 382.117 88.4141 382.027 88.0234 381.848C87.6328 381.668 87.3262 381.418 87.1035 381.098C86.8848 380.773 86.7754 380.424 86.7754 380.049H87.8594C87.8789 380.412 88.0234 380.701 88.293 380.916C88.5664 381.127 88.9258 381.232 89.3711 381.232C89.7812 381.232 90.1094 381.15 90.3555 380.986C90.6055 380.818 90.7305 380.596 90.7305 380.318ZM94.4043 382H93.3203V375.66H94.4043V382ZM93.2324 373.979C93.2324 373.803 93.2852 373.654 93.3906 373.533C93.5 373.412 93.6602 373.352 93.8711 373.352C94.082 373.352 94.2422 373.412 94.3516 373.533C94.4609 373.654 94.5156 373.803 94.5156 373.979C94.5156 374.154 94.4609 374.301 94.3516 374.418C94.2422 374.535 94.082 374.594 93.8711 374.594C93.6602 374.594 93.5 374.535 93.3906 374.418C93.2852 374.301 93.2324 374.154 93.2324 373.979ZM102.812 380.318C102.812 380.025 102.701 379.799 102.479 379.639C102.26 379.475 101.875 379.334 101.324 379.217C100.777 379.1 100.342 378.959 100.018 378.795C99.6973 378.631 99.459 378.436 99.3027 378.209C99.1504 377.982 99.0742 377.713 99.0742 377.4C99.0742 376.881 99.293 376.441 99.7305 376.082C100.172 375.723 100.734 375.543 101.418 375.543C102.137 375.543 102.719 375.729 103.164 376.1C103.613 376.471 103.838 376.945 103.838 377.523H102.748C102.748 377.227 102.621 376.971 102.367 376.756C102.117 376.541 101.801 376.434 101.418 376.434C101.023 376.434 100.715 376.52 100.492 376.691C100.27 376.863 100.158 377.088 100.158 377.365C100.158 377.627 100.262 377.824 100.469 377.957C100.676 378.09 101.049 378.217 101.588 378.338C102.131 378.459 102.57 378.604 102.906 378.771C103.242 378.939 103.49 379.143 103.65 379.381C103.814 379.615 103.896 379.902 103.896 380.242C103.896 380.809 103.67 381.264 103.217 381.607C102.764 381.947 102.176 382.117 101.453 382.117C100.945 382.117 100.496 382.027 100.105 381.848C99.7148 381.668 99.4082 381.418 99.1855 381.098C98.9668 380.773 98.8574 380.424 98.8574 380.049H99.9414C99.9609 380.412 100.105 380.701 100.375 380.916C100.648 381.127 101.008 381.232 101.453 381.232C101.863 381.232 102.191 381.15 102.438 380.986C102.688 380.818 102.812 380.596 102.812 380.318ZM109.223 382C109.16 381.875 109.109 381.652 109.07 381.332C108.566 381.855 107.965 382.117 107.266 382.117C106.641 382.117 106.127 381.941 105.725 381.59C105.326 381.234 105.127 380.785 105.127 380.242C105.127 379.582 105.377 379.07 105.877 378.707C106.381 378.34 107.088 378.156 107.998 378.156H109.053V377.658C109.053 377.279 108.939 376.979 108.713 376.756C108.486 376.529 108.152 376.416 107.711 376.416C107.324 376.416 107 376.514 106.738 376.709C106.477 376.904 106.346 377.141 106.346 377.418H105.256C105.256 377.102 105.367 376.797 105.59 376.504C105.816 376.207 106.121 375.973 106.504 375.801C106.891 375.629 107.314 375.543 107.775 375.543C108.506 375.543 109.078 375.727 109.492 376.094C109.906 376.457 110.121 376.959 110.137 377.6V380.518C110.137 381.1 110.211 381.562 110.359 381.906V382H109.223ZM107.424 381.174C107.764 381.174 108.086 381.086 108.391 380.91C108.695 380.734 108.916 380.506 109.053 380.225V378.924H108.203C106.875 378.924 106.211 379.312 106.211 380.09C106.211 380.43 106.324 380.695 106.551 380.887C106.777 381.078 107.068 381.174 107.424 381.174ZM115.75 382C115.688 381.875 115.637 381.652 115.598 381.332C115.094 381.855 114.492 382.117 113.793 382.117C113.168 382.117 112.654 381.941 112.252 381.59C111.854 381.234 111.654 380.785 111.654 380.242C111.654 379.582 111.904 379.07 112.404 378.707C112.908 378.34 113.615 378.156 114.525 378.156H115.58V377.658C115.58 377.279 115.467 376.979 115.24 376.756C115.014 376.529 114.68 376.416 114.238 376.416C113.852 376.416 113.527 376.514 113.266 376.709C113.004 376.904 112.873 377.141 112.873 377.418H111.783C111.783 377.102 111.895 376.797 112.117 376.504C112.344 376.207 112.648 375.973 113.031 375.801C113.418 375.629 113.842 375.543 114.303 375.543C115.033 375.543 115.605 375.727 116.02 376.094C116.434 376.457 116.648 376.959 116.664 377.6V380.518C116.664 381.1 116.738 381.562 116.887 381.906V382H115.75ZM113.951 381.174C114.291 381.174 114.613 381.086 114.918 380.91C115.223 380.734 115.443 380.506 115.58 380.225V378.924H114.73C113.402 378.924 112.738 379.312 112.738 380.09C112.738 380.43 112.852 380.695 113.078 380.887C113.305 381.078 113.596 381.174 113.951 381.174ZM119.834 374.125V375.66H121.018V376.498H119.834V380.43C119.834 380.684 119.887 380.875 119.992 381.004C120.098 381.129 120.277 381.191 120.531 381.191C120.656 381.191 120.828 381.168 121.047 381.121V382C120.762 382.078 120.484 382.117 120.215 382.117C119.73 382.117 119.365 381.971 119.119 381.678C118.873 381.385 118.75 380.969 118.75 380.43V376.498H117.596V375.66H118.75V374.125H119.834ZM126.443 382H125.359V375.66H126.443V382ZM125.271 373.979C125.271 373.803 125.324 373.654 125.43 373.533C125.539 373.412 125.699 373.352 125.91 373.352C126.121 373.352 126.281 373.412 126.391 373.533C126.5 373.654 126.555 373.803 126.555 373.979C126.555 374.154 126.5 374.301 126.391 374.418C126.281 374.535 126.121 374.594 125.91 374.594C125.699 374.594 125.539 374.535 125.43 374.418C125.324 374.301 125.271 374.154 125.271 373.979ZM129.209 375.66L129.244 376.457C129.729 375.848 130.361 375.543 131.143 375.543C132.482 375.543 133.158 376.299 133.17 377.811V382H132.086V377.805C132.082 377.348 131.977 377.01 131.77 376.791C131.566 376.572 131.248 376.463 130.814 376.463C130.463 376.463 130.154 376.557 129.889 376.744C129.623 376.932 129.416 377.178 129.268 377.482V382H128.184V375.66H129.209ZM135.982 382H134.898V375.66H135.982V382ZM134.811 373.979C134.811 373.803 134.863 373.654 134.969 373.533C135.078 373.412 135.238 373.352 135.449 373.352C135.66 373.352 135.82 373.412 135.93 373.533C136.039 373.654 136.094 373.803 136.094 373.979C136.094 374.154 136.039 374.301 135.93 374.418C135.82 374.535 135.66 374.594 135.449 374.594C135.238 374.594 135.078 374.535 134.969 374.418C134.863 374.301 134.811 374.154 134.811 373.979ZM137.553 376.258C137.553 376.07 137.607 375.914 137.717 375.789C137.83 375.664 137.998 375.602 138.221 375.602C138.443 375.602 138.611 375.664 138.725 375.789C138.842 375.914 138.9 376.07 138.9 376.258C138.9 376.438 138.842 376.588 138.725 376.709C138.611 376.83 138.443 376.891 138.221 376.891C137.998 376.891 137.83 376.83 137.717 376.709C137.607 376.588 137.553 376.438 137.553 376.258ZM137.758 383.699L137.143 383.277C137.51 382.766 137.701 382.238 137.717 381.695V380.717H138.777V381.566C138.777 381.961 138.68 382.355 138.484 382.75C138.293 383.145 138.051 383.461 137.758 383.699ZM144.619 382H143.494V373.469H144.619V382ZM147.537 375.66L147.572 376.457C148.057 375.848 148.689 375.543 149.471 375.543C150.811 375.543 151.486 376.299 151.498 377.811V382H150.414V377.805C150.41 377.348 150.305 377.01 150.098 376.791C149.895 376.572 149.576 376.463 149.143 376.463C148.791 376.463 148.482 376.557 148.217 376.744C147.951 376.932 147.744 377.178 147.596 377.482V382H146.512V375.66H147.537ZM158.488 378.9C158.488 379.865 158.268 380.643 157.826 381.232C157.385 381.822 156.787 382.117 156.033 382.117C155.264 382.117 154.658 381.873 154.217 381.385V384.438H153.133V375.66H154.123L154.176 376.363C154.617 375.816 155.23 375.543 156.016 375.543C156.777 375.543 157.379 375.83 157.82 376.404C158.266 376.979 158.488 377.777 158.488 378.801V378.9ZM157.404 378.777C157.404 378.062 157.252 377.498 156.947 377.084C156.643 376.67 156.225 376.463 155.693 376.463C155.037 376.463 154.545 376.754 154.217 377.336V380.365C154.541 380.943 155.037 381.232 155.705 381.232C156.225 381.232 156.637 381.027 156.941 380.617C157.25 380.203 157.404 379.59 157.404 378.777ZM163.785 381.373C163.363 381.869 162.744 382.117 161.928 382.117C161.252 382.117 160.736 381.922 160.381 381.531C160.029 381.137 159.852 380.555 159.848 379.785V375.66H160.932V379.756C160.932 380.717 161.322 381.197 162.104 381.197C162.932 381.197 163.482 380.889 163.756 380.271V375.66H164.84V382H163.809L163.785 381.373ZM167.963 374.125V375.66H169.146V376.498H167.963V380.43C167.963 380.684 168.016 380.875 168.121 381.004C168.227 381.129 168.406 381.191 168.66 381.191C168.785 381.191 168.957 381.168 169.176 381.121V382C168.891 382.078 168.613 382.117 168.344 382.117C167.859 382.117 167.494 381.971 167.248 381.678C167.002 381.385 166.879 380.969 166.879 380.43V376.498H165.725V375.66H166.879V374.125H167.963ZM173.131 378.777C173.131 377.805 173.361 377.023 173.822 376.434C174.283 375.84 174.887 375.543 175.633 375.543C176.375 375.543 176.963 375.797 177.396 376.305V373H178.48V382H177.484L177.432 381.32C176.998 381.852 176.395 382.117 175.621 382.117C174.887 382.117 174.287 381.816 173.822 381.215C173.361 380.613 173.131 379.828 173.131 378.859V378.777ZM174.215 378.9C174.215 379.619 174.363 380.182 174.66 380.588C174.957 380.994 175.367 381.197 175.891 381.197C176.578 381.197 177.08 380.889 177.396 380.271V377.359C177.072 376.762 176.574 376.463 175.902 376.463C175.371 376.463 174.957 376.668 174.66 377.078C174.363 377.488 174.215 378.096 174.215 378.9ZM184.082 382C184.02 381.875 183.969 381.652 183.93 381.332C183.426 381.855 182.824 382.117 182.125 382.117C181.5 382.117 180.986 381.941 180.584 381.59C180.186 381.234 179.986 380.785 179.986 380.242C179.986 379.582 180.236 379.07 180.736 378.707C181.24 378.34 181.947 378.156 182.857 378.156H183.912V377.658C183.912 377.279 183.799 376.979 183.572 376.756C183.346 376.529 183.012 376.416 182.57 376.416C182.184 376.416 181.859 376.514 181.598 376.709C181.336 376.904 181.205 377.141 181.205 377.418H180.115C180.115 377.102 180.227 376.797 180.449 376.504C180.676 376.207 180.98 375.973 181.363 375.801C181.75 375.629 182.174 375.543 182.635 375.543C183.365 375.543 183.938 375.727 184.352 376.094C184.766 376.457 184.98 376.959 184.996 377.6V380.518C184.996 381.1 185.07 381.562 185.219 381.906V382H184.082ZM182.283 381.174C182.623 381.174 182.945 381.086 183.25 380.91C183.555 380.734 183.775 380.506 183.912 380.225V378.924H183.062C181.734 378.924 181.07 379.312 181.07 380.09C181.07 380.43 181.184 380.695 181.41 380.887C181.637 381.078 181.928 381.174 182.283 381.174ZM188.166 374.125V375.66H189.35V376.498H188.166V380.43C188.166 380.684 188.219 380.875 188.324 381.004C188.43 381.129 188.609 381.191 188.863 381.191C188.988 381.191 189.16 381.168 189.379 381.121V382C189.094 382.078 188.816 382.117 188.547 382.117C188.062 382.117 187.697 381.971 187.451 381.678C187.205 381.385 187.082 380.969 187.082 380.43V376.498H185.928V375.66H187.082V374.125H188.166ZM194.535 382C194.473 381.875 194.422 381.652 194.383 381.332C193.879 381.855 193.277 382.117 192.578 382.117C191.953 382.117 191.439 381.941 191.037 381.59C190.639 381.234 190.439 380.785 190.439 380.242C190.439 379.582 190.689 379.07 191.189 378.707C191.693 378.34 192.4 378.156 193.311 378.156H194.365V377.658C194.365 377.279 194.252 376.979 194.025 376.756C193.799 376.529 193.465 376.416 193.023 376.416C192.637 376.416 192.312 376.514 192.051 376.709C191.789 376.904 191.658 377.141 191.658 377.418H190.568C190.568 377.102 190.68 376.797 190.902 376.504C191.129 376.207 191.434 375.973 191.816 375.801C192.203 375.629 192.627 375.543 193.088 375.543C193.818 375.543 194.391 375.727 194.805 376.094C195.219 376.457 195.434 376.959 195.449 377.6V380.518C195.449 381.1 195.523 381.562 195.672 381.906V382H194.535ZM192.736 381.174C193.076 381.174 193.398 381.086 193.703 380.91C194.008 380.734 194.229 380.506 194.365 380.225V378.924H193.516C192.188 378.924 191.523 379.312 191.523 380.09C191.523 380.43 191.637 380.695 191.863 380.887C192.09 381.078 192.381 381.174 192.736 381.174ZM203.816 380.318C203.816 380.025 203.705 379.799 203.482 379.639C203.264 379.475 202.879 379.334 202.328 379.217C201.781 379.1 201.346 378.959 201.021 378.795C200.701 378.631 200.463 378.436 200.307 378.209C200.154 377.982 200.078 377.713 200.078 377.4C200.078 376.881 200.297 376.441 200.734 376.082C201.176 375.723 201.738 375.543 202.422 375.543C203.141 375.543 203.723 375.729 204.168 376.1C204.617 376.471 204.842 376.945 204.842 377.523H203.752C203.752 377.227 203.625 376.971 203.371 376.756C203.121 376.541 202.805 376.434 202.422 376.434C202.027 376.434 201.719 376.52 201.496 376.691C201.273 376.863 201.162 377.088 201.162 377.365C201.162 377.627 201.266 377.824 201.473 377.957C201.68 378.09 202.053 378.217 202.592 378.338C203.135 378.459 203.574 378.604 203.91 378.771C204.246 378.939 204.494 379.143 204.654 379.381C204.818 379.615 204.9 379.902 204.9 380.242C204.9 380.809 204.674 381.264 204.221 381.607C203.768 381.947 203.18 382.117 202.457 382.117C201.949 382.117 201.5 382.027 201.109 381.848C200.719 381.668 200.412 381.418 200.189 381.098C199.971 380.773 199.861 380.424 199.861 380.049H200.945C200.965 380.412 201.109 380.701 201.379 380.916C201.652 381.127 202.012 381.232 202.457 381.232C202.867 381.232 203.195 381.15 203.441 380.986C203.691 380.818 203.816 380.596 203.816 380.318ZM208.943 382.117C208.084 382.117 207.385 381.836 206.846 381.273C206.307 380.707 206.037 379.951 206.037 379.006V378.807C206.037 378.178 206.156 377.617 206.395 377.125C206.637 376.629 206.973 376.242 207.402 375.965C207.836 375.684 208.305 375.543 208.809 375.543C209.633 375.543 210.273 375.814 210.73 376.357C211.188 376.9 211.416 377.678 211.416 378.689V379.141H207.121C207.137 379.766 207.318 380.271 207.666 380.658C208.018 381.041 208.463 381.232 209.002 381.232C209.385 381.232 209.709 381.154 209.975 380.998C210.24 380.842 210.473 380.635 210.672 380.377L211.334 380.893C210.803 381.709 210.006 382.117 208.943 382.117ZM208.809 376.434C208.371 376.434 208.004 376.594 207.707 376.914C207.41 377.23 207.227 377.676 207.156 378.25H210.332V378.168C210.301 377.617 210.152 377.191 209.887 376.891C209.621 376.586 209.262 376.434 208.809 376.434ZM216.367 380.318C216.367 380.025 216.256 379.799 216.033 379.639C215.814 379.475 215.43 379.334 214.879 379.217C214.332 379.1 213.896 378.959 213.572 378.795C213.252 378.631 213.014 378.436 212.857 378.209C212.705 377.982 212.629 377.713 212.629 377.4C212.629 376.881 212.848 376.441 213.285 376.082C213.727 375.723 214.289 375.543 214.973 375.543C215.691 375.543 216.273 375.729 216.719 376.1C217.168 376.471 217.393 376.945 217.393 377.523H216.303C216.303 377.227 216.176 376.971 215.922 376.756C215.672 376.541 215.355 376.434 214.973 376.434C214.578 376.434 214.27 376.52 214.047 376.691C213.824 376.863 213.713 377.088 213.713 377.365C213.713 377.627 213.816 377.824 214.023 377.957C214.23 378.09 214.604 378.217 215.143 378.338C215.686 378.459 216.125 378.604 216.461 378.771C216.797 378.939 217.045 379.143 217.205 379.381C217.369 379.615 217.451 379.902 217.451 380.242C217.451 380.809 217.225 381.264 216.771 381.607C216.318 381.947 215.73 382.117 215.008 382.117C214.5 382.117 214.051 382.027 213.66 381.848C213.27 381.668 212.963 381.418 212.74 381.098C212.521 380.773 212.412 380.424 212.412 380.049H213.496C213.516 380.412 213.66 380.701 213.93 380.916C214.203 381.127 214.562 381.232 215.008 381.232C215.418 381.232 215.746 381.15 215.992 380.986C216.242 380.818 216.367 380.596 216.367 380.318ZM222.777 381.373C222.355 381.869 221.736 382.117 220.92 382.117C220.244 382.117 219.729 381.922 219.373 381.531C219.021 381.137 218.844 380.555 218.84 379.785V375.66H219.924V379.756C219.924 380.717 220.314 381.197 221.096 381.197C221.924 381.197 222.475 380.889 222.748 380.271V375.66H223.832V382H222.801L222.777 381.373ZM229.398 382C229.336 381.875 229.285 381.652 229.246 381.332C228.742 381.855 228.141 382.117 227.441 382.117C226.816 382.117 226.303 381.941 225.9 381.59C225.502 381.234 225.303 380.785 225.303 380.242C225.303 379.582 225.553 379.07 226.053 378.707C226.557 378.34 227.264 378.156 228.174 378.156H229.229V377.658C229.229 377.279 229.115 376.979 228.889 376.756C228.662 376.529 228.328 376.416 227.887 376.416C227.5 376.416 227.176 376.514 226.914 376.709C226.652 376.904 226.521 377.141 226.521 377.418H225.432C225.432 377.102 225.543 376.797 225.766 376.504C225.992 376.207 226.297 375.973 226.68 375.801C227.066 375.629 227.49 375.543 227.951 375.543C228.682 375.543 229.254 375.727 229.668 376.094C230.082 376.457 230.297 376.959 230.312 377.6V380.518C230.312 381.1 230.387 381.562 230.535 381.906V382H229.398ZM227.6 381.174C227.939 381.174 228.262 381.086 228.566 380.91C228.871 380.734 229.092 380.506 229.229 380.225V378.924H228.379C227.051 378.924 226.387 379.312 226.387 380.09C226.387 380.43 226.5 380.695 226.727 380.887C226.953 381.078 227.244 381.174 227.6 381.174ZM233.189 382H232.105V375.66H233.189V382ZM232.018 373.979C232.018 373.803 232.07 373.654 232.176 373.533C232.285 373.412 232.445 373.352 232.656 373.352C232.867 373.352 233.027 373.412 233.137 373.533C233.246 373.654 233.301 373.803 233.301 373.979C233.301 374.154 233.246 374.301 233.137 374.418C233.027 374.535 232.867 374.594 232.656 374.594C232.445 374.594 232.285 374.535 232.176 374.418C232.07 374.301 232.018 374.154 232.018 373.979ZM239.283 382H238.158V373.469H239.283V382ZM242.201 375.66L242.236 376.457C242.721 375.848 243.354 375.543 244.135 375.543C245.475 375.543 246.15 376.299 246.162 377.811V382H245.078V377.805C245.074 377.348 244.969 377.01 244.762 376.791C244.559 376.572 244.24 376.463 243.807 376.463C243.455 376.463 243.146 376.557 242.881 376.744C242.615 376.932 242.408 377.178 242.26 377.482V382H241.176V375.66H242.201ZM247.533 378.777C247.533 377.805 247.764 377.023 248.225 376.434C248.686 375.84 249.289 375.543 250.035 375.543C250.777 375.543 251.365 375.797 251.799 376.305V373H252.883V382H251.887L251.834 381.32C251.4 381.852 250.797 382.117 250.023 382.117C249.289 382.117 248.689 381.816 248.225 381.215C247.764 380.613 247.533 379.828 247.533 378.859V378.777ZM248.617 378.9C248.617 379.619 248.766 380.182 249.062 380.588C249.359 380.994 249.77 381.197 250.293 381.197C250.98 381.197 251.482 380.889 251.799 380.271V377.359C251.475 376.762 250.977 376.463 250.305 376.463C249.773 376.463 249.359 376.668 249.062 377.078C248.766 377.488 248.617 378.096 248.617 378.9ZM255.748 382H254.664V375.66H255.748V382ZM254.576 373.979C254.576 373.803 254.629 373.654 254.734 373.533C254.844 373.412 255.004 373.352 255.215 373.352C255.426 373.352 255.586 373.412 255.695 373.533C255.805 373.654 255.859 373.803 255.859 373.979C255.859 374.154 255.805 374.301 255.695 374.418C255.586 374.535 255.426 374.594 255.215 374.594C255.004 374.594 254.844 374.535 254.734 374.418C254.629 374.301 254.576 374.154 254.576 373.979ZM259.258 379.064L258.578 379.773V382H257.494V373H258.578V378.443L259.158 377.746L261.133 375.66H262.451L259.984 378.309L262.738 382H261.467L259.258 379.064ZM267.484 382C267.422 381.875 267.371 381.652 267.332 381.332C266.828 381.855 266.227 382.117 265.527 382.117C264.902 382.117 264.389 381.941 263.986 381.59C263.588 381.234 263.389 380.785 263.389 380.242C263.389 379.582 263.639 379.07 264.139 378.707C264.643 378.34 265.35 378.156 266.26 378.156H267.314V377.658C267.314 377.279 267.201 376.979 266.975 376.756C266.748 376.529 266.414 376.416 265.973 376.416C265.586 376.416 265.262 376.514 265 376.709C264.738 376.904 264.607 377.141 264.607 377.418H263.518C263.518 377.102 263.629 376.797 263.852 376.504C264.078 376.207 264.383 375.973 264.766 375.801C265.152 375.629 265.576 375.543 266.037 375.543C266.768 375.543 267.34 375.727 267.754 376.094C268.168 376.457 268.383 376.959 268.398 377.6V380.518C268.398 381.1 268.473 381.562 268.621 381.906V382H267.484ZM265.686 381.174C266.025 381.174 266.348 381.086 266.652 380.91C266.957 380.734 267.178 380.506 267.314 380.225V378.924H266.465C265.137 378.924 264.473 379.312 264.473 380.09C264.473 380.43 264.586 380.695 264.812 380.887C265.039 381.078 265.33 381.174 265.686 381.174ZM271.568 374.125V375.66H272.752V376.498H271.568V380.43C271.568 380.684 271.621 380.875 271.727 381.004C271.832 381.129 272.012 381.191 272.266 381.191C272.391 381.191 272.562 381.168 272.781 381.121V382C272.496 382.078 272.219 382.117 271.949 382.117C271.465 382.117 271.1 381.971 270.854 381.678C270.607 381.385 270.484 380.969 270.484 380.43V376.498H269.33V375.66H270.484V374.125H271.568ZM273.619 378.771C273.619 378.15 273.74 377.592 273.982 377.096C274.229 376.6 274.568 376.217 275.002 375.947C275.439 375.678 275.938 375.543 276.496 375.543C277.359 375.543 278.057 375.842 278.588 376.439C279.123 377.037 279.391 377.832 279.391 378.824V378.9C279.391 379.518 279.271 380.072 279.033 380.564C278.799 381.053 278.461 381.434 278.02 381.707C277.582 381.98 277.078 382.117 276.508 382.117C275.648 382.117 274.951 381.818 274.416 381.221C273.885 380.623 273.619 379.832 273.619 378.848V378.771ZM274.709 378.9C274.709 379.604 274.871 380.168 275.195 380.594C275.523 381.02 275.961 381.232 276.508 381.232C277.059 381.232 277.496 381.018 277.82 380.588C278.145 380.154 278.307 379.549 278.307 378.771C278.307 378.076 278.141 377.514 277.809 377.084C277.48 376.65 277.043 376.434 276.496 376.434C275.961 376.434 275.529 376.646 275.201 377.072C274.873 377.498 274.709 378.107 274.709 378.9ZM283.814 376.633C283.65 376.605 283.473 376.592 283.281 376.592C282.57 376.592 282.088 376.895 281.834 377.5V382H280.75V375.66H281.805L281.822 376.393C282.178 375.826 282.682 375.543 283.334 375.543C283.545 375.543 283.705 375.57 283.814 375.625V376.633ZM288.971 382H287.887V375.66H288.971V382ZM287.799 373.979C287.799 373.803 287.852 373.654 287.957 373.533C288.066 373.412 288.227 373.352 288.438 373.352C288.648 373.352 288.809 373.412 288.918 373.533C289.027 373.654 289.082 373.803 289.082 373.979C289.082 374.154 289.027 374.301 288.918 374.418C288.809 374.535 288.648 374.594 288.438 374.594C288.227 374.594 288.066 374.535 287.957 374.418C287.852 374.301 287.799 374.154 287.799 373.979ZM293.395 378.197C292.43 377.92 291.727 377.58 291.285 377.178C290.848 376.771 290.629 376.271 290.629 375.678C290.629 375.006 290.896 374.451 291.432 374.014C291.971 373.572 292.67 373.352 293.529 373.352C294.115 373.352 294.637 373.465 295.094 373.691C295.555 373.918 295.91 374.23 296.16 374.629C296.414 375.027 296.541 375.463 296.541 375.936H295.41C295.41 375.42 295.246 375.016 294.918 374.723C294.59 374.426 294.127 374.277 293.529 374.277C292.975 374.277 292.541 374.4 292.229 374.646C291.92 374.889 291.766 375.227 291.766 375.66C291.766 376.008 291.912 376.303 292.205 376.545C292.502 376.783 293.004 377.002 293.711 377.201C294.422 377.4 294.977 377.621 295.375 377.863C295.777 378.102 296.074 378.381 296.266 378.701C296.461 379.021 296.559 379.398 296.559 379.832C296.559 380.523 296.289 381.078 295.75 381.496C295.211 381.91 294.49 382.117 293.588 382.117C293.002 382.117 292.455 382.006 291.947 381.783C291.439 381.557 291.047 381.248 290.77 380.857C290.496 380.467 290.359 380.023 290.359 379.527H291.49C291.49 380.043 291.68 380.451 292.059 380.752C292.441 381.049 292.951 381.197 293.588 381.197C294.182 381.197 294.637 381.076 294.953 380.834C295.27 380.592 295.428 380.262 295.428 379.844C295.428 379.426 295.281 379.104 294.988 378.877C294.695 378.646 294.164 378.42 293.395 378.197ZM300.174 378.033L299.131 379.117V382H298.006V373.469H299.131V377.688L302.922 373.469H304.281L300.924 377.236L304.545 382H303.197L300.174 378.033Z" fill="#444444"/>
<path d="M121.914 352.016C121.914 351.573 121.758 351.234 121.445 351C121.133 350.76 120.57 350.51 119.758 350.25C118.945 349.984 118.302 349.724 117.828 349.469C116.536 348.771 115.891 347.831 115.891 346.648C115.891 346.034 116.062 345.487 116.406 345.008C116.755 344.523 117.253 344.146 117.898 343.875C118.549 343.604 119.279 343.469 120.086 343.469C120.898 343.469 121.622 343.617 122.258 343.914C122.893 344.206 123.385 344.62 123.734 345.156C124.089 345.693 124.266 346.302 124.266 346.984H121.922C121.922 346.464 121.758 346.06 121.43 345.773C121.102 345.482 120.641 345.336 120.047 345.336C119.474 345.336 119.029 345.458 118.711 345.703C118.393 345.943 118.234 346.26 118.234 346.656C118.234 347.026 118.419 347.336 118.789 347.586C119.164 347.836 119.714 348.07 120.438 348.289C121.771 348.69 122.742 349.188 123.352 349.781C123.961 350.375 124.266 351.115 124.266 352C124.266 352.984 123.893 353.758 123.148 354.32C122.404 354.878 121.401 355.156 120.141 355.156C119.266 355.156 118.469 354.997 117.75 354.68C117.031 354.357 116.482 353.917 116.102 353.359C115.727 352.802 115.539 352.156 115.539 351.422H117.891C117.891 352.677 118.641 353.305 120.141 353.305C120.698 353.305 121.133 353.193 121.445 352.969C121.758 352.74 121.914 352.422 121.914 352.016ZM128.094 355H125.828V346.547H128.094V355ZM125.695 344.359C125.695 344.021 125.807 343.742 126.031 343.523C126.26 343.305 126.57 343.195 126.961 343.195C127.346 343.195 127.654 343.305 127.883 343.523C128.112 343.742 128.227 344.021 128.227 344.359C128.227 344.703 128.109 344.984 127.875 345.203C127.646 345.422 127.341 345.531 126.961 345.531C126.581 345.531 126.273 345.422 126.039 345.203C125.81 344.984 125.695 344.703 125.695 344.359ZM132.078 346.547L132.148 347.492C132.747 346.758 133.557 346.391 134.578 346.391C135.667 346.391 136.414 346.82 136.82 347.68C137.414 346.82 138.26 346.391 139.359 346.391C140.276 346.391 140.958 346.659 141.406 347.195C141.854 347.727 142.078 348.529 142.078 349.602V355H139.812V349.609C139.812 349.13 139.719 348.781 139.531 348.562C139.344 348.339 139.013 348.227 138.539 348.227C137.862 348.227 137.393 348.549 137.133 349.195L137.141 355H134.883V349.617C134.883 349.128 134.786 348.773 134.594 348.555C134.401 348.336 134.073 348.227 133.609 348.227C132.969 348.227 132.505 348.492 132.219 349.023V355H129.961V346.547H132.078ZM148.883 354.141C148.326 354.818 147.555 355.156 146.57 355.156C145.664 355.156 144.971 354.896 144.492 354.375C144.018 353.854 143.776 353.091 143.766 352.086V346.547H146.023V352.008C146.023 352.888 146.424 353.328 147.227 353.328C147.992 353.328 148.518 353.062 148.805 352.531V346.547H151.07V355H148.945L148.883 354.141ZM155.156 355H152.891V343H155.156V355ZM161.922 355C161.818 354.797 161.742 354.544 161.695 354.242C161.148 354.852 160.438 355.156 159.562 355.156C158.734 355.156 158.047 354.917 157.5 354.438C156.958 353.958 156.688 353.354 156.688 352.625C156.688 351.729 157.018 351.042 157.68 350.562C158.346 350.083 159.307 349.841 160.562 349.836H161.602V349.352C161.602 348.961 161.5 348.648 161.297 348.414C161.099 348.18 160.784 348.062 160.352 348.062C159.971 348.062 159.672 348.154 159.453 348.336C159.24 348.518 159.133 348.768 159.133 349.086H156.875C156.875 348.596 157.026 348.143 157.328 347.727C157.63 347.31 158.057 346.984 158.609 346.75C159.161 346.51 159.781 346.391 160.469 346.391C161.51 346.391 162.336 346.654 162.945 347.18C163.56 347.701 163.867 348.435 163.867 349.383V353.047C163.872 353.849 163.984 354.456 164.203 354.867V355H161.922ZM160.055 353.43C160.388 353.43 160.695 353.357 160.977 353.211C161.258 353.06 161.466 352.859 161.602 352.609V351.156H160.758C159.628 351.156 159.026 351.547 158.953 352.328L158.945 352.461C158.945 352.742 159.044 352.974 159.242 353.156C159.44 353.339 159.711 353.43 160.055 353.43ZM170.18 352.664C170.18 352.388 170.042 352.172 169.766 352.016C169.495 351.854 169.057 351.711 168.453 351.586C166.443 351.164 165.438 350.31 165.438 349.023C165.438 348.273 165.747 347.648 166.367 347.148C166.992 346.643 167.807 346.391 168.812 346.391C169.885 346.391 170.742 346.643 171.383 347.148C172.029 347.654 172.352 348.31 172.352 349.117H170.094C170.094 348.794 169.99 348.529 169.781 348.32C169.573 348.107 169.247 348 168.805 348C168.424 348 168.13 348.086 167.922 348.258C167.714 348.43 167.609 348.648 167.609 348.914C167.609 349.164 167.727 349.367 167.961 349.523C168.201 349.674 168.602 349.807 169.164 349.922C169.727 350.031 170.201 350.156 170.586 350.297C171.779 350.734 172.375 351.492 172.375 352.57C172.375 353.341 172.044 353.966 171.383 354.445C170.721 354.919 169.867 355.156 168.82 355.156C168.112 355.156 167.482 355.031 166.93 354.781C166.383 354.526 165.953 354.18 165.641 353.742C165.328 353.299 165.172 352.823 165.172 352.312H167.312C167.333 352.714 167.482 353.021 167.758 353.234C168.034 353.448 168.404 353.555 168.867 353.555C169.299 353.555 169.625 353.474 169.844 353.312C170.068 353.146 170.18 352.93 170.18 352.664ZM176.219 355H173.953V346.547H176.219V355ZM173.82 344.359C173.82 344.021 173.932 343.742 174.156 343.523C174.385 343.305 174.695 343.195 175.086 343.195C175.471 343.195 175.779 343.305 176.008 343.523C176.237 343.742 176.352 344.021 176.352 344.359C176.352 344.703 176.234 344.984 176 345.203C175.771 345.422 175.466 345.531 175.086 345.531C174.706 345.531 174.398 345.422 174.164 345.203C173.935 344.984 173.82 344.703 173.82 344.359ZM182.219 355V343.625H186.203C187.583 343.625 188.63 343.891 189.344 344.422C190.057 344.948 190.414 345.721 190.414 346.742C190.414 347.299 190.271 347.792 189.984 348.219C189.698 348.641 189.299 348.951 188.789 349.148C189.372 349.294 189.831 349.589 190.164 350.031C190.503 350.474 190.672 351.016 190.672 351.656C190.672 352.75 190.323 353.578 189.625 354.141C188.927 354.703 187.932 354.99 186.641 355H182.219ZM184.562 350.047V353.117H186.57C187.122 353.117 187.552 352.987 187.859 352.727C188.172 352.461 188.328 352.096 188.328 351.633C188.328 350.591 187.789 350.062 186.711 350.047H184.562ZM184.562 348.391H186.297C187.479 348.37 188.07 347.898 188.07 346.977C188.07 346.461 187.919 346.091 187.617 345.867C187.32 345.638 186.849 345.523 186.203 345.523H184.562V348.391ZM197.188 355C197.083 354.797 197.008 354.544 196.961 354.242C196.414 354.852 195.703 355.156 194.828 355.156C194 355.156 193.312 354.917 192.766 354.438C192.224 353.958 191.953 353.354 191.953 352.625C191.953 351.729 192.284 351.042 192.945 350.562C193.612 350.083 194.573 349.841 195.828 349.836H196.867V349.352C196.867 348.961 196.766 348.648 196.562 348.414C196.365 348.18 196.049 348.062 195.617 348.062C195.237 348.062 194.938 348.154 194.719 348.336C194.505 348.518 194.398 348.768 194.398 349.086H192.141C192.141 348.596 192.292 348.143 192.594 347.727C192.896 347.31 193.323 346.984 193.875 346.75C194.427 346.51 195.047 346.391 195.734 346.391C196.776 346.391 197.602 346.654 198.211 347.18C198.826 347.701 199.133 348.435 199.133 349.383V353.047C199.138 353.849 199.25 354.456 199.469 354.867V355H197.188ZM195.32 353.43C195.654 353.43 195.961 353.357 196.242 353.211C196.523 353.06 196.732 352.859 196.867 352.609V351.156H196.023C194.893 351.156 194.292 351.547 194.219 352.328L194.211 352.461C194.211 352.742 194.31 352.974 194.508 353.156C194.706 353.339 194.977 353.43 195.32 353.43ZM205.617 348.664C205.31 348.622 205.039 348.602 204.805 348.602C203.951 348.602 203.391 348.891 203.125 349.469V355H200.867V346.547H203L203.062 347.555C203.516 346.779 204.143 346.391 204.945 346.391C205.195 346.391 205.43 346.424 205.648 346.492L205.617 348.664ZM211.773 354.141C211.216 354.818 210.445 355.156 209.461 355.156C208.555 355.156 207.862 354.896 207.383 354.375C206.909 353.854 206.667 353.091 206.656 352.086V346.547H208.914V352.008C208.914 352.888 209.315 353.328 210.117 353.328C210.883 353.328 211.409 353.062 211.695 352.531V346.547H213.961V355H211.836L211.773 354.141Z" fill="black"/>
</svg>
