<svg width="320" height="382" viewBox="0 0 320 382" fill="none" xmlns="http://www.w3.org/2000/svg">
<circle cx="160" cy="160" r="160" fill="#C82247"/>
<ellipse cx="159" cy="243" rx="115" ry="109" fill="white" fill-opacity="0.08"/>
<g clip-path="url(#clip0)">
<path d="M95.7968 298.751L88.5244 275.721C88.5244 275.721 96.524 280.245 96.8877 286.002C96.8877 286.002 95.0696 257.216 91.4334 251.047C91.4334 251.047 97.2513 251.87 103.796 283.946C103.796 283.946 104.887 246.935 95.0696 236.243C95.0696 236.243 108.523 248.58 109.614 275.31V298.751H95.7968Z" fill="#F2F2F2"/>
<path d="M232.182 298.751L230.433 293.213C230.433 293.213 232.357 294.301 232.444 295.685C232.444 295.685 232.007 288.764 231.133 287.281C231.133 287.281 232.531 287.479 234.105 295.191C234.105 295.191 234.367 286.292 232.007 283.721C232.007 283.721 235.242 286.688 235.504 293.115V298.751L232.182 298.751Z" fill="#F2F2F2"/>
<path d="M199.787 251.126C217.443 251.126 231.756 234.939 231.756 214.971C231.756 195.003 217.443 178.816 199.787 178.816C182.132 178.816 167.819 195.003 167.819 214.971C167.819 234.939 182.132 251.126 199.787 251.126Z" fill="#F2F2F2"/>
<path d="M94.4016 111.743H19V159.118H94.4016V111.743Z" fill="#F2F2F2"/>
<path d="M196.701 111.743H121.299V159.118H196.701V111.743Z" fill="#F2F2F2"/>
<path d="M299 111.743H223.599V159.118H299V111.743Z" fill="#F2F2F2"/>
<path d="M212.828 298.881C212.777 298.787 211.584 296.534 211.171 291.856C210.791 287.564 211.035 280.33 214.352 270.239C220.637 251.121 212.904 235.696 212.825 235.542L213.207 235.292C213.227 235.331 215.222 239.264 216.401 245.526C217.958 253.829 217.391 262.461 214.766 270.412C208.492 289.497 213.156 298.532 213.204 298.621L212.828 298.881Z" fill="#3F3D56"/>
<path d="M210.37 234.42C211.953 234.42 213.236 232.969 213.236 231.178C213.236 229.388 211.953 227.937 210.37 227.937C208.787 227.937 207.504 229.388 207.504 231.178C207.504 232.969 208.787 234.42 210.37 234.42Z" fill="#C82247"/>
<path d="M219.41 246.388C220.993 246.388 222.276 244.937 222.276 243.147C222.276 241.357 220.993 239.906 219.41 239.906C217.827 239.906 216.543 241.357 216.543 243.147C216.543 244.937 217.827 246.388 219.41 246.388Z" fill="#3F3D56"/>
<path d="M213.236 254.367C214.819 254.367 216.102 252.916 216.102 251.126C216.102 249.336 214.819 247.884 213.236 247.884C211.653 247.884 210.37 249.336 210.37 251.126C210.37 252.916 211.653 254.367 213.236 254.367Z" fill="#C82247"/>
<path d="M220.732 261.1C222.315 261.1 223.598 259.649 223.598 257.858C223.598 256.068 222.315 254.617 220.732 254.617C219.149 254.617 217.866 256.068 217.866 257.858C217.866 259.649 219.149 261.1 220.732 261.1Z" fill="#C82247"/>
<path d="M211.032 271.572C212.615 271.572 213.898 270.121 213.898 268.331C213.898 266.54 212.615 265.089 211.032 265.089C209.449 265.089 208.166 266.54 208.166 268.331C208.166 270.121 209.449 271.572 211.032 271.572Z" fill="#3F3D56"/>
<path d="M214.559 299C214.559 299 211.693 291.021 220.291 285.037L214.559 299Z" fill="#3F3D56"/>
<path d="M211.034 298.855C211.034 298.855 209.73 290.37 199.634 290.443L211.034 298.855Z" fill="#3F3D56"/>
<path d="M94.2915 109H19.1104V113.239H94.2915V109Z" fill="#3F3D56"/>
<path d="M196.811 109H121.41V113.239H196.811V109Z" fill="#3F3D56"/>
<path d="M298.89 109H223.708V113.239H298.89V109Z" fill="#3F3D56"/>
<path d="M38.4017 119.846H24.7324V130.818H38.4017V119.846Z" fill="#BBBBBB"/>
<path d="M88.6691 119.846H50.9683V121.093H88.6691V119.846Z" fill="#BBBBBB"/>
<path d="M88.6691 124.833H50.9683V126.08H88.6691V124.833Z" fill="#BBBBBB"/>
<path d="M88.6691 129.82H50.9683V131.067H88.6691V129.82Z" fill="#BBBBBB"/>
<path d="M140.701 119.846H127.032V130.818H140.701V119.846Z" fill="#BBBBBB"/>
<path d="M190.968 119.846H153.268V121.093H190.968V119.846Z" fill="#BBBBBB"/>
<path d="M190.968 124.833H153.268V126.08H190.968V124.833Z" fill="#BBBBBB"/>
<path d="M190.968 129.82H153.268V131.067H190.968V129.82Z" fill="#BBBBBB"/>
<path d="M243 119.846H229.331V130.818H243V119.846Z" fill="#BBBBBB"/>
<path d="M293.268 119.846H255.567V121.093H293.268V119.846Z" fill="#BBBBBB"/>
<path d="M293.268 124.833H255.567V126.08H293.268V124.833Z" fill="#BBBBBB"/>
<path d="M293.268 129.82H255.567V131.067H293.268V129.82Z" fill="#BBBBBB"/>
<path d="M31.5672 130.444C34.0024 130.444 35.9766 128.211 35.9766 125.457C35.9766 122.703 34.0024 120.47 31.5672 120.47C29.1319 120.47 27.1577 122.703 27.1577 125.457C27.1577 128.211 29.1319 130.444 31.5672 130.444Z" fill="#C82247"/>
<path d="M236.165 130.444C238.601 130.444 240.575 128.211 240.575 125.457C240.575 122.703 238.601 120.47 236.165 120.47C233.73 120.47 231.756 122.703 231.756 125.457C231.756 128.211 233.73 130.444 236.165 130.444Z" fill="#C82247"/>
<path d="M54.2251 159.118H53.7842V160.614H54.2251V159.118Z" fill="#3F3D56"/>
<path d="M54.2251 220.457H53.7842V217.465H54.2251V220.457ZM54.2251 214.472H53.7842V211.48H54.2251V214.472ZM54.2251 208.488H53.7842V205.496H54.2251V208.488ZM54.2251 202.504H53.7842V199.512H54.2251V202.504ZM54.2251 196.52H53.7842V193.528H54.2251V196.52ZM54.2251 190.535H53.7842V187.543H54.2251V190.535ZM54.2251 184.551H53.7842V181.559H54.2251V184.551ZM54.2251 178.567H53.7842V175.575H54.2251V178.567ZM54.2251 172.583H53.7842V169.591H54.2251V172.583ZM54.2251 166.598H53.7842V163.606H54.2251V166.598Z" fill="#3F3D56"/>
<path d="M55.3275 225.194H53.7842V223.449H54.225V224.695H55.3275V225.194Z" fill="#3F3D56"/>
<path d="M257.319 225.194H254.661V224.696H257.319V225.194ZM252.003 225.194H249.345V224.696H252.003V225.194ZM246.688 225.194H244.03V224.696H246.688V225.194ZM241.372 225.194H238.714V224.696H241.372V225.194ZM236.057 225.194H233.399V224.696H236.057V225.194ZM230.741 225.194H228.083V224.696H230.741V225.194ZM225.425 225.194H222.768V224.696H225.425V225.194ZM220.11 225.194H217.452V224.696H220.11V225.194ZM214.794 225.194H212.136V224.696H214.794V225.194ZM209.479 225.194H206.821V224.696H209.479L209.479 225.194ZM204.163 225.194H201.505V224.696H204.163V225.194ZM198.848 225.194H196.19V224.696H198.848V225.194ZM193.532 225.194H190.874V224.696H193.532V225.194ZM188.216 225.194H185.559V224.696H188.216V225.194ZM182.901 225.194H180.243V224.696H182.901V225.194ZM177.585 225.194H174.928V224.696H177.585V225.194ZM172.27 225.194H169.612V224.696H172.27V225.194ZM166.954 225.194H164.296V224.696H166.954V225.194ZM161.639 225.194H158.981V224.696H161.639V225.194ZM156.323 225.194H153.665V224.696H156.323V225.194ZM151.008 225.194H148.35V224.696H151.008V225.194ZM145.692 225.194H143.034V224.696H145.692V225.194ZM140.376 225.194H137.719V224.696H140.376V225.194ZM135.061 225.194H132.403V224.696H135.061V225.194ZM129.745 225.194H127.088V224.696H129.745V225.194ZM124.43 225.194H121.772V224.696H124.43V225.194ZM119.114 225.194H116.456V224.696H119.114V225.194ZM113.799 225.194H111.141V224.696H113.799V225.194ZM108.483 225.194H105.825V224.696H108.483V225.194ZM103.168 225.194H100.51V224.696H103.168V225.194ZM97.852 225.194H95.1942V224.696H97.852V225.194ZM92.5364 225.194H89.8787V224.696H92.5364V225.194ZM87.2209 225.194H84.5632V224.696H87.2209V225.194ZM81.9053 225.194H79.2476V224.696H81.9053V225.194ZM76.5898 225.194H73.932V224.696H76.5898V225.194ZM71.2742 225.194H68.6165V224.696H71.2742V225.194ZM65.9586 225.194H63.3009V224.696H65.9586V225.194ZM60.6431 225.194H57.9854V224.696H60.6431L60.6431 225.194Z" fill="#3F3D56"/>
<path d="M261.52 225.194H259.977V224.695H261.079V223.449H261.52V225.194Z" fill="#3F3D56"/>
<path d="M261.52 220.457H261.079V217.465H261.52V220.457ZM261.52 214.472H261.079V211.48H261.52V214.472ZM261.52 208.488H261.079V205.496H261.52V208.488ZM261.52 202.504H261.079V199.512H261.52V202.504ZM261.52 196.52H261.079V193.528H261.52V196.52ZM261.52 190.535H261.079V187.543H261.52V190.535ZM261.52 184.551H261.079V181.559H261.52V184.551ZM261.52 178.567H261.079V175.575H261.52V178.567ZM261.52 172.583H261.079V169.591H261.52V172.583ZM261.52 166.598H261.079V163.606H261.52V166.598Z" fill="#3F3D56"/>
<path d="M261.52 159.118H261.079V160.614H261.52V159.118Z" fill="#3F3D56"/>
<path d="M196.701 209.984H121.299V298.751H196.701V209.984Z" fill="#3F3D56"/>
<path d="M140.701 221.579H127.032V232.55H140.701V221.579Z" fill="#BBBBBB"/>
<path d="M190.968 221.579H153.268V222.825H190.968V221.579Z" fill="#BBBBBB"/>
<path d="M190.968 226.566H153.268V227.812H190.968V226.566Z" fill="#BBBBBB"/>
<path d="M190.968 231.552H153.268V232.799H190.968V231.552Z" fill="#BBBBBB"/>
<path d="M140.701 261.1H127.032V272.071H140.701V261.1Z" fill="#BBBBBB"/>
<path d="M190.968 261.1H153.268V262.346H190.968V261.1Z" fill="#BBBBBB"/>
<path d="M190.968 266.087H153.268V267.333H190.968V266.087Z" fill="#BBBBBB"/>
<path d="M190.968 271.073H153.268V272.32H190.968V271.073Z" fill="#BBBBBB"/>
<path d="M133.924 229.839L129.245 222.784L130.354 221.844L134.165 227.591L143.881 218.692L144.758 219.905L133.924 229.839Z" fill="#C82247"/>
<path d="M133.924 268.986L129.245 261.931L130.354 260.991L134.165 266.738L143.881 257.839L144.758 259.052L133.924 268.986Z" fill="#C82247"/>
<path d="M293.268 298.501H20.9844V299H293.268V298.501Z" fill="#3F3D56"/>
<path d="M168.491 161.861C168.491 161.861 175.766 158.275 179.184 162.063C182.601 165.85 170.034 164.604 168.491 161.861Z" fill="#3F3D56"/>
<path d="M181.054 144.857C178.609 140.185 173.771 139.967 173.771 139.967C173.771 139.967 169.058 139.285 166.034 146.401C163.216 153.034 159.326 159.438 165.408 160.99L166.506 157.123L167.187 161.278C168.053 161.349 168.921 161.365 169.789 161.329C176.302 161.091 182.505 161.398 182.305 158.755C182.04 155.241 183.406 149.353 181.054 144.857Z" fill="#2F2E41"/>
<path d="M184.475 229.558C184.475 229.558 181.389 236.041 179.404 236.041C177.42 236.041 177.641 240.28 178.082 241.277C178.523 242.274 179.625 244.518 177.861 247.76C177.245 248.892 177.355 250.176 177.76 251.369C178.892 254.709 183.299 253.697 183.158 250.123C183.157 250.084 183.155 250.044 183.152 250.004C182.932 246.014 184.696 239.781 186.46 238.285C188.223 236.789 189.767 232.799 189.767 232.799L184.475 229.558Z" fill="#FFB8B8"/>
<path d="M163.31 228.062C163.31 228.062 166.396 234.545 168.381 234.545C170.365 234.545 170.145 238.783 169.704 239.781C169.263 240.778 168.16 243.022 169.924 246.264C170.54 247.396 170.43 248.68 170.026 249.872C168.893 253.212 164.487 252.201 164.627 248.627C164.629 248.587 164.631 248.548 164.633 248.508C164.853 244.518 163.089 238.285 161.326 236.789C159.562 235.293 158.019 231.303 158.019 231.303L163.31 228.062Z" fill="#FFB8B8"/>
<path d="M165.735 196.146L164.412 199.387C164.412 199.387 145.011 206.618 146.774 215.096C148.538 223.573 157.137 236.789 158.46 236.29C159.782 235.791 166.837 234.295 167.058 230.056C167.278 225.818 161.987 218.337 161.987 218.337L169.263 210.857L179.85 210.608L188.885 218.337C188.885 218.337 179.404 227.812 183.593 231.552C187.782 235.293 193.956 237.786 194.837 236.29C195.719 234.794 205.641 212.602 204.097 210.608C202.554 208.613 186.9 201.133 186.9 201.133L182.711 194.4L166.397 193.403L165.735 196.146Z" fill="#2F2E41"/>
<path d="M169.704 155.004C169.704 155.004 170.806 163.232 168.601 164.23C166.397 165.227 173.011 169.466 173.011 169.466H176.759L179.184 163.731C179.184 163.731 176.979 159.243 178.302 155.004C179.625 150.765 169.704 155.004 169.704 155.004Z" fill="#FFB8B8"/>
<path opacity="0.1" d="M169.704 155.004C169.704 155.004 170.806 163.232 168.601 164.23C166.397 165.227 173.011 169.466 173.011 169.466H176.759L179.184 163.731C179.184 163.731 176.979 159.243 178.302 155.004C179.625 150.765 169.704 155.004 169.704 155.004Z" fill="black"/>
<path d="M168.16 161.986C168.16 161.986 170.585 164.978 171.026 165.476C171.467 165.975 173.452 168.718 177.641 164.728C181.83 160.739 182.271 165.476 182.271 165.476V195.398C182.271 195.398 178.743 193.652 175.877 195.398C173.011 197.143 167.058 194.899 167.058 194.899L165.956 163.98L168.16 161.986Z" fill="#BBBBBB"/>
<path d="M169.78 161.986C169.78 161.986 167.719 160.988 165.955 161.986C164.192 162.983 158.018 167.97 158.459 170.214C158.9 172.458 164.633 188.167 160.664 195.647C156.696 203.127 156.034 205.122 156.034 205.122L165.735 199.387C165.735 199.387 173.231 194.151 172.57 190.909C171.908 187.668 169.78 161.986 169.78 161.986Z" fill="#C82247"/>
<path d="M178.525 161.986C178.525 161.986 183.152 162.484 183.373 162.983C183.593 163.482 190.318 165.601 189.877 167.845C189.436 170.089 183.373 190.161 186.018 193.902C188.664 197.642 193.073 202.878 191.53 203.377C189.987 203.875 187.341 202.629 184.696 203.377C182.05 204.125 175.877 197.891 176.538 191.159C177.199 184.426 176.543 163.731 178.525 161.986Z" fill="#C82247"/>
<path d="M167.499 209.61V212.104C167.499 212.104 166.397 217.839 169.924 217.589C173.452 217.34 171.247 210.608 171.247 210.608L171.027 208.364L167.499 209.61Z" fill="#FFB8B8"/>
<path d="M177.42 209.86C177.42 209.86 174.995 215.595 177.42 216.093C179.845 216.592 181.609 212.852 181.609 211.854C181.609 210.857 177.42 209.86 177.42 209.86Z" fill="#FFB8B8"/>
<path d="M180.617 152.635C180.86 152.635 181.058 152.189 181.058 151.638C181.058 151.087 180.86 150.64 180.617 150.64C180.373 150.64 180.176 151.087 180.176 151.638C180.176 152.189 180.373 152.635 180.617 152.635Z" fill="#FFB8B8"/>
<path d="M167.609 152.635C167.852 152.635 168.05 152.189 168.05 151.638C168.05 151.087 167.852 150.64 167.609 150.64C167.365 150.64 167.168 151.087 167.168 151.638C167.168 152.189 167.365 152.635 167.609 152.635Z" fill="#FFB8B8"/>
<path d="M184.475 165.227C184.475 165.227 189.987 165.227 189.766 167.72C189.546 170.214 182.27 213.101 182.27 213.101C182.27 213.101 179.184 209.86 176.538 210.608L184.475 165.227Z" fill="#C82247"/>
<path d="M163.089 165.975C163.089 165.975 157.578 167.222 157.578 170.962C157.578 174.702 165.515 210.608 166.617 210.608C167.719 210.608 171.908 209.86 171.908 208.613C171.908 207.366 163.089 165.975 163.089 165.975Z" fill="#C82247"/>
<path opacity="0.2" d="M164.302 173.331L169.262 195.271C169.262 195.271 166.947 176.073 164.302 173.331Z" fill="black"/>
<path opacity="0.2" d="M183.597 170.248L178.58 198.933C178.58 198.933 180.184 171.903 183.597 170.248Z" fill="black"/>
<path d="M174.113 158.993C177.644 158.993 180.507 155.756 180.507 151.762C180.507 147.769 177.644 144.531 174.113 144.531C170.582 144.531 167.719 147.769 167.719 151.762C167.719 155.756 170.582 158.993 174.113 158.993Z" fill="#FFB8B8"/>
<path d="M179.973 144.406L175.194 141.575L168.594 142.733L167.229 149.554L170.628 149.406L171.578 146.9V149.365L173.146 149.296L174.056 145.307L174.625 149.554L180.2 149.425L179.973 144.406Z" fill="#2F2E41"/>
</g>
<path d="M43.1211 378.08H47.1641V379H41.9902V370.469H43.1211V378.08ZM49.4551 379H48.3711V372.66H49.4551V379ZM48.2832 370.979C48.2832 370.803 48.3359 370.654 48.4414 370.533C48.5508 370.412 48.7109 370.352 48.9219 370.352C49.1328 370.352 49.293 370.412 49.4023 370.533C49.5117 370.654 49.5664 370.803 49.5664 370.979C49.5664 371.154 49.5117 371.301 49.4023 371.418C49.293 371.535 49.1328 371.594 48.9219 371.594C48.7109 371.594 48.5508 371.535 48.4414 371.418C48.3359 371.301 48.2832 371.154 48.2832 370.979ZM52.2793 373.428C52.7598 372.838 53.3848 372.543 54.1543 372.543C55.4941 372.543 56.1699 373.299 56.1816 374.811V379H55.0977V374.805C55.0938 374.348 54.9883 374.01 54.7812 373.791C54.5781 373.572 54.2598 373.463 53.8262 373.463C53.4746 373.463 53.166 373.557 52.9004 373.744C52.6348 373.932 52.4277 374.178 52.2793 374.482V379H51.1953V370H52.2793V373.428ZM61.7188 379C61.6562 378.875 61.6055 378.652 61.5664 378.332C61.0625 378.855 60.4609 379.117 59.7617 379.117C59.1367 379.117 58.623 378.941 58.2207 378.59C57.8223 378.234 57.623 377.785 57.623 377.242C57.623 376.582 57.873 376.07 58.373 375.707C58.877 375.34 59.584 375.156 60.4941 375.156H61.5488V374.658C61.5488 374.279 61.4355 373.979 61.209 373.756C60.9824 373.529 60.6484 373.416 60.207 373.416C59.8203 373.416 59.4961 373.514 59.2344 373.709C58.9727 373.904 58.8418 374.141 58.8418 374.418H57.752C57.752 374.102 57.8633 373.797 58.0859 373.504C58.3125 373.207 58.6172 372.973 59 372.801C59.3867 372.629 59.8105 372.543 60.2715 372.543C61.002 372.543 61.5742 372.727 61.9883 373.094C62.4023 373.457 62.6172 373.959 62.6328 374.6V377.518C62.6328 378.1 62.707 378.562 62.8555 378.906V379H61.7188ZM59.9199 378.174C60.2598 378.174 60.582 378.086 60.8867 377.91C61.1914 377.734 61.4121 377.506 61.5488 377.225V375.924H60.6992C59.3711 375.924 58.707 376.312 58.707 377.09C58.707 377.43 58.8203 377.695 59.0469 377.887C59.2734 378.078 59.5645 378.174 59.9199 378.174ZM65.8027 371.125V372.66H66.9863V373.498H65.8027V377.43C65.8027 377.684 65.8555 377.875 65.9609 378.004C66.0664 378.129 66.2461 378.191 66.5 378.191C66.625 378.191 66.7969 378.168 67.0156 378.121V379C66.7305 379.078 66.4531 379.117 66.1836 379.117C65.6992 379.117 65.334 378.971 65.0879 378.678C64.8418 378.385 64.7188 377.969 64.7188 377.43V373.498H63.5645V372.66H64.7188V371.125H65.8027ZM72.3184 373.428C72.7988 372.838 73.4238 372.543 74.1934 372.543C75.5332 372.543 76.209 373.299 76.2207 374.811V379H75.1367V374.805C75.1328 374.348 75.0273 374.01 74.8203 373.791C74.6172 373.572 74.2988 373.463 73.8652 373.463C73.5137 373.463 73.2051 373.557 72.9395 373.744C72.6738 373.932 72.4668 374.178 72.3184 374.482V379H71.2344V370H72.3184V373.428ZM81.7578 379C81.6953 378.875 81.6445 378.652 81.6055 378.332C81.1016 378.855 80.5 379.117 79.8008 379.117C79.1758 379.117 78.6621 378.941 78.2598 378.59C77.8613 378.234 77.6621 377.785 77.6621 377.242C77.6621 376.582 77.9121 376.07 78.4121 375.707C78.916 375.34 79.623 375.156 80.5332 375.156H81.5879V374.658C81.5879 374.279 81.4746 373.979 81.248 373.756C81.0215 373.529 80.6875 373.416 80.2461 373.416C79.8594 373.416 79.5352 373.514 79.2734 373.709C79.0117 373.904 78.8809 374.141 78.8809 374.418H77.791C77.791 374.102 77.9023 373.797 78.125 373.504C78.3516 373.207 78.6562 372.973 79.0391 372.801C79.4258 372.629 79.8496 372.543 80.3105 372.543C81.041 372.543 81.6133 372.727 82.0273 373.094C82.4414 373.457 82.6562 373.959 82.6719 374.6V377.518C82.6719 378.1 82.7461 378.562 82.8945 378.906V379H81.7578ZM79.959 378.174C80.2988 378.174 80.6211 378.086 80.9258 377.91C81.2305 377.734 81.4512 377.506 81.5879 377.225V375.924H80.7383C79.4102 375.924 78.7461 376.312 78.7461 377.09C78.7461 377.43 78.8594 377.695 79.0859 377.887C79.3125 378.078 79.6035 378.174 79.959 378.174ZM88.0625 377.318C88.0625 377.025 87.9512 376.799 87.7285 376.639C87.5098 376.475 87.125 376.334 86.5742 376.217C86.0273 376.1 85.5918 375.959 85.2676 375.795C84.9473 375.631 84.709 375.436 84.5527 375.209C84.4004 374.982 84.3242 374.713 84.3242 374.4C84.3242 373.881 84.543 373.441 84.9805 373.082C85.4219 372.723 85.9844 372.543 86.668 372.543C87.3867 372.543 87.9688 372.729 88.4141 373.1C88.8633 373.471 89.0879 373.945 89.0879 374.523H87.998C87.998 374.227 87.8711 373.971 87.6172 373.756C87.3672 373.541 87.0508 373.434 86.668 373.434C86.2734 373.434 85.9648 373.52 85.7422 373.691C85.5195 373.863 85.4082 374.088 85.4082 374.365C85.4082 374.627 85.5117 374.824 85.7188 374.957C85.9258 375.09 86.2988 375.217 86.8379 375.338C87.3809 375.459 87.8203 375.604 88.1562 375.771C88.4922 375.939 88.7402 376.143 88.9004 376.381C89.0645 376.615 89.1465 376.902 89.1465 377.242C89.1465 377.809 88.9199 378.264 88.4668 378.607C88.0137 378.947 87.4258 379.117 86.7031 379.117C86.1953 379.117 85.7461 379.027 85.3555 378.848C84.9648 378.668 84.6582 378.418 84.4355 378.098C84.2168 377.773 84.1074 377.424 84.1074 377.049H85.1914C85.2109 377.412 85.3555 377.701 85.625 377.916C85.8984 378.127 86.2578 378.232 86.7031 378.232C87.1133 378.232 87.4414 378.15 87.6875 377.986C87.9375 377.818 88.0625 377.596 88.0625 377.318ZM91.7363 379H90.6523V372.66H91.7363V379ZM90.5645 370.979C90.5645 370.803 90.6172 370.654 90.7227 370.533C90.832 370.412 90.9922 370.352 91.2031 370.352C91.4141 370.352 91.5742 370.412 91.6836 370.533C91.793 370.654 91.8477 370.803 91.8477 370.979C91.8477 371.154 91.793 371.301 91.6836 371.418C91.5742 371.535 91.4141 371.594 91.2031 371.594C90.9922 371.594 90.832 371.535 90.7227 371.418C90.6172 371.301 90.5645 371.154 90.5645 370.979ZM94.6543 379H93.5703V370H94.6543V379ZM103.062 377.318C103.062 377.025 102.951 376.799 102.729 376.639C102.51 376.475 102.125 376.334 101.574 376.217C101.027 376.1 100.592 375.959 100.268 375.795C99.9473 375.631 99.709 375.436 99.5527 375.209C99.4004 374.982 99.3242 374.713 99.3242 374.4C99.3242 373.881 99.543 373.441 99.9805 373.082C100.422 372.723 100.984 372.543 101.668 372.543C102.387 372.543 102.969 372.729 103.414 373.1C103.863 373.471 104.088 373.945 104.088 374.523H102.998C102.998 374.227 102.871 373.971 102.617 373.756C102.367 373.541 102.051 373.434 101.668 373.434C101.273 373.434 100.965 373.52 100.742 373.691C100.52 373.863 100.408 374.088 100.408 374.365C100.408 374.627 100.512 374.824 100.719 374.957C100.926 375.09 101.299 375.217 101.838 375.338C102.381 375.459 102.82 375.604 103.156 375.771C103.492 375.939 103.74 376.143 103.9 376.381C104.064 376.615 104.146 376.902 104.146 377.242C104.146 377.809 103.92 378.264 103.467 378.607C103.014 378.947 102.426 379.117 101.703 379.117C101.195 379.117 100.746 379.027 100.355 378.848C99.9648 378.668 99.6582 378.418 99.4355 378.098C99.2168 377.773 99.1074 377.424 99.1074 377.049H100.191C100.211 377.412 100.355 377.701 100.625 377.916C100.898 378.127 101.258 378.232 101.703 378.232C102.113 378.232 102.441 378.15 102.688 377.986C102.938 377.818 103.062 377.596 103.062 377.318ZM107.328 376.064L106.648 376.773V379H105.564V370H106.648V375.443L107.229 374.746L109.203 372.66H110.521L108.055 375.309L110.809 379H109.537L107.328 376.064ZM111.354 375.771C111.354 375.15 111.475 374.592 111.717 374.096C111.963 373.6 112.303 373.217 112.736 372.947C113.174 372.678 113.672 372.543 114.23 372.543C115.094 372.543 115.791 372.842 116.322 373.439C116.857 374.037 117.125 374.832 117.125 375.824V375.9C117.125 376.518 117.006 377.072 116.768 377.564C116.533 378.053 116.195 378.434 115.754 378.707C115.316 378.98 114.812 379.117 114.242 379.117C113.383 379.117 112.686 378.818 112.15 378.221C111.619 377.623 111.354 376.832 111.354 375.848V375.771ZM112.443 375.9C112.443 376.604 112.605 377.168 112.93 377.594C113.258 378.02 113.695 378.232 114.242 378.232C114.793 378.232 115.23 378.018 115.555 377.588C115.879 377.154 116.041 376.549 116.041 375.771C116.041 375.076 115.875 374.514 115.543 374.084C115.215 373.65 114.777 373.434 114.23 373.434C113.695 373.434 113.264 373.646 112.936 374.072C112.607 374.498 112.443 375.107 112.443 375.9ZM121.549 373.633C121.385 373.605 121.207 373.592 121.016 373.592C120.305 373.592 119.822 373.895 119.568 374.5V379H118.484V372.66H119.539L119.557 373.393C119.912 372.826 120.416 372.543 121.068 372.543C121.279 372.543 121.439 372.57 121.549 372.625V373.633ZM126.547 372.66L126.576 373.363C127.041 372.816 127.668 372.543 128.457 372.543C129.344 372.543 129.947 372.883 130.268 373.562C130.479 373.258 130.752 373.012 131.088 372.824C131.428 372.637 131.828 372.543 132.289 372.543C133.68 372.543 134.387 373.279 134.41 374.752V379H133.326V374.816C133.326 374.363 133.223 374.025 133.016 373.803C132.809 373.576 132.461 373.463 131.973 373.463C131.57 373.463 131.236 373.584 130.971 373.826C130.705 374.064 130.551 374.387 130.508 374.793V379H129.418V374.846C129.418 373.924 128.967 373.463 128.064 373.463C127.354 373.463 126.867 373.766 126.605 374.371V379H125.521V372.66H126.547ZM139.965 379C139.902 378.875 139.852 378.652 139.812 378.332C139.309 378.855 138.707 379.117 138.008 379.117C137.383 379.117 136.869 378.941 136.467 378.59C136.068 378.234 135.869 377.785 135.869 377.242C135.869 376.582 136.119 376.07 136.619 375.707C137.123 375.34 137.83 375.156 138.74 375.156H139.795V374.658C139.795 374.279 139.682 373.979 139.455 373.756C139.229 373.529 138.895 373.416 138.453 373.416C138.066 373.416 137.742 373.514 137.48 373.709C137.219 373.904 137.088 374.141 137.088 374.418H135.998C135.998 374.102 136.109 373.797 136.332 373.504C136.559 373.207 136.863 372.973 137.246 372.801C137.633 372.629 138.057 372.543 138.518 372.543C139.248 372.543 139.82 372.727 140.234 373.094C140.648 373.457 140.863 373.959 140.879 374.6V377.518C140.879 378.1 140.953 378.562 141.102 378.906V379H139.965ZM138.166 378.174C138.506 378.174 138.828 378.086 139.133 377.91C139.438 377.734 139.658 377.506 139.795 377.225V375.924H138.945C137.617 375.924 136.953 376.312 136.953 377.09C136.953 377.43 137.066 377.695 137.293 377.887C137.52 378.078 137.811 378.174 138.166 378.174ZM146.27 377.318C146.27 377.025 146.158 376.799 145.936 376.639C145.717 376.475 145.332 376.334 144.781 376.217C144.234 376.1 143.799 375.959 143.475 375.795C143.154 375.631 142.916 375.436 142.76 375.209C142.607 374.982 142.531 374.713 142.531 374.4C142.531 373.881 142.75 373.441 143.188 373.082C143.629 372.723 144.191 372.543 144.875 372.543C145.594 372.543 146.176 372.729 146.621 373.1C147.07 373.471 147.295 373.945 147.295 374.523H146.205C146.205 374.227 146.078 373.971 145.824 373.756C145.574 373.541 145.258 373.434 144.875 373.434C144.48 373.434 144.172 373.52 143.949 373.691C143.727 373.863 143.615 374.088 143.615 374.365C143.615 374.627 143.719 374.824 143.926 374.957C144.133 375.09 144.506 375.217 145.045 375.338C145.588 375.459 146.027 375.604 146.363 375.771C146.699 375.939 146.947 376.143 147.107 376.381C147.271 376.615 147.354 376.902 147.354 377.242C147.354 377.809 147.127 378.264 146.674 378.607C146.221 378.947 145.633 379.117 144.91 379.117C144.402 379.117 143.953 379.027 143.562 378.848C143.172 378.668 142.865 378.418 142.643 378.098C142.424 377.773 142.314 377.424 142.314 377.049H143.398C143.418 377.412 143.562 377.701 143.832 377.916C144.105 378.127 144.465 378.232 144.91 378.232C145.32 378.232 145.648 378.15 145.895 377.986C146.145 377.818 146.27 377.596 146.27 377.318ZM149.943 379H148.859V372.66H149.943V379ZM148.771 370.979C148.771 370.803 148.824 370.654 148.93 370.533C149.039 370.412 149.199 370.352 149.41 370.352C149.621 370.352 149.781 370.412 149.891 370.533C150 370.654 150.055 370.803 150.055 370.979C150.055 371.154 150 371.301 149.891 371.418C149.781 371.535 149.621 371.594 149.41 371.594C149.199 371.594 149.039 371.535 148.93 371.418C148.824 371.301 148.771 371.154 148.771 370.979ZM152.709 372.66L152.744 373.457C153.229 372.848 153.861 372.543 154.643 372.543C155.982 372.543 156.658 373.299 156.67 374.811V379H155.586V374.805C155.582 374.348 155.477 374.01 155.27 373.791C155.066 373.572 154.748 373.463 154.314 373.463C153.963 373.463 153.654 373.557 153.389 373.744C153.123 373.932 152.916 374.178 152.768 374.482V379H151.684V372.66H152.709ZM158.047 375.777C158.047 374.789 158.275 374.004 158.732 373.422C159.189 372.836 159.795 372.543 160.549 372.543C161.322 372.543 161.926 372.816 162.359 373.363L162.412 372.66H163.402V378.848C163.402 379.668 163.158 380.314 162.67 380.787C162.186 381.26 161.533 381.496 160.713 381.496C160.256 381.496 159.809 381.398 159.371 381.203C158.934 381.008 158.6 380.74 158.369 380.4L158.932 379.75C159.396 380.324 159.965 380.611 160.637 380.611C161.164 380.611 161.574 380.463 161.867 380.166C162.164 379.869 162.312 379.451 162.312 378.912V378.367C161.879 378.867 161.287 379.117 160.537 379.117C159.795 379.117 159.193 378.818 158.732 378.221C158.275 377.623 158.047 376.809 158.047 375.777ZM159.137 375.9C159.137 376.615 159.283 377.178 159.576 377.588C159.869 377.994 160.279 378.197 160.807 378.197C161.49 378.197 161.992 377.887 162.312 377.266V374.371C161.98 373.766 161.482 373.463 160.818 373.463C160.291 373.463 159.879 373.668 159.582 374.078C159.285 374.488 159.137 375.096 159.137 375.9ZM167.299 375.818H164.439V374.934H167.299V375.818ZM169.379 372.66L169.408 373.363C169.873 372.816 170.5 372.543 171.289 372.543C172.176 372.543 172.779 372.883 173.1 373.562C173.311 373.258 173.584 373.012 173.92 372.824C174.26 372.637 174.66 372.543 175.121 372.543C176.512 372.543 177.219 373.279 177.242 374.752V379H176.158V374.816C176.158 374.363 176.055 374.025 175.848 373.803C175.641 373.576 175.293 373.463 174.805 373.463C174.402 373.463 174.068 373.584 173.803 373.826C173.537 374.064 173.383 374.387 173.34 374.793V379H172.25V374.846C172.25 373.924 171.799 373.463 170.896 373.463C170.186 373.463 169.699 373.766 169.438 374.371V379H168.354V372.66H169.379ZM182.797 379C182.734 378.875 182.684 378.652 182.645 378.332C182.141 378.855 181.539 379.117 180.84 379.117C180.215 379.117 179.701 378.941 179.299 378.59C178.9 378.234 178.701 377.785 178.701 377.242C178.701 376.582 178.951 376.07 179.451 375.707C179.955 375.34 180.662 375.156 181.572 375.156H182.627V374.658C182.627 374.279 182.514 373.979 182.287 373.756C182.061 373.529 181.727 373.416 181.285 373.416C180.898 373.416 180.574 373.514 180.312 373.709C180.051 373.904 179.92 374.141 179.92 374.418H178.83C178.83 374.102 178.941 373.797 179.164 373.504C179.391 373.207 179.695 372.973 180.078 372.801C180.465 372.629 180.889 372.543 181.35 372.543C182.08 372.543 182.652 372.727 183.066 373.094C183.48 373.457 183.695 373.959 183.711 374.6V377.518C183.711 378.1 183.785 378.562 183.934 378.906V379H182.797ZM180.998 378.174C181.338 378.174 181.66 378.086 181.965 377.91C182.27 377.734 182.49 377.506 182.627 377.225V375.924H181.777C180.449 375.924 179.785 376.312 179.785 377.09C179.785 377.43 179.898 377.695 180.125 377.887C180.352 378.078 180.643 378.174 180.998 378.174ZM189.102 377.318C189.102 377.025 188.99 376.799 188.768 376.639C188.549 376.475 188.164 376.334 187.613 376.217C187.066 376.1 186.631 375.959 186.307 375.795C185.986 375.631 185.748 375.436 185.592 375.209C185.439 374.982 185.363 374.713 185.363 374.4C185.363 373.881 185.582 373.441 186.02 373.082C186.461 372.723 187.023 372.543 187.707 372.543C188.426 372.543 189.008 372.729 189.453 373.1C189.902 373.471 190.127 373.945 190.127 374.523H189.037C189.037 374.227 188.91 373.971 188.656 373.756C188.406 373.541 188.09 373.434 187.707 373.434C187.312 373.434 187.004 373.52 186.781 373.691C186.559 373.863 186.447 374.088 186.447 374.365C186.447 374.627 186.551 374.824 186.758 374.957C186.965 375.09 187.338 375.217 187.877 375.338C188.42 375.459 188.859 375.604 189.195 375.771C189.531 375.939 189.779 376.143 189.939 376.381C190.104 376.615 190.186 376.902 190.186 377.242C190.186 377.809 189.959 378.264 189.506 378.607C189.053 378.947 188.465 379.117 187.742 379.117C187.234 379.117 186.785 379.027 186.395 378.848C186.004 378.668 185.697 378.418 185.475 378.098C185.256 377.773 185.146 377.424 185.146 377.049H186.23C186.25 377.412 186.395 377.701 186.664 377.916C186.938 378.127 187.297 378.232 187.742 378.232C188.152 378.232 188.48 378.15 188.727 377.986C188.977 377.818 189.102 377.596 189.102 377.318ZM192.775 379H191.691V372.66H192.775V379ZM191.604 370.979C191.604 370.803 191.656 370.654 191.762 370.533C191.871 370.412 192.031 370.352 192.242 370.352C192.453 370.352 192.613 370.412 192.723 370.533C192.832 370.654 192.887 370.803 192.887 370.979C192.887 371.154 192.832 371.301 192.723 371.418C192.613 371.535 192.453 371.594 192.242 371.594C192.031 371.594 191.871 371.535 191.762 371.418C191.656 371.301 191.604 371.154 191.604 370.979ZM195.541 372.66L195.576 373.457C196.061 372.848 196.693 372.543 197.475 372.543C198.814 372.543 199.49 373.299 199.502 374.811V379H198.418V374.805C198.414 374.348 198.309 374.01 198.102 373.791C197.898 373.572 197.58 373.463 197.146 373.463C196.795 373.463 196.486 373.557 196.221 373.744C195.955 373.932 195.748 374.178 195.6 374.482V379H194.516V372.66H195.541ZM200.879 375.777C200.879 374.789 201.107 374.004 201.564 373.422C202.021 372.836 202.627 372.543 203.381 372.543C204.154 372.543 204.758 372.816 205.191 373.363L205.244 372.66H206.234V378.848C206.234 379.668 205.99 380.314 205.502 380.787C205.018 381.26 204.365 381.496 203.545 381.496C203.088 381.496 202.641 381.398 202.203 381.203C201.766 381.008 201.432 380.74 201.201 380.4L201.764 379.75C202.229 380.324 202.797 380.611 203.469 380.611C203.996 380.611 204.406 380.463 204.699 380.166C204.996 379.869 205.145 379.451 205.145 378.912V378.367C204.711 378.867 204.119 379.117 203.369 379.117C202.627 379.117 202.025 378.818 201.564 378.221C201.107 377.623 200.879 376.809 200.879 375.777ZM201.969 375.9C201.969 376.615 202.115 377.178 202.408 377.588C202.701 377.994 203.111 378.197 203.639 378.197C204.322 378.197 204.824 377.887 205.145 377.266V374.371C204.812 373.766 204.314 373.463 203.65 373.463C203.123 373.463 202.711 373.668 202.414 374.078C202.117 374.488 201.969 375.096 201.969 375.9ZM212.229 379H211.104V370.469H212.229V379ZM215.146 372.66L215.182 373.457C215.666 372.848 216.299 372.543 217.08 372.543C218.42 372.543 219.096 373.299 219.107 374.811V379H218.023V374.805C218.02 374.348 217.914 374.01 217.707 373.791C217.504 373.572 217.186 373.463 216.752 373.463C216.4 373.463 216.092 373.557 215.826 373.744C215.561 373.932 215.354 374.178 215.205 374.482V379H214.121V372.66H215.146ZM220.479 375.777C220.479 374.805 220.709 374.023 221.17 373.434C221.631 372.84 222.234 372.543 222.98 372.543C223.723 372.543 224.311 372.797 224.744 373.305V370H225.828V379H224.832L224.779 378.32C224.346 378.852 223.742 379.117 222.969 379.117C222.234 379.117 221.635 378.816 221.17 378.215C220.709 377.613 220.479 376.828 220.479 375.859V375.777ZM221.562 375.9C221.562 376.619 221.711 377.182 222.008 377.588C222.305 377.994 222.715 378.197 223.238 378.197C223.926 378.197 224.428 377.889 224.744 377.271V374.359C224.42 373.762 223.922 373.463 223.25 373.463C222.719 373.463 222.305 373.668 222.008 374.078C221.711 374.488 221.562 375.096 221.562 375.9ZM228.693 379H227.609V372.66H228.693V379ZM227.521 370.979C227.521 370.803 227.574 370.654 227.68 370.533C227.789 370.412 227.949 370.352 228.16 370.352C228.371 370.352 228.531 370.412 228.641 370.533C228.75 370.654 228.805 370.803 228.805 370.979C228.805 371.154 228.75 371.301 228.641 371.418C228.531 371.535 228.371 371.594 228.16 371.594C227.949 371.594 227.789 371.535 227.68 371.418C227.574 371.301 227.521 371.154 227.521 370.979ZM232.203 376.064L231.523 376.773V379H230.439V370H231.523V375.443L232.104 374.746L234.078 372.66H235.396L232.93 375.309L235.684 379H234.412L232.203 376.064ZM240.43 379C240.367 378.875 240.316 378.652 240.277 378.332C239.773 378.855 239.172 379.117 238.473 379.117C237.848 379.117 237.334 378.941 236.932 378.59C236.533 378.234 236.334 377.785 236.334 377.242C236.334 376.582 236.584 376.07 237.084 375.707C237.588 375.34 238.295 375.156 239.205 375.156H240.26V374.658C240.26 374.279 240.146 373.979 239.92 373.756C239.693 373.529 239.359 373.416 238.918 373.416C238.531 373.416 238.207 373.514 237.945 373.709C237.684 373.904 237.553 374.141 237.553 374.418H236.463C236.463 374.102 236.574 373.797 236.797 373.504C237.023 373.207 237.328 372.973 237.711 372.801C238.098 372.629 238.521 372.543 238.982 372.543C239.713 372.543 240.285 372.727 240.699 373.094C241.113 373.457 241.328 373.959 241.344 374.6V377.518C241.344 378.1 241.418 378.562 241.566 378.906V379H240.43ZM238.631 378.174C238.971 378.174 239.293 378.086 239.598 377.91C239.902 377.734 240.123 377.506 240.26 377.225V375.924H239.41C238.082 375.924 237.418 376.312 237.418 377.09C237.418 377.43 237.531 377.695 237.758 377.887C237.984 378.078 238.275 378.174 238.631 378.174ZM244.514 371.125V372.66H245.697V373.498H244.514V377.43C244.514 377.684 244.566 377.875 244.672 378.004C244.777 378.129 244.957 378.191 245.211 378.191C245.336 378.191 245.508 378.168 245.727 378.121V379C245.441 379.078 245.164 379.117 244.895 379.117C244.41 379.117 244.045 378.971 243.799 378.678C243.553 378.385 243.43 377.969 243.43 377.43V373.498H242.275V372.66H243.43V371.125H244.514ZM246.564 375.771C246.564 375.15 246.686 374.592 246.928 374.096C247.174 373.6 247.514 373.217 247.947 372.947C248.385 372.678 248.883 372.543 249.441 372.543C250.305 372.543 251.002 372.842 251.533 373.439C252.068 374.037 252.336 374.832 252.336 375.824V375.9C252.336 376.518 252.217 377.072 251.979 377.564C251.744 378.053 251.406 378.434 250.965 378.707C250.527 378.98 250.023 379.117 249.453 379.117C248.594 379.117 247.896 378.818 247.361 378.221C246.83 377.623 246.564 376.832 246.564 375.848V375.771ZM247.654 375.9C247.654 376.604 247.816 377.168 248.141 377.594C248.469 378.02 248.906 378.232 249.453 378.232C250.004 378.232 250.441 378.018 250.766 377.588C251.09 377.154 251.252 376.549 251.252 375.771C251.252 375.076 251.086 374.514 250.754 374.084C250.426 373.65 249.988 373.434 249.441 373.434C248.906 373.434 248.475 373.646 248.146 374.072C247.818 374.498 247.654 375.107 247.654 375.9ZM256.76 373.633C256.596 373.605 256.418 373.592 256.227 373.592C255.516 373.592 255.033 373.895 254.779 374.5V379H253.695V372.66H254.75L254.768 373.393C255.123 372.826 255.627 372.543 256.279 372.543C256.49 372.543 256.65 372.57 256.76 372.625V373.633ZM262.115 379H260.99V370.469H262.115V379ZM266.691 375.197C265.727 374.92 265.023 374.58 264.582 374.178C264.145 373.771 263.926 373.271 263.926 372.678C263.926 372.006 264.193 371.451 264.729 371.014C265.268 370.572 265.967 370.352 266.826 370.352C267.412 370.352 267.934 370.465 268.391 370.691C268.852 370.918 269.207 371.23 269.457 371.629C269.711 372.027 269.838 372.463 269.838 372.936H268.707C268.707 372.42 268.543 372.016 268.215 371.723C267.887 371.426 267.424 371.277 266.826 371.277C266.271 371.277 265.838 371.4 265.525 371.646C265.217 371.889 265.062 372.227 265.062 372.66C265.062 373.008 265.209 373.303 265.502 373.545C265.799 373.783 266.301 374.002 267.008 374.201C267.719 374.4 268.273 374.621 268.672 374.863C269.074 375.102 269.371 375.381 269.562 375.701C269.758 376.021 269.855 376.398 269.855 376.832C269.855 377.523 269.586 378.078 269.047 378.496C268.508 378.91 267.787 379.117 266.885 379.117C266.299 379.117 265.752 379.006 265.244 378.783C264.736 378.557 264.344 378.248 264.066 377.857C263.793 377.467 263.656 377.023 263.656 376.527H264.787C264.787 377.043 264.977 377.451 265.355 377.752C265.738 378.049 266.248 378.197 266.885 378.197C267.479 378.197 267.934 378.076 268.25 377.834C268.566 377.592 268.725 377.262 268.725 376.844C268.725 376.426 268.578 376.104 268.285 375.877C267.992 375.646 267.461 375.42 266.691 375.197ZM273.471 375.033L272.428 376.117V379H271.303V370.469H272.428V374.688L276.219 370.469H277.578L274.221 374.236L277.842 379H276.494L273.471 375.033Z" fill="#444444"/>
<path d="M133.273 352H130.93V347.125H126.359V352H124.016V340.625H126.359V345.234H130.93V340.625H133.273V352ZM140.078 352C139.974 351.797 139.898 351.544 139.852 351.242C139.305 351.852 138.594 352.156 137.719 352.156C136.891 352.156 136.203 351.917 135.656 351.438C135.115 350.958 134.844 350.354 134.844 349.625C134.844 348.729 135.174 348.042 135.836 347.562C136.503 347.083 137.464 346.841 138.719 346.836H139.758V346.352C139.758 345.961 139.656 345.648 139.453 345.414C139.255 345.18 138.94 345.062 138.508 345.062C138.128 345.062 137.828 345.154 137.609 345.336C137.396 345.518 137.289 345.768 137.289 346.086H135.031C135.031 345.596 135.182 345.143 135.484 344.727C135.786 344.31 136.214 343.984 136.766 343.75C137.318 343.51 137.938 343.391 138.625 343.391C139.667 343.391 140.492 343.654 141.102 344.18C141.716 344.701 142.023 345.435 142.023 346.383V350.047C142.029 350.849 142.141 351.456 142.359 351.867V352H140.078ZM138.211 350.43C138.544 350.43 138.852 350.357 139.133 350.211C139.414 350.06 139.622 349.859 139.758 349.609V348.156H138.914C137.784 348.156 137.182 348.547 137.109 349.328L137.102 349.461C137.102 349.742 137.201 349.974 137.398 350.156C137.596 350.339 137.867 350.43 138.211 350.43ZM148.336 349.664C148.336 349.388 148.198 349.172 147.922 349.016C147.651 348.854 147.214 348.711 146.609 348.586C144.599 348.164 143.594 347.31 143.594 346.023C143.594 345.273 143.904 344.648 144.523 344.148C145.148 343.643 145.964 343.391 146.969 343.391C148.042 343.391 148.898 343.643 149.539 344.148C150.185 344.654 150.508 345.31 150.508 346.117H148.25C148.25 345.794 148.146 345.529 147.938 345.32C147.729 345.107 147.404 345 146.961 345C146.581 345 146.286 345.086 146.078 345.258C145.87 345.43 145.766 345.648 145.766 345.914C145.766 346.164 145.883 346.367 146.117 346.523C146.357 346.674 146.758 346.807 147.32 346.922C147.883 347.031 148.357 347.156 148.742 347.297C149.935 347.734 150.531 348.492 150.531 349.57C150.531 350.341 150.201 350.966 149.539 351.445C148.878 351.919 148.023 352.156 146.977 352.156C146.268 352.156 145.638 352.031 145.086 351.781C144.539 351.526 144.109 351.18 143.797 350.742C143.484 350.299 143.328 349.823 143.328 349.312H145.469C145.49 349.714 145.638 350.021 145.914 350.234C146.19 350.448 146.56 350.555 147.023 350.555C147.456 350.555 147.781 350.474 148 350.312C148.224 350.146 148.336 349.93 148.336 349.664ZM154.375 352H152.109V343.547H154.375V352ZM151.977 341.359C151.977 341.021 152.089 340.742 152.312 340.523C152.542 340.305 152.852 340.195 153.242 340.195C153.628 340.195 153.935 340.305 154.164 340.523C154.393 340.742 154.508 341.021 154.508 341.359C154.508 341.703 154.391 341.984 154.156 342.203C153.927 342.422 153.622 342.531 153.242 342.531C152.862 342.531 152.555 342.422 152.32 342.203C152.091 341.984 151.977 341.703 151.977 341.359ZM158.625 352H156.359V340H158.625V352ZM170.523 349.016C170.523 348.573 170.367 348.234 170.055 348C169.742 347.76 169.18 347.51 168.367 347.25C167.555 346.984 166.911 346.724 166.438 346.469C165.146 345.771 164.5 344.831 164.5 343.648C164.5 343.034 164.672 342.487 165.016 342.008C165.365 341.523 165.862 341.146 166.508 340.875C167.159 340.604 167.888 340.469 168.695 340.469C169.508 340.469 170.232 340.617 170.867 340.914C171.503 341.206 171.995 341.62 172.344 342.156C172.698 342.693 172.875 343.302 172.875 343.984H170.531C170.531 343.464 170.367 343.06 170.039 342.773C169.711 342.482 169.25 342.336 168.656 342.336C168.083 342.336 167.638 342.458 167.32 342.703C167.003 342.943 166.844 343.26 166.844 343.656C166.844 344.026 167.029 344.336 167.398 344.586C167.773 344.836 168.323 345.07 169.047 345.289C170.38 345.69 171.352 346.188 171.961 346.781C172.57 347.375 172.875 348.115 172.875 349C172.875 349.984 172.503 350.758 171.758 351.32C171.013 351.878 170.01 352.156 168.75 352.156C167.875 352.156 167.078 351.997 166.359 351.68C165.641 351.357 165.091 350.917 164.711 350.359C164.336 349.802 164.148 349.156 164.148 348.422H166.5C166.5 349.677 167.25 350.305 168.75 350.305C169.307 350.305 169.742 350.193 170.055 349.969C170.367 349.74 170.523 349.422 170.523 349.016ZM177.391 348.609L176.578 349.422V352H174.32V340H176.578V346.648L177.016 346.086L179.18 343.547H181.891L178.836 347.07L182.156 352H179.562L177.391 348.609ZM182.516 347.695C182.516 346.857 182.677 346.109 183 345.453C183.323 344.797 183.786 344.289 184.391 343.93C185 343.57 185.706 343.391 186.508 343.391C187.648 343.391 188.578 343.74 189.297 344.438C190.021 345.135 190.424 346.083 190.508 347.281L190.523 347.859C190.523 349.156 190.161 350.198 189.438 350.984C188.714 351.766 187.742 352.156 186.523 352.156C185.305 352.156 184.331 351.766 183.602 350.984C182.878 350.203 182.516 349.141 182.516 347.797V347.695ZM184.773 347.859C184.773 348.661 184.924 349.276 185.227 349.703C185.529 350.125 185.961 350.336 186.523 350.336C187.07 350.336 187.497 350.128 187.805 349.711C188.112 349.289 188.266 348.617 188.266 347.695C188.266 346.909 188.112 346.299 187.805 345.867C187.497 345.435 187.065 345.219 186.508 345.219C185.956 345.219 185.529 345.435 185.227 345.867C184.924 346.294 184.773 346.958 184.773 347.859ZM196.664 345.664C196.357 345.622 196.086 345.602 195.852 345.602C194.997 345.602 194.438 345.891 194.172 346.469V352H191.914V343.547H194.047L194.109 344.555C194.562 343.779 195.19 343.391 195.992 343.391C196.242 343.391 196.477 343.424 196.695 343.492L196.664 345.664Z" fill="black"/>
<defs>
<clipPath id="clip0">
<rect x="19" y="109" width="280" height="190" fill="white"/>
</clipPath>
</defs>
</svg>
