<svg width="320" height="382" viewBox="0 0 320 382" fill="none" xmlns="http://www.w3.org/2000/svg">
<circle cx="160" cy="160" r="160" fill="#C82247"/>
<ellipse cx="124" cy="131.5" rx="115" ry="118.5" fill="white" fill-opacity="0.08"/>
<g clip-path="url(#clip0)">
<path d="M263.186 207.025C263.186 234.857 246.172 259.48 220.091 274.469C203.369 284.081 182.917 289.732 160.834 289.732C131.415 289.732 108.974 279.069 92.0939 262.734C76.5347 247.681 65.7008 227.809 58.482 207.025C26.2556 114.231 80.0902 88.9154 160.834 124.318C212.244 146.861 263.186 161.349 263.186 207.025Z" fill="#DF4A6C"/>
<path d="M220.091 158.447V274.689C203.369 284.301 182.917 289.952 160.834 289.952C131.415 289.952 108.974 279.289 92.0938 262.954V158.447H220.091Z" fill="#F2F2F2"/>
<path d="M104.405 215.086C111.107 213.042 118.06 211.853 125.086 211.55C128.606 211.407 132.133 211.539 135.631 211.946C139.095 212.385 142.517 213.088 145.865 214.047C149.173 214.966 152.435 216.027 155.732 216.981C159.081 217.962 162.485 218.759 165.929 219.367C169.355 219.962 172.815 220.358 176.29 220.552C179.732 220.744 183.207 220.781 186.639 220.429C189.845 220.133 192.984 219.37 195.95 218.166C198.716 217.008 201.272 215.436 203.522 213.508C204.084 213.027 204.624 212.525 205.143 212.002C205.449 211.695 204.963 211.227 204.656 211.535C200.269 215.933 194.503 218.66 188.249 219.571C184.842 220.067 181.37 220.096 177.933 219.968C174.419 219.838 170.916 219.499 167.446 218.952C164.018 218.407 160.627 217.666 157.29 216.735C154.013 215.824 150.78 214.774 147.514 213.828C144.219 212.835 140.856 212.067 137.449 211.528C134.032 211.028 130.578 210.799 127.122 210.84C120.216 210.946 113.355 211.921 106.713 213.739C105.879 213.963 105.049 214.201 104.222 214.45C103.801 214.577 103.981 215.214 104.405 215.086H104.405Z" fill="#AA1738"/>
<path d="M104.405 231.806C111.107 229.762 118.06 228.573 125.086 228.27C128.606 228.127 132.133 228.259 135.631 228.666C139.095 229.105 142.517 229.808 145.865 230.768C149.173 231.686 152.435 232.747 155.732 233.701C159.081 234.682 162.485 235.479 165.929 236.087C169.355 236.682 172.815 237.078 176.29 237.272C179.732 237.464 183.207 237.501 186.639 237.15C189.845 236.854 192.984 236.09 195.95 234.886C198.716 233.728 201.272 232.156 203.522 230.228C204.084 229.747 204.624 229.245 205.143 228.722C205.449 228.415 204.963 227.947 204.656 228.255C200.269 232.653 194.503 235.381 188.249 236.291C184.842 236.787 181.37 236.816 177.933 236.688C174.419 236.558 170.916 236.219 167.446 235.672C164.018 235.127 160.627 234.386 157.29 233.455C154.013 232.544 150.78 231.494 147.514 230.548C144.219 229.555 140.856 228.787 137.449 228.248C134.032 227.749 130.578 227.519 127.122 227.56C120.216 227.666 113.355 228.641 106.713 230.459C105.879 230.684 105.049 230.921 104.222 231.17C103.801 231.297 103.981 231.934 104.405 231.806H104.405Z" fill="#AA1738"/>
<path d="M104.405 199.906C111.107 197.862 118.06 196.673 125.086 196.37C128.606 196.227 132.133 196.359 135.631 196.766C139.095 197.205 142.517 197.908 145.865 198.867C149.173 199.786 152.435 200.847 155.732 201.801C159.081 202.782 162.485 203.579 165.929 204.187C169.355 204.782 172.815 205.177 176.29 205.372C179.732 205.564 183.207 205.601 186.639 205.249C189.845 204.953 192.984 204.19 195.95 202.986C198.716 201.828 201.272 200.256 203.522 198.328C204.084 197.847 204.624 197.345 205.143 196.822C205.449 196.515 204.963 196.047 204.656 196.355C200.269 200.753 194.503 203.48 188.249 204.391C184.842 204.887 181.37 204.916 177.933 204.788C174.419 204.658 170.916 204.319 167.446 203.772C164.018 203.227 160.627 202.486 157.29 201.555C154.013 200.644 150.78 199.594 147.514 198.647C144.219 197.655 140.856 196.887 137.449 196.348C134.032 195.848 130.578 195.618 127.122 195.66C120.216 195.766 113.355 196.741 106.713 198.559C105.879 198.783 105.049 199.02 104.222 199.27C103.801 199.397 103.981 200.034 104.405 199.906H104.405Z" fill="#AA1738"/>
<path d="M103.585 171.205C105.25 170.498 107.158 170.621 108.886 171.031C110.749 171.474 112.503 172.243 114.337 172.775C117.62 173.713 121.107 173.776 124.425 172.958C126.293 172.501 128.075 171.769 129.708 170.786C130.082 170.561 129.737 169.99 129.361 170.216C126.45 171.96 123.085 172.88 119.653 172.871C117.932 172.868 116.221 172.626 114.572 172.153C112.751 171.629 111.011 170.869 109.166 170.418C107.212 169.941 105.116 169.837 103.238 170.635C102.834 170.807 103.184 171.376 103.585 171.205V171.205Z" fill="#AA1738"/>
<path d="M154.716 272.407C160.544 272.407 165.268 267.876 165.268 262.287C165.268 256.698 160.544 252.167 154.716 252.167C148.889 252.167 144.165 256.698 144.165 262.287C144.165 267.876 148.889 272.407 154.716 272.407Z" fill="#AA1738"/>
<path d="M97.8289 137.767C100.996 137.767 103.564 135.304 103.564 132.267C103.564 129.229 100.996 126.767 97.8289 126.767C94.6617 126.767 92.0942 129.229 92.0942 132.267C92.0942 135.304 94.6617 137.767 97.8289 137.767Z" fill="#F2F2F2"/>
<path d="M148.064 151.627C150.218 151.627 151.964 149.952 151.964 147.887C151.964 145.821 150.218 144.147 148.064 144.147C145.91 144.147 144.165 145.821 144.165 147.887C144.165 149.952 145.91 151.627 148.064 151.627Z" fill="#F2F2F2"/>
<path d="M84.7536 187.487C86.9072 187.487 88.6531 185.812 88.6531 183.747C88.6531 181.681 86.9072 180.007 84.7536 180.007C82.5999 180.007 80.854 181.681 80.854 183.747C80.854 185.812 82.5999 187.487 84.7536 187.487Z" fill="#F2F2F2"/>
<path d="M69.0531 155.962H68.623V229.717H69.0531V155.962Z" fill="#AA1738"/>
<path d="M68.9212 223.396C73.5525 223.396 77.3068 215.179 77.3068 205.042C77.3068 194.906 73.5525 186.689 68.9212 186.689C64.29 186.689 60.5356 194.906 60.5356 205.042C60.5356 215.179 64.29 223.396 68.9212 223.396Z" fill="#AA1738"/>
<path d="M68.9212 181.533C73.5525 181.533 77.3068 173.316 77.3068 163.18C77.3068 153.044 73.5525 144.827 68.9212 144.827C64.29 144.827 60.5356 153.044 60.5356 163.18C60.5356 173.316 64.29 181.533 68.9212 181.533Z" fill="#AA1738"/>
<path d="M69.1271 148.185L68.7152 148.067C68.7412 147.983 71.2693 139.674 67.1182 134.325C64.7736 131.304 60.7503 129.773 55.1602 129.773V129.36C60.8946 129.36 65.0343 130.948 67.4643 134.081C71.744 139.597 69.1538 148.1 69.1271 148.185Z" fill="#AA1738"/>
<path d="M55.1601 134.722C58.1288 134.722 60.5354 132.414 60.5354 129.566C60.5354 126.719 58.1288 124.411 55.1601 124.411C52.1913 124.411 49.7847 126.719 49.7847 129.566C49.7847 132.414 52.1913 134.722 55.1601 134.722Z" fill="#AA1738"/>
<path d="M225.797 246.43L221.775 281.916H249.525L250.731 279.216L252.34 281.916H278.481C278.481 281.916 276.47 245.273 272.851 244.115C269.231 242.958 225.797 246.43 225.797 246.43Z" fill="#2F2E41"/>
<path d="M249.525 168.515C257.299 168.515 263.601 162.471 263.601 155.015C263.601 147.559 257.299 141.515 249.525 141.515C241.751 141.515 235.449 147.559 235.449 155.015C235.449 162.471 241.751 168.515 249.525 168.515Z" fill="#FFB8B8"/>
<path d="M241.481 163.501C241.481 163.501 242.688 175.843 241.481 176.615C240.275 177.386 260.786 177.001 260.786 177.001C260.786 177.001 257.97 165.815 260.786 160.415L241.481 163.501Z" fill="#FFB8B8"/>
<path d="M248.721 173.915C248.721 173.915 259.069 175.461 259.927 172.373L265.21 179.315L265.612 248.744C265.612 248.744 222.58 253.758 220.971 245.658C219.362 237.558 237.46 173.529 237.46 173.529L242.016 173.246C242.016 173.246 247.916 173.915 248.721 173.915Z" fill="#D0CDE1"/>
<path d="M241.948 170.079L235.047 172.372L215.341 177.001L216.145 223.287C216.145 223.287 199.254 269.573 206.895 273.044C214.536 276.516 225.395 268.416 228.612 262.63C231.83 256.844 243.09 176.615 243.09 175.072C243.09 173.529 241.948 170.079 241.948 170.079Z" fill="#AA1738"/>
<path d="M259.669 170.079L262.394 172.372L281.698 180.858L272.046 227.53C272.046 227.53 284.916 269.958 280.09 272.273C275.264 274.587 268.025 281.144 266.416 277.287C264.807 273.43 255.334 174.342 259.669 170.079Z" fill="#AA1738"/>
<path d="M270.84 231.772C270.84 231.772 252.742 224.444 252.34 231.001C251.938 237.558 272.851 242.187 272.851 240.258C272.851 238.33 270.84 231.772 270.84 231.772Z" fill="#FFB8B8"/>
<path d="M226.601 229.072C226.601 229.072 247.514 244.115 239.471 247.973C231.427 251.83 220.971 234.472 220.971 234.472L226.601 229.072Z" fill="#FFB8B8"/>
<path d="M255.774 135.239C255.84 135.105 255.947 134.993 256.08 134.917C256.213 134.841 256.367 134.805 256.521 134.814C250.077 134.444 243.289 135.165 237.898 138.571C236.388 139.524 234.978 140.691 233.259 141.228L234.654 142.278L232.987 142.765L235.441 144.286C235.193 144.556 234.875 144.759 234.519 144.873C234.164 144.987 233.783 145.009 233.416 144.937C234.482 145.236 235.267 146.146 235.666 147.14C236.064 148.134 236.136 149.217 236.203 150.281C236.615 148.746 238.361 147.843 240.011 147.751C241.66 147.659 243.268 148.181 244.873 148.557C248.369 149.371 252 149.505 255.551 148.95C254.345 151.271 255.362 154.039 256.386 156.439L258.429 161.231C259.564 161.341 260.366 160.258 261.221 159.535C262 158.875 258.898 164.677 259.378 164.465C260.002 164.189 266.586 157.217 266.894 156.628C268.301 153.941 269.145 150.944 269.018 147.94C268.891 144.935 267.745 141.93 265.586 139.749C264.12 138.269 262.092 138.01 260.597 136.78C260.009 136.296 260.007 135.918 259.199 135.636C258.93 135.542 255.819 135.145 255.774 135.239Z" fill="#2F2E41"/>
<path d="M218.155 178.158L215.34 177.001L192.819 212.487C192.819 212.487 188.797 221.744 196.036 225.987C203.275 230.23 220.166 242.958 220.166 242.958L229.818 228.687C229.818 228.687 210.112 219.815 211.319 216.344C212.525 212.872 218.96 203.615 218.96 203.615L218.155 178.158Z" fill="#AA1738"/>
<path d="M276.47 180.086L281.699 180.858C281.699 180.858 303.416 221.744 298.188 229.458C292.959 237.173 271.644 247.973 271.644 247.973C271.644 247.973 271.242 235.244 267.623 230.615L280.09 225.987L273.253 200.529L276.47 180.086Z" fill="#AA1738"/>
</g>
<g clip-path="url(#clip1)">
<path d="M50.434 279.69C67.7945 279.69 81.868 278.156 81.868 276.264C81.868 274.372 67.7945 272.838 50.434 272.838C33.0735 272.838 19 274.372 19 276.264C19 278.156 33.0735 279.69 50.434 279.69Z" fill="#D0CDE1"/>
<path d="M69.5037 226.326H31.3638V276.28H69.5037V226.326Z" fill="#D0CDE1"/>
<path d="M64.1173 243.772H36.8745V245.098H64.1173V243.772Z" fill="white"/>
<path d="M64.1173 248.413H36.8745V249.74H64.1173V248.413Z" fill="white"/>
<path d="M64.1173 253.055H36.8745V254.381H64.1173V253.055Z" fill="white"/>
<path d="M64.1173 257.697H36.8745V259.023H64.1173V257.697Z" fill="white"/>
<path d="M57.9174 205.572C57.9157 207.468 57.2655 209.299 56.0864 210.73C54.9072 212.16 53.2783 213.094 51.4988 213.359C49.7194 213.624 47.9091 213.203 46.4004 212.173C44.8917 211.143 43.7861 209.573 43.2867 207.752C42.7872 205.932 42.9275 203.982 43.6818 202.261C44.4361 200.541 45.7536 199.165 47.3924 198.387C49.0311 197.609 50.881 197.481 52.6021 198.027C54.3232 198.572 55.7999 199.754 56.7609 201.356C57.5166 202.618 57.9176 204.08 57.9174 205.572V205.572Z" fill="#D0CDE1"/>
<path d="M56.7608 201.356L49.3944 209.124C48.9314 208.368 46.3521 204.855 46.3521 204.855C46.6826 204.503 47.0354 204.174 47.4079 203.872L49.5468 206.88L55.8981 200.181C56.2202 200.543 56.5091 200.936 56.7608 201.356V201.356Z" fill="white"/>
<path d="M152.148 277.68C169.509 277.68 183.582 276.146 183.582 274.254C183.582 272.362 169.509 270.828 152.148 270.828C134.788 270.828 120.714 272.362 120.714 274.254C120.714 276.146 134.788 277.68 152.148 277.68Z" fill="#D0CDE1"/>
<path d="M171.218 224.316H133.078V274.27H171.218V224.316Z" fill="#D0CDE1"/>
<path d="M165.832 252.124H138.589V253.45H165.832V252.124Z" fill="white"/>
<path d="M165.832 256.765H138.589V258.092H165.832V256.765Z" fill="white"/>
<path d="M165.832 261.407H138.589V262.734H165.832V261.407Z" fill="white"/>
<path d="M165.832 266.049H138.589V267.375H165.832V266.049Z" fill="white"/>
<path d="M146.935 242.096H138.279C137.688 238.494 137.688 234.812 138.279 231.211H146.935C145.959 234.766 145.959 238.541 146.935 242.096V242.096Z" fill="white"/>
<path d="M166.46 232.23H150.534V233.335H166.46V232.23Z" fill="white"/>
<path d="M166.46 236.209H150.534V237.314H166.46V236.209Z" fill="white"/>
<path d="M166.46 240.188H150.534V241.293H166.46V240.188Z" fill="white"/>
<path d="M166.46 244.166H150.534V245.272H166.46V244.166Z" fill="white"/>
<path d="M159.631 203.822C159.63 205.717 158.979 207.548 157.8 208.979C156.621 210.409 154.992 211.343 153.213 211.608C151.433 211.873 149.623 211.452 148.114 210.422C146.606 209.392 145.5 207.823 145.001 206.002C144.501 204.181 144.641 202.231 145.396 200.511C146.15 198.79 147.467 197.414 149.106 196.636C150.745 195.859 152.595 195.73 154.316 196.276C156.037 196.821 157.514 198.003 158.475 199.605C159.231 200.867 159.632 202.329 159.631 203.822V203.822Z" fill="#D0CDE1"/>
<path d="M158.475 199.605L151.109 207.374C150.646 206.618 148.066 203.104 148.066 203.104C148.397 202.752 148.75 202.423 149.122 202.121L151.261 205.129L157.612 198.43C157.935 198.792 158.223 199.185 158.475 199.605Z" fill="white"/>
<path d="M101.873 299C122.219 299 138.713 297.202 138.713 294.985C138.713 292.767 122.219 290.969 101.873 290.969C81.527 290.969 65.0332 292.767 65.0332 294.985C65.0332 297.202 81.527 299 101.873 299Z" fill="#D0CDE1"/>
<path d="M123.977 237.346H79.2783V295.891H123.977V237.346Z" fill="#14BF82"/>
<path d="M117.591 249.78H85.6636V251.335H117.591V249.78Z" fill="white"/>
<path d="M117.591 255.22H85.6636V256.775H117.591V255.22Z" fill="white"/>
<path d="M117.591 260.66H85.6636V262.215H117.591V260.66Z" fill="white"/>
<path d="M117.591 266.1H85.6636V267.655H117.591V266.1Z" fill="white"/>
<path d="M117.591 271.541H85.6636V273.095H117.591V271.541Z" fill="white"/>
<path d="M109.978 277.24H93.2773V283.457H109.978V277.24Z" fill="white"/>
<path d="M113.003 212.189C113 215.037 112.023 217.789 110.251 219.938C108.48 222.088 106.032 223.491 103.358 223.889C100.684 224.288 97.9632 223.655 95.6961 222.107C93.4289 220.56 91.7675 218.201 91.017 215.465C90.2664 212.728 90.4773 209.798 91.6107 207.213C92.7442 204.628 94.7241 202.56 97.1867 201.391C99.6494 200.222 102.429 200.03 105.016 200.849C107.602 201.669 109.821 203.445 111.265 205.852C112.401 207.749 113.003 209.946 113.003 212.189V212.189Z" fill="#14BF82"/>
<path d="M111.265 205.852L100.196 217.526C99.5001 216.39 95.624 211.11 95.624 211.11C96.1208 210.581 96.6509 210.087 97.2107 209.633L100.425 214.153L109.969 204.086C110.453 204.63 110.887 205.222 111.265 205.852Z" fill="white"/>
</g>
<path d="M17.7539 379H16.623V375.057H12.3223V379H11.1973V370.469H12.3223V374.137H16.623V370.469H17.7539V379ZM23.4961 379C23.4336 378.875 23.3828 378.652 23.3438 378.332C22.8398 378.855 22.2383 379.117 21.5391 379.117C20.9141 379.117 20.4004 378.941 19.998 378.59C19.5996 378.234 19.4004 377.785 19.4004 377.242C19.4004 376.582 19.6504 376.07 20.1504 375.707C20.6543 375.34 21.3613 375.156 22.2715 375.156H23.3262V374.658C23.3262 374.279 23.2129 373.979 22.9863 373.756C22.7598 373.529 22.4258 373.416 21.9844 373.416C21.5977 373.416 21.2734 373.514 21.0117 373.709C20.75 373.904 20.6191 374.141 20.6191 374.418H19.5293C19.5293 374.102 19.6406 373.797 19.8633 373.504C20.0898 373.207 20.3945 372.973 20.7773 372.801C21.1641 372.629 21.5879 372.543 22.0488 372.543C22.7793 372.543 23.3516 372.727 23.7656 373.094C24.1797 373.457 24.3945 373.959 24.4102 374.6V377.518C24.4102 378.1 24.4844 378.562 24.6328 378.906V379H23.4961ZM21.6973 378.174C22.0371 378.174 22.3594 378.086 22.6641 377.91C22.9688 377.734 23.1895 377.506 23.3262 377.225V375.924H22.4766C21.1484 375.924 20.4844 376.312 20.4844 377.09C20.4844 377.43 20.5977 377.695 20.8242 377.887C21.0508 378.078 21.3418 378.174 21.6973 378.174ZM29.8008 377.318C29.8008 377.025 29.6895 376.799 29.4668 376.639C29.248 376.475 28.8633 376.334 28.3125 376.217C27.7656 376.1 27.3301 375.959 27.0059 375.795C26.6855 375.631 26.4473 375.436 26.291 375.209C26.1387 374.982 26.0625 374.713 26.0625 374.4C26.0625 373.881 26.2812 373.441 26.7188 373.082C27.1602 372.723 27.7227 372.543 28.4062 372.543C29.125 372.543 29.707 372.729 30.1523 373.1C30.6016 373.471 30.8262 373.945 30.8262 374.523H29.7363C29.7363 374.227 29.6094 373.971 29.3555 373.756C29.1055 373.541 28.7891 373.434 28.4062 373.434C28.0117 373.434 27.7031 373.52 27.4805 373.691C27.2578 373.863 27.1465 374.088 27.1465 374.365C27.1465 374.627 27.25 374.824 27.457 374.957C27.6641 375.09 28.0371 375.217 28.5762 375.338C29.1191 375.459 29.5586 375.604 29.8945 375.771C30.2305 375.939 30.4785 376.143 30.6387 376.381C30.8027 376.615 30.8848 376.902 30.8848 377.242C30.8848 377.809 30.6582 378.264 30.2051 378.607C29.752 378.947 29.1641 379.117 28.4414 379.117C27.9336 379.117 27.4844 379.027 27.0938 378.848C26.7031 378.668 26.3965 378.418 26.1738 378.098C25.9551 377.773 25.8457 377.424 25.8457 377.049H26.9297C26.9492 377.412 27.0938 377.701 27.3633 377.916C27.6367 378.127 27.9961 378.232 28.4414 378.232C28.8516 378.232 29.1797 378.15 29.4258 377.986C29.6758 377.818 29.8008 377.596 29.8008 377.318ZM33.4746 379H32.3906V372.66H33.4746V379ZM32.3027 370.979C32.3027 370.803 32.3555 370.654 32.4609 370.533C32.5703 370.412 32.7305 370.352 32.9414 370.352C33.1523 370.352 33.3125 370.412 33.4219 370.533C33.5312 370.654 33.5859 370.803 33.5859 370.979C33.5859 371.154 33.5312 371.301 33.4219 371.418C33.3125 371.535 33.1523 371.594 32.9414 371.594C32.7305 371.594 32.5703 371.535 32.4609 371.418C32.3555 371.301 32.3027 371.154 32.3027 370.979ZM36.3926 379H35.3086V370H36.3926V379ZM42.8789 376.064L42.1992 376.773V379H41.1152V370H42.1992V375.443L42.7793 374.746L44.7539 372.66H46.0723L43.6055 375.309L46.3594 379H45.0879L42.8789 376.064ZM46.9043 375.771C46.9043 375.15 47.0254 374.592 47.2676 374.096C47.5137 373.6 47.8535 373.217 48.2871 372.947C48.7246 372.678 49.2227 372.543 49.7812 372.543C50.6445 372.543 51.3418 372.842 51.873 373.439C52.4082 374.037 52.6758 374.832 52.6758 375.824V375.9C52.6758 376.518 52.5566 377.072 52.3184 377.564C52.084 378.053 51.7461 378.434 51.3047 378.707C50.8672 378.98 50.3633 379.117 49.793 379.117C48.9336 379.117 48.2363 378.818 47.7012 378.221C47.1699 377.623 46.9043 376.832 46.9043 375.848V375.771ZM47.9941 375.9C47.9941 376.604 48.1562 377.168 48.4805 377.594C48.8086 378.02 49.2461 378.232 49.793 378.232C50.3438 378.232 50.7812 378.018 51.1055 377.588C51.4297 377.154 51.5918 376.549 51.5918 375.771C51.5918 375.076 51.4258 374.514 51.0938 374.084C50.7656 373.65 50.3281 373.434 49.7812 373.434C49.2461 373.434 48.8145 373.646 48.4863 374.072C48.1582 374.498 47.9941 375.107 47.9941 375.9ZM55.0605 372.66L55.0957 373.457C55.5801 372.848 56.2129 372.543 56.9941 372.543C58.334 372.543 59.0098 373.299 59.0215 374.811V379H57.9375V374.805C57.9336 374.348 57.8281 374.01 57.6211 373.791C57.418 373.572 57.0996 373.463 56.666 373.463C56.3145 373.463 56.0059 373.557 55.7402 373.744C55.4746 373.932 55.2676 374.178 55.1191 374.482V379H54.0352V372.66H55.0605ZM62.748 377.529L64.3184 372.66H65.4258L63.1523 379H62.3262L60.0293 372.66H61.1367L62.748 377.529ZM69.0176 379.117C68.1582 379.117 67.459 378.836 66.9199 378.273C66.3809 377.707 66.1113 376.951 66.1113 376.006V375.807C66.1113 375.178 66.2305 374.617 66.4688 374.125C66.7109 373.629 67.0469 373.242 67.4766 372.965C67.9102 372.684 68.3789 372.543 68.8828 372.543C69.707 372.543 70.3477 372.814 70.8047 373.357C71.2617 373.9 71.4902 374.678 71.4902 375.689V376.141H67.1953C67.2109 376.766 67.3926 377.271 67.7402 377.658C68.0918 378.041 68.5371 378.232 69.0762 378.232C69.459 378.232 69.7832 378.154 70.0488 377.998C70.3145 377.842 70.5469 377.635 70.7461 377.377L71.4082 377.893C70.877 378.709 70.0801 379.117 69.0176 379.117ZM68.8828 373.434C68.4453 373.434 68.0781 373.594 67.7812 373.914C67.4844 374.23 67.3008 374.676 67.2305 375.25H70.4062V375.168C70.375 374.617 70.2266 374.191 69.9609 373.891C69.6953 373.586 69.3359 373.434 68.8828 373.434ZM75.8145 373.633C75.6504 373.605 75.4727 373.592 75.2812 373.592C74.5703 373.592 74.0879 373.895 73.834 374.5V379H72.75V372.66H73.8047L73.8223 373.393C74.1777 372.826 74.6816 372.543 75.334 372.543C75.5449 372.543 75.7051 372.57 75.8145 372.625V373.633ZM80.5078 377.318C80.5078 377.025 80.3965 376.799 80.1738 376.639C79.9551 376.475 79.5703 376.334 79.0195 376.217C78.4727 376.1 78.0371 375.959 77.7129 375.795C77.3926 375.631 77.1543 375.436 76.998 375.209C76.8457 374.982 76.7695 374.713 76.7695 374.4C76.7695 373.881 76.9883 373.441 77.4258 373.082C77.8672 372.723 78.4297 372.543 79.1133 372.543C79.832 372.543 80.4141 372.729 80.8594 373.1C81.3086 373.471 81.5332 373.945 81.5332 374.523H80.4434C80.4434 374.227 80.3164 373.971 80.0625 373.756C79.8125 373.541 79.4961 373.434 79.1133 373.434C78.7188 373.434 78.4102 373.52 78.1875 373.691C77.9648 373.863 77.8535 374.088 77.8535 374.365C77.8535 374.627 77.957 374.824 78.1641 374.957C78.3711 375.09 78.7441 375.217 79.2832 375.338C79.8262 375.459 80.2656 375.604 80.6016 375.771C80.9375 375.939 81.1855 376.143 81.3457 376.381C81.5098 376.615 81.5918 376.902 81.5918 377.242C81.5918 377.809 81.3652 378.264 80.9121 378.607C80.459 378.947 79.8711 379.117 79.1484 379.117C78.6406 379.117 78.1914 379.027 77.8008 378.848C77.4102 378.668 77.1035 378.418 76.8809 378.098C76.6621 377.773 76.5527 377.424 76.5527 377.049H77.6367C77.6562 377.412 77.8008 377.701 78.0703 377.916C78.3438 378.127 78.7031 378.232 79.1484 378.232C79.5586 378.232 79.8867 378.15 80.1328 377.986C80.3828 377.818 80.5078 377.596 80.5078 377.318ZM84.1816 379H83.0977V372.66H84.1816V379ZM83.0098 370.979C83.0098 370.803 83.0625 370.654 83.168 370.533C83.2773 370.412 83.4375 370.352 83.6484 370.352C83.8594 370.352 84.0195 370.412 84.1289 370.533C84.2383 370.654 84.293 370.803 84.293 370.979C84.293 371.154 84.2383 371.301 84.1289 371.418C84.0195 371.535 83.8594 371.594 83.6484 371.594C83.4375 371.594 83.2773 371.535 83.168 371.418C83.0625 371.301 83.0098 371.154 83.0098 370.979ZM88.6348 375.777C88.6348 374.805 88.8652 374.023 89.3262 373.434C89.7871 372.84 90.3906 372.543 91.1367 372.543C91.8789 372.543 92.4668 372.797 92.9004 373.305V370H93.9844V379H92.9883L92.9355 378.32C92.502 378.852 91.8984 379.117 91.125 379.117C90.3906 379.117 89.791 378.816 89.3262 378.215C88.8652 377.613 88.6348 376.828 88.6348 375.859V375.777ZM89.7188 375.9C89.7188 376.619 89.8672 377.182 90.1641 377.588C90.4609 377.994 90.8711 378.197 91.3945 378.197C92.082 378.197 92.584 377.889 92.9004 377.271V374.359C92.5762 373.762 92.0781 373.463 91.4062 373.463C90.875 373.463 90.4609 373.668 90.1641 374.078C89.8672 374.488 89.7188 375.096 89.7188 375.9ZM99.5859 379C99.5234 378.875 99.4727 378.652 99.4336 378.332C98.9297 378.855 98.3281 379.117 97.6289 379.117C97.0039 379.117 96.4902 378.941 96.0879 378.59C95.6895 378.234 95.4902 377.785 95.4902 377.242C95.4902 376.582 95.7402 376.07 96.2402 375.707C96.7441 375.34 97.4512 375.156 98.3613 375.156H99.416V374.658C99.416 374.279 99.3027 373.979 99.0762 373.756C98.8496 373.529 98.5156 373.416 98.0742 373.416C97.6875 373.416 97.3633 373.514 97.1016 373.709C96.8398 373.904 96.709 374.141 96.709 374.418H95.6191C95.6191 374.102 95.7305 373.797 95.9531 373.504C96.1797 373.207 96.4844 372.973 96.8672 372.801C97.2539 372.629 97.6777 372.543 98.1387 372.543C98.8691 372.543 99.4414 372.727 99.8555 373.094C100.27 373.457 100.484 373.959 100.5 374.6V377.518C100.5 378.1 100.574 378.562 100.723 378.906V379H99.5859ZM97.7871 378.174C98.127 378.174 98.4492 378.086 98.7539 377.91C99.0586 377.734 99.2793 377.506 99.416 377.225V375.924H98.5664C97.2383 375.924 96.5742 376.312 96.5742 377.09C96.5742 377.43 96.6875 377.695 96.9141 377.887C97.1406 378.078 97.4316 378.174 97.7871 378.174ZM103.225 372.66L103.26 373.457C103.744 372.848 104.377 372.543 105.158 372.543C106.498 372.543 107.174 373.299 107.186 374.811V379H106.102V374.805C106.098 374.348 105.992 374.01 105.785 373.791C105.582 373.572 105.264 373.463 104.83 373.463C104.479 373.463 104.17 373.557 103.904 373.744C103.639 373.932 103.432 374.178 103.283 374.482V379H102.199V372.66H103.225ZM114.861 373.633C114.697 373.605 114.52 373.592 114.328 373.592C113.617 373.592 113.135 373.895 112.881 374.5V379H111.797V372.66H112.852L112.869 373.393C113.225 372.826 113.729 372.543 114.381 372.543C114.592 372.543 114.752 372.57 114.861 372.625V373.633ZM118.377 379.117C117.518 379.117 116.818 378.836 116.279 378.273C115.74 377.707 115.471 376.951 115.471 376.006V375.807C115.471 375.178 115.59 374.617 115.828 374.125C116.07 373.629 116.406 373.242 116.836 372.965C117.27 372.684 117.738 372.543 118.242 372.543C119.066 372.543 119.707 372.814 120.164 373.357C120.621 373.9 120.85 374.678 120.85 375.689V376.141H116.555C116.57 376.766 116.752 377.271 117.1 377.658C117.451 378.041 117.896 378.232 118.436 378.232C118.818 378.232 119.143 378.154 119.408 377.998C119.674 377.842 119.906 377.635 120.105 377.377L120.768 377.893C120.236 378.709 119.439 379.117 118.377 379.117ZM118.242 373.434C117.805 373.434 117.438 373.594 117.141 373.914C116.844 374.23 116.66 374.676 116.59 375.25H119.766V375.168C119.734 374.617 119.586 374.191 119.32 373.891C119.055 373.586 118.695 373.434 118.242 373.434ZM123.879 376.064L123.199 376.773V379H122.115V370H123.199V375.443L123.779 374.746L125.754 372.66H127.072L124.605 375.309L127.359 379H126.088L123.879 376.064ZM127.904 375.771C127.904 375.15 128.025 374.592 128.268 374.096C128.514 373.6 128.854 373.217 129.287 372.947C129.725 372.678 130.223 372.543 130.781 372.543C131.645 372.543 132.342 372.842 132.873 373.439C133.408 374.037 133.676 374.832 133.676 375.824V375.9C133.676 376.518 133.557 377.072 133.318 377.564C133.084 378.053 132.746 378.434 132.305 378.707C131.867 378.98 131.363 379.117 130.793 379.117C129.934 379.117 129.236 378.818 128.701 378.221C128.17 377.623 127.904 376.832 127.904 375.848V375.771ZM128.994 375.9C128.994 376.604 129.156 377.168 129.48 377.594C129.809 378.02 130.246 378.232 130.793 378.232C131.344 378.232 131.781 378.018 132.105 377.588C132.43 377.154 132.592 376.549 132.592 375.771C132.592 375.076 132.426 374.514 132.094 374.084C131.766 373.65 131.328 373.434 130.781 373.434C130.246 373.434 129.814 373.646 129.486 374.072C129.158 374.498 128.994 375.107 128.994 375.9ZM136.055 372.66L136.084 373.363C136.549 372.816 137.176 372.543 137.965 372.543C138.852 372.543 139.455 372.883 139.775 373.562C139.986 373.258 140.26 373.012 140.596 372.824C140.936 372.637 141.336 372.543 141.797 372.543C143.188 372.543 143.895 373.279 143.918 374.752V379H142.834V374.816C142.834 374.363 142.73 374.025 142.523 373.803C142.316 373.576 141.969 373.463 141.48 373.463C141.078 373.463 140.744 373.584 140.479 373.826C140.213 374.064 140.059 374.387 140.016 374.793V379H138.926V374.846C138.926 373.924 138.475 373.463 137.572 373.463C136.861 373.463 136.375 373.766 136.113 374.371V379H135.029V372.66H136.055ZM148.189 379.117C147.33 379.117 146.631 378.836 146.092 378.273C145.553 377.707 145.283 376.951 145.283 376.006V375.807C145.283 375.178 145.402 374.617 145.641 374.125C145.883 373.629 146.219 373.242 146.648 372.965C147.082 372.684 147.551 372.543 148.055 372.543C148.879 372.543 149.52 372.814 149.977 373.357C150.434 373.9 150.662 374.678 150.662 375.689V376.141H146.367C146.383 376.766 146.564 377.271 146.912 377.658C147.264 378.041 147.709 378.232 148.248 378.232C148.631 378.232 148.955 378.154 149.221 377.998C149.486 377.842 149.719 377.635 149.918 377.377L150.58 377.893C150.049 378.709 149.252 379.117 148.189 379.117ZM148.055 373.434C147.617 373.434 147.25 373.594 146.953 373.914C146.656 374.23 146.473 374.676 146.402 375.25H149.578V375.168C149.547 374.617 149.398 374.191 149.133 373.891C148.867 373.586 148.508 373.434 148.055 373.434ZM152.947 372.66L152.982 373.457C153.467 372.848 154.1 372.543 154.881 372.543C156.221 372.543 156.896 373.299 156.908 374.811V379H155.824V374.805C155.82 374.348 155.715 374.01 155.508 373.791C155.305 373.572 154.986 373.463 154.553 373.463C154.201 373.463 153.893 373.557 153.627 373.744C153.361 373.932 153.154 374.178 153.006 374.482V379H151.922V372.66H152.947ZM158.279 375.777C158.279 374.805 158.51 374.023 158.971 373.434C159.432 372.84 160.035 372.543 160.781 372.543C161.523 372.543 162.111 372.797 162.545 373.305V370H163.629V379H162.633L162.58 378.32C162.146 378.852 161.543 379.117 160.77 379.117C160.035 379.117 159.436 378.816 158.971 378.215C158.51 377.613 158.279 376.828 158.279 375.859V375.777ZM159.363 375.9C159.363 376.619 159.512 377.182 159.809 377.588C160.105 377.994 160.516 378.197 161.039 378.197C161.727 378.197 162.229 377.889 162.545 377.271V374.359C162.221 373.762 161.723 373.463 161.051 373.463C160.52 373.463 160.105 373.668 159.809 374.078C159.512 374.488 159.363 375.096 159.363 375.9ZM169.23 379C169.168 378.875 169.117 378.652 169.078 378.332C168.574 378.855 167.973 379.117 167.273 379.117C166.648 379.117 166.135 378.941 165.732 378.59C165.334 378.234 165.135 377.785 165.135 377.242C165.135 376.582 165.385 376.07 165.885 375.707C166.389 375.34 167.096 375.156 168.006 375.156H169.061V374.658C169.061 374.279 168.947 373.979 168.721 373.756C168.494 373.529 168.16 373.416 167.719 373.416C167.332 373.416 167.008 373.514 166.746 373.709C166.484 373.904 166.354 374.141 166.354 374.418H165.264C165.264 374.102 165.375 373.797 165.598 373.504C165.824 373.207 166.129 372.973 166.512 372.801C166.898 372.629 167.322 372.543 167.783 372.543C168.514 372.543 169.086 372.727 169.5 373.094C169.914 373.457 170.129 373.959 170.145 374.6V377.518C170.145 378.1 170.219 378.562 170.367 378.906V379H169.23ZM167.432 378.174C167.771 378.174 168.094 378.086 168.398 377.91C168.703 377.734 168.924 377.506 169.061 377.225V375.924H168.211C166.883 375.924 166.219 376.312 166.219 377.09C166.219 377.43 166.332 377.695 166.559 377.887C166.785 378.078 167.076 378.174 167.432 378.174ZM175.535 377.318C175.535 377.025 175.424 376.799 175.201 376.639C174.982 376.475 174.598 376.334 174.047 376.217C173.5 376.1 173.064 375.959 172.74 375.795C172.42 375.631 172.182 375.436 172.025 375.209C171.873 374.982 171.797 374.713 171.797 374.4C171.797 373.881 172.016 373.441 172.453 373.082C172.895 372.723 173.457 372.543 174.141 372.543C174.859 372.543 175.441 372.729 175.887 373.1C176.336 373.471 176.561 373.945 176.561 374.523H175.471C175.471 374.227 175.344 373.971 175.09 373.756C174.84 373.541 174.523 373.434 174.141 373.434C173.746 373.434 173.438 373.52 173.215 373.691C172.992 373.863 172.881 374.088 172.881 374.365C172.881 374.627 172.984 374.824 173.191 374.957C173.398 375.09 173.771 375.217 174.311 375.338C174.854 375.459 175.293 375.604 175.629 375.771C175.965 375.939 176.213 376.143 176.373 376.381C176.537 376.615 176.619 376.902 176.619 377.242C176.619 377.809 176.393 378.264 175.939 378.607C175.486 378.947 174.898 379.117 174.176 379.117C173.668 379.117 173.219 379.027 172.828 378.848C172.438 378.668 172.131 378.418 171.908 378.098C171.689 377.773 171.58 377.424 171.58 377.049H172.664C172.684 377.412 172.828 377.701 173.098 377.916C173.371 378.127 173.73 378.232 174.176 378.232C174.586 378.232 174.914 378.15 175.16 377.986C175.41 377.818 175.535 377.596 175.535 377.318ZM179.209 379H178.125V372.66H179.209V379ZM178.037 370.979C178.037 370.803 178.09 370.654 178.195 370.533C178.305 370.412 178.465 370.352 178.676 370.352C178.887 370.352 179.047 370.412 179.156 370.533C179.266 370.654 179.32 370.803 179.32 370.979C179.32 371.154 179.266 371.301 179.156 371.418C179.047 371.535 178.887 371.594 178.676 371.594C178.465 371.594 178.305 371.535 178.195 371.418C178.09 371.301 178.037 371.154 178.037 370.979ZM187.84 378.373C187.418 378.869 186.799 379.117 185.982 379.117C185.307 379.117 184.791 378.922 184.436 378.531C184.084 378.137 183.906 377.555 183.902 376.785V372.66H184.986V376.756C184.986 377.717 185.377 378.197 186.158 378.197C186.986 378.197 187.537 377.889 187.811 377.271V372.66H188.895V379H187.863L187.84 378.373ZM191.572 372.66L191.607 373.457C192.092 372.848 192.725 372.543 193.506 372.543C194.846 372.543 195.521 373.299 195.533 374.811V379H194.449V374.805C194.445 374.348 194.34 374.01 194.133 373.791C193.93 373.572 193.611 373.463 193.178 373.463C192.826 373.463 192.518 373.557 192.252 373.744C191.986 373.932 191.779 374.178 191.631 374.482V379H190.547V372.66H191.572ZM198.639 371.125V372.66H199.822V373.498H198.639V377.43C198.639 377.684 198.691 377.875 198.797 378.004C198.902 378.129 199.082 378.191 199.336 378.191C199.461 378.191 199.633 378.168 199.852 378.121V379C199.566 379.078 199.289 379.117 199.02 379.117C198.535 379.117 198.17 378.971 197.924 378.678C197.678 378.385 197.555 377.969 197.555 377.43V373.498H196.4V372.66H197.555V371.125H198.639ZM205.008 378.373C204.586 378.869 203.967 379.117 203.15 379.117C202.475 379.117 201.959 378.922 201.604 378.531C201.252 378.137 201.074 377.555 201.07 376.785V372.66H202.154V376.756C202.154 377.717 202.545 378.197 203.326 378.197C204.154 378.197 204.705 377.889 204.979 377.271V372.66H206.062V379H205.031L205.008 378.373ZM209.484 376.064L208.805 376.773V379H207.721V370H208.805V375.443L209.385 374.746L211.359 372.66H212.678L210.211 375.309L212.965 379H211.693L209.484 376.064ZM222.129 375.9C222.129 376.865 221.908 377.643 221.467 378.232C221.025 378.822 220.428 379.117 219.674 379.117C218.904 379.117 218.299 378.873 217.857 378.385V381.438H216.773V372.66H217.764L217.816 373.363C218.258 372.816 218.871 372.543 219.656 372.543C220.418 372.543 221.02 372.83 221.461 373.404C221.906 373.979 222.129 374.777 222.129 375.801V375.9ZM221.045 375.777C221.045 375.062 220.893 374.498 220.588 374.084C220.283 373.67 219.865 373.463 219.334 373.463C218.678 373.463 218.186 373.754 217.857 374.336V377.365C218.182 377.943 218.678 378.232 219.346 378.232C219.865 378.232 220.277 378.027 220.582 377.617C220.891 377.203 221.045 376.59 221.045 375.777ZM226.143 379.117C225.283 379.117 224.584 378.836 224.045 378.273C223.506 377.707 223.236 376.951 223.236 376.006V375.807C223.236 375.178 223.355 374.617 223.594 374.125C223.836 373.629 224.172 373.242 224.602 372.965C225.035 372.684 225.504 372.543 226.008 372.543C226.832 372.543 227.473 372.814 227.93 373.357C228.387 373.9 228.615 374.678 228.615 375.689V376.141H224.32C224.336 376.766 224.518 377.271 224.865 377.658C225.217 378.041 225.662 378.232 226.201 378.232C226.584 378.232 226.908 378.154 227.174 377.998C227.439 377.842 227.672 377.635 227.871 377.377L228.533 377.893C228.002 378.709 227.205 379.117 226.143 379.117ZM226.008 373.434C225.57 373.434 225.203 373.594 224.906 373.914C224.609 374.23 224.426 374.676 224.355 375.25H227.531V375.168C227.5 374.617 227.352 374.191 227.086 373.891C226.82 373.586 226.461 373.434 226.008 373.434ZM230.9 372.66L230.936 373.457C231.42 372.848 232.053 372.543 232.834 372.543C234.174 372.543 234.85 373.299 234.861 374.811V379H233.777V374.805C233.773 374.348 233.668 374.01 233.461 373.791C233.258 373.572 232.939 373.463 232.506 373.463C232.154 373.463 231.846 373.557 231.58 373.744C231.314 373.932 231.107 374.178 230.959 374.482V379H229.875V372.66H230.9ZM237.674 379H236.59V372.66H237.674V379ZM236.502 370.979C236.502 370.803 236.555 370.654 236.66 370.533C236.77 370.412 236.93 370.352 237.141 370.352C237.352 370.352 237.512 370.412 237.621 370.533C237.73 370.654 237.785 370.803 237.785 370.979C237.785 371.154 237.73 371.301 237.621 371.418C237.512 371.535 237.352 371.594 237.141 371.594C236.93 371.594 236.77 371.535 236.66 371.418C236.555 371.301 236.502 371.154 236.502 370.979ZM240.439 372.66L240.475 373.457C240.959 372.848 241.592 372.543 242.373 372.543C243.713 372.543 244.389 373.299 244.4 374.811V379H243.316V374.805C243.312 374.348 243.207 374.01 243 373.791C242.797 373.572 242.479 373.463 242.045 373.463C241.693 373.463 241.385 373.557 241.119 373.744C240.854 373.932 240.646 374.178 240.498 374.482V379H239.414V372.66H240.439ZM245.777 375.777C245.777 374.789 246.006 374.004 246.463 373.422C246.92 372.836 247.525 372.543 248.279 372.543C249.053 372.543 249.656 372.816 250.09 373.363L250.143 372.66H251.133V378.848C251.133 379.668 250.889 380.314 250.4 380.787C249.916 381.26 249.264 381.496 248.443 381.496C247.986 381.496 247.539 381.398 247.102 381.203C246.664 381.008 246.33 380.74 246.1 380.4L246.662 379.75C247.127 380.324 247.695 380.611 248.367 380.611C248.895 380.611 249.305 380.463 249.598 380.166C249.895 379.869 250.043 379.451 250.043 378.912V378.367C249.609 378.867 249.018 379.117 248.268 379.117C247.525 379.117 246.924 378.818 246.463 378.221C246.006 377.623 245.777 376.809 245.777 375.777ZM246.867 375.9C246.867 376.615 247.014 377.178 247.307 377.588C247.6 377.994 248.01 378.197 248.537 378.197C249.221 378.197 249.723 377.887 250.043 377.266V374.371C249.711 373.766 249.213 373.463 248.549 373.463C248.021 373.463 247.609 373.668 247.312 374.078C247.016 374.488 246.867 375.096 246.867 375.9ZM254.543 376.064L253.863 376.773V379H252.779V370H253.863V375.443L254.443 374.746L256.418 372.66H257.736L255.27 375.309L258.023 379H256.752L254.543 376.064ZM262.77 379C262.707 378.875 262.656 378.652 262.617 378.332C262.113 378.855 261.512 379.117 260.812 379.117C260.188 379.117 259.674 378.941 259.271 378.59C258.873 378.234 258.674 377.785 258.674 377.242C258.674 376.582 258.924 376.07 259.424 375.707C259.928 375.34 260.635 375.156 261.545 375.156H262.6V374.658C262.6 374.279 262.486 373.979 262.26 373.756C262.033 373.529 261.699 373.416 261.258 373.416C260.871 373.416 260.547 373.514 260.285 373.709C260.023 373.904 259.893 374.141 259.893 374.418H258.803C258.803 374.102 258.914 373.797 259.137 373.504C259.363 373.207 259.668 372.973 260.051 372.801C260.438 372.629 260.861 372.543 261.322 372.543C262.053 372.543 262.625 372.727 263.039 373.094C263.453 373.457 263.668 373.959 263.684 374.6V377.518C263.684 378.1 263.758 378.562 263.906 378.906V379H262.77ZM260.971 378.174C261.311 378.174 261.633 378.086 261.938 377.91C262.242 377.734 262.463 377.506 262.6 377.225V375.924H261.75C260.422 375.924 259.758 376.312 259.758 377.09C259.758 377.43 259.871 377.695 260.098 377.887C260.324 378.078 260.615 378.174 260.971 378.174ZM266.854 371.125V372.66H268.037V373.498H266.854V377.43C266.854 377.684 266.906 377.875 267.012 378.004C267.117 378.129 267.297 378.191 267.551 378.191C267.676 378.191 267.848 378.168 268.066 378.121V379C267.781 379.078 267.504 379.117 267.234 379.117C266.75 379.117 266.385 378.971 266.139 378.678C265.893 378.385 265.77 377.969 265.77 377.43V373.498H264.615V372.66H265.77V371.125H266.854ZM273.223 379C273.16 378.875 273.109 378.652 273.07 378.332C272.566 378.855 271.965 379.117 271.266 379.117C270.641 379.117 270.127 378.941 269.725 378.59C269.326 378.234 269.127 377.785 269.127 377.242C269.127 376.582 269.377 376.07 269.877 375.707C270.381 375.34 271.088 375.156 271.998 375.156H273.053V374.658C273.053 374.279 272.939 373.979 272.713 373.756C272.486 373.529 272.152 373.416 271.711 373.416C271.324 373.416 271 373.514 270.738 373.709C270.477 373.904 270.346 374.141 270.346 374.418H269.256C269.256 374.102 269.367 373.797 269.59 373.504C269.816 373.207 270.121 372.973 270.504 372.801C270.891 372.629 271.314 372.543 271.775 372.543C272.506 372.543 273.078 372.727 273.492 373.094C273.906 373.457 274.121 373.959 274.137 374.6V377.518C274.137 378.1 274.211 378.562 274.359 378.906V379H273.223ZM271.424 378.174C271.764 378.174 272.086 378.086 272.391 377.91C272.695 377.734 272.916 377.506 273.053 377.225V375.924H272.203C270.875 375.924 270.211 376.312 270.211 377.09C270.211 377.43 270.324 377.695 270.551 377.887C270.777 378.078 271.068 378.174 271.424 378.174ZM276.861 372.66L276.896 373.457C277.381 372.848 278.014 372.543 278.795 372.543C280.135 372.543 280.811 373.299 280.822 374.811V379H279.738V374.805C279.734 374.348 279.629 374.01 279.422 373.791C279.219 373.572 278.9 373.463 278.467 373.463C278.115 373.463 277.807 373.557 277.541 373.744C277.275 373.932 277.068 374.178 276.92 374.482V379H275.836V372.66H276.861ZM289.125 377.318C289.125 377.025 289.014 376.799 288.791 376.639C288.572 376.475 288.188 376.334 287.637 376.217C287.09 376.1 286.654 375.959 286.33 375.795C286.01 375.631 285.771 375.436 285.615 375.209C285.463 374.982 285.387 374.713 285.387 374.4C285.387 373.881 285.605 373.441 286.043 373.082C286.484 372.723 287.047 372.543 287.73 372.543C288.449 372.543 289.031 372.729 289.477 373.1C289.926 373.471 290.15 373.945 290.15 374.523H289.061C289.061 374.227 288.934 373.971 288.68 373.756C288.43 373.541 288.113 373.434 287.73 373.434C287.336 373.434 287.027 373.52 286.805 373.691C286.582 373.863 286.471 374.088 286.471 374.365C286.471 374.627 286.574 374.824 286.781 374.957C286.988 375.09 287.361 375.217 287.9 375.338C288.443 375.459 288.883 375.604 289.219 375.771C289.555 375.939 289.803 376.143 289.963 376.381C290.127 376.615 290.209 376.902 290.209 377.242C290.209 377.809 289.982 378.264 289.529 378.607C289.076 378.947 288.488 379.117 287.766 379.117C287.258 379.117 286.809 379.027 286.418 378.848C286.027 378.668 285.721 378.418 285.498 378.098C285.279 377.773 285.17 377.424 285.17 377.049H286.254C286.273 377.412 286.418 377.701 286.688 377.916C286.961 378.127 287.32 378.232 287.766 378.232C288.176 378.232 288.504 378.15 288.75 377.986C289 377.818 289.125 377.596 289.125 377.318ZM293.391 376.064L292.711 376.773V379H291.627V370H292.711V375.443L293.291 374.746L295.266 372.66H296.584L294.117 375.309L296.871 379H295.6L293.391 376.064ZM297.416 375.771C297.416 375.15 297.537 374.592 297.779 374.096C298.025 373.6 298.365 373.217 298.799 372.947C299.236 372.678 299.734 372.543 300.293 372.543C301.156 372.543 301.854 372.842 302.385 373.439C302.92 374.037 303.188 374.832 303.188 375.824V375.9C303.188 376.518 303.068 377.072 302.83 377.564C302.596 378.053 302.258 378.434 301.816 378.707C301.379 378.98 300.875 379.117 300.305 379.117C299.445 379.117 298.748 378.818 298.213 378.221C297.682 377.623 297.416 376.832 297.416 375.848V375.771ZM298.506 375.9C298.506 376.604 298.668 377.168 298.992 377.594C299.32 378.02 299.758 378.232 300.305 378.232C300.855 378.232 301.293 378.018 301.617 377.588C301.941 377.154 302.104 376.549 302.104 375.771C302.104 375.076 301.938 374.514 301.605 374.084C301.277 373.65 300.84 373.434 300.293 373.434C299.758 373.434 299.326 373.646 298.998 374.072C298.67 374.498 298.506 375.107 298.506 375.9ZM307.611 373.633C307.447 373.605 307.27 373.592 307.078 373.592C306.367 373.592 305.885 373.895 305.631 374.5V379H304.547V372.66H305.602L305.619 373.393C305.975 372.826 306.479 372.543 307.131 372.543C307.342 372.543 307.502 372.57 307.611 372.625V373.633Z" fill="#444444"/>
<path d="M59.2734 352H56.9297V347.125H52.3594V352H50.0156V340.625H52.3594V345.234H56.9297V340.625H59.2734V352ZM66.0781 352C65.974 351.797 65.8984 351.544 65.8516 351.242C65.3047 351.852 64.5938 352.156 63.7188 352.156C62.8906 352.156 62.2031 351.917 61.6562 351.438C61.1146 350.958 60.8438 350.354 60.8438 349.625C60.8438 348.729 61.1745 348.042 61.8359 347.562C62.5026 347.083 63.4635 346.841 64.7188 346.836H65.7578V346.352C65.7578 345.961 65.6562 345.648 65.4531 345.414C65.2552 345.18 64.9401 345.062 64.5078 345.062C64.1276 345.062 63.8281 345.154 63.6094 345.336C63.3958 345.518 63.2891 345.768 63.2891 346.086H61.0312C61.0312 345.596 61.1823 345.143 61.4844 344.727C61.7865 344.31 62.2135 343.984 62.7656 343.75C63.3177 343.51 63.9375 343.391 64.625 343.391C65.6667 343.391 66.4922 343.654 67.1016 344.18C67.7161 344.701 68.0234 345.435 68.0234 346.383V350.047C68.0286 350.849 68.1406 351.456 68.3594 351.867V352H66.0781ZM64.2109 350.43C64.5443 350.43 64.8516 350.357 65.1328 350.211C65.4141 350.06 65.6224 349.859 65.7578 349.609V348.156H64.9141C63.7839 348.156 63.1823 348.547 63.1094 349.328L63.1016 349.461C63.1016 349.742 63.2005 349.974 63.3984 350.156C63.5964 350.339 63.8672 350.43 64.2109 350.43ZM74.3359 349.664C74.3359 349.388 74.1979 349.172 73.9219 349.016C73.651 348.854 73.2135 348.711 72.6094 348.586C70.599 348.164 69.5938 347.31 69.5938 346.023C69.5938 345.273 69.9036 344.648 70.5234 344.148C71.1484 343.643 71.9635 343.391 72.9688 343.391C74.0417 343.391 74.8984 343.643 75.5391 344.148C76.1849 344.654 76.5078 345.31 76.5078 346.117H74.25C74.25 345.794 74.1458 345.529 73.9375 345.32C73.7292 345.107 73.4036 345 72.9609 345C72.5807 345 72.2865 345.086 72.0781 345.258C71.8698 345.43 71.7656 345.648 71.7656 345.914C71.7656 346.164 71.8828 346.367 72.1172 346.523C72.3568 346.674 72.7578 346.807 73.3203 346.922C73.8828 347.031 74.3568 347.156 74.7422 347.297C75.9349 347.734 76.5312 348.492 76.5312 349.57C76.5312 350.341 76.2005 350.966 75.5391 351.445C74.8776 351.919 74.0234 352.156 72.9766 352.156C72.2682 352.156 71.638 352.031 71.0859 351.781C70.5391 351.526 70.1094 351.18 69.7969 350.742C69.4844 350.299 69.3281 349.823 69.3281 349.312H71.4688C71.4896 349.714 71.638 350.021 71.9141 350.234C72.1901 350.448 72.5599 350.555 73.0234 350.555C73.4557 350.555 73.7812 350.474 74 350.312C74.224 350.146 74.3359 349.93 74.3359 349.664ZM80.375 352H78.1094V343.547H80.375V352ZM77.9766 341.359C77.9766 341.021 78.0885 340.742 78.3125 340.523C78.5417 340.305 78.8516 340.195 79.2422 340.195C79.6276 340.195 79.9349 340.305 80.1641 340.523C80.3932 340.742 80.5078 341.021 80.5078 341.359C80.5078 341.703 80.3906 341.984 80.1562 342.203C79.9271 342.422 79.6224 342.531 79.2422 342.531C78.862 342.531 78.5547 342.422 78.3203 342.203C78.0911 341.984 77.9766 341.703 77.9766 341.359ZM84.625 352H82.3594V340H84.625V352ZM94.1875 347.438L92.9688 348.75V352H90.625V340.625H92.9688V345.781L94 344.367L96.8984 340.625H99.7812L95.7422 345.68L99.8984 352H97.1094L94.1875 347.438ZM100.062 347.695C100.062 346.857 100.224 346.109 100.547 345.453C100.87 344.797 101.333 344.289 101.938 343.93C102.547 343.57 103.253 343.391 104.055 343.391C105.195 343.391 106.125 343.74 106.844 344.438C107.568 345.135 107.971 346.083 108.055 347.281L108.07 347.859C108.07 349.156 107.708 350.198 106.984 350.984C106.26 351.766 105.289 352.156 104.07 352.156C102.852 352.156 101.878 351.766 101.148 350.984C100.424 350.203 100.062 349.141 100.062 347.797V347.695ZM102.32 347.859C102.32 348.661 102.471 349.276 102.773 349.703C103.076 350.125 103.508 350.336 104.07 350.336C104.617 350.336 105.044 350.128 105.352 349.711C105.659 349.289 105.812 348.617 105.812 347.695C105.812 346.909 105.659 346.299 105.352 345.867C105.044 345.435 104.612 345.219 104.055 345.219C103.503 345.219 103.076 345.435 102.773 345.867C102.471 346.294 102.32 346.958 102.32 347.859ZM111.539 343.547L111.609 344.523C112.214 343.768 113.023 343.391 114.039 343.391C114.935 343.391 115.602 343.654 116.039 344.18C116.477 344.706 116.701 345.492 116.711 346.539V352H114.453V346.594C114.453 346.115 114.349 345.768 114.141 345.555C113.932 345.336 113.586 345.227 113.102 345.227C112.466 345.227 111.99 345.497 111.672 346.039V352H109.414V343.547H111.539ZM121.594 349.242L123.164 343.547H125.523L122.672 352H120.516L117.664 343.547H120.023L121.594 349.242ZM130.305 352.156C129.065 352.156 128.055 351.776 127.273 351.016C126.497 350.255 126.109 349.242 126.109 347.977V347.758C126.109 346.909 126.273 346.151 126.602 345.484C126.93 344.812 127.393 344.297 127.992 343.938C128.596 343.573 129.284 343.391 130.055 343.391C131.211 343.391 132.12 343.755 132.781 344.484C133.448 345.214 133.781 346.247 133.781 347.586V348.508H128.398C128.471 349.06 128.69 349.503 129.055 349.836C129.424 350.169 129.891 350.336 130.453 350.336C131.323 350.336 132.003 350.021 132.492 349.391L133.602 350.633C133.263 351.112 132.805 351.487 132.227 351.758C131.648 352.023 131.008 352.156 130.305 352.156ZM130.047 345.219C129.599 345.219 129.234 345.37 128.953 345.672C128.677 345.974 128.5 346.406 128.422 346.969H131.562V346.789C131.552 346.289 131.417 345.904 131.156 345.633C130.896 345.357 130.526 345.219 130.047 345.219ZM139.82 345.664C139.513 345.622 139.242 345.602 139.008 345.602C138.154 345.602 137.594 345.891 137.328 346.469V352H135.07V343.547H137.203L137.266 344.555C137.719 343.779 138.346 343.391 139.148 343.391C139.398 343.391 139.633 343.424 139.852 343.492L139.82 345.664ZM145.492 349.664C145.492 349.388 145.354 349.172 145.078 349.016C144.807 348.854 144.37 348.711 143.766 348.586C141.755 348.164 140.75 347.31 140.75 346.023C140.75 345.273 141.06 344.648 141.68 344.148C142.305 343.643 143.12 343.391 144.125 343.391C145.198 343.391 146.055 343.643 146.695 344.148C147.341 344.654 147.664 345.31 147.664 346.117H145.406C145.406 345.794 145.302 345.529 145.094 345.32C144.885 345.107 144.56 345 144.117 345C143.737 345 143.443 345.086 143.234 345.258C143.026 345.43 142.922 345.648 142.922 345.914C142.922 346.164 143.039 346.367 143.273 346.523C143.513 346.674 143.914 346.807 144.477 346.922C145.039 347.031 145.513 347.156 145.898 347.297C147.091 347.734 147.688 348.492 147.688 349.57C147.688 350.341 147.357 350.966 146.695 351.445C146.034 351.919 145.18 352.156 144.133 352.156C143.424 352.156 142.794 352.031 142.242 351.781C141.695 351.526 141.266 351.18 140.953 350.742C140.641 350.299 140.484 349.823 140.484 349.312H142.625C142.646 349.714 142.794 350.021 143.07 350.234C143.346 350.448 143.716 350.555 144.18 350.555C144.612 350.555 144.938 350.474 145.156 350.312C145.38 350.146 145.492 349.93 145.492 349.664ZM151.531 352H149.266V343.547H151.531V352ZM149.133 341.359C149.133 341.021 149.245 340.742 149.469 340.523C149.698 340.305 150.008 340.195 150.398 340.195C150.784 340.195 151.091 340.305 151.32 340.523C151.549 340.742 151.664 341.021 151.664 341.359C151.664 341.703 151.547 341.984 151.312 342.203C151.083 342.422 150.779 342.531 150.398 342.531C150.018 342.531 149.711 342.422 149.477 342.203C149.247 341.984 149.133 341.703 149.133 341.359ZM157.07 348.938C157.07 348.411 157.216 347.924 157.508 347.477C157.805 347.029 158.346 346.531 159.133 345.984C158.794 345.531 158.529 345.107 158.336 344.711C158.143 344.31 158.047 343.893 158.047 343.461C158.047 342.576 158.326 341.857 158.883 341.305C159.445 340.747 160.201 340.469 161.148 340.469C161.997 340.469 162.693 340.721 163.234 341.227C163.781 341.732 164.055 342.362 164.055 343.117C164.055 344.023 163.596 344.823 162.68 345.516L161.805 346.148L163.766 348.43C164.073 347.826 164.227 347.159 164.227 346.43H166.148C166.148 347.909 165.807 349.107 165.125 350.023L166.828 352H164.266L163.68 351.328C162.841 351.88 161.878 352.156 160.789 352.156C159.664 352.156 158.763 351.862 158.086 351.273C157.409 350.68 157.07 349.901 157.07 348.938ZM160.898 350.344C161.44 350.344 161.953 350.193 162.438 349.891L160.195 347.297L160.031 347.414C159.568 347.81 159.336 348.276 159.336 348.812C159.336 349.266 159.479 349.635 159.766 349.922C160.057 350.203 160.435 350.344 160.898 350.344ZM160.07 343.43C160.07 343.82 160.299 344.312 160.758 344.906L161.359 344.508C161.667 344.31 161.878 344.117 161.992 343.93C162.112 343.742 162.172 343.518 162.172 343.258C162.172 342.997 162.076 342.771 161.883 342.578C161.69 342.385 161.443 342.289 161.141 342.289C160.818 342.289 160.557 342.393 160.359 342.602C160.167 342.81 160.07 343.086 160.07 343.43ZM176.227 347.836H174.359V352H172.016V340.625H176.242C177.586 340.625 178.622 340.924 179.352 341.523C180.081 342.122 180.445 342.969 180.445 344.062C180.445 344.839 180.276 345.487 179.938 346.008C179.604 346.523 179.096 346.935 178.414 347.242L180.875 351.891V352H178.359L176.227 347.836ZM174.359 345.938H176.25C176.839 345.938 177.294 345.789 177.617 345.492C177.94 345.19 178.102 344.776 178.102 344.25C178.102 343.714 177.948 343.292 177.641 342.984C177.339 342.677 176.872 342.523 176.242 342.523H174.359V345.938ZM185.977 352.156C184.737 352.156 183.727 351.776 182.945 351.016C182.169 350.255 181.781 349.242 181.781 347.977V347.758C181.781 346.909 181.945 346.151 182.273 345.484C182.602 344.812 183.065 344.297 183.664 343.938C184.268 343.573 184.956 343.391 185.727 343.391C186.883 343.391 187.792 343.755 188.453 344.484C189.12 345.214 189.453 346.247 189.453 347.586V348.508H184.07C184.143 349.06 184.362 349.503 184.727 349.836C185.096 350.169 185.562 350.336 186.125 350.336C186.995 350.336 187.674 350.021 188.164 349.391L189.273 350.633C188.935 351.112 188.477 351.487 187.898 351.758C187.32 352.023 186.68 352.156 185.977 352.156ZM185.719 345.219C185.271 345.219 184.906 345.37 184.625 345.672C184.349 345.974 184.172 346.406 184.094 346.969H187.234V346.789C187.224 346.289 187.089 345.904 186.828 345.633C186.568 345.357 186.198 345.219 185.719 345.219ZM193.812 348.609L193 349.422V352H190.742V340H193V346.648L193.438 346.086L195.602 343.547H198.312L195.258 347.07L198.578 352H195.984L193.812 348.609ZM198.938 347.695C198.938 346.857 199.099 346.109 199.422 345.453C199.745 344.797 200.208 344.289 200.812 343.93C201.422 343.57 202.128 343.391 202.93 343.391C204.07 343.391 205 343.74 205.719 344.438C206.443 345.135 206.846 346.083 206.93 347.281L206.945 347.859C206.945 349.156 206.583 350.198 205.859 350.984C205.135 351.766 204.164 352.156 202.945 352.156C201.727 352.156 200.753 351.766 200.023 350.984C199.299 350.203 198.938 349.141 198.938 347.797V347.695ZM201.195 347.859C201.195 348.661 201.346 349.276 201.648 349.703C201.951 350.125 202.383 350.336 202.945 350.336C203.492 350.336 203.919 350.128 204.227 349.711C204.534 349.289 204.688 348.617 204.688 347.695C204.688 346.909 204.534 346.299 204.227 345.867C203.919 345.435 203.487 345.219 202.93 345.219C202.378 345.219 201.951 345.435 201.648 345.867C201.346 346.294 201.195 346.958 201.195 347.859ZM210.453 343.547L210.523 344.492C211.122 343.758 211.932 343.391 212.953 343.391C214.042 343.391 214.789 343.82 215.195 344.68C215.789 343.82 216.635 343.391 217.734 343.391C218.651 343.391 219.333 343.659 219.781 344.195C220.229 344.727 220.453 345.529 220.453 346.602V352H218.188V346.609C218.188 346.13 218.094 345.781 217.906 345.562C217.719 345.339 217.388 345.227 216.914 345.227C216.237 345.227 215.768 345.549 215.508 346.195L215.516 352H213.258V346.617C213.258 346.128 213.161 345.773 212.969 345.555C212.776 345.336 212.448 345.227 211.984 345.227C211.344 345.227 210.88 345.492 210.594 346.023V352H208.336V343.547H210.453ZM226.086 352.156C224.846 352.156 223.836 351.776 223.055 351.016C222.279 350.255 221.891 349.242 221.891 347.977V347.758C221.891 346.909 222.055 346.151 222.383 345.484C222.711 344.812 223.174 344.297 223.773 343.938C224.378 343.573 225.065 343.391 225.836 343.391C226.992 343.391 227.901 343.755 228.562 344.484C229.229 345.214 229.562 346.247 229.562 347.586V348.508H224.18C224.253 349.06 224.471 349.503 224.836 349.836C225.206 350.169 225.672 350.336 226.234 350.336C227.104 350.336 227.784 350.021 228.273 349.391L229.383 350.633C229.044 351.112 228.586 351.487 228.008 351.758C227.43 352.023 226.789 352.156 226.086 352.156ZM225.828 345.219C225.38 345.219 225.016 345.37 224.734 345.672C224.458 345.974 224.281 346.406 224.203 346.969H227.344V346.789C227.333 346.289 227.198 345.904 226.938 345.633C226.677 345.357 226.307 345.219 225.828 345.219ZM232.93 343.547L233 344.523C233.604 343.768 234.414 343.391 235.43 343.391C236.326 343.391 236.992 343.654 237.43 344.18C237.867 344.706 238.091 345.492 238.102 346.539V352H235.844V346.594C235.844 346.115 235.74 345.768 235.531 345.555C235.323 345.336 234.977 345.227 234.492 345.227C233.857 345.227 233.38 345.497 233.062 346.039V352H230.805V343.547H232.93ZM239.469 347.711C239.469 346.393 239.763 345.344 240.352 344.562C240.945 343.781 241.755 343.391 242.781 343.391C243.604 343.391 244.284 343.698 244.82 344.312V340H247.086V352H245.047L244.938 351.102C244.375 351.805 243.651 352.156 242.766 352.156C241.771 352.156 240.971 351.766 240.367 350.984C239.768 350.198 239.469 349.107 239.469 347.711ZM241.727 347.875C241.727 348.667 241.865 349.273 242.141 349.695C242.417 350.117 242.818 350.328 243.344 350.328C244.042 350.328 244.534 350.034 244.82 349.445V346.109C244.539 345.521 244.052 345.227 243.359 345.227C242.271 345.227 241.727 346.109 241.727 347.875ZM253.734 352C253.63 351.797 253.555 351.544 253.508 351.242C252.961 351.852 252.25 352.156 251.375 352.156C250.547 352.156 249.859 351.917 249.312 351.438C248.771 350.958 248.5 350.354 248.5 349.625C248.5 348.729 248.831 348.042 249.492 347.562C250.159 347.083 251.12 346.841 252.375 346.836H253.414V346.352C253.414 345.961 253.312 345.648 253.109 345.414C252.911 345.18 252.596 345.062 252.164 345.062C251.784 345.062 251.484 345.154 251.266 345.336C251.052 345.518 250.945 345.768 250.945 346.086H248.688C248.688 345.596 248.839 345.143 249.141 344.727C249.443 344.31 249.87 343.984 250.422 343.75C250.974 343.51 251.594 343.391 252.281 343.391C253.323 343.391 254.148 343.654 254.758 344.18C255.372 344.701 255.68 345.435 255.68 346.383V350.047C255.685 350.849 255.797 351.456 256.016 351.867V352H253.734ZM251.867 350.43C252.201 350.43 252.508 350.357 252.789 350.211C253.07 350.06 253.279 349.859 253.414 349.609V348.156H252.57C251.44 348.156 250.839 348.547 250.766 349.328L250.758 349.461C250.758 349.742 250.857 349.974 251.055 350.156C251.253 350.339 251.523 350.43 251.867 350.43ZM261.992 349.664C261.992 349.388 261.854 349.172 261.578 349.016C261.307 348.854 260.87 348.711 260.266 348.586C258.255 348.164 257.25 347.31 257.25 346.023C257.25 345.273 257.56 344.648 258.18 344.148C258.805 343.643 259.62 343.391 260.625 343.391C261.698 343.391 262.555 343.643 263.195 344.148C263.841 344.654 264.164 345.31 264.164 346.117H261.906C261.906 345.794 261.802 345.529 261.594 345.32C261.385 345.107 261.06 345 260.617 345C260.237 345 259.943 345.086 259.734 345.258C259.526 345.43 259.422 345.648 259.422 345.914C259.422 346.164 259.539 346.367 259.773 346.523C260.013 346.674 260.414 346.807 260.977 346.922C261.539 347.031 262.013 347.156 262.398 347.297C263.591 347.734 264.188 348.492 264.188 349.57C264.188 350.341 263.857 350.966 263.195 351.445C262.534 351.919 261.68 352.156 260.633 352.156C259.924 352.156 259.294 352.031 258.742 351.781C258.195 351.526 257.766 351.18 257.453 350.742C257.141 350.299 256.984 349.823 256.984 349.312H259.125C259.146 349.714 259.294 350.021 259.57 350.234C259.846 350.448 260.216 350.555 260.68 350.555C261.112 350.555 261.438 350.474 261.656 350.312C261.88 350.146 261.992 349.93 261.992 349.664ZM268.031 352H265.766V343.547H268.031V352ZM265.633 341.359C265.633 341.021 265.745 340.742 265.969 340.523C266.198 340.305 266.508 340.195 266.898 340.195C267.284 340.195 267.591 340.305 267.82 340.523C268.049 340.742 268.164 341.021 268.164 341.359C268.164 341.703 268.047 341.984 267.812 342.203C267.583 342.422 267.279 342.531 266.898 342.531C266.518 342.531 266.211 342.422 265.977 342.203C265.747 341.984 265.633 341.703 265.633 341.359Z" fill="black"/>
<defs>
<clipPath id="clip0">
<rect x="49" y="109" width="250" height="180.952" fill="white"/>
</clipPath>
<clipPath id="clip1">
<rect x="19" y="132.265" width="250" height="166.735" fill="white"/>
</clipPath>
</defs>
</svg>
