<svg width="320" height="396" viewBox="0 0 320 396" fill="none" xmlns="http://www.w3.org/2000/svg">
<circle cx="160" cy="160" r="160" fill="#C82247"/>
<ellipse cx="124" cy="131.5" rx="115" ry="118.5" fill="white" fill-opacity="0.08"/>
<g clip-path="url(#clip0)">
<path d="M263.186 207.025C263.186 234.857 246.172 259.48 220.091 274.469C203.369 284.081 182.917 289.732 160.834 289.732C131.415 289.732 108.974 279.069 92.0939 262.734C76.5347 247.681 65.7008 227.809 58.482 207.025C26.2556 114.231 80.0902 88.9154 160.834 124.318C212.244 146.861 263.186 161.349 263.186 207.025Z" fill="#DF4A6C"/>
<path d="M220.091 158.447V274.689C203.369 284.301 182.917 289.952 160.834 289.952C131.415 289.952 108.975 279.289 92.094 262.954V158.447H220.091Z" fill="#F2F2F2"/>
<path d="M104.405 215.086C111.107 213.042 118.06 211.853 125.086 211.55C128.606 211.407 132.133 211.539 135.631 211.946C139.095 212.385 142.517 213.088 145.865 214.047C149.173 214.966 152.435 216.027 155.732 216.981C159.081 217.962 162.486 218.759 165.929 219.367C169.355 219.962 172.815 220.358 176.291 220.552C179.732 220.744 183.207 220.781 186.639 220.429C189.845 220.133 192.984 219.37 195.95 218.166C198.716 217.008 201.272 215.436 203.522 213.508C204.084 213.027 204.624 212.525 205.143 212.002C205.449 211.695 204.963 211.227 204.656 211.535C200.27 215.933 194.503 218.66 188.249 219.571C184.842 220.067 181.37 220.096 177.933 219.968C174.419 219.838 170.917 219.499 167.447 218.952C164.018 218.407 160.627 217.666 157.29 216.735C154.013 215.824 150.78 214.774 147.514 213.828C144.22 212.835 140.856 212.067 137.449 211.528C134.032 211.028 130.578 210.799 127.122 210.84C120.216 210.946 113.355 211.921 106.713 213.739C105.879 213.963 105.049 214.201 104.222 214.45C103.801 214.577 103.981 215.214 104.405 215.086H104.405Z" fill="#AA1738"/>
<path d="M104.405 231.806C111.107 229.762 118.06 228.573 125.086 228.27C128.606 228.127 132.133 228.259 135.631 228.666C139.095 229.105 142.517 229.808 145.865 230.768C149.173 231.686 152.435 232.747 155.732 233.701C159.081 234.682 162.486 235.479 165.929 236.087C169.355 236.682 172.815 237.078 176.291 237.272C179.732 237.464 183.207 237.501 186.639 237.15C189.845 236.854 192.984 236.09 195.95 234.886C198.716 233.728 201.272 232.156 203.522 230.228C204.084 229.747 204.624 229.245 205.143 228.722C205.449 228.415 204.963 227.947 204.656 228.255C200.27 232.653 194.503 235.381 188.249 236.291C184.842 236.787 181.37 236.816 177.933 236.688C174.419 236.558 170.917 236.219 167.447 235.672C164.018 235.127 160.627 234.386 157.29 233.455C154.013 232.544 150.78 231.494 147.514 230.548C144.22 229.555 140.856 228.787 137.449 228.248C134.032 227.749 130.578 227.519 127.122 227.56C120.216 227.666 113.355 228.641 106.713 230.459C105.879 230.684 105.049 230.921 104.222 231.17C103.801 231.297 103.981 231.934 104.405 231.806H104.405Z" fill="#AA1738"/>
<path d="M104.405 199.906C111.107 197.862 118.06 196.673 125.086 196.37C128.606 196.227 132.133 196.359 135.631 196.766C139.095 197.205 142.517 197.908 145.865 198.867C149.173 199.786 152.435 200.847 155.732 201.801C159.081 202.782 162.486 203.579 165.929 204.187C169.355 204.782 172.815 205.177 176.291 205.372C179.732 205.564 183.207 205.601 186.639 205.249C189.845 204.953 192.984 204.19 195.95 202.986C198.716 201.828 201.272 200.256 203.522 198.328C204.084 197.847 204.624 197.345 205.143 196.822C205.449 196.515 204.963 196.047 204.656 196.355C200.27 200.753 194.503 203.48 188.249 204.391C184.842 204.887 181.37 204.916 177.933 204.788C174.419 204.658 170.917 204.319 167.447 203.772C164.018 203.227 160.627 202.486 157.29 201.555C154.013 200.644 150.78 199.594 147.514 198.647C144.22 197.655 140.856 196.887 137.449 196.348C134.032 195.848 130.578 195.618 127.122 195.66C120.216 195.766 113.355 196.741 106.713 198.559C105.879 198.783 105.049 199.02 104.222 199.27C103.801 199.397 103.981 200.034 104.405 199.906H104.405Z" fill="#AA1738"/>
<path d="M103.585 171.205C105.25 170.498 107.158 170.621 108.886 171.031C110.749 171.474 112.503 172.243 114.337 172.775C117.62 173.713 121.108 173.776 124.425 172.958C126.293 172.501 128.075 171.769 129.708 170.786C130.082 170.561 129.737 169.99 129.361 170.216C126.45 171.96 123.085 172.88 119.654 172.871C117.932 172.868 116.221 172.626 114.572 172.153C112.751 171.629 111.011 170.869 109.166 170.418C107.212 169.941 105.116 169.837 103.238 170.635C102.834 170.807 103.184 171.376 103.585 171.205Z" fill="#AA1738"/>
<path d="M154.716 272.407C160.544 272.407 165.268 267.876 165.268 262.287C165.268 256.698 160.544 252.167 154.716 252.167C148.889 252.167 144.165 256.698 144.165 262.287C144.165 267.876 148.889 272.407 154.716 272.407Z" fill="#AA1738"/>
<path d="M97.8286 137.767C100.996 137.767 103.563 135.304 103.563 132.267C103.563 129.229 100.996 126.767 97.8286 126.767C94.6615 126.767 92.094 129.229 92.094 132.267C92.094 135.304 94.6615 137.767 97.8286 137.767Z" fill="#F2F2F2"/>
<path d="M148.064 151.627C150.218 151.627 151.964 149.952 151.964 147.887C151.964 145.821 150.218 144.147 148.064 144.147C145.91 144.147 144.165 145.821 144.165 147.887C144.165 149.952 145.91 151.627 148.064 151.627Z" fill="#F2F2F2"/>
<path d="M84.7537 187.487C86.9073 187.487 88.6532 185.812 88.6532 183.747C88.6532 181.681 86.9073 180.007 84.7537 180.007C82.6 180.007 80.8541 181.681 80.8541 183.747C80.8541 185.812 82.6 187.487 84.7537 187.487Z" fill="#F2F2F2"/>
<path d="M69.0533 155.962H68.6233V229.717H69.0533V155.962Z" fill="#AA1738"/>
<path d="M68.9212 223.396C73.5525 223.396 77.3068 215.179 77.3068 205.042C77.3068 194.906 73.5525 186.689 68.9212 186.689C64.29 186.689 60.5356 194.906 60.5356 205.042C60.5356 215.179 64.29 223.396 68.9212 223.396Z" fill="#AA1738"/>
<path d="M68.9212 181.533C73.5525 181.533 77.3068 173.316 77.3068 163.18C77.3068 153.044 73.5525 144.827 68.9212 144.827C64.29 144.827 60.5356 153.044 60.5356 163.18C60.5356 173.316 64.29 181.533 68.9212 181.533Z" fill="#AA1738"/>
<path d="M69.1272 148.185L68.7152 148.067C68.7413 147.983 71.2694 139.674 67.1182 134.325C64.7736 131.304 60.7504 129.773 55.1602 129.773V129.36C60.8947 129.36 65.0343 130.948 67.4644 134.081C71.744 139.597 69.1539 148.1 69.1272 148.185Z" fill="#AA1738"/>
<path d="M55.1602 134.722C58.129 134.722 60.5356 132.414 60.5356 129.566C60.5356 126.719 58.129 124.411 55.1602 124.411C52.1915 124.411 49.7849 126.719 49.7849 129.566C49.7849 132.414 52.1915 134.722 55.1602 134.722Z" fill="#AA1738"/>
<path d="M225.797 246.43L221.775 281.916H249.525L250.731 279.216L252.34 281.916H278.481C278.481 281.916 276.47 245.273 272.851 244.115C269.231 242.958 225.797 246.43 225.797 246.43Z" fill="#2F2E41"/>
<path d="M249.525 168.515C257.299 168.515 263.601 162.471 263.601 155.015C263.601 147.559 257.299 141.515 249.525 141.515C241.751 141.515 235.449 147.559 235.449 155.015C235.449 162.471 241.751 168.515 249.525 168.515Z" fill="#FFB8B8"/>
<path d="M241.482 163.501C241.482 163.501 242.688 175.843 241.482 176.615C240.275 177.386 260.786 177.001 260.786 177.001C260.786 177.001 257.971 165.815 260.786 160.415L241.482 163.501Z" fill="#FFB8B8"/>
<path d="M248.721 173.915C248.721 173.915 259.069 175.461 259.927 172.373L265.21 179.315L265.612 248.744C265.612 248.744 222.579 253.758 220.971 245.658C219.362 237.558 237.46 173.529 237.46 173.529L242.016 173.246C242.016 173.246 247.916 173.915 248.721 173.915Z" fill="#D0CDE1"/>
<path d="M241.947 170.079L235.047 172.372L215.34 177.001L216.145 223.287C216.145 223.287 199.254 269.573 206.895 273.044C214.536 276.516 225.395 268.416 228.612 262.63C231.829 256.844 243.09 176.615 243.09 175.072C243.09 173.529 241.947 170.079 241.947 170.079Z" fill="#AA1738"/>
<path d="M259.669 170.079L262.394 172.372L281.699 180.858L272.047 227.53C272.047 227.53 284.916 269.958 280.09 272.273C275.264 274.587 268.025 281.144 266.416 277.287C264.807 273.43 255.335 174.342 259.669 170.079Z" fill="#AA1738"/>
<path d="M270.84 231.772C270.84 231.772 252.742 224.444 252.34 231.001C251.938 237.558 272.851 242.187 272.851 240.258C272.851 238.33 270.84 231.772 270.84 231.772Z" fill="#FFB8B8"/>
<path d="M226.601 229.072C226.601 229.072 247.514 244.115 239.471 247.973C231.427 251.83 220.971 234.472 220.971 234.472L226.601 229.072Z" fill="#FFB8B8"/>
<path d="M255.774 135.239C255.84 135.105 255.947 134.993 256.08 134.917C256.213 134.841 256.367 134.805 256.521 134.814C250.077 134.444 243.289 135.165 237.898 138.571C236.388 139.524 234.978 140.691 233.259 141.228L234.654 142.278L232.987 142.765L235.441 144.286C235.193 144.556 234.875 144.759 234.519 144.873C234.164 144.987 233.783 145.009 233.415 144.937C234.482 145.236 235.267 146.146 235.665 147.14C236.064 148.134 236.136 149.217 236.203 150.281C236.615 148.746 238.361 147.843 240.01 147.751C241.66 147.659 243.268 148.181 244.873 148.557C248.369 149.371 252 149.505 255.551 148.95C254.345 151.271 255.362 154.039 256.385 156.439L258.429 161.231C259.564 161.341 260.366 160.258 261.221 159.535C262 158.875 258.898 164.677 259.378 164.465C260.002 164.189 266.586 157.217 266.894 156.628C268.301 153.941 269.145 150.944 269.018 147.94C268.891 144.935 267.745 141.93 265.585 139.749C264.12 138.269 262.092 138.01 260.597 136.78C260.009 136.296 260.007 135.918 259.199 135.636C258.93 135.542 255.818 135.145 255.774 135.239Z" fill="#2F2E41"/>
<path d="M218.156 178.158L215.34 177.001L192.819 212.487C192.819 212.487 188.797 221.744 196.036 225.987C203.275 230.23 220.166 242.958 220.166 242.958L229.819 228.687C229.819 228.687 210.112 219.815 211.319 216.344C212.525 212.872 218.96 203.615 218.96 203.615L218.156 178.158Z" fill="#AA1738"/>
<path d="M276.47 180.086L281.699 180.858C281.699 180.858 303.416 221.744 298.188 229.458C292.959 237.173 271.644 247.973 271.644 247.973C271.644 247.973 271.242 235.244 267.623 230.615L280.09 225.987L273.253 200.529L276.47 180.086Z" fill="#AA1738"/>
</g>
<g clip-path="url(#clip1)">
<path d="M50.434 279.69C67.7945 279.69 81.868 278.156 81.868 276.264C81.868 274.372 67.7945 272.838 50.434 272.838C33.0735 272.838 19 274.372 19 276.264C19 278.156 33.0735 279.69 50.434 279.69Z" fill="#D0CDE1"/>
<path d="M69.5038 226.326H31.364V276.28H69.5038V226.326Z" fill="#D0CDE1"/>
<path d="M64.1175 243.772H36.8747V245.098H64.1175V243.772Z" fill="white"/>
<path d="M64.1175 248.413H36.8747V249.74H64.1175V248.413Z" fill="white"/>
<path d="M64.1175 253.055H36.8747V254.381H64.1175V253.055Z" fill="white"/>
<path d="M64.1175 257.697H36.8747V259.023H64.1175V257.697Z" fill="white"/>
<path d="M57.9173 205.572C57.9156 207.468 57.2655 209.299 56.0863 210.73C54.9071 212.16 53.2782 213.094 51.4988 213.359C49.7194 213.624 47.909 213.203 46.4003 212.173C44.8917 211.143 43.786 209.573 43.2866 207.752C42.7872 205.932 42.9275 203.982 43.6817 202.261C44.436 200.541 45.7535 199.165 47.3923 198.387C49.0311 197.609 50.8809 197.481 52.602 198.027C54.3231 198.572 55.7998 199.754 56.7608 201.356C57.5165 202.618 57.9176 204.08 57.9173 205.572Z" fill="#D0CDE1"/>
<path d="M56.7609 201.356L49.3945 209.124C48.9315 208.368 46.3522 204.855 46.3522 204.855C46.6827 204.503 47.0355 204.174 47.408 203.872L49.5469 206.88L55.8983 200.181C56.2204 200.543 56.5092 200.936 56.7609 201.356Z" fill="white"/>
<path d="M152.148 277.68C169.509 277.68 183.582 276.146 183.582 274.254C183.582 272.362 169.509 270.828 152.148 270.828C134.788 270.828 120.714 272.362 120.714 274.254C120.714 276.146 134.788 277.68 152.148 277.68Z" fill="#D0CDE1"/>
<path d="M171.218 224.316H133.078V274.27H171.218V224.316Z" fill="#D0CDE1"/>
<path d="M165.832 252.124H138.589V253.45H165.832V252.124Z" fill="white"/>
<path d="M165.832 256.765H138.589V258.092H165.832V256.765Z" fill="white"/>
<path d="M165.832 261.407H138.589V262.734H165.832V261.407Z" fill="white"/>
<path d="M165.832 266.049H138.589V267.375H165.832V266.049Z" fill="white"/>
<path d="M146.935 242.096H138.279C137.688 238.494 137.688 234.812 138.279 231.211H146.935C145.959 234.766 145.959 238.541 146.935 242.096Z" fill="white"/>
<path d="M166.46 232.23H150.534V233.335H166.46V232.23Z" fill="white"/>
<path d="M166.46 236.209H150.534V237.314H166.46V236.209Z" fill="white"/>
<path d="M166.46 240.188H150.534V241.293H166.46V240.188Z" fill="white"/>
<path d="M166.46 244.166H150.534V245.272H166.46V244.166Z" fill="white"/>
<path d="M159.632 203.822C159.63 205.717 158.98 207.548 157.8 208.979C156.621 210.409 154.992 211.343 153.213 211.608C151.434 211.873 149.623 211.452 148.114 210.422C146.606 209.392 145.5 207.823 145.001 206.002C144.501 204.181 144.642 202.231 145.396 200.511C146.15 198.79 147.468 197.414 149.106 196.636C150.745 195.859 152.595 195.73 154.316 196.276C156.037 196.821 157.514 198.003 158.475 199.605C159.231 200.867 159.632 202.329 159.632 203.822Z" fill="#D0CDE1"/>
<path d="M158.475 199.605L151.109 207.374C150.646 206.618 148.066 203.104 148.066 203.104C148.397 202.752 148.75 202.423 149.122 202.121L151.261 205.129L157.612 198.43C157.934 198.792 158.223 199.185 158.475 199.605Z" fill="white"/>
<path d="M101.873 299C122.219 299 138.713 297.202 138.713 294.985C138.713 292.767 122.219 290.969 101.873 290.969C81.5271 290.969 65.0333 292.767 65.0333 294.985C65.0333 297.202 81.5271 299 101.873 299Z" fill="#D0CDE1"/>
<path d="M123.977 237.346H79.2781V295.891H123.977V237.346Z" fill="#14BF82"/>
<path d="M117.592 249.78H85.6636V251.335H117.592V249.78Z" fill="white"/>
<path d="M117.592 255.22H85.6636V256.775H117.592V255.22Z" fill="white"/>
<path d="M117.592 260.66H85.6636V262.215H117.592V260.66Z" fill="white"/>
<path d="M117.592 266.1H85.6636V267.655H117.592V266.1Z" fill="white"/>
<path d="M117.592 271.541H85.6636V273.095H117.592V271.541Z" fill="white"/>
<path d="M109.978 277.24H93.2772V283.457H109.978V277.24Z" fill="white"/>
<path d="M113.003 212.189C113.001 215.037 112.024 217.789 110.252 219.938C108.48 222.088 106.032 223.491 103.358 223.889C100.684 224.288 97.9634 223.655 95.6963 222.107C93.4292 220.56 91.7677 218.201 91.0172 215.465C90.2667 212.728 90.4775 209.798 91.611 207.213C92.7444 204.628 94.7244 202.56 97.187 201.391C99.6496 200.222 102.429 200.03 105.016 200.849C107.602 201.669 109.821 203.445 111.265 205.852C112.401 207.749 113.004 209.946 113.003 212.189Z" fill="#14BF82"/>
<path d="M111.265 205.852L100.196 217.526C99.5 216.39 95.6239 211.11 95.6239 211.11C96.1206 210.581 96.6507 210.087 97.2105 209.633L100.425 214.153L109.969 204.086C110.453 204.63 110.887 205.222 111.265 205.852Z" fill="white"/>
</g>
<path d="M87.2266 347.836H85.3594V352H83.0156V340.625H87.2422C88.5859 340.625 89.6224 340.924 90.3516 341.523C91.0807 342.122 91.4453 342.969 91.4453 344.062C91.4453 344.839 91.276 345.487 90.9375 346.008C90.6042 346.523 90.0964 346.935 89.4141 347.242L91.875 351.891V352H89.3594L87.2266 347.836ZM85.3594 345.938H87.25C87.8385 345.938 88.2943 345.789 88.6172 345.492C88.9401 345.19 89.1016 344.776 89.1016 344.25C89.1016 343.714 88.9479 343.292 88.6406 342.984C88.3385 342.677 87.8724 342.523 87.2422 342.523H85.3594V345.938ZM96.9766 352.156C95.737 352.156 94.7266 351.776 93.9453 351.016C93.1693 350.255 92.7812 349.242 92.7812 347.977V347.758C92.7812 346.909 92.9453 346.151 93.2734 345.484C93.6016 344.812 94.0651 344.297 94.6641 343.938C95.2682 343.573 95.9557 343.391 96.7266 343.391C97.8828 343.391 98.7917 343.755 99.4531 344.484C100.12 345.214 100.453 346.247 100.453 347.586V348.508H95.0703C95.1432 349.06 95.362 349.503 95.7266 349.836C96.0964 350.169 96.5625 350.336 97.125 350.336C97.9948 350.336 98.6745 350.021 99.1641 349.391L100.273 350.633C99.9349 351.112 99.4766 351.487 98.8984 351.758C98.3203 352.023 97.6797 352.156 96.9766 352.156ZM96.7188 345.219C96.2708 345.219 95.9062 345.37 95.625 345.672C95.349 345.974 95.1719 346.406 95.0938 346.969H98.2344V346.789C98.224 346.289 98.0885 345.904 97.8281 345.633C97.5677 345.357 97.1979 345.219 96.7188 345.219ZM104.797 349.242L106.367 343.547H108.727L105.875 352H103.719L100.867 343.547H103.227L104.797 349.242ZM112.109 352H109.844V343.547H112.109V352ZM109.711 341.359C109.711 341.021 109.823 340.742 110.047 340.523C110.276 340.305 110.586 340.195 110.977 340.195C111.362 340.195 111.669 340.305 111.898 340.523C112.128 340.742 112.242 341.021 112.242 341.359C112.242 341.703 112.125 341.984 111.891 342.203C111.661 342.422 111.357 342.531 110.977 342.531C110.596 342.531 110.289 342.422 110.055 342.203C109.826 341.984 109.711 341.703 109.711 341.359ZM117.867 352.156C116.628 352.156 115.617 351.776 114.836 351.016C114.06 350.255 113.672 349.242 113.672 347.977V347.758C113.672 346.909 113.836 346.151 114.164 345.484C114.492 344.812 114.956 344.297 115.555 343.938C116.159 343.573 116.846 343.391 117.617 343.391C118.773 343.391 119.682 343.755 120.344 344.484C121.01 345.214 121.344 346.247 121.344 347.586V348.508H115.961C116.034 349.06 116.253 349.503 116.617 349.836C116.987 350.169 117.453 350.336 118.016 350.336C118.885 350.336 119.565 350.021 120.055 349.391L121.164 350.633C120.826 351.112 120.367 351.487 119.789 351.758C119.211 352.023 118.57 352.156 117.867 352.156ZM117.609 345.219C117.161 345.219 116.797 345.37 116.516 345.672C116.24 345.974 116.062 346.406 115.984 346.969H119.125V346.789C119.115 346.289 118.979 345.904 118.719 345.633C118.458 345.357 118.089 345.219 117.609 345.219ZM129.984 348.93L131.094 343.547H133.273L131.117 352H129.227L127.625 346.68L126.023 352H124.141L121.984 343.547H124.164L125.266 348.922L126.812 343.547H128.445L129.984 348.93ZM144.953 349.656H140.844L140.062 352H137.57L141.805 340.625H143.977L148.234 352H145.742L144.953 349.656ZM141.477 347.758H144.32L142.891 343.5L141.477 347.758ZM152.664 350.336C153.081 350.336 153.419 350.221 153.68 349.992C153.94 349.763 154.076 349.458 154.086 349.078H156.203C156.198 349.651 156.042 350.177 155.734 350.656C155.427 351.13 155.005 351.5 154.469 351.766C153.938 352.026 153.349 352.156 152.703 352.156C151.495 352.156 150.542 351.773 149.844 351.008C149.146 350.237 148.797 349.174 148.797 347.82V347.672C148.797 346.37 149.143 345.331 149.836 344.555C150.529 343.779 151.479 343.391 152.688 343.391C153.745 343.391 154.591 343.693 155.227 344.297C155.867 344.896 156.193 345.695 156.203 346.695H154.086C154.076 346.258 153.94 345.904 153.68 345.633C153.419 345.357 153.076 345.219 152.648 345.219C152.122 345.219 151.724 345.411 151.453 345.797C151.188 346.177 151.055 346.797 151.055 347.656V347.891C151.055 348.76 151.188 349.385 151.453 349.766C151.719 350.146 152.122 350.336 152.664 350.336ZM161.008 350.336C161.424 350.336 161.763 350.221 162.023 349.992C162.284 349.763 162.419 349.458 162.43 349.078H164.547C164.542 349.651 164.385 350.177 164.078 350.656C163.771 351.13 163.349 351.5 162.812 351.766C162.281 352.026 161.693 352.156 161.047 352.156C159.839 352.156 158.885 351.773 158.188 351.008C157.49 350.237 157.141 349.174 157.141 347.82V347.672C157.141 346.37 157.487 345.331 158.18 344.555C158.872 343.779 159.823 343.391 161.031 343.391C162.089 343.391 162.935 343.693 163.57 344.297C164.211 344.896 164.536 345.695 164.547 346.695H162.43C162.419 346.258 162.284 345.904 162.023 345.633C161.763 345.357 161.419 345.219 160.992 345.219C160.466 345.219 160.068 345.411 159.797 345.797C159.531 346.177 159.398 346.797 159.398 347.656V347.891C159.398 348.76 159.531 349.385 159.797 349.766C160.062 350.146 160.466 350.336 161.008 350.336ZM170.586 345.664C170.279 345.622 170.008 345.602 169.773 345.602C168.919 345.602 168.359 345.891 168.094 346.469V352H165.836V343.547H167.969L168.031 344.555C168.484 343.779 169.112 343.391 169.914 343.391C170.164 343.391 170.398 343.424 170.617 343.492L170.586 345.664ZM175.414 352.156C174.174 352.156 173.164 351.776 172.383 351.016C171.607 350.255 171.219 349.242 171.219 347.977V347.758C171.219 346.909 171.383 346.151 171.711 345.484C172.039 344.812 172.503 344.297 173.102 343.938C173.706 343.573 174.393 343.391 175.164 343.391C176.32 343.391 177.229 343.755 177.891 344.484C178.557 345.214 178.891 346.247 178.891 347.586V348.508H173.508C173.581 349.06 173.799 349.503 174.164 349.836C174.534 350.169 175 350.336 175.562 350.336C176.432 350.336 177.112 350.021 177.602 349.391L178.711 350.633C178.372 351.112 177.914 351.487 177.336 351.758C176.758 352.023 176.117 352.156 175.414 352.156ZM175.156 345.219C174.708 345.219 174.344 345.37 174.062 345.672C173.786 345.974 173.609 346.406 173.531 346.969H176.672V346.789C176.661 346.289 176.526 345.904 176.266 345.633C176.005 345.357 175.635 345.219 175.156 345.219ZM179.828 347.711C179.828 346.393 180.122 345.344 180.711 344.562C181.305 343.781 182.115 343.391 183.141 343.391C183.964 343.391 184.643 343.698 185.18 344.312V340H187.445V352H185.406L185.297 351.102C184.734 351.805 184.01 352.156 183.125 352.156C182.13 352.156 181.331 351.766 180.727 350.984C180.128 350.198 179.828 349.107 179.828 347.711ZM182.086 347.875C182.086 348.667 182.224 349.273 182.5 349.695C182.776 350.117 183.177 350.328 183.703 350.328C184.401 350.328 184.893 350.034 185.18 349.445V346.109C184.898 345.521 184.411 345.227 183.719 345.227C182.63 345.227 182.086 346.109 182.086 347.875ZM191.578 352H189.312V343.547H191.578V352ZM189.18 341.359C189.18 341.021 189.292 340.742 189.516 340.523C189.745 340.305 190.055 340.195 190.445 340.195C190.831 340.195 191.138 340.305 191.367 340.523C191.596 340.742 191.711 341.021 191.711 341.359C191.711 341.703 191.594 341.984 191.359 342.203C191.13 342.422 190.826 342.531 190.445 342.531C190.065 342.531 189.758 342.422 189.523 342.203C189.294 341.984 189.18 341.703 189.18 341.359ZM196.148 341.469V343.547H197.594V345.203H196.148V349.422C196.148 349.734 196.208 349.958 196.328 350.094C196.448 350.229 196.677 350.297 197.016 350.297C197.266 350.297 197.487 350.279 197.68 350.242V351.953C197.237 352.089 196.781 352.156 196.312 352.156C194.729 352.156 193.922 351.357 193.891 349.758V345.203H192.656V343.547H193.891V341.469H196.148ZM203.75 352C203.646 351.797 203.57 351.544 203.523 351.242C202.977 351.852 202.266 352.156 201.391 352.156C200.562 352.156 199.875 351.917 199.328 351.438C198.786 350.958 198.516 350.354 198.516 349.625C198.516 348.729 198.846 348.042 199.508 347.562C200.174 347.083 201.135 346.841 202.391 346.836H203.43V346.352C203.43 345.961 203.328 345.648 203.125 345.414C202.927 345.18 202.612 345.062 202.18 345.062C201.799 345.062 201.5 345.154 201.281 345.336C201.068 345.518 200.961 345.768 200.961 346.086H198.703C198.703 345.596 198.854 345.143 199.156 344.727C199.458 344.31 199.885 343.984 200.438 343.75C200.99 343.51 201.609 343.391 202.297 343.391C203.339 343.391 204.164 343.654 204.773 344.18C205.388 344.701 205.695 345.435 205.695 346.383V350.047C205.701 350.849 205.812 351.456 206.031 351.867V352H203.75ZM201.883 350.43C202.216 350.43 202.523 350.357 202.805 350.211C203.086 350.06 203.294 349.859 203.43 349.609V348.156H202.586C201.456 348.156 200.854 348.547 200.781 349.328L200.773 349.461C200.773 349.742 200.872 349.974 201.07 350.156C201.268 350.339 201.539 350.43 201.883 350.43ZM210.133 341.469V343.547H211.578V345.203H210.133V349.422C210.133 349.734 210.193 349.958 210.312 350.094C210.432 350.229 210.661 350.297 211 350.297C211.25 350.297 211.471 350.279 211.664 350.242V351.953C211.221 352.089 210.766 352.156 210.297 352.156C208.714 352.156 207.906 351.357 207.875 349.758V345.203H206.641V343.547H207.875V341.469H210.133ZM215.219 352H212.953V343.547H215.219V352ZM212.82 341.359C212.82 341.021 212.932 340.742 213.156 340.523C213.385 340.305 213.695 340.195 214.086 340.195C214.471 340.195 214.779 340.305 215.008 340.523C215.237 340.742 215.352 341.021 215.352 341.359C215.352 341.703 215.234 341.984 215 342.203C214.771 342.422 214.466 342.531 214.086 342.531C213.706 342.531 213.398 342.422 213.164 342.203C212.935 341.984 212.82 341.703 212.82 341.359ZM216.734 347.695C216.734 346.857 216.896 346.109 217.219 345.453C217.542 344.797 218.005 344.289 218.609 343.93C219.219 343.57 219.924 343.391 220.727 343.391C221.867 343.391 222.797 343.74 223.516 344.438C224.24 345.135 224.643 346.083 224.727 347.281L224.742 347.859C224.742 349.156 224.38 350.198 223.656 350.984C222.932 351.766 221.961 352.156 220.742 352.156C219.523 352.156 218.549 351.766 217.82 350.984C217.096 350.203 216.734 349.141 216.734 347.797V347.695ZM218.992 347.859C218.992 348.661 219.143 349.276 219.445 349.703C219.747 350.125 220.18 350.336 220.742 350.336C221.289 350.336 221.716 350.128 222.023 349.711C222.331 349.289 222.484 348.617 222.484 347.695C222.484 346.909 222.331 346.299 222.023 345.867C221.716 345.435 221.284 345.219 220.727 345.219C220.174 345.219 219.747 345.435 219.445 345.867C219.143 346.294 218.992 346.958 218.992 347.859ZM228.211 343.547L228.281 344.523C228.885 343.768 229.695 343.391 230.711 343.391C231.607 343.391 232.273 343.654 232.711 344.18C233.148 344.706 233.372 345.492 233.383 346.539V352H231.125V346.594C231.125 346.115 231.021 345.768 230.812 345.555C230.604 345.336 230.258 345.227 229.773 345.227C229.138 345.227 228.661 345.497 228.344 346.039V352H226.086V343.547H228.211Z" fill="black"/>
<path d="M92.3594 374.752L94.5859 370.469H95.8633L92.9219 375.818V379H91.7969V375.818L88.8555 370.469H90.1445L92.3594 374.752ZM96.1211 375.771C96.1211 375.15 96.2422 374.592 96.4844 374.096C96.7305 373.6 97.0703 373.217 97.5039 372.947C97.9414 372.678 98.4395 372.543 98.998 372.543C99.8613 372.543 100.559 372.842 101.09 373.439C101.625 374.037 101.893 374.832 101.893 375.824V375.9C101.893 376.518 101.773 377.072 101.535 377.564C101.301 378.053 100.963 378.434 100.521 378.707C100.084 378.98 99.5801 379.117 99.0098 379.117C98.1504 379.117 97.4531 378.818 96.918 378.221C96.3867 377.623 96.1211 376.832 96.1211 375.848V375.771ZM97.2109 375.9C97.2109 376.604 97.373 377.168 97.6973 377.594C98.0254 378.02 98.4629 378.232 99.0098 378.232C99.5605 378.232 99.998 378.018 100.322 377.588C100.646 377.154 100.809 376.549 100.809 375.771C100.809 375.076 100.643 374.514 100.311 374.084C99.9824 373.65 99.5449 373.434 98.998 373.434C98.4629 373.434 98.0312 373.646 97.7031 374.072C97.375 374.498 97.2109 375.107 97.2109 375.9ZM107.166 378.373C106.744 378.869 106.125 379.117 105.309 379.117C104.633 379.117 104.117 378.922 103.762 378.531C103.41 378.137 103.232 377.555 103.229 376.785V372.66H104.312V376.756C104.312 377.717 104.703 378.197 105.484 378.197C106.312 378.197 106.863 377.889 107.137 377.271V372.66H108.221V379H107.189L107.166 378.373ZM115.393 378.232C115.779 378.232 116.117 378.115 116.406 377.881C116.695 377.646 116.855 377.354 116.887 377.002H117.912C117.893 377.365 117.768 377.711 117.537 378.039C117.307 378.367 116.998 378.629 116.611 378.824C116.229 379.02 115.822 379.117 115.393 379.117C114.529 379.117 113.842 378.83 113.33 378.256C112.822 377.678 112.568 376.889 112.568 375.889V375.707C112.568 375.09 112.682 374.541 112.908 374.061C113.135 373.58 113.459 373.207 113.881 372.941C114.307 372.676 114.809 372.543 115.387 372.543C116.098 372.543 116.688 372.756 117.156 373.182C117.629 373.607 117.881 374.16 117.912 374.84H116.887C116.855 374.43 116.699 374.094 116.418 373.832C116.141 373.566 115.797 373.434 115.387 373.434C114.836 373.434 114.408 373.633 114.104 374.031C113.803 374.426 113.652 374.998 113.652 375.748V375.953C113.652 376.684 113.803 377.246 114.104 377.641C114.404 378.035 114.834 378.232 115.393 378.232ZM123.045 379C122.982 378.875 122.932 378.652 122.893 378.332C122.389 378.855 121.787 379.117 121.088 379.117C120.463 379.117 119.949 378.941 119.547 378.59C119.148 378.234 118.949 377.785 118.949 377.242C118.949 376.582 119.199 376.07 119.699 375.707C120.203 375.34 120.91 375.156 121.82 375.156H122.875V374.658C122.875 374.279 122.762 373.979 122.535 373.756C122.309 373.529 121.975 373.416 121.533 373.416C121.146 373.416 120.822 373.514 120.561 373.709C120.299 373.904 120.168 374.141 120.168 374.418H119.078C119.078 374.102 119.189 373.797 119.412 373.504C119.639 373.207 119.943 372.973 120.326 372.801C120.713 372.629 121.137 372.543 121.598 372.543C122.328 372.543 122.9 372.727 123.314 373.094C123.729 373.457 123.943 373.959 123.959 374.6V377.518C123.959 378.1 124.033 378.562 124.182 378.906V379H123.045ZM121.246 378.174C121.586 378.174 121.908 378.086 122.213 377.91C122.518 377.734 122.738 377.506 122.875 377.225V375.924H122.025C120.697 375.924 120.033 376.312 120.033 377.09C120.033 377.43 120.146 377.695 120.373 377.887C120.6 378.078 120.891 378.174 121.246 378.174ZM126.684 372.66L126.719 373.457C127.203 372.848 127.836 372.543 128.617 372.543C129.957 372.543 130.633 373.299 130.645 374.811V379H129.561V374.805C129.557 374.348 129.451 374.01 129.244 373.791C129.041 373.572 128.723 373.463 128.289 373.463C127.938 373.463 127.629 373.557 127.363 373.744C127.098 373.932 126.891 374.178 126.742 374.482V379H125.658V372.66H126.684ZM137.887 379.117C137.027 379.117 136.328 378.836 135.789 378.273C135.25 377.707 134.98 376.951 134.98 376.006V375.807C134.98 375.178 135.1 374.617 135.338 374.125C135.58 373.629 135.916 373.242 136.346 372.965C136.779 372.684 137.248 372.543 137.752 372.543C138.576 372.543 139.217 372.814 139.674 373.357C140.131 373.9 140.359 374.678 140.359 375.689V376.141H136.064C136.08 376.766 136.262 377.271 136.609 377.658C136.961 378.041 137.406 378.232 137.945 378.232C138.328 378.232 138.652 378.154 138.918 377.998C139.184 377.842 139.416 377.635 139.615 377.377L140.277 377.893C139.746 378.709 138.949 379.117 137.887 379.117ZM137.752 373.434C137.314 373.434 136.947 373.594 136.65 373.914C136.354 374.23 136.17 374.676 136.1 375.25H139.275V375.168C139.244 374.617 139.096 374.191 138.83 373.891C138.564 373.586 138.205 373.434 137.752 373.434ZM145.533 379C145.471 378.875 145.42 378.652 145.381 378.332C144.877 378.855 144.275 379.117 143.576 379.117C142.951 379.117 142.438 378.941 142.035 378.59C141.637 378.234 141.438 377.785 141.438 377.242C141.438 376.582 141.688 376.07 142.188 375.707C142.691 375.34 143.398 375.156 144.309 375.156H145.363V374.658C145.363 374.279 145.25 373.979 145.023 373.756C144.797 373.529 144.463 373.416 144.021 373.416C143.635 373.416 143.311 373.514 143.049 373.709C142.787 373.904 142.656 374.141 142.656 374.418H141.566C141.566 374.102 141.678 373.797 141.9 373.504C142.127 373.207 142.432 372.973 142.814 372.801C143.201 372.629 143.625 372.543 144.086 372.543C144.816 372.543 145.389 372.727 145.803 373.094C146.217 373.457 146.432 373.959 146.447 374.6V377.518C146.447 378.1 146.521 378.562 146.67 378.906V379H145.533ZM143.734 378.174C144.074 378.174 144.396 378.086 144.701 377.91C145.006 377.734 145.227 377.506 145.363 377.225V375.924H144.514C143.186 375.924 142.521 376.312 142.521 377.09C142.521 377.43 142.635 377.695 142.861 377.887C143.088 378.078 143.379 378.174 143.734 378.174ZM151.838 377.318C151.838 377.025 151.727 376.799 151.504 376.639C151.285 376.475 150.9 376.334 150.35 376.217C149.803 376.1 149.367 375.959 149.043 375.795C148.723 375.631 148.484 375.436 148.328 375.209C148.176 374.982 148.1 374.713 148.1 374.4C148.1 373.881 148.318 373.441 148.756 373.082C149.197 372.723 149.76 372.543 150.443 372.543C151.162 372.543 151.744 372.729 152.189 373.1C152.639 373.471 152.863 373.945 152.863 374.523H151.773C151.773 374.227 151.646 373.971 151.393 373.756C151.143 373.541 150.826 373.434 150.443 373.434C150.049 373.434 149.74 373.52 149.518 373.691C149.295 373.863 149.184 374.088 149.184 374.365C149.184 374.627 149.287 374.824 149.494 374.957C149.701 375.09 150.074 375.217 150.613 375.338C151.156 375.459 151.596 375.604 151.932 375.771C152.268 375.939 152.516 376.143 152.676 376.381C152.84 376.615 152.922 376.902 152.922 377.242C152.922 377.809 152.695 378.264 152.242 378.607C151.789 378.947 151.201 379.117 150.479 379.117C149.971 379.117 149.521 379.027 149.131 378.848C148.74 378.668 148.434 378.418 148.211 378.098C147.992 377.773 147.883 377.424 147.883 377.049H148.967C148.986 377.412 149.131 377.701 149.4 377.916C149.674 378.127 150.033 378.232 150.479 378.232C150.889 378.232 151.217 378.15 151.463 377.986C151.713 377.818 151.838 377.596 151.838 377.318ZM155.512 379H154.428V372.66H155.512V379ZM154.34 370.979C154.34 370.803 154.393 370.654 154.498 370.533C154.607 370.412 154.768 370.352 154.979 370.352C155.189 370.352 155.35 370.412 155.459 370.533C155.568 370.654 155.623 370.803 155.623 370.979C155.623 371.154 155.568 371.301 155.459 371.418C155.35 371.535 155.189 371.594 154.979 371.594C154.768 371.594 154.607 371.535 154.498 371.418C154.393 371.301 154.34 371.154 154.34 370.979ZM158.43 379H157.346V370H158.43V379ZM162.244 377.412L163.721 372.66H164.881L162.332 379.979C161.938 381.033 161.311 381.561 160.451 381.561L160.246 381.543L159.842 381.467V380.588L160.135 380.611C160.502 380.611 160.787 380.537 160.99 380.389C161.197 380.24 161.367 379.969 161.5 379.574L161.74 378.93L159.479 372.66H160.662L162.244 377.412ZM171.895 373.633C171.73 373.605 171.553 373.592 171.361 373.592C170.65 373.592 170.168 373.895 169.914 374.5V379H168.83V372.66H169.885L169.902 373.393C170.258 372.826 170.762 372.543 171.414 372.543C171.625 372.543 171.785 372.57 171.895 372.625V373.633ZM175.41 379.117C174.551 379.117 173.852 378.836 173.312 378.273C172.773 377.707 172.504 376.951 172.504 376.006V375.807C172.504 375.178 172.623 374.617 172.861 374.125C173.104 373.629 173.439 373.242 173.869 372.965C174.303 372.684 174.771 372.543 175.275 372.543C176.1 372.543 176.74 372.814 177.197 373.357C177.654 373.9 177.883 374.678 177.883 375.689V376.141H173.588C173.604 376.766 173.785 377.271 174.133 377.658C174.484 378.041 174.93 378.232 175.469 378.232C175.852 378.232 176.176 378.154 176.441 377.998C176.707 377.842 176.939 377.635 177.139 377.377L177.801 377.893C177.27 378.709 176.473 379.117 175.41 379.117ZM175.275 373.434C174.838 373.434 174.471 373.594 174.174 373.914C173.877 374.23 173.693 374.676 173.623 375.25H176.799V375.168C176.768 374.617 176.619 374.191 176.354 373.891C176.088 373.586 175.729 373.434 175.275 373.434ZM181.152 377.529L182.723 372.66H183.83L181.557 379H180.73L178.434 372.66H179.541L181.152 377.529ZM186.051 379H184.967V372.66H186.051V379ZM184.879 370.979C184.879 370.803 184.932 370.654 185.037 370.533C185.146 370.412 185.307 370.352 185.518 370.352C185.729 370.352 185.889 370.412 185.998 370.533C186.107 370.654 186.162 370.803 186.162 370.979C186.162 371.154 186.107 371.301 185.998 371.418C185.889 371.535 185.729 371.594 185.518 371.594C185.307 371.594 185.146 371.535 185.037 371.418C184.932 371.301 184.879 371.154 184.879 370.979ZM190.422 379.117C189.562 379.117 188.863 378.836 188.324 378.273C187.785 377.707 187.516 376.951 187.516 376.006V375.807C187.516 375.178 187.635 374.617 187.873 374.125C188.115 373.629 188.451 373.242 188.881 372.965C189.314 372.684 189.783 372.543 190.287 372.543C191.111 372.543 191.752 372.814 192.209 373.357C192.666 373.9 192.895 374.678 192.895 375.689V376.141H188.6C188.615 376.766 188.797 377.271 189.145 377.658C189.496 378.041 189.941 378.232 190.48 378.232C190.863 378.232 191.188 378.154 191.453 377.998C191.719 377.842 191.951 377.635 192.15 377.377L192.812 377.893C192.281 378.709 191.484 379.117 190.422 379.117ZM190.287 373.434C189.85 373.434 189.482 373.594 189.186 373.914C188.889 374.23 188.705 374.676 188.635 375.25H191.811V375.168C191.779 374.617 191.631 374.191 191.365 373.891C191.1 373.586 190.74 373.434 190.287 373.434ZM199.768 377.506L200.986 372.66H202.07L200.225 379H199.346L197.805 374.195L196.305 379H195.426L193.586 372.66H194.664L195.912 377.406L197.389 372.66H198.262L199.768 377.506ZM210.068 379C210.006 378.875 209.955 378.652 209.916 378.332C209.412 378.855 208.811 379.117 208.111 379.117C207.486 379.117 206.973 378.941 206.57 378.59C206.172 378.234 205.973 377.785 205.973 377.242C205.973 376.582 206.223 376.07 206.723 375.707C207.227 375.34 207.934 375.156 208.844 375.156H209.898V374.658C209.898 374.279 209.785 373.979 209.559 373.756C209.332 373.529 208.998 373.416 208.557 373.416C208.17 373.416 207.846 373.514 207.584 373.709C207.322 373.904 207.191 374.141 207.191 374.418H206.102C206.102 374.102 206.213 373.797 206.436 373.504C206.662 373.207 206.967 372.973 207.35 372.801C207.736 372.629 208.16 372.543 208.621 372.543C209.352 372.543 209.924 372.727 210.338 373.094C210.752 373.457 210.967 373.959 210.982 374.6V377.518C210.982 378.1 211.057 378.562 211.205 378.906V379H210.068ZM208.27 378.174C208.609 378.174 208.932 378.086 209.236 377.91C209.541 377.734 209.762 377.506 209.898 377.225V375.924H209.049C207.721 375.924 207.057 376.312 207.057 377.09C207.057 377.43 207.17 377.695 207.396 377.887C207.623 378.078 207.914 378.174 208.27 378.174ZM213.707 372.66L213.742 373.457C214.227 372.848 214.859 372.543 215.641 372.543C216.98 372.543 217.656 373.299 217.668 374.811V379H216.584V374.805C216.58 374.348 216.475 374.01 216.268 373.791C216.064 373.572 215.746 373.463 215.312 373.463C214.961 373.463 214.652 373.557 214.387 373.744C214.121 373.932 213.914 374.178 213.766 374.482V379H212.682V372.66H213.707ZM219.039 375.777C219.039 374.805 219.27 374.023 219.73 373.434C220.191 372.84 220.795 372.543 221.541 372.543C222.283 372.543 222.871 372.797 223.305 373.305V370H224.389V379H223.393L223.34 378.32C222.906 378.852 222.303 379.117 221.529 379.117C220.795 379.117 220.195 378.816 219.73 378.215C219.27 377.613 219.039 376.828 219.039 375.859V375.777ZM220.123 375.9C220.123 376.619 220.271 377.182 220.568 377.588C220.865 377.994 221.275 378.197 221.799 378.197C222.486 378.197 222.988 377.889 223.305 377.271V374.359C222.98 373.762 222.482 373.463 221.811 373.463C221.279 373.463 220.865 373.668 220.568 374.078C220.271 374.488 220.123 375.096 220.123 375.9ZM62.8867 389.777C62.8867 388.789 63.1152 388.004 63.5723 387.422C64.0293 386.836 64.6348 386.543 65.3887 386.543C66.1621 386.543 66.7656 386.816 67.1992 387.363L67.252 386.66H68.2422V392.848C68.2422 393.668 67.998 394.314 67.5098 394.787C67.0254 395.26 66.373 395.496 65.5527 395.496C65.0957 395.496 64.6484 395.398 64.2109 395.203C63.7734 395.008 63.4395 394.74 63.209 394.4L63.7715 393.75C64.2363 394.324 64.8047 394.611 65.4766 394.611C66.0039 394.611 66.4141 394.463 66.707 394.166C67.0039 393.869 67.1523 393.451 67.1523 392.912V392.367C66.7188 392.867 66.127 393.117 65.377 393.117C64.6348 393.117 64.0332 392.818 63.5723 392.221C63.1152 391.623 62.8867 390.809 62.8867 389.777ZM63.9766 389.9C63.9766 390.615 64.123 391.178 64.416 391.588C64.709 391.994 65.1191 392.197 65.6465 392.197C66.3301 392.197 66.832 391.887 67.1523 391.266V388.371C66.8203 387.766 66.3223 387.463 65.6582 387.463C65.1309 387.463 64.7188 387.668 64.4219 388.078C64.125 388.488 63.9766 389.096 63.9766 389.9ZM72.5137 393.117C71.6543 393.117 70.9551 392.836 70.416 392.273C69.877 391.707 69.6074 390.951 69.6074 390.006V389.807C69.6074 389.178 69.7266 388.617 69.9648 388.125C70.207 387.629 70.543 387.242 70.9727 386.965C71.4062 386.684 71.875 386.543 72.3789 386.543C73.2031 386.543 73.8438 386.814 74.3008 387.357C74.7578 387.9 74.9863 388.678 74.9863 389.689V390.141H70.6914C70.707 390.766 70.8887 391.271 71.2363 391.658C71.5879 392.041 72.0332 392.232 72.5723 392.232C72.9551 392.232 73.2793 392.154 73.5449 391.998C73.8105 391.842 74.043 391.635 74.2422 391.377L74.9043 391.893C74.373 392.709 73.5762 393.117 72.5137 393.117ZM72.3789 387.434C71.9414 387.434 71.5742 387.594 71.2773 387.914C70.9805 388.23 70.7969 388.676 70.7266 389.25H73.9023V389.168C73.8711 388.617 73.7227 388.191 73.457 387.891C73.1914 387.586 72.832 387.434 72.3789 387.434ZM77.7168 385.125V386.66H78.9004V387.498H77.7168V391.43C77.7168 391.684 77.7695 391.875 77.875 392.004C77.9805 392.129 78.1602 392.191 78.4141 392.191C78.5391 392.191 78.7109 392.168 78.9297 392.121V393C78.6445 393.078 78.3672 393.117 78.0977 393.117C77.6133 393.117 77.248 392.971 77.002 392.678C76.7559 392.385 76.6328 391.969 76.6328 391.43V387.498H75.4785V386.66H76.6328V385.125H77.7168ZM84.6191 385.125V386.66H85.8027V387.498H84.6191V391.43C84.6191 391.684 84.6719 391.875 84.7773 392.004C84.8828 392.129 85.0625 392.191 85.3164 392.191C85.4414 392.191 85.6133 392.168 85.832 392.121V393C85.5469 393.078 85.2695 393.117 85 393.117C84.5156 393.117 84.1504 392.971 83.9043 392.678C83.6582 392.385 83.5352 391.969 83.5352 391.43V387.498H82.3809V386.66H83.5352V385.125H84.6191ZM88.1582 387.428C88.6387 386.838 89.2637 386.543 90.0332 386.543C91.373 386.543 92.0488 387.299 92.0605 388.811V393H90.9766V388.805C90.9727 388.348 90.8672 388.01 90.6602 387.791C90.457 387.572 90.1387 387.463 89.7051 387.463C89.3535 387.463 89.0449 387.557 88.7793 387.744C88.5137 387.932 88.3066 388.178 88.1582 388.482V393H87.0742V384H88.1582V387.428ZM96.3145 393.117C95.4551 393.117 94.7559 392.836 94.2168 392.273C93.6777 391.707 93.4082 390.951 93.4082 390.006V389.807C93.4082 389.178 93.5273 388.617 93.7656 388.125C94.0078 387.629 94.3438 387.242 94.7734 386.965C95.207 386.684 95.6758 386.543 96.1797 386.543C97.0039 386.543 97.6445 386.814 98.1016 387.357C98.5586 387.9 98.7871 388.678 98.7871 389.689V390.141H94.4922C94.5078 390.766 94.6895 391.271 95.0371 391.658C95.3887 392.041 95.834 392.232 96.373 392.232C96.7559 392.232 97.0801 392.154 97.3457 391.998C97.6113 391.842 97.8438 391.635 98.043 391.377L98.7051 391.893C98.1738 392.709 97.377 393.117 96.3145 393.117ZM96.1797 387.434C95.7422 387.434 95.375 387.594 95.0781 387.914C94.7812 388.23 94.5977 388.676 94.5273 389.25H97.7031V389.168C97.6719 388.617 97.5234 388.191 97.2578 387.891C96.9922 387.586 96.6328 387.434 96.1797 387.434ZM108.391 389.9C108.391 390.869 108.168 391.648 107.723 392.238C107.277 392.824 106.68 393.117 105.93 393.117C105.129 393.117 104.51 392.834 104.072 392.268L104.02 393H103.023V384H104.107V387.357C104.545 386.814 105.148 386.543 105.918 386.543C106.688 386.543 107.291 386.834 107.729 387.416C108.17 387.998 108.391 388.795 108.391 389.807V389.9ZM107.307 389.777C107.307 389.039 107.164 388.469 106.879 388.066C106.594 387.664 106.184 387.463 105.648 387.463C104.934 387.463 104.42 387.795 104.107 388.459V391.201C104.439 391.865 104.957 392.197 105.66 392.197C106.18 392.197 106.584 391.996 106.873 391.594C107.162 391.191 107.307 390.586 107.307 389.777ZM112.393 393.117C111.533 393.117 110.834 392.836 110.295 392.273C109.756 391.707 109.486 390.951 109.486 390.006V389.807C109.486 389.178 109.605 388.617 109.844 388.125C110.086 387.629 110.422 387.242 110.852 386.965C111.285 386.684 111.754 386.543 112.258 386.543C113.082 386.543 113.723 386.814 114.18 387.357C114.637 387.9 114.865 388.678 114.865 389.689V390.141H110.57C110.586 390.766 110.768 391.271 111.115 391.658C111.467 392.041 111.912 392.232 112.451 392.232C112.834 392.232 113.158 392.154 113.424 391.998C113.689 391.842 113.922 391.635 114.121 391.377L114.783 391.893C114.252 392.709 113.455 393.117 112.393 393.117ZM112.258 387.434C111.82 387.434 111.453 387.594 111.156 387.914C110.859 388.23 110.676 388.676 110.605 389.25H113.781V389.168C113.75 388.617 113.602 388.191 113.336 387.891C113.07 387.586 112.711 387.434 112.258 387.434ZM119.816 391.318C119.816 391.025 119.705 390.799 119.482 390.639C119.264 390.475 118.879 390.334 118.328 390.217C117.781 390.1 117.346 389.959 117.021 389.795C116.701 389.631 116.463 389.436 116.307 389.209C116.154 388.982 116.078 388.713 116.078 388.4C116.078 387.881 116.297 387.441 116.734 387.082C117.176 386.723 117.738 386.543 118.422 386.543C119.141 386.543 119.723 386.729 120.168 387.1C120.617 387.471 120.842 387.945 120.842 388.523H119.752C119.752 388.227 119.625 387.971 119.371 387.756C119.121 387.541 118.805 387.434 118.422 387.434C118.027 387.434 117.719 387.52 117.496 387.691C117.273 387.863 117.162 388.088 117.162 388.365C117.162 388.627 117.266 388.824 117.473 388.957C117.68 389.09 118.053 389.217 118.592 389.338C119.135 389.459 119.574 389.604 119.91 389.771C120.246 389.939 120.494 390.143 120.654 390.381C120.818 390.615 120.9 390.902 120.9 391.242C120.9 391.809 120.674 392.264 120.221 392.607C119.768 392.947 119.18 393.117 118.457 393.117C117.949 393.117 117.5 393.027 117.109 392.848C116.719 392.668 116.412 392.418 116.189 392.098C115.971 391.773 115.861 391.424 115.861 391.049H116.945C116.965 391.412 117.109 391.701 117.379 391.916C117.652 392.127 118.012 392.232 118.457 392.232C118.867 392.232 119.195 392.15 119.441 391.986C119.691 391.818 119.816 391.596 119.816 391.318ZM123.783 385.125V386.66H124.967V387.498H123.783V391.43C123.783 391.684 123.836 391.875 123.941 392.004C124.047 392.129 124.227 392.191 124.48 392.191C124.605 392.191 124.777 392.168 124.996 392.121V393C124.711 393.078 124.434 393.117 124.164 393.117C123.68 393.117 123.314 392.971 123.068 392.678C122.822 392.385 122.699 391.969 122.699 391.43V387.498H121.545V386.66H122.699V385.125H123.783ZM132.279 387.633C132.115 387.605 131.938 387.592 131.746 387.592C131.035 387.592 130.553 387.895 130.299 388.5V393H129.215V386.66H130.27L130.287 387.393C130.643 386.826 131.146 386.543 131.799 386.543C132.01 386.543 132.17 386.57 132.279 386.625V387.633ZM135.795 393.117C134.936 393.117 134.236 392.836 133.697 392.273C133.158 391.707 132.889 390.951 132.889 390.006V389.807C132.889 389.178 133.008 388.617 133.246 388.125C133.488 387.629 133.824 387.242 134.254 386.965C134.688 386.684 135.156 386.543 135.66 386.543C136.484 386.543 137.125 386.814 137.582 387.357C138.039 387.9 138.268 388.678 138.268 389.689V390.141H133.973C133.988 390.766 134.17 391.271 134.518 391.658C134.869 392.041 135.314 392.232 135.854 392.232C136.236 392.232 136.561 392.154 136.826 391.998C137.092 391.842 137.324 391.635 137.523 391.377L138.186 391.893C137.654 392.709 136.857 393.117 135.795 393.117ZM135.66 387.434C135.223 387.434 134.855 387.594 134.559 387.914C134.262 388.23 134.078 388.676 134.008 389.25H137.184V389.168C137.152 388.617 137.004 388.191 136.738 387.891C136.473 387.586 136.113 387.434 135.66 387.434ZM140.061 393V387.498H139.059V386.66H140.061V386.01C140.061 385.33 140.242 384.805 140.605 384.434C140.969 384.062 141.482 383.877 142.146 383.877C142.396 383.877 142.645 383.91 142.891 383.977L142.832 384.855C142.648 384.82 142.453 384.803 142.246 384.803C141.895 384.803 141.623 384.906 141.432 385.113C141.24 385.316 141.145 385.609 141.145 385.992V386.66H142.498V387.498H141.145V393H140.061ZM146.189 393.117C145.33 393.117 144.631 392.836 144.092 392.273C143.553 391.707 143.283 390.951 143.283 390.006V389.807C143.283 389.178 143.402 388.617 143.641 388.125C143.883 387.629 144.219 387.242 144.648 386.965C145.082 386.684 145.551 386.543 146.055 386.543C146.879 386.543 147.52 386.814 147.977 387.357C148.434 387.9 148.662 388.678 148.662 389.689V390.141H144.367C144.383 390.766 144.564 391.271 144.912 391.658C145.264 392.041 145.709 392.232 146.248 392.232C146.631 392.232 146.955 392.154 147.221 391.998C147.486 391.842 147.719 391.635 147.918 391.377L148.58 391.893C148.049 392.709 147.252 393.117 146.189 393.117ZM146.055 387.434C145.617 387.434 145.25 387.594 144.953 387.914C144.656 388.23 144.473 388.676 144.402 389.25H147.578V389.168C147.547 388.617 147.398 388.191 147.133 387.891C146.867 387.586 146.508 387.434 146.055 387.434ZM152.986 387.633C152.822 387.605 152.645 387.592 152.453 387.592C151.742 387.592 151.26 387.895 151.006 388.5V393H149.922V386.66H150.977L150.994 387.393C151.35 386.826 151.854 386.543 152.506 386.543C152.717 386.543 152.877 386.57 152.986 386.625V387.633ZM156.502 393.117C155.643 393.117 154.943 392.836 154.404 392.273C153.865 391.707 153.596 390.951 153.596 390.006V389.807C153.596 389.178 153.715 388.617 153.953 388.125C154.195 387.629 154.531 387.242 154.961 386.965C155.395 386.684 155.863 386.543 156.367 386.543C157.191 386.543 157.832 386.814 158.289 387.357C158.746 387.9 158.975 388.678 158.975 389.689V390.141H154.68C154.695 390.766 154.877 391.271 155.225 391.658C155.576 392.041 156.021 392.232 156.561 392.232C156.943 392.232 157.268 392.154 157.533 391.998C157.799 391.842 158.031 391.635 158.23 391.377L158.893 391.893C158.361 392.709 157.564 393.117 156.502 393.117ZM156.367 387.434C155.93 387.434 155.562 387.594 155.266 387.914C154.969 388.23 154.785 388.676 154.715 389.25H157.891V389.168C157.859 388.617 157.711 388.191 157.445 387.891C157.18 387.586 156.82 387.434 156.367 387.434ZM161.26 386.66L161.295 387.457C161.779 386.848 162.412 386.543 163.193 386.543C164.533 386.543 165.209 387.299 165.221 388.811V393H164.137V388.805C164.133 388.348 164.027 388.01 163.82 387.791C163.617 387.572 163.299 387.463 162.865 387.463C162.514 387.463 162.205 387.557 161.939 387.744C161.674 387.932 161.467 388.178 161.318 388.482V393H160.234V386.66H161.26ZM169.398 392.232C169.785 392.232 170.123 392.115 170.412 391.881C170.701 391.646 170.861 391.354 170.893 391.002H171.918C171.898 391.365 171.773 391.711 171.543 392.039C171.312 392.367 171.004 392.629 170.617 392.824C170.234 393.02 169.828 393.117 169.398 393.117C168.535 393.117 167.848 392.83 167.336 392.256C166.828 391.678 166.574 390.889 166.574 389.889V389.707C166.574 389.09 166.688 388.541 166.914 388.061C167.141 387.58 167.465 387.207 167.887 386.941C168.312 386.676 168.814 386.543 169.393 386.543C170.104 386.543 170.693 386.756 171.162 387.182C171.635 387.607 171.887 388.16 171.918 388.84H170.893C170.861 388.43 170.705 388.094 170.424 387.832C170.146 387.566 169.803 387.434 169.393 387.434C168.842 387.434 168.414 387.633 168.109 388.031C167.809 388.426 167.658 388.998 167.658 389.748V389.953C167.658 390.684 167.809 391.246 168.109 391.641C168.41 392.035 168.84 392.232 169.398 392.232ZM175.768 393.117C174.908 393.117 174.209 392.836 173.67 392.273C173.131 391.707 172.861 390.951 172.861 390.006V389.807C172.861 389.178 172.98 388.617 173.219 388.125C173.461 387.629 173.797 387.242 174.227 386.965C174.66 386.684 175.129 386.543 175.633 386.543C176.457 386.543 177.098 386.814 177.555 387.357C178.012 387.9 178.24 388.678 178.24 389.689V390.141H173.945C173.961 390.766 174.143 391.271 174.49 391.658C174.842 392.041 175.287 392.232 175.826 392.232C176.209 392.232 176.533 392.154 176.799 391.998C177.064 391.842 177.297 391.635 177.496 391.377L178.158 391.893C177.627 392.709 176.83 393.117 175.768 393.117ZM175.633 387.434C175.195 387.434 174.828 387.594 174.531 387.914C174.234 388.23 174.051 388.676 173.98 389.25H177.156V389.168C177.125 388.617 176.977 388.191 176.711 387.891C176.445 387.586 176.086 387.434 175.633 387.434ZM186.391 393C186.328 392.875 186.277 392.652 186.238 392.332C185.734 392.855 185.133 393.117 184.434 393.117C183.809 393.117 183.295 392.941 182.893 392.59C182.494 392.234 182.295 391.785 182.295 391.242C182.295 390.582 182.545 390.07 183.045 389.707C183.549 389.34 184.256 389.156 185.166 389.156H186.221V388.658C186.221 388.279 186.107 387.979 185.881 387.756C185.654 387.529 185.32 387.416 184.879 387.416C184.492 387.416 184.168 387.514 183.906 387.709C183.645 387.904 183.514 388.141 183.514 388.418H182.424C182.424 388.102 182.535 387.797 182.758 387.504C182.984 387.207 183.289 386.973 183.672 386.801C184.059 386.629 184.482 386.543 184.943 386.543C185.674 386.543 186.246 386.727 186.66 387.094C187.074 387.457 187.289 387.959 187.305 388.6V391.518C187.305 392.1 187.379 392.562 187.527 392.906V393H186.391ZM184.592 392.174C184.932 392.174 185.254 392.086 185.559 391.91C185.863 391.734 186.084 391.506 186.221 391.225V389.924H185.371C184.043 389.924 183.379 390.312 183.379 391.09C183.379 391.43 183.492 391.695 183.719 391.887C183.945 392.078 184.236 392.174 184.592 392.174ZM191.547 392.232C191.934 392.232 192.271 392.115 192.561 391.881C192.85 391.646 193.01 391.354 193.041 391.002H194.066C194.047 391.365 193.922 391.711 193.691 392.039C193.461 392.367 193.152 392.629 192.766 392.824C192.383 393.02 191.977 393.117 191.547 393.117C190.684 393.117 189.996 392.83 189.484 392.256C188.977 391.678 188.723 390.889 188.723 389.889V389.707C188.723 389.09 188.836 388.541 189.062 388.061C189.289 387.58 189.613 387.207 190.035 386.941C190.461 386.676 190.963 386.543 191.541 386.543C192.252 386.543 192.842 386.756 193.311 387.182C193.783 387.607 194.035 388.16 194.066 388.84H193.041C193.01 388.43 192.854 388.094 192.572 387.832C192.295 387.566 191.951 387.434 191.541 387.434C190.99 387.434 190.562 387.633 190.258 388.031C189.957 388.426 189.807 388.998 189.807 389.748V389.953C189.807 390.684 189.957 391.246 190.258 391.641C190.559 392.035 190.988 392.232 191.547 392.232ZM197.828 392.232C198.215 392.232 198.553 392.115 198.842 391.881C199.131 391.646 199.291 391.354 199.322 391.002H200.348C200.328 391.365 200.203 391.711 199.973 392.039C199.742 392.367 199.434 392.629 199.047 392.824C198.664 393.02 198.258 393.117 197.828 393.117C196.965 393.117 196.277 392.83 195.766 392.256C195.258 391.678 195.004 390.889 195.004 389.889V389.707C195.004 389.09 195.117 388.541 195.344 388.061C195.57 387.58 195.895 387.207 196.316 386.941C196.742 386.676 197.244 386.543 197.822 386.543C198.533 386.543 199.123 386.756 199.592 387.182C200.064 387.607 200.316 388.16 200.348 388.84H199.322C199.291 388.43 199.135 388.094 198.854 387.832C198.576 387.566 198.232 387.434 197.822 387.434C197.271 387.434 196.844 387.633 196.539 388.031C196.238 388.426 196.088 388.998 196.088 389.748V389.953C196.088 390.684 196.238 391.246 196.539 391.641C196.84 392.035 197.27 392.232 197.828 392.232ZM204.631 387.633C204.467 387.605 204.289 387.592 204.098 387.592C203.387 387.592 202.904 387.895 202.65 388.5V393H201.566V386.66H202.621L202.639 387.393C202.994 386.826 203.498 386.543 204.15 386.543C204.361 386.543 204.521 386.57 204.631 386.625V387.633ZM208.146 393.117C207.287 393.117 206.588 392.836 206.049 392.273C205.51 391.707 205.24 390.951 205.24 390.006V389.807C205.24 389.178 205.359 388.617 205.598 388.125C205.84 387.629 206.176 387.242 206.605 386.965C207.039 386.684 207.508 386.543 208.012 386.543C208.836 386.543 209.477 386.814 209.934 387.357C210.391 387.9 210.619 388.678 210.619 389.689V390.141H206.324C206.34 390.766 206.521 391.271 206.869 391.658C207.221 392.041 207.666 392.232 208.205 392.232C208.588 392.232 208.912 392.154 209.178 391.998C209.443 391.842 209.676 391.635 209.875 391.377L210.537 391.893C210.006 392.709 209.209 393.117 208.146 393.117ZM208.012 387.434C207.574 387.434 207.207 387.594 206.91 387.914C206.613 388.23 206.43 388.676 206.359 389.25H209.535V389.168C209.504 388.617 209.355 388.191 209.09 387.891C208.824 387.586 208.465 387.434 208.012 387.434ZM211.615 389.777C211.615 388.805 211.846 388.023 212.307 387.434C212.768 386.84 213.371 386.543 214.117 386.543C214.859 386.543 215.447 386.797 215.881 387.305V384H216.965V393H215.969L215.916 392.32C215.482 392.852 214.879 393.117 214.105 393.117C213.371 393.117 212.771 392.816 212.307 392.215C211.846 391.613 211.615 390.828 211.615 389.859V389.777ZM212.699 389.9C212.699 390.619 212.848 391.182 213.145 391.588C213.441 391.994 213.852 392.197 214.375 392.197C215.062 392.197 215.564 391.889 215.881 391.271V388.359C215.557 387.762 215.059 387.463 214.387 387.463C213.855 387.463 213.441 387.668 213.145 388.078C212.848 388.488 212.699 389.096 212.699 389.9ZM219.83 393H218.746V386.66H219.83V393ZM218.658 384.979C218.658 384.803 218.711 384.654 218.816 384.533C218.926 384.412 219.086 384.352 219.297 384.352C219.508 384.352 219.668 384.412 219.777 384.533C219.887 384.654 219.941 384.803 219.941 384.979C219.941 385.154 219.887 385.301 219.777 385.418C219.668 385.535 219.508 385.594 219.297 385.594C219.086 385.594 218.926 385.535 218.816 385.418C218.711 385.301 218.658 385.154 218.658 384.979ZM223.041 385.125V386.66H224.225V387.498H223.041V391.43C223.041 391.684 223.094 391.875 223.199 392.004C223.305 392.129 223.484 392.191 223.738 392.191C223.863 392.191 224.035 392.168 224.254 392.121V393C223.969 393.078 223.691 393.117 223.422 393.117C222.938 393.117 222.572 392.971 222.326 392.678C222.08 392.385 221.957 391.969 221.957 391.43V387.498H220.803V386.66H221.957V385.125H223.041ZM229.41 393C229.348 392.875 229.297 392.652 229.258 392.332C228.754 392.855 228.152 393.117 227.453 393.117C226.828 393.117 226.314 392.941 225.912 392.59C225.514 392.234 225.314 391.785 225.314 391.242C225.314 390.582 225.564 390.07 226.064 389.707C226.568 389.34 227.275 389.156 228.186 389.156H229.24V388.658C229.24 388.279 229.127 387.979 228.9 387.756C228.674 387.529 228.34 387.416 227.898 387.416C227.512 387.416 227.188 387.514 226.926 387.709C226.664 387.904 226.533 388.141 226.533 388.418H225.443C225.443 388.102 225.555 387.797 225.777 387.504C226.004 387.207 226.309 386.973 226.691 386.801C227.078 386.629 227.502 386.543 227.963 386.543C228.693 386.543 229.266 386.727 229.68 387.094C230.094 387.457 230.309 387.959 230.324 388.6V391.518C230.324 392.1 230.398 392.562 230.547 392.906V393H229.41ZM227.611 392.174C227.951 392.174 228.273 392.086 228.578 391.91C228.883 391.734 229.104 391.506 229.24 391.225V389.924H228.391C227.062 389.924 226.398 390.312 226.398 391.09C226.398 391.43 226.512 391.695 226.738 391.887C226.965 392.078 227.256 392.174 227.611 392.174ZM233.494 385.125V386.66H234.678V387.498H233.494V391.43C233.494 391.684 233.547 391.875 233.652 392.004C233.758 392.129 233.938 392.191 234.191 392.191C234.316 392.191 234.488 392.168 234.707 392.121V393C234.422 393.078 234.145 393.117 233.875 393.117C233.391 393.117 233.025 392.971 232.779 392.678C232.533 392.385 232.41 391.969 232.41 391.43V387.498H231.256V386.66H232.41V385.125H233.494ZM237.127 393H236.043V386.66H237.127V393ZM235.955 384.979C235.955 384.803 236.008 384.654 236.113 384.533C236.223 384.412 236.383 384.352 236.594 384.352C236.805 384.352 236.965 384.412 237.074 384.533C237.184 384.654 237.238 384.803 237.238 384.979C237.238 385.154 237.184 385.301 237.074 385.418C236.965 385.535 236.805 385.594 236.594 385.594C236.383 385.594 236.223 385.535 236.113 385.418C236.008 385.301 235.955 385.154 235.955 384.979ZM238.58 389.771C238.58 389.15 238.701 388.592 238.943 388.096C239.189 387.6 239.529 387.217 239.963 386.947C240.4 386.678 240.898 386.543 241.457 386.543C242.32 386.543 243.018 386.842 243.549 387.439C244.084 388.037 244.352 388.832 244.352 389.824V389.9C244.352 390.518 244.232 391.072 243.994 391.564C243.76 392.053 243.422 392.434 242.98 392.707C242.543 392.98 242.039 393.117 241.469 393.117C240.609 393.117 239.912 392.818 239.377 392.221C238.846 391.623 238.58 390.832 238.58 389.848V389.771ZM239.67 389.9C239.67 390.604 239.832 391.168 240.156 391.594C240.484 392.02 240.922 392.232 241.469 392.232C242.02 392.232 242.457 392.018 242.781 391.588C243.105 391.154 243.268 390.549 243.268 389.771C243.268 389.076 243.102 388.514 242.77 388.084C242.441 387.65 242.004 387.434 241.457 387.434C240.922 387.434 240.49 387.646 240.162 388.072C239.834 388.498 239.67 389.107 239.67 389.9ZM246.736 386.66L246.771 387.457C247.256 386.848 247.889 386.543 248.67 386.543C250.01 386.543 250.686 387.299 250.697 388.811V393H249.613V388.805C249.609 388.348 249.504 388.01 249.297 387.791C249.094 387.572 248.775 387.463 248.342 387.463C247.99 387.463 247.682 387.557 247.416 387.744C247.15 387.932 246.943 388.178 246.795 388.482V393H245.711V386.66H246.736ZM252.355 392.432C252.355 392.244 252.41 392.088 252.52 391.963C252.633 391.838 252.801 391.775 253.023 391.775C253.246 391.775 253.414 391.838 253.527 391.963C253.645 392.088 253.703 392.244 253.703 392.432C253.703 392.611 253.645 392.762 253.527 392.883C253.414 393.004 253.246 393.064 253.023 393.064C252.801 393.064 252.633 393.004 252.52 392.883C252.41 392.762 252.355 392.611 252.355 392.432Z" fill="#444444"/>
<defs>
<clipPath id="clip0">
<rect x="49" y="109" width="250" height="180.952" fill="white"/>
</clipPath>
<clipPath id="clip1">
<rect x="19" y="132.265" width="250" height="166.735" fill="white"/>
</clipPath>
</defs>
</svg>
