<svg width="320" height="382" viewBox="0 0 320 382" fill="none" xmlns="http://www.w3.org/2000/svg">
<path d="M32.5918 374.752L34.8184 370.469H36.0957L33.1543 375.818V379H32.0293V375.818L29.0879 370.469H30.377L32.5918 374.752ZM36.3535 375.771C36.3535 375.15 36.4746 374.592 36.7168 374.096C36.9629 373.6 37.3027 373.217 37.7363 372.947C38.1738 372.678 38.6719 372.543 39.2305 372.543C40.0938 372.543 40.791 372.842 41.3223 373.439C41.8574 374.037 42.125 374.832 42.125 375.824V375.9C42.125 376.518 42.0059 377.072 41.7676 377.564C41.5332 378.053 41.1953 378.434 40.7539 378.707C40.3164 378.98 39.8125 379.117 39.2422 379.117C38.3828 379.117 37.6855 378.818 37.1504 378.221C36.6191 377.623 36.3535 376.832 36.3535 375.848V375.771ZM37.4434 375.9C37.4434 376.604 37.6055 377.168 37.9297 377.594C38.2578 378.02 38.6953 378.232 39.2422 378.232C39.793 378.232 40.2305 378.018 40.5547 377.588C40.8789 377.154 41.041 376.549 41.041 375.771C41.041 375.076 40.875 374.514 40.543 374.084C40.2148 373.65 39.7773 373.434 39.2305 373.434C38.6953 373.434 38.2637 373.646 37.9355 374.072C37.6074 374.498 37.4434 375.107 37.4434 375.9ZM47.3984 378.373C46.9766 378.869 46.3574 379.117 45.541 379.117C44.8652 379.117 44.3496 378.922 43.9941 378.531C43.6426 378.137 43.4648 377.555 43.4609 376.785V372.66H44.5449V376.756C44.5449 377.717 44.9355 378.197 45.7168 378.197C46.5449 378.197 47.0957 377.889 47.3691 377.271V372.66H48.4531V379H47.4219L47.3984 378.373ZM55.625 378.232C56.0117 378.232 56.3496 378.115 56.6387 377.881C56.9277 377.646 57.0879 377.354 57.1191 377.002H58.1445C58.125 377.365 58 377.711 57.7695 378.039C57.5391 378.367 57.2305 378.629 56.8438 378.824C56.4609 379.02 56.0547 379.117 55.625 379.117C54.7617 379.117 54.0742 378.83 53.5625 378.256C53.0547 377.678 52.8008 376.889 52.8008 375.889V375.707C52.8008 375.09 52.9141 374.541 53.1406 374.061C53.3672 373.58 53.6914 373.207 54.1133 372.941C54.5391 372.676 55.041 372.543 55.6191 372.543C56.3301 372.543 56.9199 372.756 57.3887 373.182C57.8613 373.607 58.1133 374.16 58.1445 374.84H57.1191C57.0879 374.43 56.9316 374.094 56.6504 373.832C56.373 373.566 56.0293 373.434 55.6191 373.434C55.0684 373.434 54.6406 373.633 54.3359 374.031C54.0352 374.426 53.8848 374.998 53.8848 375.748V375.953C53.8848 376.684 54.0352 377.246 54.3359 377.641C54.6367 378.035 55.0664 378.232 55.625 378.232ZM63.2773 379C63.2148 378.875 63.1641 378.652 63.125 378.332C62.6211 378.855 62.0195 379.117 61.3203 379.117C60.6953 379.117 60.1816 378.941 59.7793 378.59C59.3809 378.234 59.1816 377.785 59.1816 377.242C59.1816 376.582 59.4316 376.07 59.9316 375.707C60.4355 375.34 61.1426 375.156 62.0527 375.156H63.1074V374.658C63.1074 374.279 62.9941 373.979 62.7676 373.756C62.541 373.529 62.207 373.416 61.7656 373.416C61.3789 373.416 61.0547 373.514 60.793 373.709C60.5312 373.904 60.4004 374.141 60.4004 374.418H59.3105C59.3105 374.102 59.4219 373.797 59.6445 373.504C59.8711 373.207 60.1758 372.973 60.5586 372.801C60.9453 372.629 61.3691 372.543 61.8301 372.543C62.5605 372.543 63.1328 372.727 63.5469 373.094C63.9609 373.457 64.1758 373.959 64.1914 374.6V377.518C64.1914 378.1 64.2656 378.562 64.4141 378.906V379H63.2773ZM61.4785 378.174C61.8184 378.174 62.1406 378.086 62.4453 377.91C62.75 377.734 62.9707 377.506 63.1074 377.225V375.924H62.2578C60.9297 375.924 60.2656 376.312 60.2656 377.09C60.2656 377.43 60.3789 377.695 60.6055 377.887C60.832 378.078 61.123 378.174 61.4785 378.174ZM66.916 372.66L66.9512 373.457C67.4355 372.848 68.0684 372.543 68.8496 372.543C70.1895 372.543 70.8652 373.299 70.877 374.811V379H69.793V374.805C69.7891 374.348 69.6836 374.01 69.4766 373.791C69.2734 373.572 68.9551 373.463 68.5215 373.463C68.1699 373.463 67.8613 373.557 67.5957 373.744C67.3301 373.932 67.123 374.178 66.9746 374.482V379H65.8906V372.66H66.916ZM79.1797 377.318C79.1797 377.025 79.0684 376.799 78.8457 376.639C78.627 376.475 78.2422 376.334 77.6914 376.217C77.1445 376.1 76.709 375.959 76.3848 375.795C76.0645 375.631 75.8262 375.436 75.6699 375.209C75.5176 374.982 75.4414 374.713 75.4414 374.4C75.4414 373.881 75.6602 373.441 76.0977 373.082C76.5391 372.723 77.1016 372.543 77.7852 372.543C78.5039 372.543 79.0859 372.729 79.5312 373.1C79.9805 373.471 80.2051 373.945 80.2051 374.523H79.1152C79.1152 374.227 78.9883 373.971 78.7344 373.756C78.4844 373.541 78.168 373.434 77.7852 373.434C77.3906 373.434 77.082 373.52 76.8594 373.691C76.6367 373.863 76.5254 374.088 76.5254 374.365C76.5254 374.627 76.6289 374.824 76.8359 374.957C77.043 375.09 77.416 375.217 77.9551 375.338C78.498 375.459 78.9375 375.604 79.2734 375.771C79.6094 375.939 79.8574 376.143 80.0176 376.381C80.1816 376.615 80.2637 376.902 80.2637 377.242C80.2637 377.809 80.0371 378.264 79.584 378.607C79.1309 378.947 78.543 379.117 77.8203 379.117C77.3125 379.117 76.8633 379.027 76.4727 378.848C76.082 378.668 75.7754 378.418 75.5527 378.098C75.334 377.773 75.2246 377.424 75.2246 377.049H76.3086C76.3281 377.412 76.4727 377.701 76.7422 377.916C77.0156 378.127 77.375 378.232 77.8203 378.232C78.2305 378.232 78.5586 378.15 78.8047 377.986C79.0547 377.818 79.1797 377.596 79.1797 377.318ZM84.3066 379.117C83.4473 379.117 82.748 378.836 82.209 378.273C81.6699 377.707 81.4004 376.951 81.4004 376.006V375.807C81.4004 375.178 81.5195 374.617 81.7578 374.125C82 373.629 82.3359 373.242 82.7656 372.965C83.1992 372.684 83.668 372.543 84.1719 372.543C84.9961 372.543 85.6367 372.814 86.0938 373.357C86.5508 373.9 86.7793 374.678 86.7793 375.689V376.141H82.4844C82.5 376.766 82.6816 377.271 83.0293 377.658C83.3809 378.041 83.8262 378.232 84.3652 378.232C84.748 378.232 85.0723 378.154 85.3379 377.998C85.6035 377.842 85.8359 377.635 86.0352 377.377L86.6973 377.893C86.166 378.709 85.3691 379.117 84.3066 379.117ZM84.1719 373.434C83.7344 373.434 83.3672 373.594 83.0703 373.914C82.7734 374.23 82.5898 374.676 82.5195 375.25H85.6953V375.168C85.6641 374.617 85.5156 374.191 85.25 373.891C84.9844 373.586 84.625 373.434 84.1719 373.434ZM89.5098 371.125V372.66H90.6934V373.498H89.5098V377.43C89.5098 377.684 89.5625 377.875 89.668 378.004C89.7734 378.129 89.9531 378.191 90.207 378.191C90.332 378.191 90.5039 378.168 90.7227 378.121V379C90.4375 379.078 90.1602 379.117 89.8906 379.117C89.4062 379.117 89.041 378.971 88.7949 378.678C88.5488 378.385 88.4258 377.969 88.4258 377.43V373.498H87.2715V372.66H88.4258V371.125H89.5098ZM98.0059 373.633C97.8418 373.605 97.6641 373.592 97.4727 373.592C96.7617 373.592 96.2793 373.895 96.0254 374.5V379H94.9414V372.66H95.9961L96.0137 373.393C96.3691 372.826 96.873 372.543 97.5254 372.543C97.7363 372.543 97.8965 372.57 98.0059 372.625V373.633ZM101.521 379.117C100.662 379.117 99.9629 378.836 99.4238 378.273C98.8848 377.707 98.6152 376.951 98.6152 376.006V375.807C98.6152 375.178 98.7344 374.617 98.9727 374.125C99.2148 373.629 99.5508 373.242 99.9805 372.965C100.414 372.684 100.883 372.543 101.387 372.543C102.211 372.543 102.852 372.814 103.309 373.357C103.766 373.9 103.994 374.678 103.994 375.689V376.141H99.6992C99.7148 376.766 99.8965 377.271 100.244 377.658C100.596 378.041 101.041 378.232 101.58 378.232C101.963 378.232 102.287 378.154 102.553 377.998C102.818 377.842 103.051 377.635 103.25 377.377L103.912 377.893C103.381 378.709 102.584 379.117 101.521 379.117ZM101.387 373.434C100.949 373.434 100.582 373.594 100.285 373.914C99.9883 374.23 99.8047 374.676 99.7344 375.25H102.91V375.168C102.879 374.617 102.73 374.191 102.465 373.891C102.199 373.586 101.84 373.434 101.387 373.434ZM105.787 379V373.498H104.785V372.66H105.787V372.01C105.787 371.33 105.969 370.805 106.332 370.434C106.695 370.062 107.209 369.877 107.873 369.877C108.123 369.877 108.371 369.91 108.617 369.977L108.559 370.855C108.375 370.82 108.18 370.803 107.973 370.803C107.621 370.803 107.35 370.906 107.158 371.113C106.967 371.316 106.871 371.609 106.871 371.992V372.66H108.225V373.498H106.871V379H105.787ZM111.916 379.117C111.057 379.117 110.357 378.836 109.818 378.273C109.279 377.707 109.01 376.951 109.01 376.006V375.807C109.01 375.178 109.129 374.617 109.367 374.125C109.609 373.629 109.945 373.242 110.375 372.965C110.809 372.684 111.277 372.543 111.781 372.543C112.605 372.543 113.246 372.814 113.703 373.357C114.16 373.9 114.389 374.678 114.389 375.689V376.141H110.094C110.109 376.766 110.291 377.271 110.639 377.658C110.99 378.041 111.436 378.232 111.975 378.232C112.357 378.232 112.682 378.154 112.947 377.998C113.213 377.842 113.445 377.635 113.645 377.377L114.307 377.893C113.775 378.709 112.979 379.117 111.916 379.117ZM111.781 373.434C111.344 373.434 110.977 373.594 110.68 373.914C110.383 374.23 110.199 374.676 110.129 375.25H113.305V375.168C113.273 374.617 113.125 374.191 112.859 373.891C112.594 373.586 112.234 373.434 111.781 373.434ZM118.713 373.633C118.549 373.605 118.371 373.592 118.18 373.592C117.469 373.592 116.986 373.895 116.732 374.5V379H115.648V372.66H116.703L116.721 373.393C117.076 372.826 117.58 372.543 118.232 372.543C118.443 372.543 118.604 372.57 118.713 372.625V373.633ZM122.229 379.117C121.369 379.117 120.67 378.836 120.131 378.273C119.592 377.707 119.322 376.951 119.322 376.006V375.807C119.322 375.178 119.441 374.617 119.68 374.125C119.922 373.629 120.258 373.242 120.688 372.965C121.121 372.684 121.59 372.543 122.094 372.543C122.918 372.543 123.559 372.814 124.016 373.357C124.473 373.9 124.701 374.678 124.701 375.689V376.141H120.406C120.422 376.766 120.604 377.271 120.951 377.658C121.303 378.041 121.748 378.232 122.287 378.232C122.67 378.232 122.994 378.154 123.26 377.998C123.525 377.842 123.758 377.635 123.957 377.377L124.619 377.893C124.088 378.709 123.291 379.117 122.229 379.117ZM122.094 373.434C121.656 373.434 121.289 373.594 120.992 373.914C120.695 374.23 120.512 374.676 120.441 375.25H123.617V375.168C123.586 374.617 123.438 374.191 123.172 373.891C122.906 373.586 122.547 373.434 122.094 373.434ZM126.986 372.66L127.021 373.457C127.506 372.848 128.139 372.543 128.92 372.543C130.26 372.543 130.936 373.299 130.947 374.811V379H129.863V374.805C129.859 374.348 129.754 374.01 129.547 373.791C129.344 373.572 129.025 373.463 128.592 373.463C128.24 373.463 127.932 373.557 127.666 373.744C127.4 373.932 127.193 374.178 127.045 374.482V379H125.961V372.66H126.986ZM135.125 378.232C135.512 378.232 135.85 378.115 136.139 377.881C136.428 377.646 136.588 377.354 136.619 377.002H137.645C137.625 377.365 137.5 377.711 137.27 378.039C137.039 378.367 136.73 378.629 136.344 378.824C135.961 379.02 135.555 379.117 135.125 379.117C134.262 379.117 133.574 378.83 133.062 378.256C132.555 377.678 132.301 376.889 132.301 375.889V375.707C132.301 375.09 132.414 374.541 132.641 374.061C132.867 373.58 133.191 373.207 133.613 372.941C134.039 372.676 134.541 372.543 135.119 372.543C135.83 372.543 136.42 372.756 136.889 373.182C137.361 373.607 137.613 374.16 137.645 374.84H136.619C136.588 374.43 136.432 374.094 136.15 373.832C135.873 373.566 135.529 373.434 135.119 373.434C134.568 373.434 134.141 373.633 133.836 374.031C133.535 374.426 133.385 374.998 133.385 375.748V375.953C133.385 376.684 133.535 377.246 133.836 377.641C134.137 378.035 134.566 378.232 135.125 378.232ZM141.494 379.117C140.635 379.117 139.936 378.836 139.396 378.273C138.857 377.707 138.588 376.951 138.588 376.006V375.807C138.588 375.178 138.707 374.617 138.945 374.125C139.188 373.629 139.523 373.242 139.953 372.965C140.387 372.684 140.855 372.543 141.359 372.543C142.184 372.543 142.824 372.814 143.281 373.357C143.738 373.9 143.967 374.678 143.967 375.689V376.141H139.672C139.688 376.766 139.869 377.271 140.217 377.658C140.568 378.041 141.014 378.232 141.553 378.232C141.936 378.232 142.26 378.154 142.525 377.998C142.791 377.842 143.023 377.635 143.223 377.377L143.885 377.893C143.354 378.709 142.557 379.117 141.494 379.117ZM141.359 373.434C140.922 373.434 140.555 373.594 140.258 373.914C139.961 374.23 139.777 374.676 139.707 375.25H142.883V375.168C142.852 374.617 142.703 374.191 142.438 373.891C142.172 373.586 141.812 373.434 141.359 373.434ZM148.918 377.318C148.918 377.025 148.807 376.799 148.584 376.639C148.365 376.475 147.98 376.334 147.43 376.217C146.883 376.1 146.447 375.959 146.123 375.795C145.803 375.631 145.564 375.436 145.408 375.209C145.256 374.982 145.18 374.713 145.18 374.4C145.18 373.881 145.398 373.441 145.836 373.082C146.277 372.723 146.84 372.543 147.523 372.543C148.242 372.543 148.824 372.729 149.27 373.1C149.719 373.471 149.943 373.945 149.943 374.523H148.854C148.854 374.227 148.727 373.971 148.473 373.756C148.223 373.541 147.906 373.434 147.523 373.434C147.129 373.434 146.82 373.52 146.598 373.691C146.375 373.863 146.264 374.088 146.264 374.365C146.264 374.627 146.367 374.824 146.574 374.957C146.781 375.09 147.154 375.217 147.693 375.338C148.236 375.459 148.676 375.604 149.012 375.771C149.348 375.939 149.596 376.143 149.756 376.381C149.92 376.615 150.002 376.902 150.002 377.242C150.002 377.809 149.775 378.264 149.322 378.607C148.869 378.947 148.281 379.117 147.559 379.117C147.051 379.117 146.602 379.027 146.211 378.848C145.82 378.668 145.514 378.418 145.291 378.098C145.072 377.773 144.963 377.424 144.963 377.049H146.047C146.066 377.412 146.211 377.701 146.48 377.916C146.754 378.127 147.113 378.232 147.559 378.232C147.969 378.232 148.297 378.15 148.543 377.986C148.793 377.818 148.918 377.596 148.918 377.318ZM154.924 379V373.498H153.922V372.66H154.924V372.01C154.924 371.33 155.105 370.805 155.469 370.434C155.832 370.062 156.346 369.877 157.01 369.877C157.26 369.877 157.508 369.91 157.754 369.977L157.695 370.855C157.512 370.82 157.316 370.803 157.109 370.803C156.758 370.803 156.486 370.906 156.295 371.113C156.104 371.316 156.008 371.609 156.008 371.992V372.66H157.361V373.498H156.008V379H154.924ZM158.275 375.771C158.275 375.15 158.396 374.592 158.639 374.096C158.885 373.6 159.225 373.217 159.658 372.947C160.096 372.678 160.594 372.543 161.152 372.543C162.016 372.543 162.713 372.842 163.244 373.439C163.779 374.037 164.047 374.832 164.047 375.824V375.9C164.047 376.518 163.928 377.072 163.689 377.564C163.455 378.053 163.117 378.434 162.676 378.707C162.238 378.98 161.734 379.117 161.164 379.117C160.305 379.117 159.607 378.818 159.072 378.221C158.541 377.623 158.275 376.832 158.275 375.848V375.771ZM159.365 375.9C159.365 376.604 159.527 377.168 159.852 377.594C160.18 378.02 160.617 378.232 161.164 378.232C161.715 378.232 162.152 378.018 162.477 377.588C162.801 377.154 162.963 376.549 162.963 375.771C162.963 375.076 162.797 374.514 162.465 374.084C162.137 373.65 161.699 373.434 161.152 373.434C160.617 373.434 160.186 373.646 159.857 374.072C159.529 374.498 159.365 375.107 159.365 375.9ZM168.471 373.633C168.307 373.605 168.129 373.592 167.938 373.592C167.227 373.592 166.744 373.895 166.49 374.5V379H165.406V372.66H166.461L166.479 373.393C166.834 372.826 167.338 372.543 167.99 372.543C168.201 372.543 168.361 372.57 168.471 372.625V373.633ZM174.523 377.412L176 372.66H177.16L174.611 379.979C174.217 381.033 173.59 381.561 172.73 381.561L172.525 381.543L172.121 381.467V380.588L172.414 380.611C172.781 380.611 173.066 380.537 173.27 380.389C173.477 380.24 173.646 379.969 173.779 379.574L174.02 378.93L171.758 372.66H172.941L174.523 377.412ZM177.752 375.771C177.752 375.15 177.873 374.592 178.115 374.096C178.361 373.6 178.701 373.217 179.135 372.947C179.572 372.678 180.07 372.543 180.629 372.543C181.492 372.543 182.189 372.842 182.721 373.439C183.256 374.037 183.523 374.832 183.523 375.824V375.9C183.523 376.518 183.404 377.072 183.166 377.564C182.932 378.053 182.594 378.434 182.152 378.707C181.715 378.98 181.211 379.117 180.641 379.117C179.781 379.117 179.084 378.818 178.549 378.221C178.018 377.623 177.752 376.832 177.752 375.848V375.771ZM178.842 375.9C178.842 376.604 179.004 377.168 179.328 377.594C179.656 378.02 180.094 378.232 180.641 378.232C181.191 378.232 181.629 378.018 181.953 377.588C182.277 377.154 182.439 376.549 182.439 375.771C182.439 375.076 182.273 374.514 181.941 374.084C181.613 373.65 181.176 373.434 180.629 373.434C180.094 373.434 179.662 373.646 179.334 374.072C179.006 374.498 178.842 375.107 178.842 375.9ZM188.797 378.373C188.375 378.869 187.756 379.117 186.939 379.117C186.264 379.117 185.748 378.922 185.393 378.531C185.041 378.137 184.863 377.555 184.859 376.785V372.66H185.943V376.756C185.943 377.717 186.334 378.197 187.115 378.197C187.943 378.197 188.494 377.889 188.768 377.271V372.66H189.852V379H188.82L188.797 378.373ZM194.568 373.633C194.404 373.605 194.227 373.592 194.035 373.592C193.324 373.592 192.842 373.895 192.588 374.5V379H191.504V372.66H192.559L192.576 373.393C192.932 372.826 193.436 372.543 194.088 372.543C194.299 372.543 194.459 372.57 194.568 372.625V373.633ZM199.842 375.66V379H198.717V370.469H201.863C202.797 370.469 203.527 370.707 204.055 371.184C204.586 371.66 204.852 372.291 204.852 373.076C204.852 373.904 204.592 374.543 204.072 374.992C203.557 375.438 202.816 375.66 201.852 375.66H199.842ZM199.842 374.74H201.863C202.465 374.74 202.926 374.6 203.246 374.318C203.566 374.033 203.727 373.623 203.727 373.088C203.727 372.58 203.566 372.174 203.246 371.869C202.926 371.564 202.486 371.406 201.928 371.395H199.842V374.74ZM209.182 373.633C209.018 373.605 208.84 373.592 208.648 373.592C207.938 373.592 207.455 373.895 207.201 374.5V379H206.117V372.66H207.172L207.189 373.393C207.545 372.826 208.049 372.543 208.701 372.543C208.912 372.543 209.072 372.57 209.182 372.625V373.633ZM209.779 375.771C209.779 375.15 209.9 374.592 210.143 374.096C210.389 373.6 210.729 373.217 211.162 372.947C211.6 372.678 212.098 372.543 212.656 372.543C213.52 372.543 214.217 372.842 214.748 373.439C215.283 374.037 215.551 374.832 215.551 375.824V375.9C215.551 376.518 215.432 377.072 215.193 377.564C214.959 378.053 214.621 378.434 214.18 378.707C213.742 378.98 213.238 379.117 212.668 379.117C211.809 379.117 211.111 378.818 210.576 378.221C210.045 377.623 209.779 376.832 209.779 375.848V375.771ZM210.869 375.9C210.869 376.604 211.031 377.168 211.355 377.594C211.684 378.02 212.121 378.232 212.668 378.232C213.219 378.232 213.656 378.018 213.98 377.588C214.305 377.154 214.467 376.549 214.467 375.771C214.467 375.076 214.301 374.514 213.969 374.084C213.641 373.65 213.203 373.434 212.656 373.434C212.121 373.434 211.689 373.646 211.361 374.072C211.033 374.498 210.869 375.107 210.869 375.9ZM216.646 375.777C216.646 374.805 216.877 374.023 217.338 373.434C217.799 372.84 218.402 372.543 219.148 372.543C219.891 372.543 220.479 372.797 220.912 373.305V370H221.996V379H221L220.947 378.32C220.514 378.852 219.91 379.117 219.137 379.117C218.402 379.117 217.803 378.816 217.338 378.215C216.877 377.613 216.646 376.828 216.646 375.859V375.777ZM217.73 375.9C217.73 376.619 217.879 377.182 218.176 377.588C218.473 377.994 218.883 378.197 219.406 378.197C220.094 378.197 220.596 377.889 220.912 377.271V374.359C220.588 373.762 220.09 373.463 219.418 373.463C218.887 373.463 218.473 373.668 218.176 374.078C217.879 374.488 217.73 375.096 217.73 375.9ZM224.861 379H223.777V372.66H224.861V379ZM223.689 370.979C223.689 370.803 223.742 370.654 223.848 370.533C223.957 370.412 224.117 370.352 224.328 370.352C224.539 370.352 224.699 370.412 224.809 370.533C224.918 370.654 224.973 370.803 224.973 370.979C224.973 371.154 224.918 371.301 224.809 371.418C224.699 371.535 224.539 371.594 224.328 371.594C224.117 371.594 223.957 371.535 223.848 371.418C223.742 371.301 223.689 371.154 223.689 370.979ZM231.049 371.125V372.66H232.232V373.498H231.049V377.43C231.049 377.684 231.102 377.875 231.207 378.004C231.312 378.129 231.492 378.191 231.746 378.191C231.871 378.191 232.043 378.168 232.262 378.121V379C231.977 379.078 231.699 379.117 231.43 379.117C230.945 379.117 230.58 378.971 230.334 378.678C230.088 378.385 229.965 377.969 229.965 377.43V373.498H228.811V372.66H229.965V371.125H231.049ZM233.1 375.771C233.1 375.15 233.221 374.592 233.463 374.096C233.709 373.6 234.049 373.217 234.482 372.947C234.92 372.678 235.418 372.543 235.977 372.543C236.84 372.543 237.537 372.842 238.068 373.439C238.604 374.037 238.871 374.832 238.871 375.824V375.9C238.871 376.518 238.752 377.072 238.514 377.564C238.279 378.053 237.941 378.434 237.5 378.707C237.062 378.98 236.559 379.117 235.988 379.117C235.129 379.117 234.432 378.818 233.896 378.221C233.365 377.623 233.1 376.832 233.1 375.848V375.771ZM234.189 375.9C234.189 376.604 234.352 377.168 234.676 377.594C235.004 378.02 235.441 378.232 235.988 378.232C236.539 378.232 236.977 378.018 237.301 377.588C237.625 377.154 237.787 376.549 237.787 375.771C237.787 375.076 237.621 374.514 237.289 374.084C236.961 373.65 236.523 373.434 235.977 373.434C235.441 373.434 235.01 373.646 234.682 374.072C234.354 374.498 234.189 375.107 234.189 375.9ZM248.574 375.9C248.574 376.869 248.352 377.648 247.906 378.238C247.461 378.824 246.863 379.117 246.113 379.117C245.312 379.117 244.693 378.834 244.256 378.268L244.203 379H243.207V370H244.291V373.357C244.729 372.814 245.332 372.543 246.102 372.543C246.871 372.543 247.475 372.834 247.912 373.416C248.354 373.998 248.574 374.795 248.574 375.807V375.9ZM247.49 375.777C247.49 375.039 247.348 374.469 247.062 374.066C246.777 373.664 246.367 373.463 245.832 373.463C245.117 373.463 244.604 373.795 244.291 374.459V377.201C244.623 377.865 245.141 378.197 245.844 378.197C246.363 378.197 246.768 377.996 247.057 377.594C247.346 377.191 247.49 376.586 247.49 375.777ZM252.576 379.117C251.717 379.117 251.018 378.836 250.479 378.273C249.939 377.707 249.67 376.951 249.67 376.006V375.807C249.67 375.178 249.789 374.617 250.027 374.125C250.27 373.629 250.605 373.242 251.035 372.965C251.469 372.684 251.938 372.543 252.441 372.543C253.266 372.543 253.906 372.814 254.363 373.357C254.82 373.9 255.049 374.678 255.049 375.689V376.141H250.754C250.77 376.766 250.951 377.271 251.299 377.658C251.65 378.041 252.096 378.232 252.635 378.232C253.018 378.232 253.342 378.154 253.607 377.998C253.873 377.842 254.105 377.635 254.305 377.377L254.967 377.893C254.436 378.709 253.639 379.117 252.576 379.117ZM252.441 373.434C252.004 373.434 251.637 373.594 251.34 373.914C251.043 374.23 250.859 374.676 250.789 375.25H253.965V375.168C253.934 374.617 253.785 374.191 253.52 373.891C253.254 373.586 252.895 373.434 252.441 373.434ZM260.463 379H259.379V372.66H260.463V379ZM259.291 370.979C259.291 370.803 259.344 370.654 259.449 370.533C259.559 370.412 259.719 370.352 259.93 370.352C260.141 370.352 260.301 370.412 260.41 370.533C260.52 370.654 260.574 370.803 260.574 370.979C260.574 371.154 260.52 371.301 260.41 371.418C260.301 371.535 260.141 371.594 259.93 371.594C259.719 371.594 259.559 371.535 259.449 371.418C259.344 371.301 259.291 371.154 259.291 370.979ZM261.939 375.777C261.939 374.805 262.17 374.023 262.631 373.434C263.092 372.84 263.695 372.543 264.441 372.543C265.184 372.543 265.771 372.797 266.205 373.305V370H267.289V379H266.293L266.24 378.32C265.807 378.852 265.203 379.117 264.43 379.117C263.695 379.117 263.096 378.816 262.631 378.215C262.17 377.613 261.939 376.828 261.939 375.859V375.777ZM263.023 375.9C263.023 376.619 263.172 377.182 263.469 377.588C263.766 377.994 264.176 378.197 264.699 378.197C265.387 378.197 265.889 377.889 266.205 377.271V374.359C265.881 373.762 265.383 373.463 264.711 373.463C264.18 373.463 263.766 373.668 263.469 374.078C263.172 374.488 263.023 375.096 263.023 375.9ZM271.607 379.117C270.748 379.117 270.049 378.836 269.51 378.273C268.971 377.707 268.701 376.951 268.701 376.006V375.807C268.701 375.178 268.82 374.617 269.059 374.125C269.301 373.629 269.637 373.242 270.066 372.965C270.5 372.684 270.969 372.543 271.473 372.543C272.297 372.543 272.938 372.814 273.395 373.357C273.852 373.9 274.08 374.678 274.08 375.689V376.141H269.785C269.801 376.766 269.982 377.271 270.33 377.658C270.682 378.041 271.127 378.232 271.666 378.232C272.049 378.232 272.373 378.154 272.639 377.998C272.904 377.842 273.137 377.635 273.336 377.377L273.998 377.893C273.467 378.709 272.67 379.117 271.607 379.117ZM271.473 373.434C271.035 373.434 270.668 373.594 270.371 373.914C270.074 374.23 269.891 374.676 269.82 375.25H272.996V375.168C272.965 374.617 272.816 374.191 272.551 373.891C272.285 373.586 271.926 373.434 271.473 373.434ZM279.254 379C279.191 378.875 279.141 378.652 279.102 378.332C278.598 378.855 277.996 379.117 277.297 379.117C276.672 379.117 276.158 378.941 275.756 378.59C275.357 378.234 275.158 377.785 275.158 377.242C275.158 376.582 275.408 376.07 275.908 375.707C276.412 375.34 277.119 375.156 278.029 375.156H279.084V374.658C279.084 374.279 278.971 373.979 278.744 373.756C278.518 373.529 278.184 373.416 277.742 373.416C277.355 373.416 277.031 373.514 276.77 373.709C276.508 373.904 276.377 374.141 276.377 374.418H275.287C275.287 374.102 275.398 373.797 275.621 373.504C275.848 373.207 276.152 372.973 276.535 372.801C276.922 372.629 277.346 372.543 277.807 372.543C278.537 372.543 279.109 372.727 279.523 373.094C279.938 373.457 280.152 373.959 280.168 374.6V377.518C280.168 378.1 280.242 378.562 280.391 378.906V379H279.254ZM277.455 378.174C277.795 378.174 278.117 378.086 278.422 377.91C278.727 377.734 278.947 377.506 279.084 377.225V375.924H278.234C276.906 375.924 276.242 376.312 276.242 377.09C276.242 377.43 276.355 377.695 276.582 377.887C276.809 378.078 277.1 378.174 277.455 378.174ZM283.045 379H281.961V370H283.045V379ZM284.809 378.432C284.809 378.244 284.863 378.088 284.973 377.963C285.086 377.838 285.254 377.775 285.477 377.775C285.699 377.775 285.867 377.838 285.98 377.963C286.098 378.088 286.156 378.244 286.156 378.432C286.156 378.611 286.098 378.762 285.98 378.883C285.867 379.004 285.699 379.064 285.477 379.064C285.254 379.064 285.086 379.004 284.973 378.883C284.863 378.762 284.809 378.611 284.809 378.432Z" fill="#444444"/>
<path d="M113.016 352V340.625H116.516C117.516 340.625 118.409 340.852 119.195 341.305C119.987 341.753 120.604 342.393 121.047 343.227C121.49 344.055 121.711 344.997 121.711 346.055V346.578C121.711 347.635 121.492 348.576 121.055 349.398C120.622 350.221 120.01 350.859 119.219 351.312C118.427 351.766 117.534 351.995 116.539 352H113.016ZM115.359 342.523V350.117H116.492C117.409 350.117 118.109 349.818 118.594 349.219C119.078 348.62 119.326 347.763 119.336 346.648V346.047C119.336 344.891 119.096 344.016 118.617 343.422C118.138 342.823 117.438 342.523 116.516 342.523H115.359ZM122.922 347.695C122.922 346.857 123.083 346.109 123.406 345.453C123.729 344.797 124.193 344.289 124.797 343.93C125.406 343.57 126.112 343.391 126.914 343.391C128.055 343.391 128.984 343.74 129.703 344.438C130.427 345.135 130.831 346.083 130.914 347.281L130.93 347.859C130.93 349.156 130.568 350.198 129.844 350.984C129.12 351.766 128.148 352.156 126.93 352.156C125.711 352.156 124.737 351.766 124.008 350.984C123.284 350.203 122.922 349.141 122.922 347.797V347.695ZM125.18 347.859C125.18 348.661 125.331 349.276 125.633 349.703C125.935 350.125 126.367 350.336 126.93 350.336C127.477 350.336 127.904 350.128 128.211 349.711C128.518 349.289 128.672 348.617 128.672 347.695C128.672 346.909 128.518 346.299 128.211 345.867C127.904 345.435 127.471 345.219 126.914 345.219C126.362 345.219 125.935 345.435 125.633 345.867C125.331 346.294 125.18 346.958 125.18 347.859ZM145.797 346.57C145.797 347.69 145.599 348.672 145.203 349.516C144.807 350.359 144.24 351.01 143.5 351.469C142.766 351.927 141.922 352.156 140.969 352.156C140.026 352.156 139.185 351.93 138.445 351.477C137.706 351.023 137.133 350.378 136.727 349.539C136.32 348.695 136.115 347.727 136.109 346.633V346.07C136.109 344.951 136.31 343.966 136.711 343.117C137.117 342.263 137.688 341.609 138.422 341.156C139.161 340.698 140.005 340.469 140.953 340.469C141.901 340.469 142.742 340.698 143.477 341.156C144.216 341.609 144.786 342.263 145.188 343.117C145.594 343.966 145.797 344.948 145.797 346.062V346.57ZM143.422 346.055C143.422 344.862 143.208 343.956 142.781 343.336C142.354 342.716 141.745 342.406 140.953 342.406C140.167 342.406 139.56 342.714 139.133 343.328C138.706 343.938 138.49 344.833 138.484 346.016V346.57C138.484 347.732 138.698 348.633 139.125 349.273C139.552 349.914 140.167 350.234 140.969 350.234C141.755 350.234 142.359 349.927 142.781 349.312C143.203 348.693 143.417 347.792 143.422 346.609V346.055ZM152.102 345.664C151.794 345.622 151.523 345.602 151.289 345.602C150.435 345.602 149.875 345.891 149.609 346.469V352H147.352V343.547H149.484L149.547 344.555C150 343.779 150.628 343.391 151.43 343.391C151.68 343.391 151.914 343.424 152.133 343.492L152.102 345.664ZM152.711 347.711C152.711 346.414 153.018 345.37 153.633 344.578C154.253 343.786 155.086 343.391 156.133 343.391C157.06 343.391 157.781 343.708 158.297 344.344L158.391 343.547H160.438V351.719C160.438 352.458 160.268 353.102 159.93 353.648C159.596 354.195 159.125 354.612 158.516 354.898C157.906 355.185 157.193 355.328 156.375 355.328C155.755 355.328 155.151 355.203 154.562 354.953C153.974 354.708 153.529 354.391 153.227 354L154.227 352.625C154.789 353.255 155.471 353.57 156.273 353.57C156.872 353.57 157.339 353.409 157.672 353.086C158.005 352.768 158.172 352.315 158.172 351.727V351.273C157.651 351.862 156.966 352.156 156.117 352.156C155.102 352.156 154.279 351.76 153.648 350.969C153.023 350.172 152.711 349.117 152.711 347.805V347.711ZM154.969 347.875C154.969 348.641 155.122 349.242 155.43 349.68C155.737 350.112 156.159 350.328 156.695 350.328C157.383 350.328 157.875 350.07 158.172 349.555V346C157.87 345.484 157.383 345.227 156.711 345.227C156.169 345.227 155.742 345.448 155.43 345.891C155.122 346.333 154.969 346.995 154.969 347.875ZM167.078 352C166.974 351.797 166.898 351.544 166.852 351.242C166.305 351.852 165.594 352.156 164.719 352.156C163.891 352.156 163.203 351.917 162.656 351.438C162.115 350.958 161.844 350.354 161.844 349.625C161.844 348.729 162.174 348.042 162.836 347.562C163.503 347.083 164.464 346.841 165.719 346.836H166.758V346.352C166.758 345.961 166.656 345.648 166.453 345.414C166.255 345.18 165.94 345.062 165.508 345.062C165.128 345.062 164.828 345.154 164.609 345.336C164.396 345.518 164.289 345.768 164.289 346.086H162.031C162.031 345.596 162.182 345.143 162.484 344.727C162.786 344.31 163.214 343.984 163.766 343.75C164.318 343.51 164.938 343.391 165.625 343.391C166.667 343.391 167.492 343.654 168.102 344.18C168.716 344.701 169.023 345.435 169.023 346.383V350.047C169.029 350.849 169.141 351.456 169.359 351.867V352H167.078ZM165.211 350.43C165.544 350.43 165.852 350.357 166.133 350.211C166.414 350.06 166.622 349.859 166.758 349.609V348.156H165.914C164.784 348.156 164.182 348.547 164.109 349.328L164.102 349.461C164.102 349.742 164.201 349.974 164.398 350.156C164.596 350.339 164.867 350.43 165.211 350.43ZM172.836 343.547L172.906 344.523C173.51 343.768 174.32 343.391 175.336 343.391C176.232 343.391 176.898 343.654 177.336 344.18C177.773 344.706 177.997 345.492 178.008 346.539V352H175.75V346.594C175.75 346.115 175.646 345.768 175.438 345.555C175.229 345.336 174.883 345.227 174.398 345.227C173.763 345.227 173.286 345.497 172.969 346.039V352H170.711V343.547H172.836ZM182.109 352H179.844V343.547H182.109V352ZM179.711 341.359C179.711 341.021 179.823 340.742 180.047 340.523C180.276 340.305 180.586 340.195 180.977 340.195C181.362 340.195 181.669 340.305 181.898 340.523C182.128 340.742 182.242 341.021 182.242 341.359C182.242 341.703 182.125 341.984 181.891 342.203C181.661 342.422 181.357 342.531 180.977 342.531C180.596 342.531 180.289 342.422 180.055 342.203C179.826 341.984 179.711 341.703 179.711 341.359ZM186.57 350.18H190.703V352H183.688V350.625L187.664 345.375H183.805V343.547H190.578V344.883L186.57 350.18ZM195.883 352.156C194.643 352.156 193.633 351.776 192.852 351.016C192.076 350.255 191.688 349.242 191.688 347.977V347.758C191.688 346.909 191.852 346.151 192.18 345.484C192.508 344.812 192.971 344.297 193.57 343.938C194.174 343.573 194.862 343.391 195.633 343.391C196.789 343.391 197.698 343.755 198.359 344.484C199.026 345.214 199.359 346.247 199.359 347.586V348.508H193.977C194.049 349.06 194.268 349.503 194.633 349.836C195.003 350.169 195.469 350.336 196.031 350.336C196.901 350.336 197.581 350.021 198.07 349.391L199.18 350.633C198.841 351.112 198.383 351.487 197.805 351.758C197.227 352.023 196.586 352.156 195.883 352.156ZM195.625 345.219C195.177 345.219 194.812 345.37 194.531 345.672C194.255 345.974 194.078 346.406 194 346.969H197.141V346.789C197.13 346.289 196.995 345.904 196.734 345.633C196.474 345.357 196.104 345.219 195.625 345.219ZM205.398 345.664C205.091 345.622 204.82 345.602 204.586 345.602C203.732 345.602 203.172 345.891 202.906 346.469V352H200.648V343.547H202.781L202.844 344.555C203.297 343.779 203.924 343.391 204.727 343.391C204.977 343.391 205.211 343.424 205.43 343.492L205.398 345.664Z" fill="black"/>
<circle cx="160" cy="160" r="160" fill="#C82247"/>
<ellipse cx="159" cy="243" rx="115" ry="109" fill="white" fill-opacity="0.08"/>
<g clip-path="url(#clip0)">
<path d="M95.7967 298.751L88.5243 275.721C88.5243 275.721 96.5239 280.245 96.8875 286.002C96.8875 286.002 95.0694 257.216 91.4332 251.047C91.4332 251.047 97.2512 251.87 103.796 283.946C103.796 283.946 104.887 246.935 95.0694 236.243C95.0694 236.243 108.523 248.58 109.614 275.31V298.751H95.7967Z" fill="#F2F2F2"/>
<path d="M232.182 298.751L230.433 293.213C230.433 293.213 232.357 294.301 232.444 295.685C232.444 295.685 232.007 288.764 231.133 287.281C231.133 287.281 232.531 287.479 234.105 295.191C234.105 295.191 234.367 286.292 232.007 283.721C232.007 283.721 235.242 286.688 235.504 293.115V298.751L232.182 298.751Z" fill="#F2F2F2"/>
<path d="M199.787 251.126C217.443 251.126 231.756 234.939 231.756 214.971C231.756 195.003 217.443 178.816 199.787 178.816C182.132 178.816 167.819 195.003 167.819 214.971C167.819 234.939 182.132 251.126 199.787 251.126Z" fill="#F2F2F2"/>
<path d="M94.4016 111.743H19V159.118H94.4016V111.743Z" fill="#F2F2F2"/>
<path d="M196.701 111.743H121.299V159.118H196.701V111.743Z" fill="#F2F2F2"/>
<path d="M299 111.743H223.598V159.118H299V111.743Z" fill="#F2F2F2"/>
<path d="M212.828 298.881C212.777 298.787 211.584 296.534 211.17 291.856C210.791 287.564 211.035 280.33 214.352 270.239C220.637 251.121 212.904 235.696 212.825 235.542L213.207 235.292C213.227 235.331 215.222 239.264 216.401 245.526C217.958 253.829 217.391 262.461 214.766 270.412C208.492 289.497 213.156 298.532 213.204 298.621L212.828 298.881Z" fill="#3F3D56"/>
<path d="M210.37 234.42C211.953 234.42 213.236 232.969 213.236 231.178C213.236 229.388 211.953 227.937 210.37 227.937C208.787 227.937 207.504 229.388 207.504 231.178C207.504 232.969 208.787 234.42 210.37 234.42Z" fill="#C82247"/>
<path d="M219.409 246.388C220.992 246.388 222.275 244.937 222.275 243.147C222.275 241.357 220.992 239.906 219.409 239.906C217.826 239.906 216.543 241.357 216.543 243.147C216.543 244.937 217.826 246.388 219.409 246.388Z" fill="#3F3D56"/>
<path d="M213.236 254.367C214.819 254.367 216.102 252.916 216.102 251.126C216.102 249.336 214.819 247.884 213.236 247.884C211.653 247.884 210.37 249.336 210.37 251.126C210.37 252.916 211.653 254.367 213.236 254.367Z" fill="#C82247"/>
<path d="M220.732 261.1C222.315 261.1 223.598 259.649 223.598 257.858C223.598 256.068 222.315 254.617 220.732 254.617C219.149 254.617 217.866 256.068 217.866 257.858C217.866 259.649 219.149 261.1 220.732 261.1Z" fill="#C82247"/>
<path d="M211.032 271.572C212.614 271.572 213.898 270.121 213.898 268.331C213.898 266.54 212.614 265.089 211.032 265.089C209.449 265.089 208.165 266.54 208.165 268.331C208.165 270.121 209.449 271.572 211.032 271.572Z" fill="#3F3D56"/>
<path d="M214.559 299C214.559 299 211.693 291.021 220.291 285.037L214.559 299Z" fill="#3F3D56"/>
<path d="M211.034 298.855C211.034 298.855 209.73 290.37 199.634 290.443L211.034 298.855Z" fill="#3F3D56"/>
<path d="M94.2913 109H19.1102V113.239H94.2913V109Z" fill="#3F3D56"/>
<path d="M196.811 109H121.409V113.239H196.811V109Z" fill="#3F3D56"/>
<path d="M298.89 109H223.709V113.239H298.89V109Z" fill="#3F3D56"/>
<path d="M38.4016 119.846H24.7323V130.818H38.4016V119.846Z" fill="#BBBBBB"/>
<path d="M88.6693 119.846H50.9685V121.093H88.6693V119.846Z" fill="#BBBBBB"/>
<path d="M88.6693 124.833H50.9685V126.08H88.6693V124.833Z" fill="#BBBBBB"/>
<path d="M88.6693 129.82H50.9685V131.067H88.6693V129.82Z" fill="#BBBBBB"/>
<path d="M140.701 119.846H127.031V130.818H140.701V119.846Z" fill="#BBBBBB"/>
<path d="M190.968 119.846H153.268V121.093H190.968V119.846Z" fill="#BBBBBB"/>
<path d="M190.968 124.833H153.268V126.08H190.968V124.833Z" fill="#BBBBBB"/>
<path d="M190.968 129.82H153.268V131.067H190.968V129.82Z" fill="#BBBBBB"/>
<path d="M243 119.846H229.331V130.818H243V119.846Z" fill="#BBBBBB"/>
<path d="M293.268 119.846H255.567V121.093H293.268V119.846Z" fill="#BBBBBB"/>
<path d="M293.268 124.833H255.567V126.08H293.268V124.833Z" fill="#BBBBBB"/>
<path d="M293.268 129.82H255.567V131.067H293.268V129.82Z" fill="#BBBBBB"/>
<path d="M31.5669 130.444C34.0022 130.444 35.9764 128.211 35.9764 125.457C35.9764 122.703 34.0022 120.47 31.5669 120.47C29.1316 120.47 27.1575 122.703 27.1575 125.457C27.1575 128.211 29.1316 130.444 31.5669 130.444Z" fill="#C82247"/>
<path d="M236.165 130.444C238.601 130.444 240.575 128.211 240.575 125.457C240.575 122.703 238.601 120.47 236.165 120.47C233.73 120.47 231.756 122.703 231.756 125.457C231.756 128.211 233.73 130.444 236.165 130.444Z" fill="#C82247"/>
<path d="M54.2253 159.118H53.7843V160.614H54.2253V159.118Z" fill="#3F3D56"/>
<path d="M54.2253 220.457H53.7843V217.465H54.2253V220.457ZM54.2253 214.472H53.7843V211.48H54.2253V214.472ZM54.2253 208.488H53.7843V205.496H54.2253V208.488ZM54.2253 202.504H53.7843V199.512H54.2253V202.504ZM54.2253 196.52H53.7843V193.528H54.2253V196.52ZM54.2253 190.535H53.7843V187.543H54.2253V190.535ZM54.2253 184.551H53.7843V181.559H54.2253V184.551ZM54.2253 178.567H53.7843V175.575H54.2253V178.567ZM54.2253 172.583H53.7843V169.591H54.2253V172.583ZM54.2253 166.598H53.7843V163.606H54.2253V166.598Z" fill="#3F3D56"/>
<path d="M55.3276 225.194H53.7843V223.449H54.2252V224.695H55.3276V225.194Z" fill="#3F3D56"/>
<path d="M257.319 225.194H254.661V224.696H257.319V225.194ZM252.003 225.194H249.345V224.696H252.003V225.194ZM246.688 225.194H244.03V224.696H246.688V225.194ZM241.372 225.194H238.714V224.696H241.372V225.194ZM236.057 225.194H233.399V224.696H236.057V225.194ZM230.741 225.194H228.083V224.696H230.741V225.194ZM225.425 225.194H222.768V224.696H225.425V225.194ZM220.11 225.194H217.452V224.696H220.11V225.194ZM214.794 225.194H212.136V224.696H214.794V225.194ZM209.479 225.194H206.821V224.696H209.479L209.479 225.194ZM204.163 225.194H201.505V224.696H204.163V225.194ZM198.848 225.194H196.19V224.696H198.848V225.194ZM193.532 225.194H190.874V224.696H193.532V225.194ZM188.216 225.194H185.559V224.696H188.216V225.194ZM182.901 225.194H180.243V224.696H182.901V225.194ZM177.585 225.194H174.928V224.696H177.585V225.194ZM172.27 225.194H169.612V224.696H172.27V225.194ZM166.954 225.194H164.296V224.696H166.954V225.194ZM161.639 225.194H158.981V224.696H161.639V225.194ZM156.323 225.194H153.665V224.696H156.323V225.194ZM151.008 225.194H148.35V224.696H151.008V225.194ZM145.692 225.194H143.034V224.696H145.692V225.194ZM140.376 225.194H137.719V224.696H140.376V225.194ZM135.061 225.194H132.403V224.696H135.061V225.194ZM129.745 225.194H127.088V224.696H129.745V225.194ZM124.43 225.194H121.772V224.696H124.43V225.194ZM119.114 225.194H116.456V224.696H119.114V225.194ZM113.799 225.194H111.141V224.696H113.799V225.194ZM108.483 225.194H105.825V224.696H108.483V225.194ZM103.168 225.194H100.51V224.696H103.168V225.194ZM97.852 225.194H95.1942V224.696H97.852V225.194ZM92.5364 225.194H89.8787V224.696H92.5364V225.194ZM87.2209 225.194H84.5632V224.696H87.2209V225.194ZM81.9053 225.194H79.2476V224.696H81.9053V225.194ZM76.5898 225.194H73.932V224.696H76.5898V225.194ZM71.2742 225.194H68.6165V224.696H71.2742V225.194ZM65.9586 225.194H63.3009V224.696H65.9586V225.194ZM60.6431 225.194H57.9854V224.696H60.6431L60.6431 225.194Z" fill="#3F3D56"/>
<path d="M261.52 225.194H259.977V224.695H261.079V223.449H261.52V225.194Z" fill="#3F3D56"/>
<path d="M261.52 220.457H261.079V217.465H261.52V220.457ZM261.52 214.472H261.079V211.48H261.52V214.472ZM261.52 208.488H261.079V205.496H261.52V208.488ZM261.52 202.504H261.079V199.512H261.52V202.504ZM261.52 196.52H261.079V193.528H261.52V196.52ZM261.52 190.535H261.079V187.543H261.52V190.535ZM261.52 184.551H261.079V181.559H261.52V184.551ZM261.52 178.567H261.079V175.575H261.52V178.567ZM261.52 172.583H261.079V169.591H261.52V172.583ZM261.52 166.598H261.079V163.606H261.52V166.598Z" fill="#3F3D56"/>
<path d="M261.52 159.118H261.079V160.614H261.52V159.118Z" fill="#3F3D56"/>
<path d="M196.701 209.984H121.299V298.751H196.701V209.984Z" fill="#3F3D56"/>
<path d="M140.701 221.579H127.031V232.55H140.701V221.579Z" fill="#BBBBBB"/>
<path d="M190.968 221.579H153.268V222.825H190.968V221.579Z" fill="#BBBBBB"/>
<path d="M190.968 226.566H153.268V227.812H190.968V226.566Z" fill="#BBBBBB"/>
<path d="M190.968 231.552H153.268V232.799H190.968V231.552Z" fill="#BBBBBB"/>
<path d="M140.701 261.1H127.031V272.071H140.701V261.1Z" fill="#BBBBBB"/>
<path d="M190.968 261.1H153.268V262.346H190.968V261.1Z" fill="#BBBBBB"/>
<path d="M190.968 266.087H153.268V267.333H190.968V266.087Z" fill="#BBBBBB"/>
<path d="M190.968 271.073H153.268V272.32H190.968V271.073Z" fill="#BBBBBB"/>
<path d="M133.924 229.839L129.245 222.784L130.354 221.844L134.165 227.591L143.881 218.692L144.758 219.905L133.924 229.839Z" fill="#C82247"/>
<path d="M133.924 268.986L129.245 261.931L130.354 260.991L134.165 266.738L143.881 257.839L144.758 259.052L133.924 268.986Z" fill="#C82247"/>
<path d="M293.268 298.501H20.9843V299H293.268V298.501Z" fill="#3F3D56"/>
<path d="M168.491 161.861C168.491 161.861 175.766 158.275 179.184 162.063C182.601 165.85 170.034 164.604 168.491 161.861Z" fill="#3F3D56"/>
<path d="M181.054 144.857C178.609 140.185 173.772 139.967 173.772 139.967C173.772 139.967 169.058 139.285 166.034 146.401C163.216 153.034 159.326 159.438 165.408 160.99L166.507 157.123L167.187 161.278C168.053 161.349 168.922 161.365 169.789 161.329C176.302 161.091 182.505 161.398 182.306 158.755C182.04 155.241 183.407 149.353 181.054 144.857Z" fill="#2F2E41"/>
<path d="M184.475 229.558C184.475 229.558 181.388 236.041 179.404 236.041C177.42 236.041 177.64 240.28 178.081 241.277C178.522 242.274 179.625 244.518 177.861 247.76C177.245 248.892 177.355 250.176 177.759 251.369C178.892 254.709 183.298 253.697 183.158 250.123C183.156 250.084 183.154 250.044 183.152 250.004C182.932 246.014 184.696 239.781 186.459 238.285C188.223 236.789 189.766 232.799 189.766 232.799L184.475 229.558Z" fill="#FFB8B8"/>
<path d="M163.31 228.062C163.31 228.062 166.396 234.545 168.381 234.545C170.365 234.545 170.144 238.783 169.703 239.781C169.263 240.778 168.16 243.022 169.924 246.264C170.54 247.396 170.43 248.68 170.026 249.872C168.893 253.212 164.486 252.201 164.627 248.627C164.629 248.587 164.63 248.548 164.633 248.508C164.853 244.518 163.089 238.285 161.326 236.789C159.562 235.293 158.018 231.303 158.018 231.303L163.31 228.062Z" fill="#FFB8B8"/>
<path d="M165.735 196.146L164.412 199.387C164.412 199.387 145.011 206.618 146.774 215.096C148.538 223.573 157.137 236.789 158.459 236.29C159.782 235.791 166.837 234.295 167.058 230.056C167.278 225.818 161.987 218.337 161.987 218.337L169.263 210.857L179.85 210.608L188.885 218.337C188.885 218.337 179.404 227.812 183.593 231.552C187.782 235.293 193.955 237.786 194.837 236.29C195.719 234.794 205.64 212.602 204.097 210.608C202.554 208.613 186.9 201.133 186.9 201.133L182.711 194.4L166.396 193.403L165.735 196.146Z" fill="#2F2E41"/>
<path d="M169.703 155.004C169.703 155.004 170.806 163.232 168.601 164.23C166.396 165.227 173.011 169.466 173.011 169.466H176.759L179.184 163.731C179.184 163.731 176.979 159.243 178.302 155.004C179.625 150.765 169.703 155.004 169.703 155.004Z" fill="#FFB8B8"/>
<path opacity="0.1" d="M169.703 155.004C169.703 155.004 170.806 163.232 168.601 164.23C166.396 165.227 173.011 169.466 173.011 169.466H176.759L179.184 163.731C179.184 163.731 176.979 159.243 178.302 155.004C179.625 150.765 169.703 155.004 169.703 155.004Z" fill="black"/>
<path d="M168.16 161.986C168.16 161.986 170.585 164.978 171.026 165.476C171.467 165.975 173.451 168.718 177.64 164.728C181.829 160.739 182.27 165.476 182.27 165.476V195.398C182.27 195.398 178.743 193.652 175.877 195.398C173.011 197.143 167.058 194.899 167.058 194.899L165.955 163.98L168.16 161.986Z" fill="#BBBBBB"/>
<path d="M169.78 161.986C169.78 161.986 167.719 160.988 165.955 161.986C164.192 162.983 158.018 167.97 158.459 170.214C158.9 172.458 164.633 188.167 160.664 195.647C156.696 203.127 156.034 205.122 156.034 205.122L165.735 199.387C165.735 199.387 173.231 194.151 172.57 190.909C171.908 187.668 169.78 161.986 169.78 161.986Z" fill="#C82247"/>
<path d="M178.525 161.986C178.525 161.986 183.152 162.484 183.373 162.983C183.593 163.482 190.318 165.601 189.877 167.845C189.436 170.089 183.373 190.161 186.018 193.902C188.664 197.642 193.074 202.878 191.53 203.377C189.987 203.875 187.341 202.629 184.696 203.377C182.05 204.125 175.877 197.891 176.538 191.159C177.2 184.426 176.543 163.731 178.525 161.986Z" fill="#C82247"/>
<path d="M167.499 209.61V212.104C167.499 212.104 166.396 217.839 169.924 217.589C173.452 217.34 171.247 210.608 171.247 210.608L171.026 208.364L167.499 209.61Z" fill="#FFB8B8"/>
<path d="M177.42 209.86C177.42 209.86 174.995 215.595 177.42 216.093C179.845 216.592 181.609 212.852 181.609 211.854C181.609 210.857 177.42 209.86 177.42 209.86Z" fill="#FFB8B8"/>
<path d="M180.617 152.635C180.86 152.635 181.058 152.189 181.058 151.638C181.058 151.087 180.86 150.64 180.617 150.64C180.373 150.64 180.176 151.087 180.176 151.638C180.176 152.189 180.373 152.635 180.617 152.635Z" fill="#FFB8B8"/>
<path d="M167.609 152.635C167.853 152.635 168.05 152.189 168.05 151.638C168.05 151.087 167.853 150.64 167.609 150.64C167.366 150.64 167.168 151.087 167.168 151.638C167.168 152.189 167.366 152.635 167.609 152.635Z" fill="#FFB8B8"/>
<path d="M184.475 165.227C184.475 165.227 189.987 165.227 189.766 167.72C189.546 170.214 182.27 213.101 182.27 213.101C182.27 213.101 179.184 209.86 176.538 210.608L184.475 165.227Z" fill="#C82247"/>
<path d="M163.089 165.975C163.089 165.975 157.577 167.222 157.577 170.962C157.577 174.702 165.514 210.608 166.617 210.608C167.719 210.608 171.908 209.86 171.908 208.613C171.908 207.366 163.089 165.975 163.089 165.975Z" fill="#C82247"/>
<path opacity="0.2" d="M164.302 173.331L169.263 195.271C169.263 195.271 166.948 176.073 164.302 173.331Z" fill="black"/>
<path opacity="0.2" d="M183.597 170.248L178.58 198.933C178.58 198.933 180.183 171.903 183.597 170.248Z" fill="black"/>
<path d="M174.113 158.993C177.644 158.993 180.507 155.756 180.507 151.762C180.507 147.769 177.644 144.531 174.113 144.531C170.582 144.531 167.719 147.769 167.719 151.762C167.719 155.756 170.582 158.993 174.113 158.993Z" fill="#FFB8B8"/>
<path d="M179.973 144.406L175.194 141.575L168.594 142.733L167.229 149.554L170.628 149.406L171.578 146.9V149.365L173.146 149.296L174.056 145.307L174.625 149.554L180.2 149.425L179.973 144.406Z" fill="#2F2E41"/>
</g>
<defs>
<clipPath id="clip0">
<rect x="19" y="109" width="280" height="190" fill="white"/>
</clipPath>
</defs>
</svg>
