<svg width="320" height="385" viewBox="0 0 320 385" fill="none" xmlns="http://www.w3.org/2000/svg">
<circle cx="160" cy="163" r="160" fill="#C82247"/>
<ellipse cx="203" cy="118.5" rx="115" ry="118.5" fill="white" fill-opacity="0.08"/>
<path d="M268.618 302C283.285 302 295.175 299.549 295.175 296.526C295.175 293.502 283.285 291.051 268.618 291.051C253.952 291.051 242.062 293.502 242.062 296.526C242.062 299.549 253.952 302 268.618 302Z" fill="#DF4A6C"/>
<path d="M268.27 156.563V163.724L272.446 173.063L279.057 162.478V154.384L268.27 156.563Z" fill="#FFB8B8"/>
<path d="M249.655 212.135L248.611 218.985C248.611 218.985 246.176 226.457 249.655 226.457C253.135 226.457 253.135 218.362 253.135 218.362L253.831 213.692L249.655 212.135Z" fill="#FFB8B8"/>
<path d="M291.756 211.201L290.712 218.051C290.712 218.051 288.277 225.523 291.756 225.523C295.235 225.523 295.235 217.428 295.235 217.428L295.931 212.758L291.756 211.201Z" fill="#FFB8B8"/>
<path d="M259.572 204.196L257.934 204.601C257.934 204.601 253.657 229.414 253.309 242.49C252.961 255.566 252.265 288.567 252.265 288.567H263.399L270.706 232.528L274.185 288.567H286.015C286.015 288.567 290.886 215.093 287.755 209.178C284.623 203.262 259.572 204.196 259.572 204.196Z" fill="#2F2E41"/>
<path d="M252.961 287.944L249.829 292.303C249.829 292.303 241.131 298.841 248.785 298.53C256.44 298.218 259.572 295.105 259.572 295.105V296.039L263.747 294.794L263.051 287.944H252.961Z" fill="#2F2E41"/>
<path d="M284.971 287.944L288.103 292.303C288.103 292.303 296.801 298.841 289.146 298.53C281.492 298.218 278.36 295.105 278.36 295.105V296.039L274.185 294.794L274.881 287.944H284.971Z" fill="#2F2E41"/>
<path d="M272.62 158.275C276.847 158.275 280.274 155.208 280.274 151.426C280.274 147.643 276.847 144.576 272.62 144.576C268.392 144.576 264.965 147.643 264.965 151.426C264.965 155.208 268.392 158.275 272.62 158.275Z" fill="#FFB8B8"/>
<path d="M272.098 168.393L268.27 161.381L266.531 164.969L265.835 195.791L281.84 163.723L279.057 160.969L272.098 168.393Z" fill="#575A89"/>
<path d="M293.322 169.95L280.634 162.531C280.634 162.531 279.752 169.639 271.749 169.016C263.747 168.393 267.487 162.994 267.487 162.994L254.7 169.327L259.572 193.611L257.484 207.621C257.484 207.621 276.273 205.753 280.448 208.555C282.886 210.218 285.762 211.29 288.798 211.668L288.103 187.696L293.322 169.95Z" fill="#FFFCFD"/>
<path d="M289.494 171.195L291.901 169.119L293.67 170.261C293.67 170.261 295.409 172.129 296.801 177.733C298.193 183.337 297.497 208.244 297.497 208.244L289.842 207.31L290.19 197.036L287.059 183.337L289.494 171.195Z" fill="#FFFCFD"/>
<path d="M257.136 169.016L255.821 168.772L254.7 169.327C254.7 169.327 251.569 173.063 251.569 176.488C251.569 179.913 248.438 209.178 248.438 209.178L255.396 211.98L260.267 189.875L257.136 169.016Z" fill="#FFFCFD"/>
<path d="M298.541 208.866C298.541 208.866 291.582 205.13 289.146 207.621C286.711 210.112 290.538 212.602 290.538 212.602C290.538 212.602 301.324 216.338 298.541 208.866Z" fill="#575A89"/>
<path d="M256.092 210.734C256.092 210.734 249.133 206.999 246.698 209.489C244.262 211.98 248.09 214.47 248.09 214.47C248.09 214.47 258.876 218.206 256.092 210.734Z" fill="#575A89"/>
<path d="M279.323 146.404C279.323 146.404 281.325 142.979 276.92 142.668C276.92 142.668 272.916 140.489 269.713 142.979C269.713 142.979 266.91 142.357 266.109 144.225C266.109 144.225 265.708 143.291 266.909 142.668C266.909 142.668 264.106 142.045 264.106 145.159C264.106 145.159 262.905 148.272 264.106 151.074C265.308 153.876 265.707 154.187 265.707 154.187C265.707 154.187 263.733 148.313 268.538 148.001C273.343 147.69 278.721 145.003 279.121 148.428C279.522 151.852 280.323 152.786 280.323 152.786C280.323 152.786 283.928 147.805 279.323 146.404Z" fill="#2F2E41"/>
<mask id="path-19-inside-1" fill="white">
<path d="M112.348 275.232H112.301C110.522 275.232 108.721 275.185 106.949 275.091L106.975 274.69C108.739 274.784 110.531 274.831 112.301 274.831H112.349L112.348 275.232ZM117.75 275.086L117.723 274.685C119.506 274.59 121.307 274.444 123.077 274.253L123.131 274.651C121.352 274.844 119.541 274.99 117.752 275.086L117.75 275.086ZM101.567 274.661C99.7858 274.471 97.988 274.229 96.2243 273.943L96.3043 273.548C98.059 273.833 99.8477 274.073 101.62 274.264L101.567 274.661ZM128.473 273.927L128.392 273.532C130.148 273.246 131.916 272.907 133.648 272.525L133.755 272.915C132.016 273.298 130.237 273.639 128.472 273.927L128.473 273.927ZM90.9398 272.935C89.1977 272.553 87.4458 272.118 85.7332 271.642L85.8665 271.259C87.5714 271.733 89.3135 272.165 91.047 272.545L90.9398 272.935ZM138.961 271.617L138.827 271.233C140.528 270.759 142.237 270.231 143.907 269.663L144.066 270.038C142.388 270.609 140.67 271.141 138.961 271.618V271.617ZM80.6143 270.066C78.9366 269.497 77.2543 268.874 75.6141 268.214L75.7982 267.848C77.43 268.505 79.1036 269.124 80.7737 269.69L80.6143 270.066ZM149.05 268.188L148.865 267.822C150.49 267.168 152.113 266.458 153.691 265.715L153.899 266.07C152.314 266.817 150.682 267.53 149.05 268.189V268.188ZM70.7503 266.093C69.1595 265.346 67.575 264.545 66.0402 263.714L66.2723 263.371C67.7994 264.198 69.3759 264.995 70.9587 265.739L70.7503 266.093ZM158.6 263.694L158.368 263.352C159.893 262.525 161.41 261.645 162.876 260.738L163.132 261.068C161.657 261.979 160.131 262.863 158.6 263.694ZM61.5024 261.085C60.0251 260.172 58.5602 259.206 57.1487 258.217L57.427 257.901C58.8313 258.886 60.2888 259.846 61.7589 260.755L61.5024 261.085ZM167.479 258.201L167.201 257.884C168.608 256.896 169.997 255.861 171.328 254.802L171.626 255.102C170.288 256.164 168.892 257.206 167.478 258.199L167.479 258.201ZM52.9967 255.118C51.6533 254.054 50.3291 252.939 49.0608 251.805L49.3778 251.521C50.6398 252.649 51.9574 253.759 53.2938 254.818L52.9967 255.118ZM175.561 251.787L175.244 251.503C176.508 250.373 177.749 249.194 178.932 248.001L179.268 248.267C178.079 249.467 176.832 250.651 175.562 251.787H175.561ZM45.3553 248.285C44.1639 247.084 42.999 245.835 41.8929 244.575L42.2454 244.326C43.3463 245.58 44.507 246.822 45.69 248.018L45.3553 248.285ZM182.729 244.557L182.376 244.308C183.48 243.048 184.554 241.744 185.568 240.434L185.936 240.662C184.918 241.98 183.839 243.291 182.729 244.557ZM38.6849 240.689C37.6637 239.369 36.6749 238.005 35.7469 236.636L36.1297 236.428C37.0534 237.791 38.0371 239.147 39.0524 240.461L38.6849 240.689ZM188.878 236.603L188.495 236.395C189.421 235.027 190.312 233.617 191.143 232.203L191.54 232.39C190.704 233.81 189.81 235.227 188.878 236.603ZM33.0876 232.433C32.2526 231.014 31.4555 229.554 30.7185 228.094L31.127 227.929C31.8605 229.382 32.6534 230.834 33.4843 232.245L33.0876 232.433ZM193.912 228.038L193.502 227.873C194.239 226.41 194.932 224.914 195.564 223.421L195.984 223.564C195.348 225.063 194.651 226.568 193.911 228.037L193.912 228.038ZM28.6479 223.637C28.0098 222.137 27.4152 220.6 26.8808 219.068L27.3087 218.949C27.8407 220.472 28.4322 222.001 29.0669 223.494L28.6479 223.637ZM197.75 218.986L197.321 218.867C197.852 217.341 198.336 215.782 198.762 214.232L199.197 214.328C198.769 215.886 198.282 217.453 197.75 218.986V218.986ZM25.4278 214.412C24.9984 212.855 24.6171 211.265 24.2938 209.685L24.735 209.612C25.0569 211.185 25.4365 212.767 25.8634 214.315L25.4278 214.412ZM200.326 209.6L199.884 209.527C200.203 207.957 200.473 206.357 200.684 204.772L201.129 204.819C200.917 206.413 200.646 208.022 200.326 209.599V209.6ZM23.4821 204.905C23.2667 203.314 23.1025 201.694 22.995 200.091L23.4424 200.067C23.5503 201.662 23.7138 203.273 23.9295 204.857L23.4821 204.905ZM201.614 200.004L201.166 199.981C201.271 198.389 201.325 196.771 201.325 195.173V195.003H201.774V195.173C201.774 196.779 201.72 198.405 201.614 200.004ZM23.2758 195.258H22.8273V195.173C22.8273 193.594 22.8791 191.997 22.9818 190.426L23.4292 190.45C23.3273 192.013 23.2754 193.602 23.2754 195.173L23.2758 195.258ZM201.154 190.195C201.044 188.598 200.879 186.986 200.663 185.405L201.108 185.356C201.325 186.946 201.491 188.565 201.602 190.17L201.154 190.195ZM23.9041 185.659L23.4588 185.611C23.671 184.017 23.94 182.409 24.259 180.83L24.7006 180.902C24.3829 182.472 24.115 184.073 23.9041 185.659ZM199.849 180.65C199.525 179.076 199.143 177.494 198.715 175.949L199.15 175.853C199.581 177.406 199.964 178.997 200.29 180.578L199.849 180.65ZM25.8178 176.195L25.3822 176.1C25.8077 174.544 26.2927 172.974 26.824 171.441L27.2524 171.559C26.7238 173.085 26.2412 174.645 25.8182 176.195H25.8178ZM197.264 171.317C196.731 169.793 196.137 168.264 195.501 166.771L195.918 166.628C196.558 168.127 197.155 169.664 197.693 171.195L197.264 171.317ZM29.0032 167.002L28.5836 166.86C29.2186 165.358 29.9141 163.852 30.651 162.385L31.0602 162.549C30.3267 164.01 29.6347 165.508 29.0032 167.002ZM193.436 162.339C192.701 160.887 191.905 159.436 191.073 158.025L191.469 157.838C192.307 159.256 193.105 160.715 193.844 162.174L193.436 162.339ZM33.4147 158.218L33.0174 158.031C33.8496 156.612 34.7435 155.193 35.6742 153.816L36.0569 154.023C35.1325 155.394 34.2431 156.805 33.4147 158.218ZM188.421 153.846C187.496 152.485 186.511 151.128 185.493 149.815L185.862 149.587C186.885 150.906 187.875 152.269 188.805 153.637L188.421 153.846ZM38.9782 149.98L38.6091 149.752C39.6272 148.433 40.7051 147.122 41.8126 145.855L42.1657 146.103C41.0659 147.363 39.9921 148.667 38.9782 149.98ZM182.298 145.949C181.193 144.693 180.032 143.452 178.848 142.26L179.183 141.994C180.373 143.191 181.54 144.438 182.65 145.701L182.298 145.949ZM45.6086 142.405L45.2728 142.139C46.4614 140.937 47.7084 139.752 48.9738 138.616L49.2915 138.899C48.0302 140.03 46.7912 141.209 45.6086 142.405ZM175.158 138.763C173.891 137.633 172.572 136.525 171.238 135.469L171.535 135.169C172.876 136.23 174.202 137.343 175.474 138.479L175.158 138.763ZM53.2016 135.598L52.9038 135.298C54.2423 134.233 55.6369 133.19 57.0485 132.197L57.3268 132.513C55.9229 133.501 54.5339 134.539 53.2016 135.598ZM167.103 132.391C165.698 131.407 164.239 130.448 162.768 129.541L163.023 129.21C164.501 130.122 165.967 131.086 167.379 132.075L167.103 132.391ZM61.6482 129.655L61.3928 129.325C62.8667 128.411 64.39 127.526 65.9216 126.694L66.1544 127.036C64.6307 127.864 63.1148 128.745 61.6482 129.655V129.655ZM158.248 126.929C156.717 126.102 155.139 125.308 153.559 124.566L153.767 124.211C155.356 124.956 156.942 125.755 158.48 126.586L158.248 126.929ZM70.8268 124.668L70.6181 124.313C72.2029 123.566 73.8337 122.85 75.4652 122.19L75.65 122.556C74.0265 123.213 72.404 123.923 70.8275 124.668H70.8268ZM148.718 122.462C147.086 121.808 145.413 121.189 143.741 120.625L143.9 120.25C145.579 120.817 147.261 121.439 148.902 122.097L148.718 122.462ZM80.6057 120.711L80.446 120.338C82.1237 119.766 83.8415 119.233 85.5516 118.754L85.6856 119.137C83.9827 119.612 82.2737 120.142 80.6046 120.711H80.6057ZM138.646 119.061C136.941 118.589 135.197 118.158 133.464 117.78L133.57 117.39C135.31 117.77 137.064 118.204 138.778 118.678L138.646 119.061ZM90.8622 117.841L90.7543 117.451C92.4961 117.066 94.2734 116.724 96.0364 116.434L96.1175 116.829C94.3635 117.117 92.5953 117.458 90.8636 117.841L90.8622 117.841ZM128.205 116.782C126.452 116.499 124.663 116.26 122.888 116.072L122.941 115.674C124.725 115.863 126.523 116.103 128.285 116.387L128.205 116.782ZM101.432 116.103L101.377 115.704C103.155 115.511 104.965 115.362 106.757 115.265L106.785 115.665C105.001 115.762 103.201 115.909 101.432 116.101V116.103ZM117.532 115.651C115.8 115.561 114.04 115.516 112.301 115.516H112.158V115.114H112.301C114.049 115.114 115.818 115.16 117.558 115.25L117.532 115.651Z"/>
</mask>
<path d="M112.348 275.232H112.301C110.522 275.232 108.721 275.185 106.949 275.091L106.975 274.69C108.739 274.784 110.531 274.831 112.301 274.831H112.349L112.348 275.232ZM117.75 275.086L117.723 274.685C119.506 274.59 121.307 274.444 123.077 274.253L123.131 274.651C121.352 274.844 119.541 274.99 117.752 275.086L117.75 275.086ZM101.567 274.661C99.7858 274.471 97.988 274.229 96.2243 273.943L96.3043 273.548C98.059 273.833 99.8477 274.073 101.62 274.264L101.567 274.661ZM128.473 273.927L128.392 273.532C130.148 273.246 131.916 272.907 133.648 272.525L133.755 272.915C132.016 273.298 130.237 273.639 128.472 273.927L128.473 273.927ZM90.9398 272.935C89.1977 272.553 87.4458 272.118 85.7332 271.642L85.8665 271.259C87.5714 271.733 89.3135 272.165 91.047 272.545L90.9398 272.935ZM138.961 271.617L138.827 271.233C140.528 270.759 142.237 270.231 143.907 269.663L144.066 270.038C142.388 270.609 140.67 271.141 138.961 271.618V271.617ZM80.6143 270.066C78.9366 269.497 77.2543 268.874 75.6141 268.214L75.7982 267.848C77.43 268.505 79.1036 269.124 80.7737 269.69L80.6143 270.066ZM149.05 268.188L148.865 267.822C150.49 267.168 152.113 266.458 153.691 265.715L153.899 266.07C152.314 266.817 150.682 267.53 149.05 268.189V268.188ZM70.7503 266.093C69.1595 265.346 67.575 264.545 66.0402 263.714L66.2723 263.371C67.7994 264.198 69.3759 264.995 70.9587 265.739L70.7503 266.093ZM158.6 263.694L158.368 263.352C159.893 262.525 161.41 261.645 162.876 260.738L163.132 261.068C161.657 261.979 160.131 262.863 158.6 263.694ZM61.5024 261.085C60.0251 260.172 58.5602 259.206 57.1487 258.217L57.427 257.901C58.8313 258.886 60.2888 259.846 61.7589 260.755L61.5024 261.085ZM167.479 258.201L167.201 257.884C168.608 256.896 169.997 255.861 171.328 254.802L171.626 255.102C170.288 256.164 168.892 257.206 167.478 258.199L167.479 258.201ZM52.9967 255.118C51.6533 254.054 50.3291 252.939 49.0608 251.805L49.3778 251.521C50.6398 252.649 51.9574 253.759 53.2938 254.818L52.9967 255.118ZM175.561 251.787L175.244 251.503C176.508 250.373 177.749 249.194 178.932 248.001L179.268 248.267C178.079 249.467 176.832 250.651 175.562 251.787H175.561ZM45.3553 248.285C44.1639 247.084 42.999 245.835 41.8929 244.575L42.2454 244.326C43.3463 245.58 44.507 246.822 45.69 248.018L45.3553 248.285ZM182.729 244.557L182.376 244.308C183.48 243.048 184.554 241.744 185.568 240.434L185.936 240.662C184.918 241.98 183.839 243.291 182.729 244.557ZM38.6849 240.689C37.6637 239.369 36.6749 238.005 35.7469 236.636L36.1297 236.428C37.0534 237.791 38.0371 239.147 39.0524 240.461L38.6849 240.689ZM188.878 236.603L188.495 236.395C189.421 235.027 190.312 233.617 191.143 232.203L191.54 232.39C190.704 233.81 189.81 235.227 188.878 236.603ZM33.0876 232.433C32.2526 231.014 31.4555 229.554 30.7185 228.094L31.127 227.929C31.8605 229.382 32.6534 230.834 33.4843 232.245L33.0876 232.433ZM193.912 228.038L193.502 227.873C194.239 226.41 194.932 224.914 195.564 223.421L195.984 223.564C195.348 225.063 194.651 226.568 193.911 228.037L193.912 228.038ZM28.6479 223.637C28.0098 222.137 27.4152 220.6 26.8808 219.068L27.3087 218.949C27.8407 220.472 28.4322 222.001 29.0669 223.494L28.6479 223.637ZM197.75 218.986L197.321 218.867C197.852 217.341 198.336 215.782 198.762 214.232L199.197 214.328C198.769 215.886 198.282 217.453 197.75 218.986V218.986ZM25.4278 214.412C24.9984 212.855 24.6171 211.265 24.2938 209.685L24.735 209.612C25.0569 211.185 25.4365 212.767 25.8634 214.315L25.4278 214.412ZM200.326 209.6L199.884 209.527C200.203 207.957 200.473 206.357 200.684 204.772L201.129 204.819C200.917 206.413 200.646 208.022 200.326 209.599V209.6ZM23.4821 204.905C23.2667 203.314 23.1025 201.694 22.995 200.091L23.4424 200.067C23.5503 201.662 23.7138 203.273 23.9295 204.857L23.4821 204.905ZM201.614 200.004L201.166 199.981C201.271 198.389 201.325 196.771 201.325 195.173V195.003H201.774V195.173C201.774 196.779 201.72 198.405 201.614 200.004ZM23.2758 195.258H22.8273V195.173C22.8273 193.594 22.8791 191.997 22.9818 190.426L23.4292 190.45C23.3273 192.013 23.2754 193.602 23.2754 195.173L23.2758 195.258ZM201.154 190.195C201.044 188.598 200.879 186.986 200.663 185.405L201.108 185.356C201.325 186.946 201.491 188.565 201.602 190.17L201.154 190.195ZM23.9041 185.659L23.4588 185.611C23.671 184.017 23.94 182.409 24.259 180.83L24.7006 180.902C24.3829 182.472 24.115 184.073 23.9041 185.659ZM199.849 180.65C199.525 179.076 199.143 177.494 198.715 175.949L199.15 175.853C199.581 177.406 199.964 178.997 200.29 180.578L199.849 180.65ZM25.8178 176.195L25.3822 176.1C25.8077 174.544 26.2927 172.974 26.824 171.441L27.2524 171.559C26.7238 173.085 26.2412 174.645 25.8182 176.195H25.8178ZM197.264 171.317C196.731 169.793 196.137 168.264 195.501 166.771L195.918 166.628C196.558 168.127 197.155 169.664 197.693 171.195L197.264 171.317ZM29.0032 167.002L28.5836 166.86C29.2186 165.358 29.9141 163.852 30.651 162.385L31.0602 162.549C30.3267 164.01 29.6347 165.508 29.0032 167.002ZM193.436 162.339C192.701 160.887 191.905 159.436 191.073 158.025L191.469 157.838C192.307 159.256 193.105 160.715 193.844 162.174L193.436 162.339ZM33.4147 158.218L33.0174 158.031C33.8496 156.612 34.7435 155.193 35.6742 153.816L36.0569 154.023C35.1325 155.394 34.2431 156.805 33.4147 158.218ZM188.421 153.846C187.496 152.485 186.511 151.128 185.493 149.815L185.862 149.587C186.885 150.906 187.875 152.269 188.805 153.637L188.421 153.846ZM38.9782 149.98L38.6091 149.752C39.6272 148.433 40.7051 147.122 41.8126 145.855L42.1657 146.103C41.0659 147.363 39.9921 148.667 38.9782 149.98ZM182.298 145.949C181.193 144.693 180.032 143.452 178.848 142.26L179.183 141.994C180.373 143.191 181.54 144.438 182.65 145.701L182.298 145.949ZM45.6086 142.405L45.2728 142.139C46.4614 140.937 47.7084 139.752 48.9738 138.616L49.2915 138.899C48.0302 140.03 46.7912 141.209 45.6086 142.405ZM175.158 138.763C173.891 137.633 172.572 136.525 171.238 135.469L171.535 135.169C172.876 136.23 174.202 137.343 175.474 138.479L175.158 138.763ZM53.2016 135.598L52.9038 135.298C54.2423 134.233 55.6369 133.19 57.0485 132.197L57.3268 132.513C55.9229 133.501 54.5339 134.539 53.2016 135.598ZM167.103 132.391C165.698 131.407 164.239 130.448 162.768 129.541L163.023 129.21C164.501 130.122 165.967 131.086 167.379 132.075L167.103 132.391ZM61.6482 129.655L61.3928 129.325C62.8667 128.411 64.39 127.526 65.9216 126.694L66.1544 127.036C64.6307 127.864 63.1148 128.745 61.6482 129.655V129.655ZM158.248 126.929C156.717 126.102 155.139 125.308 153.559 124.566L153.767 124.211C155.356 124.956 156.942 125.755 158.48 126.586L158.248 126.929ZM70.8268 124.668L70.6181 124.313C72.2029 123.566 73.8337 122.85 75.4652 122.19L75.65 122.556C74.0265 123.213 72.404 123.923 70.8275 124.668H70.8268ZM148.718 122.462C147.086 121.808 145.413 121.189 143.741 120.625L143.9 120.25C145.579 120.817 147.261 121.439 148.902 122.097L148.718 122.462ZM80.6057 120.711L80.446 120.338C82.1237 119.766 83.8415 119.233 85.5516 118.754L85.6856 119.137C83.9827 119.612 82.2737 120.142 80.6046 120.711H80.6057ZM138.646 119.061C136.941 118.589 135.197 118.158 133.464 117.78L133.57 117.39C135.31 117.77 137.064 118.204 138.778 118.678L138.646 119.061ZM90.8622 117.841L90.7543 117.451C92.4961 117.066 94.2734 116.724 96.0364 116.434L96.1175 116.829C94.3635 117.117 92.5953 117.458 90.8636 117.841L90.8622 117.841ZM128.205 116.782C126.452 116.499 124.663 116.26 122.888 116.072L122.941 115.674C124.725 115.863 126.523 116.103 128.285 116.387L128.205 116.782ZM101.432 116.103L101.377 115.704C103.155 115.511 104.965 115.362 106.757 115.265L106.785 115.665C105.001 115.762 103.201 115.909 101.432 116.101V116.103ZM117.532 115.651C115.8 115.561 114.04 115.516 112.301 115.516H112.158V115.114H112.301C114.049 115.114 115.818 115.16 117.558 115.25L117.532 115.651Z" fill="#3F3B56" stroke="#3F3B56" stroke-width="4" mask="url(#path-19-inside-1)"/>
<path d="M202.576 245.951H149.406V281.633H202.576V245.951Z" fill="#FE84A0"/>
<path d="M195.929 255.467H156.052V257.846H195.929V255.467Z" fill="white"/>
<path d="M195.929 262.603H156.052V264.982H195.929V262.603Z" fill="white"/>
<path d="M195.929 269.739H156.052V272.118H195.929V269.739Z" fill="white"/>
<path d="M58.9222 112H21.7836V136.923H58.9222V112Z" fill="#DF4A6C"/>
<path d="M54.2796 118.646H26.4257V120.308H54.2796V118.646Z" fill="white"/>
<path d="M54.2796 123.631H26.4257V125.292H54.2796V123.631Z" fill="white"/>
<path d="M54.2796 128.615H26.4257V130.277H54.2796V128.615Z" fill="white"/>
<path d="M74.706 124.877H37.5674V149.8H74.706V124.877Z" fill="#FCB7C6"/>
<path d="M70.0635 131.523H42.2096V133.185H70.0635V131.523Z" fill="white"/>
<path d="M70.0635 136.508H42.2096V138.17H70.0635V136.508Z" fill="white"/>
<path d="M70.0635 141.492H42.2096V143.154H70.0635V141.492Z" fill="white"/>
<path d="M163.047 229.06H61.7965V161.19H163.047V229.06ZM62.8403 162.124V228.126H162.003V162.124H62.8403Z" fill="#FBABBD"/>
<path d="M112.39 212.503C123.037 212.503 131.669 204.78 131.669 195.253C131.669 185.725 123.037 178.002 112.39 178.002C101.742 178.002 93.111 185.725 93.111 195.253C93.111 204.78 101.742 212.503 112.39 212.503Z" fill="#AA1738"/>
<path d="M120.396 193.804H113.841V187.939C113.841 187.573 113.678 187.222 113.389 186.963C113.1 186.704 112.707 186.559 112.298 186.559C111.889 186.559 111.497 186.704 111.208 186.963C110.918 187.222 110.756 187.573 110.756 187.939V193.804H104.201C103.792 193.804 103.4 193.949 103.11 194.208C102.821 194.467 102.659 194.818 102.659 195.184C102.659 195.55 102.821 195.901 103.11 196.16C103.4 196.419 103.792 196.564 104.201 196.564H110.756V202.429C110.756 202.795 110.918 203.146 111.208 203.405C111.497 203.664 111.889 203.81 112.298 203.81C112.707 203.81 113.1 203.664 113.389 203.405C113.678 203.146 113.841 202.795 113.841 202.429V196.564H120.396C120.805 196.564 121.197 196.419 121.486 196.16C121.775 195.901 121.938 195.55 121.938 195.184C121.938 194.818 121.775 194.467 121.486 194.208C121.197 193.949 120.805 193.804 120.396 193.804Z" fill="white"/>
<path d="M56.1386 239.957H19V264.88H56.1386V239.957Z" fill="#DF4A6C"/>
<path d="M51.496 246.603H23.6421V248.265H51.496V246.603Z" fill="white"/>
<path d="M51.496 251.587H23.6421V253.249H51.496V251.587Z" fill="white"/>
<path d="M51.496 256.572H23.6421V258.234H51.496V256.572Z" fill="white"/>
<path d="M125.266 355H122.922L118.359 347.516V355H116.016V343.625H118.359L122.93 351.125V343.625H125.266V355ZM131.055 355.156C129.815 355.156 128.805 354.776 128.023 354.016C127.247 353.255 126.859 352.242 126.859 350.977V350.758C126.859 349.909 127.023 349.151 127.352 348.484C127.68 347.812 128.143 347.297 128.742 346.938C129.346 346.573 130.034 346.391 130.805 346.391C131.961 346.391 132.87 346.755 133.531 347.484C134.198 348.214 134.531 349.247 134.531 350.586V351.508H129.148C129.221 352.06 129.44 352.503 129.805 352.836C130.174 353.169 130.641 353.336 131.203 353.336C132.073 353.336 132.753 353.021 133.242 352.391L134.352 353.633C134.013 354.112 133.555 354.487 132.977 354.758C132.398 355.023 131.758 355.156 131.055 355.156ZM130.797 348.219C130.349 348.219 129.984 348.37 129.703 348.672C129.427 348.974 129.25 349.406 129.172 349.969H132.312V349.789C132.302 349.289 132.167 348.904 131.906 348.633C131.646 348.357 131.276 348.219 130.797 348.219ZM143.172 351.93L144.281 346.547H146.461L144.305 355H142.414L140.812 349.68L139.211 355H137.328L135.172 346.547H137.352L138.453 351.922L140 346.547H141.633L143.172 351.93ZM158.562 350.07H154.062V353.117H159.344V355H151.719V343.625H159.328V345.523H154.062V348.234H158.562V350.07ZM162.648 346.547L162.719 347.523C163.323 346.768 164.133 346.391 165.148 346.391C166.044 346.391 166.711 346.654 167.148 347.18C167.586 347.706 167.81 348.492 167.82 349.539V355H165.562V349.594C165.562 349.115 165.458 348.768 165.25 348.555C165.042 348.336 164.695 348.227 164.211 348.227C163.576 348.227 163.099 348.497 162.781 349.039V355H160.523V346.547H162.648ZM172.242 344.469V346.547H173.688V348.203H172.242V352.422C172.242 352.734 172.302 352.958 172.422 353.094C172.542 353.229 172.771 353.297 173.109 353.297C173.359 353.297 173.581 353.279 173.773 353.242V354.953C173.331 355.089 172.875 355.156 172.406 355.156C170.823 355.156 170.016 354.357 169.984 352.758V348.203H168.75V346.547H169.984V344.469H172.242ZM179.695 348.664C179.388 348.622 179.117 348.602 178.883 348.602C178.029 348.602 177.469 348.891 177.203 349.469V355H174.945V346.547H177.078L177.141 347.555C177.594 346.779 178.221 346.391 179.023 346.391C179.273 346.391 179.508 346.424 179.727 346.492L179.695 348.664ZM183.172 355H180.906V346.547H183.172V355ZM180.773 344.359C180.773 344.021 180.885 343.742 181.109 343.523C181.339 343.305 181.648 343.195 182.039 343.195C182.424 343.195 182.732 343.305 182.961 343.523C183.19 343.742 183.305 344.021 183.305 344.359C183.305 344.703 183.188 344.984 182.953 345.203C182.724 345.422 182.419 345.531 182.039 345.531C181.659 345.531 181.352 345.422 181.117 345.203C180.888 344.984 180.773 344.703 180.773 344.359ZM188.93 355.156C187.69 355.156 186.68 354.776 185.898 354.016C185.122 353.255 184.734 352.242 184.734 350.977V350.758C184.734 349.909 184.898 349.151 185.227 348.484C185.555 347.812 186.018 347.297 186.617 346.938C187.221 346.573 187.909 346.391 188.68 346.391C189.836 346.391 190.745 346.755 191.406 347.484C192.073 348.214 192.406 349.247 192.406 350.586V351.508H187.023C187.096 352.06 187.315 352.503 187.68 352.836C188.049 353.169 188.516 353.336 189.078 353.336C189.948 353.336 190.628 353.021 191.117 352.391L192.227 353.633C191.888 354.112 191.43 354.487 190.852 354.758C190.273 355.023 189.633 355.156 188.93 355.156ZM188.672 348.219C188.224 348.219 187.859 348.37 187.578 348.672C187.302 348.974 187.125 349.406 187.047 349.969H190.188V349.789C190.177 349.289 190.042 348.904 189.781 348.633C189.521 348.357 189.151 348.219 188.672 348.219ZM198.273 352.664C198.273 352.388 198.135 352.172 197.859 352.016C197.589 351.854 197.151 351.711 196.547 351.586C194.536 351.164 193.531 350.31 193.531 349.023C193.531 348.273 193.841 347.648 194.461 347.148C195.086 346.643 195.901 346.391 196.906 346.391C197.979 346.391 198.836 346.643 199.477 347.148C200.122 347.654 200.445 348.31 200.445 349.117H198.188C198.188 348.794 198.083 348.529 197.875 348.32C197.667 348.107 197.341 348 196.898 348C196.518 348 196.224 348.086 196.016 348.258C195.807 348.43 195.703 348.648 195.703 348.914C195.703 349.164 195.82 349.367 196.055 349.523C196.294 349.674 196.695 349.807 197.258 349.922C197.82 350.031 198.294 350.156 198.68 350.297C199.872 350.734 200.469 351.492 200.469 352.57C200.469 353.341 200.138 353.966 199.477 354.445C198.815 354.919 197.961 355.156 196.914 355.156C196.206 355.156 195.576 355.031 195.023 354.781C194.477 354.526 194.047 354.18 193.734 353.742C193.422 353.299 193.266 352.823 193.266 352.312H195.406C195.427 352.714 195.576 353.021 195.852 353.234C196.128 353.448 196.497 353.555 196.961 353.555C197.393 353.555 197.719 353.474 197.938 353.312C198.161 353.146 198.273 352.93 198.273 352.664Z" fill="black"/>
<path d="M87.8125 378.057H84.1152V381.08H88.4102V382H82.9902V373.469H88.3516V374.395H84.1152V377.137H87.8125V378.057ZM90.666 375.66L90.7012 376.457C91.1855 375.848 91.8184 375.543 92.5996 375.543C93.9395 375.543 94.6152 376.299 94.627 377.811V382H93.543V377.805C93.5391 377.348 93.4336 377.01 93.2266 376.791C93.0234 376.572 92.7051 376.463 92.2715 376.463C91.9199 376.463 91.6113 376.557 91.3457 376.744C91.0801 376.932 90.873 377.178 90.7246 377.482V382H89.6406V375.66H90.666ZM97.7324 374.125V375.66H98.916V376.498H97.7324V380.43C97.7324 380.684 97.7852 380.875 97.8906 381.004C97.9961 381.129 98.1758 381.191 98.4297 381.191C98.5547 381.191 98.7266 381.168 98.9453 381.121V382C98.6602 382.078 98.3828 382.117 98.1133 382.117C97.6289 382.117 97.2637 381.971 97.0176 381.678C96.7715 381.385 96.6484 380.969 96.6484 380.43V376.498H95.4941V375.66H96.6484V374.125H97.7324ZM102.818 382.117C101.959 382.117 101.26 381.836 100.721 381.273C100.182 380.707 99.9121 379.951 99.9121 379.006V378.807C99.9121 378.178 100.031 377.617 100.27 377.125C100.512 376.629 100.848 376.242 101.277 375.965C101.711 375.684 102.18 375.543 102.684 375.543C103.508 375.543 104.148 375.814 104.605 376.357C105.062 376.9 105.291 377.678 105.291 378.689V379.141H100.996C101.012 379.766 101.193 380.271 101.541 380.658C101.893 381.041 102.338 381.232 102.877 381.232C103.26 381.232 103.584 381.154 103.85 380.998C104.115 380.842 104.348 380.635 104.547 380.377L105.209 380.893C104.678 381.709 103.881 382.117 102.818 382.117ZM102.684 376.434C102.246 376.434 101.879 376.594 101.582 376.914C101.285 377.23 101.102 377.676 101.031 378.25H104.207V378.168C104.176 377.617 104.027 377.191 103.762 376.891C103.496 376.586 103.137 376.434 102.684 376.434ZM109.615 376.633C109.451 376.605 109.273 376.592 109.082 376.592C108.371 376.592 107.889 376.895 107.635 377.5V382H106.551V375.66H107.605L107.623 376.393C107.979 375.826 108.482 375.543 109.135 375.543C109.346 375.543 109.506 375.57 109.615 375.625V376.633ZM114.619 375.66L114.654 376.457C115.139 375.848 115.771 375.543 116.553 375.543C117.893 375.543 118.568 376.299 118.58 377.811V382H117.496V377.805C117.492 377.348 117.387 377.01 117.18 376.791C116.977 376.572 116.658 376.463 116.225 376.463C115.873 376.463 115.564 376.557 115.299 376.744C115.033 376.932 114.826 377.178 114.678 377.482V382H113.594V375.66H114.619ZM122.846 382.117C121.986 382.117 121.287 381.836 120.748 381.273C120.209 380.707 119.939 379.951 119.939 379.006V378.807C119.939 378.178 120.059 377.617 120.297 377.125C120.539 376.629 120.875 376.242 121.305 375.965C121.738 375.684 122.207 375.543 122.711 375.543C123.535 375.543 124.176 375.814 124.633 376.357C125.09 376.9 125.318 377.678 125.318 378.689V379.141H121.023C121.039 379.766 121.221 380.271 121.568 380.658C121.92 381.041 122.365 381.232 122.904 381.232C123.287 381.232 123.611 381.154 123.877 380.998C124.143 380.842 124.375 380.635 124.574 380.377L125.236 380.893C124.705 381.709 123.908 382.117 122.846 382.117ZM122.711 376.434C122.273 376.434 121.906 376.594 121.609 376.914C121.312 377.23 121.129 377.676 121.059 378.25H124.234V378.168C124.203 377.617 124.055 377.191 123.789 376.891C123.523 376.586 123.164 376.434 122.711 376.434ZM132.191 380.506L133.41 375.66H134.494L132.648 382H131.77L130.229 377.195L128.729 382H127.85L126.01 375.66H127.088L128.336 380.406L129.812 375.66H130.686L132.191 380.506ZM138.314 378.777C138.314 377.805 138.545 377.023 139.006 376.434C139.467 375.84 140.07 375.543 140.816 375.543C141.559 375.543 142.146 375.797 142.58 376.305V373H143.664V382H142.668L142.615 381.32C142.182 381.852 141.578 382.117 140.805 382.117C140.07 382.117 139.471 381.816 139.006 381.215C138.545 380.613 138.314 379.828 138.314 378.859V378.777ZM139.398 378.9C139.398 379.619 139.547 380.182 139.844 380.588C140.141 380.994 140.551 381.197 141.074 381.197C141.762 381.197 142.264 380.889 142.58 380.271V377.359C142.256 376.762 141.758 376.463 141.086 376.463C140.555 376.463 140.141 376.668 139.844 377.078C139.547 377.488 139.398 378.096 139.398 378.9ZM149.266 382C149.203 381.875 149.152 381.652 149.113 381.332C148.609 381.855 148.008 382.117 147.309 382.117C146.684 382.117 146.17 381.941 145.768 381.59C145.369 381.234 145.17 380.785 145.17 380.242C145.17 379.582 145.42 379.07 145.92 378.707C146.424 378.34 147.131 378.156 148.041 378.156H149.096V377.658C149.096 377.279 148.982 376.979 148.756 376.756C148.529 376.529 148.195 376.416 147.754 376.416C147.367 376.416 147.043 376.514 146.781 376.709C146.52 376.904 146.389 377.141 146.389 377.418H145.299C145.299 377.102 145.41 376.797 145.633 376.504C145.859 376.207 146.164 375.973 146.547 375.801C146.934 375.629 147.357 375.543 147.818 375.543C148.549 375.543 149.121 375.727 149.535 376.094C149.949 376.457 150.164 376.959 150.18 377.6V380.518C150.18 381.1 150.254 381.562 150.402 381.906V382H149.266ZM147.467 381.174C147.807 381.174 148.129 381.086 148.434 380.91C148.738 380.734 148.959 380.506 149.096 380.225V378.924H148.246C146.918 378.924 146.254 379.312 146.254 380.09C146.254 380.43 146.367 380.695 146.594 380.887C146.82 381.078 147.111 381.174 147.467 381.174ZM153.35 374.125V375.66H154.533V376.498H153.35V380.43C153.35 380.684 153.402 380.875 153.508 381.004C153.613 381.129 153.793 381.191 154.047 381.191C154.172 381.191 154.344 381.168 154.562 381.121V382C154.277 382.078 154 382.117 153.73 382.117C153.246 382.117 152.881 381.971 152.635 381.678C152.389 381.385 152.266 380.969 152.266 380.43V376.498H151.111V375.66H152.266V374.125H153.35ZM159.719 382C159.656 381.875 159.605 381.652 159.566 381.332C159.062 381.855 158.461 382.117 157.762 382.117C157.137 382.117 156.623 381.941 156.221 381.59C155.822 381.234 155.623 380.785 155.623 380.242C155.623 379.582 155.873 379.07 156.373 378.707C156.877 378.34 157.584 378.156 158.494 378.156H159.549V377.658C159.549 377.279 159.436 376.979 159.209 376.756C158.982 376.529 158.648 376.416 158.207 376.416C157.82 376.416 157.496 376.514 157.234 376.709C156.973 376.904 156.842 377.141 156.842 377.418H155.752C155.752 377.102 155.863 376.797 156.086 376.504C156.312 376.207 156.617 375.973 157 375.801C157.387 375.629 157.811 375.543 158.271 375.543C159.002 375.543 159.574 375.727 159.988 376.094C160.402 376.457 160.617 376.959 160.633 377.6V380.518C160.633 381.1 160.707 381.562 160.855 381.906V382H159.719ZM157.92 381.174C158.26 381.174 158.582 381.086 158.887 380.91C159.191 380.734 159.412 380.506 159.549 380.225V378.924H158.699C157.371 378.924 156.707 379.312 156.707 380.09C156.707 380.43 156.82 380.695 157.047 380.887C157.273 381.078 157.564 381.174 157.92 381.174ZM166.328 375.66L166.357 376.363C166.822 375.816 167.449 375.543 168.238 375.543C169.125 375.543 169.729 375.883 170.049 376.562C170.26 376.258 170.533 376.012 170.869 375.824C171.209 375.637 171.609 375.543 172.07 375.543C173.461 375.543 174.168 376.279 174.191 377.752V382H173.107V377.816C173.107 377.363 173.004 377.025 172.797 376.803C172.59 376.576 172.242 376.463 171.754 376.463C171.352 376.463 171.018 376.584 170.752 376.826C170.486 377.064 170.332 377.387 170.289 377.793V382H169.199V377.846C169.199 376.924 168.748 376.463 167.846 376.463C167.135 376.463 166.648 376.766 166.387 377.371V382H165.303V375.66H166.328ZM175.545 378.771C175.545 378.15 175.666 377.592 175.908 377.096C176.154 376.6 176.494 376.217 176.928 375.947C177.365 375.678 177.863 375.543 178.422 375.543C179.285 375.543 179.982 375.842 180.514 376.439C181.049 377.037 181.316 377.832 181.316 378.824V378.9C181.316 379.518 181.197 380.072 180.959 380.564C180.725 381.053 180.387 381.434 179.945 381.707C179.508 381.98 179.004 382.117 178.434 382.117C177.574 382.117 176.877 381.818 176.342 381.221C175.811 380.623 175.545 379.832 175.545 378.848V378.771ZM176.635 378.9C176.635 379.604 176.797 380.168 177.121 380.594C177.449 381.02 177.887 381.232 178.434 381.232C178.984 381.232 179.422 381.018 179.746 380.588C180.07 380.154 180.232 379.549 180.232 378.771C180.232 378.076 180.066 377.514 179.734 377.084C179.406 376.65 178.969 376.434 178.422 376.434C177.887 376.434 177.455 376.646 177.127 377.072C176.799 377.498 176.635 378.107 176.635 378.9ZM185.74 376.633C185.576 376.605 185.398 376.592 185.207 376.592C184.496 376.592 184.014 376.895 183.76 377.5V382H182.676V375.66H183.73L183.748 376.393C184.104 375.826 184.607 375.543 185.26 375.543C185.471 375.543 185.631 375.57 185.74 375.625V376.633ZM189.256 382.117C188.396 382.117 187.697 381.836 187.158 381.273C186.619 380.707 186.35 379.951 186.35 379.006V378.807C186.35 378.178 186.469 377.617 186.707 377.125C186.949 376.629 187.285 376.242 187.715 375.965C188.148 375.684 188.617 375.543 189.121 375.543C189.945 375.543 190.586 375.814 191.043 376.357C191.5 376.9 191.729 377.678 191.729 378.689V379.141H187.434C187.449 379.766 187.631 380.271 187.979 380.658C188.33 381.041 188.775 381.232 189.314 381.232C189.697 381.232 190.021 381.154 190.287 380.998C190.553 380.842 190.785 380.635 190.984 380.377L191.646 380.893C191.115 381.709 190.318 382.117 189.256 382.117ZM189.121 376.434C188.684 376.434 188.316 376.594 188.02 376.914C187.723 377.23 187.539 377.676 187.469 378.25H190.645V378.168C190.613 377.617 190.465 377.191 190.199 376.891C189.934 376.586 189.574 376.434 189.121 376.434ZM199.926 373.92C199.441 373.842 199.051 373.803 198.754 373.803C197.973 373.803 197.582 374.213 197.582 375.033V375.66H198.936V376.498H197.582V382H196.498V376.498H195.496V375.66H196.498V374.969C196.502 374.293 196.691 373.775 197.066 373.416C197.441 373.057 197.975 372.877 198.666 372.877C199.061 372.877 199.842 372.996 201.01 373.234V382H199.926V373.92ZM205.416 382.117C204.557 382.117 203.857 381.836 203.318 381.273C202.779 380.707 202.51 379.951 202.51 379.006V378.807C202.51 378.178 202.629 377.617 202.867 377.125C203.109 376.629 203.445 376.242 203.875 375.965C204.309 375.684 204.777 375.543 205.281 375.543C206.105 375.543 206.746 375.814 207.203 376.357C207.66 376.9 207.889 377.678 207.889 378.689V379.141H203.594C203.609 379.766 203.791 380.271 204.139 380.658C204.49 381.041 204.936 381.232 205.475 381.232C205.857 381.232 206.182 381.154 206.447 380.998C206.713 380.842 206.945 380.635 207.145 380.377L207.807 380.893C207.275 381.709 206.479 382.117 205.416 382.117ZM205.281 376.434C204.844 376.434 204.477 376.594 204.18 376.914C203.883 377.23 203.699 377.676 203.629 378.25H206.805V378.168C206.773 377.617 206.625 377.191 206.359 376.891C206.094 376.586 205.734 376.434 205.281 376.434ZM211.275 377.975L212.682 375.66H213.947L211.873 378.795L214.012 382H212.758L211.293 379.627L209.828 382H208.568L210.707 378.795L208.633 375.66H209.887L211.275 377.975ZM216.279 382H215.195V375.66H216.279V382ZM215.107 373.979C215.107 373.803 215.16 373.654 215.266 373.533C215.375 373.412 215.535 373.352 215.746 373.352C215.957 373.352 216.117 373.412 216.227 373.533C216.336 373.654 216.391 373.803 216.391 373.979C216.391 374.154 216.336 374.301 216.227 374.418C216.117 374.535 215.957 374.594 215.746 374.594C215.535 374.594 215.375 374.535 215.266 374.418C215.16 374.301 215.107 374.154 215.107 373.979ZM223.387 378.9C223.387 379.869 223.164 380.648 222.719 381.238C222.273 381.824 221.676 382.117 220.926 382.117C220.125 382.117 219.506 381.834 219.068 381.268L219.016 382H218.02V373H219.104V376.357C219.541 375.814 220.145 375.543 220.914 375.543C221.684 375.543 222.287 375.834 222.725 376.416C223.166 376.998 223.387 377.795 223.387 378.807V378.9ZM222.303 378.777C222.303 378.039 222.16 377.469 221.875 377.066C221.59 376.664 221.18 376.463 220.645 376.463C219.93 376.463 219.416 376.795 219.104 377.459V380.201C219.436 380.865 219.953 381.197 220.656 381.197C221.176 381.197 221.58 380.996 221.869 380.594C222.158 380.191 222.303 379.586 222.303 378.777ZM225.936 382H224.852V373H225.936V382ZM229.75 380.412L231.227 375.66H232.387L229.838 382.979C229.443 384.033 228.816 384.561 227.957 384.561L227.752 384.543L227.348 384.467V383.588L227.641 383.611C228.008 383.611 228.293 383.537 228.496 383.389C228.703 383.24 228.873 382.969 229.006 382.574L229.246 381.93L226.984 375.66H228.168L229.75 380.412ZM232.75 381.432C232.75 381.244 232.805 381.088 232.914 380.963C233.027 380.838 233.195 380.775 233.418 380.775C233.641 380.775 233.809 380.838 233.922 380.963C234.039 381.088 234.098 381.244 234.098 381.432C234.098 381.611 234.039 381.762 233.922 381.883C233.809 382.004 233.641 382.064 233.418 382.064C233.195 382.064 233.027 382.004 232.914 381.883C232.805 381.762 232.75 381.611 232.75 381.432Z" fill="#444444"/>
</svg>
